<svg fill="none" height="512" viewBox="0 0 512 512" width="512" xmlns="http://www.w3.org/2000/svg"><g clip-rule="evenodd" fill="rgb(0,0,0)" fill-rule="evenodd"><path d="m296.333 388h-80.666c-22.609 0-41.38 16.429-45.026 38h170.718c-3.646-21.571-22.417-38-45.026-38zm-80.666-21c-36.819 0-66.667 29.848-66.667 66.667 0 7.363 5.97 13.333 13.333 13.333h187.334c7.363 0 13.333-5.97 13.333-13.333 0-36.819-29.848-66.667-66.667-66.667z"/><path d="m208.117 259.653c-5.162 2.642-7.205 8.969-4.563 14.131 11.488 22.443 12.778 40.287 9.136 55.382-3.731 15.466-12.923 29.271-24.671 43.01-3.768 4.408-3.25 11.036 1.158 14.804 4.407 3.769 11.035 3.251 14.804-1.157 12.51-14.632 24.235-31.47 29.124-51.732 4.978-20.634 2.59-43.604-10.857-69.875-2.643-5.162-8.969-7.205-14.131-4.563z"/><path d="m303.883 259.653c5.162 2.642 7.205 8.969 4.563 14.131-11.488 22.443-12.778 40.287-9.136 55.382 3.731 15.466 12.923 29.271 24.671 43.01 3.768 4.408 3.25 11.036-1.158 14.804-4.407 3.769-11.035 3.251-14.804-1.157-12.51-14.632-24.235-31.47-29.124-51.732-4.978-20.634-2.59-43.604 10.857-69.875 2.643-5.162 8.969-7.205 14.131-4.563z"/><path d="m236.849 66.5064c12.361-7.0727 28.193-6.8391 40.383.0237 11.88 6.6876 30.194 13.7289 53.938 15.7407 15.901 1.3473 30.33 14.1131 30.33 31.6772v82.521c0 15.282-8.546 48.79-41.472 70.425-19.569 12.858-35.391 23.352-45.774 30.272-10.405 6.934-24 6.859-34.319-.256l-55.633-38.354-.053-.037c-12.789-9.054-34.501-36.275-32.637-78.627v-65.206c0-17.9266 14.962-30.8807 30.982-32.3365 16.518-1.501 36.974-5.9557 54.255-15.8431zm30.081 18.3232c-5.97-3.3612-13.924-3.3732-19.652-.0958-20.799 11.9001-44.505 16.8682-62.783 18.5292-7.085.644-11.883 6.15-11.883 11.423v65.684l-.011.242c-1.599 34.681 16.233 55.389 23.734 60.733l55.519 38.276c3.217 2.218 7.477 2.254 10.753.07 10.421-6.944 26.281-17.464 45.889-30.347 25.854-16.989 32.004-43.15 32.004-52.875v-82.521c0-5.084-4.436-10.187-11.103-10.752-26.934-2.282-48.138-10.3001-62.467-18.3664z"/><path d="m215 126.729c0-5.237 4.246-9.483 9.484-9.483h64.661c5.238 0 9.484 4.246 9.484 9.483 0 5.238-4.246 9.484-9.484 9.484h-64.661c-5.238 0-9.484-4.246-9.484-9.484z"/><path d="m215 156.977c0-5.238 4.246-9.484 9.484-9.484h65.032c5.238 0 9.484 4.246 9.484 9.484 0 5.237-4.246 9.483-9.484 9.483h-65.032c-5.238 0-9.484-4.246-9.484-9.483z"/><path d="m262.219 154.597c-2.578-9.941-15.333-20.123-29.633-18.448-5.202.609-9.914-3.115-10.523-8.317s3.115-9.913 8.317-10.522c23.482-2.75 45.186 13.196 50.199 32.525 2.676 10.319.514 21.524-8.276 30.452-6.245 6.342-15.331 11.04-27.189 13.924 6.468 6.051 13.615 12.343 19.952 17.784 4.794 4.117 9.067 7.697 12.139 10.247 1.536 1.274 2.771 2.29 3.619 2.985.423.347.751.615.971.794l.326.265c4.067 3.301 4.69 9.273 1.39 13.341-3.3 4.067-9.273 4.689-13.34 1.389l5.188-6.394c-5.188 6.394-5.189 6.394-5.189 6.394l-.002-.002-.359-.292c-.232-.189-.572-.467-1.009-.825-.875-.717-2.139-1.757-3.707-3.058-3.135-2.601-7.491-6.252-12.384-10.453-9.722-8.348-21.796-19.071-30.572-28.093-7.801-8.021-1.499-19.538 7.472-20.586 16.315-1.906 25.001-6.486 29.178-10.728 3.792-3.851 4.551-8.066 3.432-12.382z"/></g></svg>