<svg id="Layer_1" enable-background="new 0 0 512 512" viewBox="0 0 512 512" xmlns="http://www.w3.org/2000/svg"><path d="m141.183 111.075c.816 6.72-1 12.869-5.251 17.784-4.285 4.954-11.019 8.445-18.74 9.87v3.365c0 4.418-3.582 8-8 8s-8-3.582-8-8v-3.498c-11.966-2.551-21.128-10.694-23.944-21.989-1.069-4.287 1.54-8.629 5.827-9.698 4.287-1.068 8.629 1.541 9.697 5.827 2.032 8.152 10.526 10.852 17.213 10.698 5.792-.138 11.355-2.164 13.845-5.042 1.288-1.489 1.741-3.15 1.469-5.389-.469-3.867-2.864-8.611-17.334-10.985-22.679-3.725-27.979-15.632-28.432-24.966-.619-12.744 8.064-23.423 21.658-26.722v-3.636c0-4.418 3.582-8 8-8s8 3.582 8 8v3.563c8.815 2.036 17.177 7.684 21.568 18.141 1.71 4.073-.205 8.763-4.279 10.473-4.075 1.712-8.763-.205-10.473-4.279-3.453-8.222-11.911-10.331-18.76-8.779-1.691.384-10.11 2.691-9.732 10.464.1 2.062.366 7.542 15.042 9.952 18.692 3.068 28.996 11.427 30.626 24.846zm321.893 210.359c9.147 15.274 4.677 37.066-9.38 45.721l-151.292 93.159c-10.388 6.396-21.751 9.634-33.515 9.634-5.817 0-11.732-.792-17.676-2.385l-106.535-28.546-13.405 7.74 6.796 12.009c2.661 4.7 3.328 10.169 1.879 15.397s-4.836 9.572-9.537 12.232l-23.391 13.238c-3.146 1.781-6.571 2.626-9.952 2.626-7.074 0-13.953-3.701-17.679-10.284l-68.768-121.509c-5.506-9.73-2.07-22.125 7.659-27.631l23.391-13.237c4.701-2.661 10.169-3.327 15.397-1.88 5.229 1.449 9.573 4.836 12.233 9.537l5.548 9.803 61.497-35.605c16.174-9.366 35.616-17.994 57.185-10.997 5.312 1.723 11.552 3.979 18.159 6.367 18.98 6.861 42.601 15.401 66.511 19.713.354.064.704.152 1.047.263 16.636 5.393 26.264 22.32 21.919 38.536-.763 2.847-1.82 5.462-3.142 7.827 3.88-1.034 7.622-2.617 11.307-4.764l83.368-48.557c47.758-27.812 65.942-5.812 70.376 1.593zm-338.931 145.212-68.769-121.51c-.75-1.324-1.939-1.821-2.582-1.999-.285-.079-.694-.159-1.177-.159-.606 0-1.329.127-2.066.544l-23.391 13.237c-2.016 1.142-2.755 3.81-1.614 5.826l68.769 121.509c1.141 2.018 3.81 2.754 5.825 1.615l23.391-13.238c1.325-.75 1.821-1.94 2-2.583.177-.642.364-1.917-.386-3.242zm325.205-136.991c-6.754-11.279-24.922-9.777-48.597 4.013l-83.368 48.557c-12.919 7.523-26.804 9.963-42.454 7.46l-10.368-1.686c-.056-.009-.266-.048-.318-.059-12.965-2.65-24.995-6.086-37.731-9.724-5.795-1.655-11.789-3.366-17.89-5.001-4.268-1.144-6.8-5.53-5.657-9.798 1.144-4.268 5.534-6.798 9.798-5.657 6.229 1.669 12.285 3.398 18.143 5.071 12.318 3.519 23.96 6.84 36.199 9.359 6.997.802 15.791-.493 18.606-10.997 2.136-7.974-2.551-16.066-10.934-19.019-25.031-4.581-49.132-13.294-68.528-20.306-6.759-2.444-12.596-4.555-17.655-6.195-15.554-5.043-30.449 1.645-44.232 9.624l-61.634 35.686 40.663 71.849 16.155-9.328c1.838-1.062 4.022-1.349 6.07-.8l109.737 29.403c13.804 3.701 26.81 1.877 38.66-5.419l151.292-93.159c6.638-4.086 8.678-16.134 4.043-23.874zm-402.781 29.755c-4.564.667-7.722 4.907-7.055 9.471s4.908 7.723 9.471 7.056c4.564-.667 7.723-4.908 7.055-9.472-.666-4.564-4.907-7.723-9.471-7.055zm457.431-150.427c0 45.975-37.403 83.378-83.378 83.378-22.665 0-43.234-9.102-58.278-23.827-22.926 15.07-49.866 23.12-77.382 23.12-3.402 0-6.811-.123-10.223-.37-33.726-2.443-65.484-16.974-89.424-40.913-22.688-22.688-36-51.25-39.956-80.834-11.213 5.411-23.507 8.237-36.168 8.237-45.975 0-83.378-37.403-83.378-83.378 0-45.976 37.403-83.379 83.378-83.379 30.642 0 58.576 16.914 73.062 43.182 1.003-1.067 2.019-2.126 3.062-3.168 54.958-54.956 144.381-54.956 199.339 0 20.583 20.583 33.991 46.273 39.055 74.654 44.548 1.631 80.291 38.359 80.291 83.298zm-359.888-56.965c-.274-29.629 8.704-59.326 26.947-84.331-10.582-24.489-34.926-40.671-61.867-40.671-37.152 0-67.378 30.226-67.378 67.379 0 37.152 30.226 67.378 67.378 67.378 12.426 0 24.411-3.367 34.92-9.755zm207.849 104.195c-9.271-13.437-14.718-29.706-14.718-47.229 0-5.479.546-10.83 1.56-16.017h-11.552v37.062c0 4.418-3.582 8-8 8h-68.533c-4.418 0-8-3.582-8-8v-37.062h-37.061c-4.418 0-8-3.582-8-8v-68.533c0-4.418 3.582-8 8-8h37.061v-37.061c0-4.418 3.582-8 8-8h68.533c4.418 0 8 3.582 8 8v37.061h37.062c4.418 0 8 3.582 8 8v24.658c10.282-7.337 22.28-12.412 35.279-14.461-4.738-24.404-16.463-46.498-34.251-64.286-23.601-23.602-54.979-36.599-88.356-36.599s-64.756 12.997-88.356 36.599c-48.72 48.72-48.72 127.992 0 176.712 41.26 41.26 106.677 48.033 155.332 17.156zm4.351-100.241v-31.538h-37.062c-4.418 0-8-3.582-8-8v-37.061h-52.533v37.061c0 4.418-3.582 8-8 8h-37.061v52.533h37.061c4.418 0 8 3.582 8 8v37.062h52.533v-37.062c0-4.418 3.582-8 8-8h24.395c3.188-7.636 7.472-14.704 12.667-20.995zm131.688 53.011c0-37.152-30.226-67.378-67.378-67.378-37.153 0-67.378 30.226-67.378 67.378s30.226 67.378 67.378 67.378 67.378-30.225 67.378-67.378zm-66.013-8.166c-14.676-2.41-14.942-7.89-15.042-9.952-.378-7.772 8.041-10.079 9.732-10.463 6.85-1.559 15.308.559 18.761 8.779 1.71 4.074 6.397 5.991 10.473 4.279 4.074-1.71 5.989-6.399 4.279-10.473-4.391-10.458-12.752-16.104-21.568-18.141v-3.563c0-4.418-3.582-8-8-8s-8 3.582-8 8v3.636c-13.594 3.298-22.277 13.977-21.658 26.721.453 9.333 5.753 21.241 28.431 24.966 14.471 2.376 16.866 7.119 17.335 10.986.272 2.238-.181 3.899-1.469 5.388-2.489 2.878-8.053 4.904-13.845 5.042-6.69.164-15.181-2.547-17.213-10.698-1.068-4.286-5.411-6.889-9.697-5.827-4.287 1.069-6.896 5.411-5.827 9.698 2.816 11.295 11.978 19.438 23.944 21.989v3.498c0 4.418 3.582 8 8 8s8-3.582 8-8v-3.365c7.722-1.425 14.455-4.916 18.74-9.87 4.25-4.914 6.066-11.063 5.25-17.782-1.629-13.418-11.933-21.778-30.626-24.848z"/></svg>