<?xml version="1.0" encoding="UTF-8"?>
<svg xmlns="http://www.w3.org/2000/svg" viewBox="0 0 64 64" width="512" height="512"><g id="phone_call-speech_bubble-message-communication-hand" data-name="phone call-speech bubble-message-communication-hand"><path d="M59,17H49a3.009,3.009,0,0,0-3,3v7a4,4,0,0,1-3,3.86V29.5a3.493,3.493,0,0,0-6-2.44,3.478,3.478,0,0,0-5,0,3.478,3.478,0,0,0-5,0,3.493,3.493,0,0,0-6,2.44v1.37A4,4,0,0,1,18,27V20a3.009,3.009,0,0,0-3-3H5a3.009,3.009,0,0,0-3,3v4A17.037,17.037,0,0,0,14,40.25v2.43a5.02,5.02,0,0,0,2.52,4.34l2.97,1.7A3,3,0,0,1,21,51.32V52H20a1,1,0,0,0-1,1v8a1,1,0,0,0,1,1H42a1,1,0,0,0,1-1V53a1,1,0,0,0-1-1H41V49.94a3,3,0,0,1,.32-1.34l1.15-2.31A4.945,4.945,0,0,0,43,44.06V41h2A17.024,17.024,0,0,0,62,24V20A3.009,3.009,0,0,0,59,17ZM4,20a1,1,0,0,1,1-1H15a1,1,0,0,1,1,1v3H4Zm.03,5H16v2a6.017,6.017,0,0,0,5,5.92V38a1,1,0,0,1-1,1H19A15.026,15.026,0,0,1,4.03,25ZM41,60H21V54H41Zm0-15.94a3,3,0,0,1-.32,1.34l-1.15,2.31A4.945,4.945,0,0,0,39,49.94V52H23v-.68a5.02,5.02,0,0,0-2.52-4.34l-2.97-1.7A3,3,0,0,1,16,42.68V40.72A17.432,17.432,0,0,0,19,41h1a3.009,3.009,0,0,0,3-3V29.5a1.5,1.5,0,0,1,3,0V34a1,1,0,0,0,2,0V29.5a1.5,1.5,0,0,1,3,0V34a1,1,0,0,0,2,0V29.5a1.5,1.5,0,0,1,3,0V34a1,1,0,0,0,2,0V29.5a1.5,1.5,0,0,1,3,0ZM45,39H43V32.91A6.007,6.007,0,0,0,48,27V25H59.97A15.026,15.026,0,0,1,45,39ZM60,23H48V20a1,1,0,0,1,1-1H59a1,1,0,0,1,1,1Z"/><path d="M42,2H22a3.009,3.009,0,0,0-3,3V17a3.009,3.009,0,0,0,3,3h6.5l2.7,3.6a1,1,0,0,0,1.6,0L35.5,20H42a3.009,3.009,0,0,0,3-3V5A3.009,3.009,0,0,0,42,2Zm1,15a1,1,0,0,1-1,1H35a1.014,1.014,0,0,0-.8.4L32,21.33,29.8,18.4A1.014,1.014,0,0,0,29,18H22a1,1,0,0,1-1-1V5a1,1,0,0,1,1-1H42a1,1,0,0,1,1,1Z"/><path d="M3.586,8.067a10.985,10.985,0,0,1,12.828,0,1,1,0,1,0,1.172-1.621,12.987,12.987,0,0,0-15.172,0A1,1,0,1,0,3.586,8.067Z"/><path d="M15,11.767a1,1,0,0,0,.628-1.78,8.961,8.961,0,0,0-11.254,0,1,1,0,0,0,1.254,1.559,6.958,6.958,0,0,1,8.746,0A1,1,0,0,0,15,11.767Z"/><path d="M6.7,13.247a1,1,0,0,0,1.317,1.506,3.078,3.078,0,0,1,3.976,0,1,1,0,0,0,1.317-1.506A5.132,5.132,0,0,0,6.7,13.247Z"/><path d="M54,15a12.878,12.878,0,0,0,7.586-2.446,1,1,0,1,0-1.172-1.621,10.985,10.985,0,0,1-12.828,0,1,1,0,1,0-1.172,1.621A12.878,12.878,0,0,0,54,15Z"/><path d="M54,11a9.012,9.012,0,0,0,5.627-1.987,1,1,0,0,0-1.254-1.559,6.958,6.958,0,0,1-8.746,0,1,1,0,0,0-1.254,1.559A9.012,9.012,0,0,0,54,11Z"/><path d="M54,7a5.029,5.029,0,0,0,3.305-1.247,1,1,0,0,0-1.317-1.506,3.078,3.078,0,0,1-3.976,0A1,1,0,0,0,50.7,5.753,5.029,5.029,0,0,0,54,7Z"/><path d="M24,8h2a1,1,0,0,0,0-2H24a1,1,0,0,0,0,2Z"/><path d="M30,8H40a1,1,0,0,0,0-2H30a1,1,0,0,0,0,2Z"/><path d="M24,12h2a1,1,0,0,0,0-2H24a1,1,0,0,0,0,2Z"/><path d="M30,12H40a1,1,0,0,0,0-2H30a1,1,0,0,0,0,2Z"/><path d="M24,16h2a1,1,0,0,0,0-2H24a1,1,0,0,0,0,2Z"/><path d="M30,16H40a1,1,0,0,0,0-2H30a1,1,0,0,0,0,2Z"/></g></svg>
