<svg id="Layer_1" enable-background="new 0 0 512 512" height="512" viewBox="0 0 512 512" width="512" xmlns="http://www.w3.org/2000/svg"><path d="m456.701 445.388-32.279-32.279c31.922-34.239 52.83-77.744 59.527-123.907 15.9-2.689 28.051-16.549 28.051-33.202 0-16.639-12.151-30.487-28.051-33.173-6.696-46.172-27.605-89.684-59.53-123.932l32.266-32.266c5.217 3.182 11.218 4.887 17.481 4.887 8.991 0 17.448-3.505 23.812-9.869 6.352-6.351 9.849-14.802 9.849-23.798s-3.497-17.448-9.848-23.798c-.001 0 0 0-.001 0-6.363-6.363-14.82-9.869-23.812-9.869s-17.448 3.505-23.813 9.869c-11.173 11.173-12.825 28.309-4.972 41.254l-32.274 32.274c-34.249-31.928-77.763-52.835-123.933-59.525-2.685-15.901-16.534-28.054-33.174-28.054-16.639 0-30.488 12.151-33.174 28.051-46.172 6.697-89.684 27.605-123.931 59.53l-32.281-32.282c7.844-12.954 6.193-30.089-4.967-41.249-6.364-6.364-14.821-9.869-23.812-9.869s-17.449 3.505-23.813 9.869c-.001.001 0 0-.001 0-13.103 13.104-13.107 34.453 0 47.596 6.364 6.364 14.821 9.869 23.812 9.869 6.261 0 12.261-1.704 17.48-4.888l32.267 32.266c-31.928 34.247-52.836 77.758-59.528 123.927-15.898 2.677-28.052 16.532-28.052 33.18 0 16.664 12.156 30.531 28.058 33.207 6.696 46.158 27.602 89.658 59.523 123.898l-32.283 32.282c-12.95-7.835-30.094-6.186-41.285 4.973-13.09 13.125-13.09 34.483 0 47.609l.017.016c6.561 6.542 15.177 9.814 23.798 9.814 8.625 0 17.254-3.276 23.827-9.83 11.141-11.174 12.791-28.308 4.955-41.266l32.285-32.285c34.239 31.917 77.739 52.823 123.898 59.525 2.677 15.901 16.544 28.057 33.207 28.057 16.647 0 30.502-12.153 33.178-28.051 46.173-6.698 89.687-27.604 123.931-59.525l32.271 32.271c-7.861 12.954-6.207 30.103 4.981 41.292 6.567 6.549 15.185 9.822 23.801 9.822 8.618 0 17.235-3.277 23.787-9.83 6.365-6.364 9.87-14.821 9.87-23.813s-3.505-17.448-9.869-23.812c-11.158-11.159-28.29-12.812-41.249-4.966zm-406.367-395.055c-3.343 3.343-7.782 5.183-12.5 5.183s-9.156-1.84-12.49-5.175c-6.88-6.898-6.883-18.103-.009-24.977h.001c3.342-3.342 7.78-5.183 12.498-5.183s9.157 1.84 12.499 5.183c6.874 6.875 6.871 18.079.001 24.969zm.008 436.323c-6.896 6.873-18.109 6.878-25.007.008-6.869-6.896-6.866-18.111-.007-24.989 6.893-6.877 18.114-6.877 24.997-.016 6.877 6.896 6.877 18.117.017 24.997zm445.658-230.656c0 9.75-7.932 17.682-17.682 17.682-9.734 0-17.653-7.932-17.653-17.682 0-9.734 7.919-17.653 17.653-17.653 9.75 0 17.682 7.919 17.682 17.653zm-34.334-230.636c3.343-3.342 7.782-5.183 12.5-5.183s9.156 1.84 12.498 5.183h.001c3.328 3.329 5.161 7.763 5.161 12.485s-1.833 9.156-5.162 12.484c-3.342 3.342-7.78 5.183-12.498 5.183s-9.157-1.84-12.499-5.183c-6.884-6.884-6.884-18.085-.001-24.969zm-205.666-9.364c9.734 0 17.653 7.932 17.653 17.682 0 9.734-7.919 17.653-17.653 17.653s-17.653-7.919-17.653-17.653c0-9.75 7.919-17.682 17.653-17.682zm-240 240c0-9.734 7.919-17.653 17.653-17.653 9.75 0 17.682 7.919 17.682 17.653 0 9.75-7.932 17.682-17.682 17.682-9.734-.001-17.653-7.933-17.653-17.682zm240 240c-9.75 0-17.682-7.919-17.682-17.654 0-9.75 7.932-17.681 17.682-17.681 9.734 0 17.653 7.932 17.653 17.681 0 9.734-7.919 17.654-17.653 17.654zm32.006-28.046c-4.387-13.5-17.073-23.289-32.006-23.289-14.945 0-27.64 9.787-32.032 23.285-93.444-13.928-166.005-86.491-179.917-179.919 13.498-4.392 23.284-17.087 23.284-32.031 0-14.932-9.788-27.618-23.287-32.005 13.902-93.448 86.477-166.027 179.939-179.948 4.382 13.499 17.073 23.288 32.013 23.288 14.939 0 27.63-9.788 32.012-23.286 93.444 13.906 166.021 86.479 179.943 179.938-13.5 4.381-23.29 17.072-23.29 32.013 0 14.954 9.79 27.656 23.29 32.04-13.922 93.429-86.503 165.997-179.949 179.914zm198.631 18.71c-6.874 6.875-18.079 6.871-24.97 0-6.892-6.892-6.892-18.106-.009-24.989 3.451-3.441 7.979-5.162 12.504-5.162 4.521 0 9.039 1.718 12.475 5.154 3.342 3.342 5.183 7.78 5.183 12.498s-1.841 9.157-5.183 12.499zm-230.637-393.944c-90.049 0-163.309 73.247-163.309 163.28 0 90.048 73.26 163.308 163.309 163.308s163.309-73.26 163.309-163.308c0-90.033-73.26-163.28-163.309-163.28zm-31.091 19.312c6.208 11.378 17.233 19.086 27.158 26 8.595 5.986 16.713 11.641 17.664 17.161.469 2.719-.8 6.2-3.77 10.35-5.516 7.712-22.185 11.544-36.892 14.925-21.545 4.954-45.965 10.567-48.502 31.264-1.749 14.11 1.678 27.78 9.167 36.568 5.69 6.678 13.498 10.38 22.591 10.707l3.578.122c13.124.442 19.712.664 24.474 2.493 4.689 1.801 9.359 5.885 18.665 14.022l.496.432c2.122 2.323 1.864 14.194-2.866 19.193-3.13 3.316-4.884 6.644-6.431 9.58-1.809 3.43-3.37 6.393-7.308 9.723-9.721 8.197-12.25 21.615-14.482 33.454-.959 5.085-2.743 14.55-4.734 15.753-.034.021-.067.04-.1.059-1.542-3.453-2.916-11.79-3.869-17.571-3.527-21.404-8.358-50.717-34.845-56.657-.093-.021-.17-.041-.233-.059-.485-1.381-.509-5.257-.523-7.882-.044-7.329-.104-17.365-5.456-27.439-6.499-12.335-36.65-30.713-65.471-34.514 13.693-53.832 57.116-95.914 111.689-107.684zm117.223 263.396c-24.24 17.531-53.998 27.88-86.132 27.88-81.227 0-147.309-66.082-147.309-147.308 0-6.978.499-13.841 1.443-20.563 24.939 2.851 50.716 19.255 54.415 26.273 3.519 6.623 3.56 13.45 3.599 20.051.048 8.167.121 20.508 13.253 23.458 14.783 3.315 18.82 20.944 22.562 43.647 2.417 14.664 4.326 26.246 13.024 30.302 1.442.673 3.317 1.226 5.584 1.225 2.604 0 5.724-.729 9.294-2.845 8.219-4.854 10.206-15.397 12.311-26.56 1.738-9.216 3.707-19.661 9.083-24.194 6.319-5.344 8.991-10.413 11.138-14.486 1.276-2.42 2.284-4.332 3.906-6.052 6.812-7.198 8.847-18.03 8.479-25.767-.338-7.127-2.708-12.961-6.672-16.424l-.534-.468c-21.378-18.693-23.364-19.458-53.132-20.46l-3.553-.121c-4.606-.166-8.197-1.833-10.978-5.095-4.491-5.27-6.637-14.778-5.465-24.233 1.174-9.573 18.983-13.667 36.207-17.627 18.328-4.213 37.281-8.571 46.318-21.208 5.63-7.865 7.765-15.184 6.525-22.376-2.086-12.111-13.372-19.972-24.287-27.574-6.899-4.805-13.952-9.724-18.819-15.548 4.482-.412 9.019-.634 13.607-.634 31 0 59.789 9.632 83.545 26.048-10.775 4.283-20.982 10.44-26.121 20.076-3.876 7.269-4.353 15.479-1.416 24.399 4.64 14.113 24.618 13.204 41.506 10.838 4.635-.65 6.785-.02 7.27.297.173.452.348 2.19-.755 5.429-2.187 6.418-7.005 12.229-9.244 13.692-9.066-.137-15.691-2.243-21.051-3.946-9.205-2.925-20.661-6.566-29.196 10.747-3.383 6.811-.867 12.29.483 15.233 1.207 2.629 1.659 3.614-2.546 8.621-2.907 3.478-6.763 10.804.081 20.797 3.24 4.733 8.188 9.164 13.425 13.854 2.701 2.419 5.493 4.92 7.933 7.382 15.395 15.501 27.658 49.548 19.788 68.601-3.704 9.043-.337 18.321 2.431 24.639zm13.011-10.571c-.99-2.919-1.526-5.83-.645-7.981 11.311-27.379-5.908-68.52-23.224-85.955-2.768-2.795-5.742-5.458-8.618-8.035-4.132-3.7-10.931-9.79-11.823-12.568 9.308-11.146 7.776-18.824 4.729-25.46-.225-.49-.515-1.123-.657-1.517 1.804-3.645 2.868-4.276 2.852-4.278.98-.219 4.536.912 7.132 1.737 6.247 1.985 14.804 4.705 26.836 4.705 10.986 0 19.804-16.438 20.772-18.312 5.394-10.429 5.867-19.695 1.336-26.092-2.945-4.159-9.246-8.727-22.538-6.865-18.573 2.603-23.344.261-24.188-.307-1.907-6.035-.671-9.48.437-11.557 4.362-8.178 18.552-13.32 26.885-15.849 29.99 26.979 48.88 66.062 48.88 109.476 0 43.08-18.59 81.898-48.166 108.858z"/></svg>