<svg clip-rule="evenodd" fill-rule="evenodd" stroke-linejoin="round" stroke-miterlimit="2" viewBox="0 0 510 510" xmlns="http://www.w3.org/2000/svg"><path d="m354.652 257.951c-27.442 23.7-53.02 34.555-76.404 33.506-25.115-1.127-48.236-15.799-68.833-44.668-1.862-2.61-1.713-6.151.361-8.595 13.394-15.778 27.237-26.666 41.437-32.802-6.907-16.221-9.249-36.273-6.581-59.999.362-3.217 2.881-5.766 6.093-6.165 17.507-2.175 32.922-1.621 46.239 1.56 3.979-26.178 20.289-51.273 49.309-74.997 2.505-2.049 6.089-2.112 8.666-.154 30.808 23.415 48.38 49.153 53.171 76.15 14.235-4.124 31.026-5.054 50.367-2.651 3.211.399 5.731 2.948 6.093 6.164 2.67 23.746.322 43.812-6.599 60.041 14.242 6.126 28.125 17.03 41.556 32.853 2.075 2.444 2.224 5.985.362 8.595-20.598 28.869-43.718 43.541-68.834 44.668-23.383 1.049-48.961-9.806-76.403-33.506zm-14.954-14.549c-20.112-19.082-39.379-29.209-58.128-29.946-20.056-.788-39.075 9.391-57.476 29.646 16.635 21.728 34.731 33.469 54.782 34.369 20.208.906 41.931-9.011 65.535-29.174-1.612-1.635-3.183-3.267-4.713-4.895zm-75.114-42.364c5.794-1.282 11.641-1.803 17.535-1.571 9.725.382 19.655 2.847 29.761 7.459-10.287-17.689-15.517-34.899-15.863-51.557-.002-.126-.005-.253-.007-.38-10.973-2.992-23.646-3.774-38-2.467-1.506 19.083.65 35.314 6.574 48.516zm100.48 47.406c23.538 20.065 45.204 29.931 65.364 29.027 20.05-.9 38.147-12.641 54.782-34.37-18.402-20.254-37.421-30.433-57.476-29.645-18.443.725-37.385 10.534-57.14 29.015-1.781 1.989-3.624 3.98-5.53 5.973zm-4.552-15.687c23.722-26.557 35.534-52.506 34.925-77.438-.655-26.796-15.778-51.98-44.575-75.104-27.457 23.676-41.396 48.477-40.848 74.863.52 25.044 13.893 51.097 39.668 78.52 1.653 1.569 3.31 3.194 4.97 4.875 1.958-1.983 3.911-3.888 5.86-5.716zm48.94-76.734c.211 16.81-4.395 34.16-13.961 51.811 10.773-5.198 21.349-7.961 31.693-8.367 5.85-.23 11.653.281 17.405 1.542 5.946-13.213 8.111-29.466 6.602-48.58-16.02-1.46-29.943-.319-41.739 3.594zm-273.957 279.517c1.224 2.939 2.447 5.878 3.67 8.817l.003.007c2.225 5.38 2.229 10.8.032 16.21l-.012.029c-2.224 5.338-6.059 9.187-11.455 11.459l-.018.007s-33.235 13.778-33.235 13.778c-10.76 4.494-23.22-.661-27.683-11.413-18.75-45.055-37.528-90.109-56.278-135.164-2.269-5.368-2.276-10.817-.04-16.226 2.231-5.395 6.087-9.247 11.446-11.48l33.269-13.808c10.754-4.464 23.173.645 27.68 11.406l.004.007c1.072 2.576 2.144 5.153 3.216 7.729 16.498-7.798 32.972-15.646 49.37-23.667 21.882-10.705 39.125-17.836 59.217-15.121 13.133 1.775 27.594 7.768 45.394 20.243l61.493 16.472c10.45 2.799 18.641 9.947 23.149 18.977l86.399-25.346c36.608-10.739 56.865-3.044 65.765 8.985 5.883 7.951 7.4 18.251 5.198 28.429-3.112 14.385-13.727 28.355-28.206 33.942l-129.778 50.009c-21.688 8.346-50.655 20.074-73.93 13.316l-69.14-20.057-.011-.003c-8.32-2.429-16.303-1.754-24.107 2.047zm-9.266 14.178c-2.06-4.951-54.27-130.341-56.275-135.157-1.53-3.648-5.742-5.387-9.391-3.872l-33.258 13.803c-1.82.758-3.127 2.07-3.886 3.903-.749 1.811-.76 3.636.012 5.456l.01.022c18.752 45.06 37.532 90.12 56.285 135.183l.001.003c1.511 3.639 5.725 5.388 9.376 3.859l33.226-13.774.012-.006c1.829-.776 3.145-2.078 3.915-3.906.732-1.834.73-3.681-.027-5.514zm3.876-27.128 20.671-10.055c11.058-5.386 22.371-6.342 34.151-2.903l69.14 20.057c9.809 2.848 20.787 1.48 31.603-1.291 11.805-3.026 23.421-7.807 33.393-11.645l129.77-50.005c10.117-3.904 17.385-13.788 19.56-23.839 1.322-6.114.765-12.363-2.768-17.139-3.001-4.056-8.073-6.867-15.359-7.988-8.774-1.349-20.345-.249-35.208 4.111l-86.593 25.403c.309 3.983-.039 8.078-1.127 12.141-5.182 19.349-25.273 30.955-44.611 25.743l-83.326-22.313c-3.733-.999-5.952-4.841-4.952-8.574.999-3.733 4.841-5.952 8.574-4.952l83.326 22.312.011.003c11.905 3.209 24.263-3.937 27.452-15.842 3.189-11.909-3.957-24.273-15.866-27.462l-62.699-16.796c-.803-.215-1.562-.572-2.24-1.053-15.879-11.27-28.572-16.945-40.201-18.516-17.431-2.356-32.205 4.536-51.188 13.823-16.653 8.145-33.383 16.113-50.136 24.03 12.871 30.916 25.75 61.832 38.623 92.75zm2.144-400.062c50.737 0 91.929 41.192 91.929 91.929s-41.192 91.929-91.929 91.929-91.929-41.192-91.929-91.929 41.192-91.929 91.929-91.929zm0 14c-43.01 0-77.929 34.919-77.929 77.929s34.919 77.929 77.929 77.929 77.929-34.919 77.929-77.929-34.919-77.929-77.929-77.929zm-25.666 52.263v-25.325c0-3.866 3.134-7 7-7h37.332c3.866 0 7 3.134 7 7v25.325h25.325c3.866 0 7 3.134 7 7v37.332c0 3.866-3.134 7-7 7h-25.325v25.325c0 3.866-3.134 7-7 7h-37.332c-3.866 0-7-3.134-7-7v-25.325h-25.325c-3.866 0-7-3.134-7-7v-37.332c0-3.866 3.134-7 7-7zm7 14h-25.325v23.332h25.325c3.866 0 7 3.134 7 7v25.325h23.332v-25.325c0-3.866 3.134-7 7-7h25.325v-23.332h-25.325c-3.866 0-7-3.134-7-7v-25.325h-23.332v25.325c0 3.866-3.134 7-7 7z"/></svg>