<svg height="512" viewBox="0 0 48 48" width="512" xmlns="http://www.w3.org/2000/svg"><g id="_37_Test_Paper_Exam_Mock_Test_Project_Deadline" data-name="37 Test Paper, Exam, Mock Test, Project Deadline"><path d="m45 22h-7v-15a1 1 0 0 0 -1-1h-16v2h15v33a4.92 4.92 0 0 0 1 3h-22a3 3 0 0 1 -3-3v-19h-2v19a5 5 0 0 0 5 5h26a5 5 0 0 0 5-5v-18a1 1 0 0 0 -1-1zm-1 19a3 3 0 0 1 -6 0v-17h6zm-24-30a9 9 0 1 0 -9 9 9 9 0 0 0 9-9zm-16 0a7 7 0 1 1 7 7 7 7 0 0 1 -7-7zm9.29 3.71-3-3a1 1 0 0 1 -.29-.71v-5h2v4.59l2.71 2.7zm12.71-1.71h-5v-2h5zm0 4h-6v-2h6zm0 4h-8v-2h8zm0 4h-12v-2h12zm0 4h-12v-2h12zm0 4h-12v-2h12zm3-16h4a1 1 0 0 0 1-1v-4a1 1 0 0 0 -1-1h-4a1 1 0 0 0 -1 1v4a1 1 0 0 0 1 1zm1-4h2v2h-2zm-2 11a1 1 0 0 0 1 1h4a1 1 0 0 0 1-1v-4a1 1 0 0 0 -1-1h-4a1 1 0 0 0 -1 1zm2-3h2v2h-2zm-2 11a1 1 0 0 0 1 1h4a1 1 0 0 0 1-1v-4a1 1 0 0 0 -1-1h-4a1 1 0 0 0 -1 1zm2-3h2v2h-2zm-4 8h-12v-2h12zm-12 2h12v2h-12zm19.71-2.29-1.3 1.29 1.3 1.29-1.42 1.42-1.29-1.3-1.29 1.3-1.42-1.42 1.3-1.29-1.3-1.29 1.42-1.42 1.29 1.3 1.29-1.3z"/></g></svg>