<svg id="Layer_1" enable-background="new 0 0 512 512" viewBox="0 0 512 512" xmlns="http://www.w3.org/2000/svg"><path d="m470.72 179.49c-.27-16.42-13.71-29.7-30.2-29.7h-136.67c6.77-5.47 12.58-12.08 17.13-19.54h4.54c27.21 0 49.35-17.39 49.35-38.76v-32.76c0-3.31-2.69-6-6-6h-36.89v-5.64c3.9-3.35 6.39-8.31 6.39-13.84 0-10.06-8.19-18.25-18.25-18.25h-128.25c-10.06 0-18.25 8.19-18.25 18.25 0 5.54 2.49 10.49 6.39 13.84v5.64h-36.88c-3.31 0-6 2.69-6 6v32.76c0 21.37 22.14 38.76 49.35 38.76h4.48c3.19 5.21 7.03 10.07 11.5 14.46 1.83 1.8 3.74 3.49 5.72 5.08h-136.7c-16.49 0-29.92 13.28-30.2 29.7-13.32 2.41-23.46 14.08-23.46 28.08v234.24c0 19.01 15.47 34.48 34.48 34.48h138.67v14.71c0 2.5 1.55 4.74 3.9 5.62 2.34.88 4.98.21 6.63-1.68l13.51-15.51 13.51 15.51c1.16 1.33 2.82 2.06 4.53 2.06.71 0 1.42-.12 2.1-.38 2.34-.88 3.9-3.12 3.9-5.62v-14.71h220.64c19.01 0 34.48-15.47 34.48-34.48v-234.24c0-14-10.13-25.67-23.45-28.08zm-30.2-17.7c10.04 0 18.21 8.17 18.21 18.21v227.17c0 10.04-8.17 18.21-18.21 18.21h-160.31c-10.04 0-18.21-8.17-18.21-18.21v-162.93h44.63c3.31 0 6-2.69 6-6v-9.46c0-8.52-6.93-15.46-15.46-15.46h-2.01v-3.92c0-7.62-6.2-13.83-13.83-13.83h-7.34v-31.06c3.05-.73 6.03-1.63 8.92-2.72zm-184.12 4.81c1.88 0 3.74-.09 5.58-.23v29.2h-11.97v-29.25c2.12.17 4.25.28 6.39.28zm24.93 40.97c.99 0 1.83.84 1.83 1.83v3.92h-54.32v-3.92c0-.99.84-1.83 1.83-1.83zm15.84 17.76c1.87 0 3.46 1.58 3.46 3.46v3.46h-89.25v-3.46c0-1.87 1.58-3.46 3.46-3.46zm65.71-160.6v26.76c0 14.17-16.34 26.19-35.97 26.73 3.27-8.45 5.09-17.62 5.09-27.21v-26.28zm-171.01-37.73h128.27c3.45 0 6.25 2.8 6.25 6.25s-2.8 6.25-6.25 6.25h-128.27c-3.45 0-6.25-2.8-6.25-6.25s2.8-6.25 6.25-6.25zm-42.75 64.49v-26.76h30.88v26.27c0 9.48 1.74 18.66 5.03 27.21-19.6-.55-35.91-12.56-35.91-26.72zm42.89-.48v-39.51h127.98v39.51c0 35.06-28.53 63.59-63.59 63.59-36.11 0-64.39-27.93-64.39-63.59zm-138.74 88.99c0-10.04 8.17-18.21 18.21-18.21h157.91c2.81 1.04 5.69 1.93 8.62 2.63v31.15h-7.35c-7.62 0-13.83 6.2-13.83 13.83v3.92h-2.01c-8.52 0-15.46 6.93-15.46 15.46v9.46c0 3.31 2.69 6 6 6h44.64v162.93c0 10.04-8.17 18.21-18.21 18.21h-160.31c-10.04 0-18.21-8.17-18.21-18.21zm-.96 284.29c-12.4 0-22.48-10.08-22.48-22.48v-234.24c0-7.34 4.81-13.57 11.44-15.73v215.33c0 16.66 13.55 30.21 30.21 30.21h119.5v26.92h-138.67zm167.23 2.06c-1.14-1.31-2.79-2.06-4.52-2.06s-3.38.75-4.52 2.06l-7.51 8.62v-37.6h24.07v37.6zm262.63-24.53c0 12.39-10.08 22.48-22.48 22.48h-220.64v-27.8c6.87-1.7 12.83-5.76 16.95-11.27 5.51 7.38 14.31 12.16 24.21 12.16h160.31c16.66 0 30.21-13.55 30.21-30.21v-215.34c6.63 2.16 11.44 8.39 11.44 15.73zm-165.29-238.63c0-3.31 2.69-6 6-6h100.9c3.31 0 6 2.69 6 6s-2.69 6-6 6h-100.9c-3.32 0-6-2.68-6-6zm-1.75 36.16c0-3.31 2.69-6 6-6h102.65c3.31 0 6 2.69 6 6s-2.69 6-6 6h-102.65c-3.32 0-6-2.69-6-6zm114.65 36.16c0 3.31-2.69 6-6 6h-126.83c-3.31 0-6-2.69-6-6s2.69-6 6-6h126.83c3.31 0 6 2.68 6 6zm0 36.15c0 3.31-2.69 6-6 6h-126.83c-3.31 0-6-2.69-6-6s2.69-6 6-6h126.83c3.31 0 6 2.69 6 6zm0 36.16c0 3.31-2.69 6-6 6h-126.83c-3.31 0-6-2.69-6-6s2.69-6 6-6h126.83c3.31 0 6 2.69 6 6zm0 36.16c0 3.31-2.69 6-6 6h-126.83c-3.31 0-6-2.69-6-6s2.69-6 6-6h126.83c3.31 0 6 2.69 6 6zm-210.75-296 15.95 12.96-5.28 19.86c-.64 2.4.26 4.94 2.27 6.4s4.7 1.53 6.79.18l17.24-11.16 17.25 11.16c.99.64 2.13.96 3.26.96 1.24 0 2.48-.38 3.53-1.15 2.01-1.46 2.91-4 2.27-6.4l-5.28-19.86 15.95-12.96c1.92-1.56 2.69-4.15 1.92-6.51s-2.91-4-5.38-4.14l-20.52-1.1-7.4-19.17c-.89-2.31-3.12-3.84-5.6-3.84s-4.71 1.53-5.6 3.84l-7.4 19.17-20.52 1.11c-2.48.13-4.62 1.78-5.38 4.14s0 4.95 1.93 6.51zm28.5.01c2.36-.13 4.42-1.63 5.27-3.83l3.2-8.29 3.2 8.29c.85 2.2 2.92 3.7 5.27 3.83l8.87.48-6.89 5.6c-1.83 1.49-2.62 3.92-2.01 6.2l2.28 8.58-7.46-4.82c-.99-.64-2.12-.96-3.26-.96s-2.27.32-3.26.96l-7.46 4.82 2.28-8.58c.61-2.28-.18-4.71-2.01-6.2l-6.89-5.6zm-116.46 302.83c6.85 1.83 13.79 2.74 20.7 2.74 13.77 0 27.36-3.61 39.61-10.68 18.38-10.61 31.53-27.75 37.03-48.25 5.49-20.5 2.67-41.92-7.94-60.3s-27.75-31.53-48.25-37.03c-20.5-5.49-41.92-2.67-60.3 7.94s-31.53 27.75-37.03 48.25c-11.36 42.33 13.85 85.99 56.18 97.33zm-44.61-94.23c8.07-30.11 35.4-50.01 65.19-50.01 5.76 0 11.62.75 17.45 2.31 17.41 4.66 31.96 15.83 40.97 31.44s11.4 33.79 6.74 51.2-15.83 31.96-31.44 40.97-33.79 11.41-51.2 6.74c-35.93-9.64-57.34-46.71-47.71-82.65zm42.4 48.64c3.45 3.45 7.97 5.17 12.5 5.17s9.05-1.72 12.5-5.17l37.34-37.34c6.89-6.89 6.89-18.1 0-25-6.89-6.89-18.1-6.89-25 0l-24.84 24.84-4.28-4.28c-6.89-6.89-18.1-6.89-25 0-6.89 6.89-6.89 18.1 0 25zm-8.3-33.29c1.11-1.11 2.56-1.66 4.01-1.66s2.91.55 4.01 1.66l8.52 8.53c1.13 1.13 2.65 1.76 4.24 1.76s3.12-.63 4.24-1.76l29.09-29.09c1.06-1.06 2.49-1.65 4.01-1.65s2.95.59 4.01 1.65 1.65 2.49 1.65 4.01-.58 2.95-1.65 4.01l-37.34 37.34c-2.21 2.21-5.81 2.21-8.03 0l-16.78-16.78c-2.19-2.21-2.19-5.81.02-8.02z"/></svg>