<svg id="Layer_1" enable-background="new 0 0 66 66" viewBox="0 0 66 66" xmlns="http://www.w3.org/2000/svg"><g><g><path d="m59.06 9.59h-16.41c-.41 0-.75-.34-.75-.75s.34-.75.75-.75h16.42c.41 0 .75.34.75.75s-.34.75-.76.75z"/></g><g><path d="m38.97 9.59h-6.32c-.41 0-.75-.34-.75-.75s.34-.75.75-.75h6.32c.41 0 .75.34.75.75s-.33.75-.75.75z"/></g><g><path d="m59.06 14.58h-9.29c-.41 0-.75-.34-.75-.75s.34-.75.75-.75h9.29c.41 0 .75.34.75.75s-.33.75-.75.75z"/></g><g><path d="m46.22 14.58h-13.56c-.41 0-.75-.34-.75-.75s.34-.75.75-.75h13.56c.41 0 .75.34.75.75s-.34.75-.75.75z"/></g><g><path d="m59.06 19.56h-16.41c-.41 0-.75-.34-.75-.75s.34-.75.75-.75h16.42c.41 0 .75.34.75.75s-.34.75-.76.75z"/></g><g><path d="m39.29 19.56h-6.63c-.41 0-.75-.34-.75-.75s.34-.75.75-.75h6.63c.41 0 .75.34.75.75s-.34.75-.75.75z"/></g><g><path d="m59.06 24.55h-9.29c-.41 0-.75-.34-.75-.75s.34-.75.75-.75h9.29c.41 0 .75.34.75.75s-.33.75-.75.75z"/></g><g><path d="m46.58 24.55h-13.92c-.41 0-.75-.34-.75-.75s.34-.75.75-.75h13.92c.41 0 .75.34.75.75s-.34.75-.75.75z"/></g><g><path d="m59.06 29.53h-16.06c-.41 0-.75-.34-.75-.75s.34-.75.75-.75h16.06c.41 0 .75.34.75.75s-.33.75-.75.75z"/></g><g><path d="m39.61 29.53h-6.95c-.41 0-.75-.34-.75-.75s.34-.75.75-.75h6.95c.41 0 .75.34.75.75s-.34.75-.75.75z"/></g><g><path d="m59.06 34.52h-9.29c-.41 0-.75-.34-.75-.75s.34-.75.75-.75h9.29c.41 0 .75.34.75.75s-.33.75-.75.75z"/></g><g><path d="m46.22 34.52h-10.9c-.41 0-.75-.34-.75-.75s.34-.75.75-.75h10.9c.41 0 .75.34.75.75s-.34.75-.75.75z"/></g><g><path d="m59.06 39.5h-15c-.41 0-.75-.34-.75-.75s.34-.75.75-.75h15c.41 0 .75.34.75.75s-.33.75-.75.75z"/></g><g><path d="m40.59 39.5h-1.78c-.41 0-.75-.34-.75-.75s.33-.75.75-.75h1.78c.41 0 .75.34.75.75s-.34.75-.75.75z"/></g><g><path d="m51.19 53.75c-.19 0-.38-.07-.53-.22l-1.42-1.42c-.29-.29-.29-.77 0-1.06s.77-.29 1.06 0l.89.88 2.76-2.76c.29-.29.77-.29 1.06 0s.29.77 0 1.06l-3.29 3.29c-.14.16-.34.23-.53.23z"/></g><g><path d="m64.26 64.12h-29.3c-.41 0-.75-.33-.75-.75s.33-.75.75-.75h28.56v-59.26h-34.78v26.26c0 .41-.33.75-.75.75s-.75-.33-.75-.75v-27c0-.41.33-.75.75-.75h36.26c.41 0 .75.33.75.75v60.76c0 .41-.33.74-.74.74z"/></g><g><path d="m28.9 34.65c-.41 0-.75-.34-.75-.75 0-5.4-4.4-9.8-9.8-9.8s-9.8 4.4-9.8 9.8c0 .41-.34.75-.75.75s-.75-.34-.75-.75c0-6.23 5.07-11.3 11.3-11.3s11.3 5.07 11.3 11.3c0 .41-.34.75-.75.75z"/></g><g><path d="m34.96 64.13h-33.21c-.42 0-.75-.34-.75-.75v-2.93c0-.41.34-.75.75-.75h33.21c.41 0 .75.34.75.75v2.93c0 .41-.34.75-.75.75zm-32.46-1.5h31.71v-1.43h-31.71z"/></g><g><path d="m34.96 44.66h-33.21c-.42 0-.75-.34-.75-.75v-2.91c0-.41.34-.75.75-.75h33.21c.41 0 .75.34.75.75v2.91c0 .41-.34.75-.75.75zm-32.46-1.5h31.71v-1.41h-31.71z"/></g><g><path d="m30.58 37.71h-24.46c-.41 0-.75-.34-.75-.75v-2.91c0-.41.34-.75.75-.75h24.46c.41 0 .75.34.75.75v2.91c0 .41-.33.75-.75.75zm-23.71-1.5h22.96v-1.41h-22.96z"/></g><g><path d="m10.72 61.19h-7.15c-.41 0-.75-.34-.75-.75v-3.01c0-.41.34-.75.75-.75h7.15c.41 0 .75.34.75.75v3.01c0 .42-.34.75-.75.75zm-6.4-1.5h5.65v-1.51h-5.65z"/></g><g><path d="m10.72 47.67h-7.15c-.41 0-.75-.34-.75-.75v-3.01c0-.41.34-.75.75-.75h7.15c.41 0 .75.34.75.75v3.01c0 .41-.34.75-.75.75zm-6.4-1.5h5.65v-1.51h-5.65z"/></g><g><path d="m9.45 58.18h-4.61c-.41 0-.75-.34-.75-.75v-10.51c0-.41.34-.75.75-.75h4.61c.41 0 .75.34.75.75v10.51c0 .42-.34.75-.75.75zm-3.86-1.5h3.11v-9.01h-3.11z"/></g><g><path d="m21.93 61.19h-7.15c-.41 0-.75-.34-.75-.75v-3.01c0-.41.34-.75.75-.75h7.15c.41 0 .75.34.75.75v3.01c0 .42-.34.75-.75.75zm-6.4-1.5h5.65v-1.51h-5.65z"/></g><g><path d="m21.93 47.67h-7.15c-.41 0-.75-.34-.75-.75v-3.01c0-.41.34-.75.75-.75h7.15c.41 0 .75.34.75.75v3.01c0 .41-.34.75-.75.75zm-6.4-1.5h5.65v-1.51h-5.65z"/></g><g><path d="m20.66 58.18h-4.61c-.41 0-.75-.34-.75-.75v-10.51c0-.41.34-.75.75-.75h4.61c.41 0 .75.34.75.75v10.51c0 .42-.34.75-.75.75zm-3.86-1.5h3.11v-9.01h-3.11z"/></g><g><path d="m33.14 61.19h-7.15c-.41 0-.75-.34-.75-.75v-3.01c0-.41.34-.75.75-.75h7.15c.41 0 .75.34.75.75v3.01c0 .42-.34.75-.75.75zm-6.4-1.5h5.65v-1.51h-5.65z"/></g><g><path d="m33.14 47.67h-7.15c-.41 0-.75-.34-.75-.75v-3.01c0-.41.34-.75.75-.75h7.15c.41 0 .75.34.75.75v3.01c0 .41-.34.75-.75.75zm-6.4-1.5h5.65v-1.51h-5.65z"/></g><g><path d="m31.87 58.18h-4.61c-.41 0-.75-.34-.75-.75v-10.51c0-.41.34-.75.75-.75h4.61c.41 0 .75.34.75.75v10.51c0 .42-.34.75-.75.75zm-3.86-1.5h3.11v-9.01h-3.11z"/></g><g><path d="m10.59 41.75h-2.79c-.41 0-.75-.34-.75-.75v-4.04c0-.41.34-.75.75-.75h2.78c.41 0 .75.34.75.75v4.04c.01.42-.33.75-.74.75zm-2.04-1.5h1.28v-2.54h-1.28z"/></g><g><path d="m28.9 41.75h-2.78c-.41 0-.75-.34-.75-.75v-4.04c0-.41.34-.75.75-.75h2.78c.41 0 .75.34.75.75v4.04c0 .42-.34.75-.75.75zm-2.03-1.5h1.28v-2.54h-1.28z"/></g><g><path d="m18.35 24.1c-.41 0-.75-.34-.75-.75v-6.5c0-.41.34-.75.75-.75s.75.34.75.75v6.5c0 .41-.33.75-.75.75z"/></g><g><path d="m19.54 21.89c-.51 0-1.04-.11-1.58-.43-.23-.14-.36-.38-.36-.64v-4.05c0-.27.15-.52.38-.65s.52-.13.75.01c.63.38 1.26.22 2.23-.08.98-.29 2.21-.66 3.44.08.23.14.36.38.36.64v4.05c0 .27-.15.52-.38.65-.24.13-.53.13-.75-.01-.63-.38-1.26-.22-2.23.08-.55.16-1.19.35-1.86.35zm-.44-1.56c.52.15 1.08 0 1.87-.24.68-.2 1.46-.44 2.3-.33v-2.52c-.52-.15-1.08 0-1.87.24-.68.2-1.46.44-2.3.33z"/></g><g><path d="m51.56 60.61c-.1 0-.2-.03-.29-.08-4.79-3.04-7.81-8.45-8.08-14.46-.01-.15.05-.29.15-.4s.24-.17.39-.17c2.64 0 5.24-.77 7.53-2.22.18-.11.4-.11.58 0 2.29 1.45 4.9 2.22 7.53 2.22.15 0 .29.06.39.17s.16.25.15.4c-.27 6.01-3.29 11.42-8.08 14.46-.07.05-.17.08-.27.08zm-7.25-14.04c.4 5.31 3.07 10.06 7.25 12.85 4.18-2.79 6.85-7.54 7.25-12.85-2.54-.1-5.02-.85-7.25-2.2-2.22 1.35-4.71 2.1-7.25 2.2z"/></g></g></svg>