<?xml version="1.0"?>
<svg xmlns="http://www.w3.org/2000/svg" id="Layer_1" data-name="Layer 1" viewBox="0 0 512 512"><path d="M128.66,465.615l46.325-8.439a33.246,33.246,0,0,1,11.773-.054l130.56,22.462c2.064.106,7.778-1.243,9.947-2.037L459.254,428.18c7.355-2.752,16.746-9.6,13.784-17.594-.82-2.142-5.953-9.074-7.567-11.375-7.54-10.821-29.5-10.107-55.372-4.657a5.776,5.776,0,0,1-3.387.741c-29.6,6.641-63.573,19.022-86.775,27.461-5.688,2.091-10.768,3.916-15.159,5.45a6.058,6.058,0,0,1-3.281.212h0L176.545,400.93a6.051,6.051,0,1,1,2.567-11.826l94.95,20.875a20.38,20.38,0,0,0,13.44-3.863,20,20,0,0,0,7.937-11.958h-.027c2.381-10.768-4.259-21.218-15.291-23.864v.027l-91.538-20.133h0c-7.249-1.588-50.795,9.021-74.421,14.788-2.777.689-5.291,1.3-7.46,1.8Zm21.694-442.45a94.145,94.145,0,0,0-89.341,123.55L79,120.418a6.047,6.047,0,0,1,10.133.211l13.387,18.361L150.3,69.014a6.059,6.059,0,0,1,10.159.264l35.134,57.568,13.069-12.937a6.065,6.065,0,0,1,8.413,1.588L239.3,147.879A94.072,94.072,0,0,0,150.354,23.165ZM71.33,168.25a94.057,94.057,0,0,0,68.547,42.462l-32.858-45.055A51.411,51.411,0,0,1,95.8,167.589a22.99,22.99,0,0,1-10.715-2.276h0c-1.719-.741-.873-.9-3.651.371-2.8,1.27-5.926,2.7-10.106,2.566Zm83.813,42.912A94.071,94.071,0,0,0,233.638,161L211.2,128.328l-67.384,67.3ZM75.272,42.134A106.176,106.176,0,0,1,212.367,31a27.855,27.855,0,0,1,21.456-10.132h98.548a27.91,27.91,0,0,1,27.858,27.858V72.056h46.034A35.849,35.849,0,0,1,442.005,107.8V283.757A35.832,35.832,0,0,1,406.263,319.5H159.905a35.809,35.809,0,0,1-35.716-35.742V220.183A106.219,106.219,0,0,1,75.272,42.134Zm146.487-3.518,5.079,4.921a8.731,8.731,0,0,1,6.985-3.546h98.548a8.809,8.809,0,0,1,8.731,8.731V72.056h7.011V48.722a15.757,15.757,0,0,0-15.742-15.715H233.823a15.711,15.711,0,0,0-12.064,5.609ZM237.209,56.1A106.286,106.286,0,0,1,246.5,72.056h82.49V52.135H237.209Zm14.1,28.1a106.216,106.216,0,0,1-33.282,114.872V307.356H348.166V215.5H346.9a6.08,6.08,0,0,1-6.058-6.084V182.139a6.058,6.058,0,0,1,6.058-6.058h1.271V84.2Zm-45.425,123.55a105.408,105.408,0,0,1-19.6,9.444v90.163h19.6Zm-31.747,12.99a106.787,106.787,0,0,1-37.806,1.772v61.246a23.667,23.667,0,0,0,23.573,23.6h14.233ZM69.531,155.71c4.842,1.746,7.408-2.752,13.546-3.1a13.913,13.913,0,0,1,6.772,1.562h.027c3.518,1.507,5.185,1.64,9.392.846L84.161,134.307Zm44.42-1.059a5.943,5.943,0,0,1,.661.926L136.6,185.738l50.187-50.108-11.8-19.339c-9.154,5.714-16.959,6.852-23.282-1.535-5.291,3.016-10.555,1.72-16.244-2.54l-25.371,37.145Zm28.334-52.409c2.7,2.064,3.122,2.276,4.789,1.138a9.612,9.612,0,0,1,4.656-2.011c6.481-.793,8.228,5.027,10.582,7.2.715.66,4.577-1.509,6.349-2.593L155.01,83.591Zm10.979,11.191.476-.079v-.027Zm.476-.079c.08-.027.08-.027,0-.027Zm134.132-10.662,35.319,23.043a6.085,6.085,0,0,1,1.773,8.36l-17.355,26.589a6.037,6.037,0,0,1-8.361,1.772L263.93,139.413a6.032,6.032,0,0,1-1.773-8.36l17.355-26.588a6.028,6.028,0,0,1,8.36-1.773Zm23.652,29.869-25.186-16.43L275.6,132.587l25.186,16.429ZM273.163,247.089l33.864-15.768a6.081,6.081,0,0,1,8.016,2.963l15.741,33.864a6.057,6.057,0,0,1-2.963,8.042l-33.837,15.741a6.056,6.056,0,0,1-8.043-2.963L270.2,255.105a6.026,6.026,0,0,1,2.963-8.016Zm33.44-2.223L283.745,255.5l10.636,22.885,22.884-10.635ZM256.76,176.081c19.472,0,29.313,23.652,15.5,37.435-13.783,13.784-37.435,3.969-37.435-15.5a21.927,21.927,0,0,1,21.932-21.932Zm6.932,15a9.808,9.808,0,1,0,0,13.863,9.821,9.821,0,0,0,0-13.863Zm100.347,4.71a6.059,6.059,0,1,1,12.117,0v7.566h11.085V188.2h-34.26v15.159h11.058ZM376.156,215.5v4.18a6.059,6.059,0,1,1-12.117,0V215.5h-3.757v91.856h19.631V215.5Zm-15.874-39.419h19.631V84.2H360.282Zm31.748,0H393.3a6.041,6.041,0,0,1,6.059,6.058v27.277A6.063,6.063,0,0,1,393.3,215.5H392.03v91.856h14.233a23.689,23.689,0,0,0,23.6-23.6V107.8a23.689,23.689,0,0,0-23.6-23.6H392.03Zm-214.9,293-47.992,8.73a19.9,19.9,0,0,1-14.947,14.419l-37.25,8.28A19.916,19.916,0,0,1,53.208,485.4L26.778,366.432A19.918,19.918,0,0,1,41.885,342.7l37.25-8.281a19.934,19.934,0,0,1,23.731,15.133l1.217,5.423c2.09-.5,4.55-1.084,7.222-1.746,24.631-6,69.95-17.064,79.871-14.9h0l91.484,20.133h0a32.308,32.308,0,0,1,23.176,19.869l79.791-50.4c16.535-10.451,38.467-3.678,47.939,12.989a35.073,35.073,0,0,1-2.964,38.917c20.345-1.64,36.986,1.27,44.764,12.434l6.3,9.022c8.2,11.746,3.148,25.08-8.36,33.123a44.146,44.146,0,0,1-9.841,5.079L331.5,488.87c-3.281,1.3-12.381,3.333-15.582,2.778l-131.2-22.594a19.8,19.8,0,0,0-7.592.027Zm138.708-57.7c23.546-8.571,57.569-20.953,88.549-27.514l10.053-5.767h0c17.937-10.424,14.127-36.642-5.45-42.2a20.829,20.829,0,0,0-16.9,2.275l-84.1,53.1a31.89,31.89,0,0,1-.714,5.423h0a32.2,32.2,0,0,1-11.218,18.123l6.4,1.4c3.81-1.35,8.334-3.016,13.387-4.842ZM93.606,363.575l-2.54-11.43a7.843,7.843,0,0,0-9.312-5.926L44.5,354.5a7.816,7.816,0,0,0-5.926,9.339l26.3,118.391c1.27,5.106,4.815,7.38,10,6.375l36.721-8.174a7.858,7.858,0,0,0,5.926-9.339Z"/></svg>
