<?xml version="1.0" encoding="iso-8859-1"?>
<!-- Generator: Adobe Illustrator 19.0.0, SVG Export Plug-In . SVG Version: 6.00 Build 0)  -->
<svg version="1.1" id="Capa_1" xmlns="http://www.w3.org/2000/svg" xmlns:xlink="http://www.w3.org/1999/xlink" x="0px" y="0px"
	 viewBox="0 0 512 512" style="enable-background:new 0 0 512 512;" xml:space="preserve">
<g>
	<g>
		<g>
			<path d="M440,196h-40v-56c0-4.8-3.2-8-8-8H256c-4.8,0-8,3.2-8,8v56h-40c-4.8,0-8,3.2-8,8v72v136v64c0,4.8,3.2,8,8,8h232
				c4.8,0,8-3.2,8-8v-64V276v-72C448,199.2,444.8,196,440,196z M264,148h120v48H264V148z M432,468H216v-48h216V468z M432,404H216
				V284h216V404z M432,268H216v-56h40h136h40V268z"/>
			<rect x="328" y="156" width="16" height="32"/>
			<rect x="352" y="156" width="16" height="32"/>
			<rect x="280" y="156" width="16" height="32"/>
			<rect x="304" y="156" width="16" height="32"/>
			<path d="M504,28H8c-4.8,0-8,3.2-8,8v360c0,4.8,3.2,8,8,8h168c4.8,0,8-3.2,8-8s-3.2-8-8-8H16V44h480v344h-24c-4.8,0-8,3.2-8,8
				s3.2,8,8,8h32c4.8,0,8-3.2,8-8V36C512,31.2,508.8,28,504,28z"/>
			<path d="M112,60c-26.4,0-48,21.6-48,48c0,26.4,21.6,48,48,48s48-21.6,48-48C160,81.6,138.4,60,112,60z M112,140
				c-17.6,0-32-14.4-32-32c0-17.6,14.4-32,32-32c17.6,0,32,14.4,32,32S129.6,140,112,140z"/>
			<path d="M112,172c-26.4,0-48,21.6-48,48c0,26.4,21.6,48,48,48s48-21.6,48-48C160,193.6,138.4,172,112,172z M112,252
				c-17.6,0-32-14.4-32-32c0-17.6,14.4-32,32-32c17.6,0,32,14.4,32,32C144,237.6,129.6,252,112,252z"/>
			<path d="M112,284c-26.4,0-48,21.6-48,48c0,26.4,21.6,48,48,48s48-21.6,48-48C160,305.6,138.4,284,112,284z M112,364
				c-17.6,0-32-14.4-32-32c0-17.6,14.4-32,32-32c17.6,0,32,14.4,32,32C144,349.6,129.6,364,112,364z"/>
			<path d="M256,76c17.6,0,32,14.4,32,32c0,4.8,3.2,8,8,8s8-3.2,8-8c0-26.4-21.6-48-48-48c-26.4,0-48,21.6-48,48
				c0,15.2,7.2,29.6,19.2,38.4c1.6,0.8,3.2,1.6,4.8,1.6c2.4,0,4.8-0.8,6.4-3.2c2.4-3.2,1.6-8.8-1.6-11.2c-8-6.4-12.8-15.2-12.8-25.6
				C224,90.4,238.4,76,256,76z"/>
			<path d="M400,60c-26.4,0-48,21.6-48,48c0,3.2,0,6.4,0.8,9.6c0.8,4,4.8,7.2,9.6,6.4c4-0.8,7.2-4.8,6.4-9.6c-0.8-2.4-0.8-4-0.8-6.4
				c0-17.6,14.4-32,32-32c17.6,0,32,14.4,32,32c0,12.8-7.2,24-19.2,29.6c-4,1.6-5.6,6.4-4,10.4c1.6,3.2,4,4.8,7.2,4.8
				c0.8,0,2.4,0,3.2-0.8c17.6-8,28.8-24.8,28.8-44C448,81.6,426.4,60,400,60z"/>
			<path d="M296,348h24v24c0,4.8,3.2,8,8,8s8-3.2,8-8v-24h24c4.8,0,8-3.2,8-8s-3.2-8-8-8h-24v-24c0-4.8-3.2-8-8-8s-8,3.2-8,8v24h-24
				c-4.8,0-8,3.2-8,8S291.2,348,296,348z"/>
			<polygon points="83.2,429.6 72,440.8 60.8,429.6 49.6,440.8 60.8,452 49.6,463.2 60.8,474.4 72,463.2 83.2,474.4 94.4,463.2 
				83.2,452 94.4,440.8 			"/>
			<path d="M176,436h-24c-4.8,0-8,3.2-8,8s3.2,8,8,8h24c4.8,0,8-3.2,8-8S180.8,436,176,436z"/>
		</g>
	</g>
</g>
<g>
</g>
<g>
</g>
<g>
</g>
<g>
</g>
<g>
</g>
<g>
</g>
<g>
</g>
<g>
</g>
<g>
</g>
<g>
</g>
<g>
</g>
<g>
</g>
<g>
</g>
<g>
</g>
<g>
</g>
</svg>
