<?xml version="1.0" encoding="UTF-8" standalone="no"?>
<!-- Created with Inkscape (http://www.inkscape.org/) -->

<svg
   version="1.1"
   id="svg3315"
   xml:space="preserve"
   width="682.66669"
   height="682.66669"
   viewBox="0 0 682.66669 682.66669"
   xmlns="http://www.w3.org/2000/svg"
   xmlns:svg="http://www.w3.org/2000/svg"><defs
     id="defs3319"><clipPath
       clipPathUnits="userSpaceOnUse"
       id="clipPath3329"><path
         d="M 0,512 H 512 V 0 H 0 Z"
         id="path3327" /></clipPath></defs><g
     id="g3321"
     transform="matrix(1.3333333,0,0,-1.3333333,0,682.66667)"><g
       id="g3323"><g
         id="g3325"
         clip-path="url(#clipPath3329)"><g
           id="g3331"
           transform="translate(174.5068,139.8838)"><path
             d="m 0,0 v -81.575 c 0,-8.004 6.489,-14.492 14.493,-14.492 h 78"
             style="fill:none;stroke:#000000;stroke-width:15;stroke-linecap:round;stroke-linejoin:round;stroke-miterlimit:10;stroke-dasharray:none;stroke-opacity:1"
             id="path3333" /></g><g
           id="g3335"
           transform="translate(128.5894,385.8643)"><path
             d="M 0,0 C -15.167,-0.29 -27.699,11.771 -27.989,26.938"
             style="fill:none;stroke:#000000;stroke-width:15;stroke-linecap:round;stroke-linejoin:round;stroke-miterlimit:10;stroke-dasharray:none;stroke-opacity:1"
             id="path3337" /></g><g
           id="g3339"
           transform="translate(90.1919,264.9736)"><path
             d="M 0,0 C -2.276,16.437 6.136,32.538 21.325,38.484"
             style="fill:none;stroke:#000000;stroke-width:15;stroke-linecap:round;stroke-linejoin:round;stroke-miterlimit:10;stroke-dasharray:none;stroke-opacity:1"
             id="path3341" /></g><g
           id="g3343"
           transform="translate(120.4487,369.002)"><path
             d="M 0,0 C 0,11.892 9.64,21.532 21.532,21.532"
             style="fill:none;stroke:#000000;stroke-width:15;stroke-linecap:round;stroke-linejoin:round;stroke-miterlimit:10;stroke-dasharray:none;stroke-opacity:1"
             id="path3345" /></g><g
           id="g3347"
           transform="translate(141.981,273.3174)"><path
             d="M 0,0 C 0,8.982 7.281,16.264 16.263,16.264 25.245,16.264 32.526,8.982 32.526,0 v -16.263"
             style="fill:none;stroke:#000000;stroke-width:15;stroke-linecap:round;stroke-linejoin:round;stroke-miterlimit:10;stroke-dasharray:none;stroke-opacity:1"
             id="path3349" /></g><g
           id="g3351"
           transform="translate(112.7954,334.0986)"><path
             d="M 0,0 C 10.853,3.248 22.284,-2.917 25.531,-13.771"
             style="fill:none;stroke:#000000;stroke-width:15;stroke-linecap:round;stroke-linejoin:round;stroke-miterlimit:10;stroke-dasharray:none;stroke-opacity:1"
             id="path3353" /></g><g
           id="g3355"
           transform="translate(128.6245,332.3838)"><path
             d="M 0,0 C 2.252,5.585 6.931,10.133 13.149,11.993"
             style="fill:none;stroke:#000000;stroke-width:15;stroke-linecap:round;stroke-linejoin:round;stroke-miterlimit:10;stroke-dasharray:none;stroke-opacity:1"
             id="path3357" /></g><g
           id="g3359"
           transform="translate(149.8564,414.8027)"><path
             d="M 0,0 C 8.592,5.021 19.629,2.127 24.65,-6.466"
             style="fill:none;stroke:#000000;stroke-width:15;stroke-linecap:round;stroke-linejoin:round;stroke-miterlimit:10;stroke-dasharray:none;stroke-opacity:1"
             id="path3361" /></g><g
           id="g3363"
           transform="translate(220.4243,385.8643)"><path
             d="M 0,0 C 15.168,-0.29 27.699,11.771 27.99,26.938"
             style="fill:none;stroke:#000000;stroke-width:15;stroke-linecap:round;stroke-linejoin:round;stroke-miterlimit:10;stroke-dasharray:none;stroke-opacity:1"
             id="path3365" /></g><g
           id="g3367"
           transform="translate(258.8223,264.9736)"><path
             d="M 0,0 C 2.276,16.437 -6.137,32.538 -21.325,38.484"
             style="fill:none;stroke:#000000;stroke-width:15;stroke-linecap:round;stroke-linejoin:round;stroke-miterlimit:10;stroke-dasharray:none;stroke-opacity:1"
             id="path3369" /></g><g
           id="g3371"
           transform="translate(228.5654,369.002)"><path
             d="M 0,0 C 0,11.892 -9.641,21.532 -21.532,21.532"
             style="fill:none;stroke:#000000;stroke-width:15;stroke-linecap:round;stroke-linejoin:round;stroke-miterlimit:10;stroke-dasharray:none;stroke-opacity:1"
             id="path3373" /></g><g
           id="g3375"
           transform="translate(207.0332,273.3174)"><path
             d="M 0,0 C 0,8.982 -7.281,16.264 -16.263,16.264 -25.245,16.264 -32.526,8.982 -32.526,0 v -16.263"
             style="fill:none;stroke:#000000;stroke-width:15;stroke-linecap:round;stroke-linejoin:round;stroke-miterlimit:10;stroke-dasharray:none;stroke-opacity:1"
             id="path3377" /></g><g
           id="g3379"
           transform="translate(236.2187,334.0986)"><path
             d="M 0,0 C -10.853,3.248 -22.284,-2.917 -25.532,-13.771"
             style="fill:none;stroke:#000000;stroke-width:15;stroke-linecap:round;stroke-linejoin:round;stroke-miterlimit:10;stroke-dasharray:none;stroke-opacity:1"
             id="path3381" /></g><g
           id="g3383"
           transform="translate(220.3896,332.3838)"><path
             d="M 0,0 C -2.252,5.585 -6.931,10.133 -13.15,11.993"
             style="fill:none;stroke:#000000;stroke-width:15;stroke-linecap:round;stroke-linejoin:round;stroke-miterlimit:10;stroke-dasharray:none;stroke-opacity:1"
             id="path3385" /></g><g
           id="g3387"
           transform="translate(199.1572,414.8027)"><path
             d="M 0,0 C -8.592,5.021 -19.628,2.127 -24.65,-6.466"
             style="fill:none;stroke:#000000;stroke-width:15;stroke-linecap:round;stroke-linejoin:round;stroke-miterlimit:10;stroke-dasharray:none;stroke-opacity:1"
             id="path3389" /></g><g
           id="g3391"
           transform="translate(311.958,188.8301)"><path
             d="m 0,0 c 0,-4.143 -3.357,-7.5 -7.5,-7.5 -4.142,0 -7.5,3.357 -7.5,7.5 0,4.142 3.358,7.5 7.5,7.5 C -3.357,7.5 0,4.142 0,0"
             style="fill:#000000;fill-opacity:1;fill-rule:nonzero;stroke:none"
             id="path3393" /></g><g
           id="g3395"
           transform="translate(337.458,188.8301)"><path
             d="m 0,0 c 0,-4.143 -3.357,-7.5 -7.5,-7.5 -4.142,0 -7.5,3.357 -7.5,7.5 0,4.142 3.358,7.5 7.5,7.5 C -3.357,7.5 0,4.142 0,0"
             style="fill:#000000;fill-opacity:1;fill-rule:nonzero;stroke:none"
             id="path3397" /></g><g
           id="g3399"
           transform="translate(362.958,188.8301)"><path
             d="m 0,0 c 0,-4.143 -3.357,-7.5 -7.5,-7.5 -4.142,0 -7.5,3.357 -7.5,7.5 0,4.142 3.358,7.5 7.5,7.5 C -3.357,7.5 0,4.142 0,0"
             style="fill:#000000;fill-opacity:1;fill-rule:nonzero;stroke:none"
             id="path3401" /></g><g
           id="g3403"
           transform="translate(311.958,116.3232)"><path
             d="m 0,0 c 0,-4.143 -3.357,-7.5 -7.5,-7.5 -4.142,0 -7.5,3.357 -7.5,7.5 0,4.142 3.358,7.5 7.5,7.5 C -3.357,7.5 0,4.142 0,0"
             style="fill:#000000;fill-opacity:1;fill-rule:nonzero;stroke:none"
             id="path3405" /></g><g
           id="g3407"
           transform="translate(337.458,116.3232)"><path
             d="m 0,0 c 0,-4.143 -3.357,-7.5 -7.5,-7.5 -4.142,0 -7.5,3.357 -7.5,7.5 0,4.142 3.358,7.5 7.5,7.5 C -3.357,7.5 0,4.142 0,0"
             style="fill:#000000;fill-opacity:1;fill-rule:nonzero;stroke:none"
             id="path3409" /></g><g
           id="g3411"
           transform="translate(362.958,116.3232)"><path
             d="m 0,0 c 0,-4.143 -3.357,-7.5 -7.5,-7.5 -4.142,0 -7.5,3.357 -7.5,7.5 0,4.142 3.358,7.5 7.5,7.5 C -3.357,7.5 0,4.142 0,0"
             style="fill:#000000;fill-opacity:1;fill-rule:nonzero;stroke:none"
             id="path3413" /></g><g
           id="g3415"
           transform="translate(311.958,43.8164)"><path
             d="m 0,0 c 0,-4.143 -3.357,-7.5 -7.5,-7.5 -4.142,0 -7.5,3.357 -7.5,7.5 0,4.142 3.358,7.5 7.5,7.5 C -3.357,7.5 0,4.142 0,0"
             style="fill:#000000;fill-opacity:1;fill-rule:nonzero;stroke:none"
             id="path3417" /></g><g
           id="g3419"
           transform="translate(337.458,43.8164)"><path
             d="m 0,0 c 0,-4.143 -3.357,-7.5 -7.5,-7.5 -4.142,0 -7.5,3.357 -7.5,7.5 0,4.142 3.358,7.5 7.5,7.5 C -3.357,7.5 0,4.142 0,0"
             style="fill:#000000;fill-opacity:1;fill-rule:nonzero;stroke:none"
             id="path3421" /></g><g
           id="g3423"
           transform="translate(362.958,43.8164)"><path
             d="m 0,0 c 0,-4.143 -3.357,-7.5 -7.5,-7.5 -4.142,0 -7.5,3.357 -7.5,7.5 0,4.142 3.358,7.5 7.5,7.5 C -3.357,7.5 0,4.142 0,0"
             style="fill:#000000;fill-opacity:1;fill-rule:nonzero;stroke:none"
             id="path3425" /></g><g
           id="g3427"
           transform="translate(288.5059,80.0693)"><path
             d="m 0,0 c -11.877,0 -21.506,-9.628 -21.506,-21.506 v -29.495 c 0,-11.877 9.629,-21.506 21.506,-21.506 h 194.488 c 11.877,0 21.506,9.629 21.506,21.506 v 29.495 C 215.994,-9.628 206.365,0 194.488,0"
             style="fill:none;stroke:#000000;stroke-width:15;stroke-linecap:round;stroke-linejoin:round;stroke-miterlimit:10;stroke-dasharray:none;stroke-opacity:1"
             id="path3429" /></g><g
           id="g3431"
           transform="translate(347.4893,80.0693)"><path
             d="m 0,0 h 135.505 c 11.877,0 21.506,9.629 21.506,21.506 v 29.495 c 0,11.878 -9.629,21.506 -21.506,21.506 H -58.983 c -11.877,0 -21.506,-9.628 -21.506,-21.506 V 21.506 C -80.489,9.629 -70.86,0 -58.983,0 h 23.92"
             style="fill:none;stroke:#000000;stroke-width:15;stroke-linecap:round;stroke-linejoin:round;stroke-miterlimit:10;stroke-dasharray:none;stroke-opacity:1"
             id="path3433" /></g><g
           id="g3435"
           transform="translate(288.5059,225.083)"><path
             d="m 0,0 c -11.877,0 -21.506,-9.628 -21.506,-21.506 v -29.495 c 0,-11.877 9.629,-21.506 21.506,-21.506 h 194.488 c 11.877,0 21.506,9.629 21.506,21.506 v 29.495 C 215.994,-9.628 206.365,0 194.488,0 Z"
             style="fill:none;stroke:#000000;stroke-width:15;stroke-linecap:round;stroke-linejoin:round;stroke-miterlimit:10;stroke-dasharray:none;stroke-opacity:1"
             id="path3437" /></g><g
           id="g3439"
           transform="translate(174.5068,436.8164)"><path
             d="m 0,0 c 0,10.774 -8.369,19.912 -19.135,20.357 -0.308,0.013 -0.619,0.019 -0.931,0.019 -9.492,0 -17.469,-5.96 -19.756,-14.034 -0.691,-2.441 -3.15,-4.106 -5.891,-4.103 h -0.055 c -15.548,0 -28.154,-11.597 -28.154,-25.904 0,-1.391 0.121,-2.755 0.351,-4.085 0.436,-2.518 -0.978,-5.014 -3.536,-5.992 -11.591,-4.435 -19.743,-14.947 -19.743,-27.217 0,-3.813 0.788,-7.458 2.221,-10.803 0.831,-1.94 0.415,-4.157 -1.121,-5.691 -5.632,-5.632 -9.076,-13.144 -9.076,-21.401 0,-7.497 2.839,-14.381 7.577,-19.801 1.5,-1.714 1.758,-4.066 0.658,-6.02 -2.452,-4.352 -3.587,-9.302 -3.843,-14.54 -0.526,-10.76 6.616,-19.031 11.425,-23.344 2.566,-2.3 4.121,-5.355 4.603,-8.623 2.815,-19.094 20.605,-33.812 42.13,-33.812 1.449,0 2.88,0.07 4.291,0.203 1.111,0.104 2.225,-0.089 3.23,-0.536 3.205,-1.427 6.799,-2.23 10.598,-2.23 9.931,0 18.473,5.461 22.28,13.296 1.29,2.655 1.877,5.597 1.877,8.548 z"
             style="fill:none;stroke:#000000;stroke-width:15;stroke-linecap:round;stroke-linejoin:round;stroke-miterlimit:10;stroke-dasharray:none;stroke-opacity:1"
             id="path3441" /></g><g
           id="g3443"
           transform="translate(174.5068,436.8164)"><path
             d="m 0,0 c 0,10.774 8.369,19.912 19.135,20.357 0.309,0.013 0.619,0.019 0.931,0.019 9.493,0 17.469,-5.96 19.756,-14.034 0.691,-2.441 3.15,-4.106 5.891,-4.103 h 0.055 c 15.549,0 28.154,-11.597 28.154,-25.904 0,-1.391 -0.12,-2.755 -0.351,-4.085 -0.436,-2.518 0.979,-5.014 3.537,-5.992 11.59,-4.435 19.742,-14.947 19.742,-27.217 0,-3.813 -0.787,-7.458 -2.221,-10.803 -0.831,-1.94 -0.414,-4.157 1.121,-5.691 5.633,-5.632 9.076,-13.144 9.076,-21.401 0,-7.497 -2.839,-14.381 -7.577,-19.801 -1.5,-1.714 -1.758,-4.066 -0.657,-6.02 2.452,-4.352 3.586,-9.302 3.842,-14.54 0.527,-10.76 -6.615,-19.031 -11.424,-23.344 -2.567,-2.3 -4.121,-5.355 -4.603,-8.623 -2.816,-19.094 -20.605,-33.812 -42.131,-33.812 -1.449,0 -2.88,0.07 -4.29,0.203 -1.111,0.104 -2.225,-0.089 -3.231,-0.536 -3.205,-1.427 -6.798,-2.23 -10.598,-2.23 -9.931,0 -18.473,5.461 -22.28,13.296 -1.29,2.655 -1.877,5.597 -1.877,8.548"
             style="fill:none;stroke:#000000;stroke-width:15;stroke-linecap:round;stroke-linejoin:round;stroke-miterlimit:10;stroke-dasharray:none;stroke-opacity:1"
             id="path3445" /></g><g
           id="g3447"
           transform="translate(153.0142,171.8154)"><path
             d="m 0,0 v -25.283 c 0,-3.672 2.977,-6.649 6.648,-6.649 h 29.689 c 3.672,0 6.649,2.977 6.649,6.649 V 0"
             style="fill:none;stroke:#000000;stroke-width:15;stroke-linecap:round;stroke-linejoin:round;stroke-miterlimit:10;stroke-dasharray:none;stroke-opacity:1"
             id="path3449" /></g><g
           id="g3451"
           transform="translate(44.1064,441.7949)"><path
             d="m 0,0 c -52.615,-65.575 -48.512,-161.636 12.309,-222.456 57.245,-57.245 145.705,-64.238 210.585,-20.993"
             style="fill:none;stroke:#000000;stroke-width:15;stroke-linecap:round;stroke-linejoin:round;stroke-miterlimit:10;stroke-dasharray:none;stroke-opacity:1"
             id="path3453" /></g><g
           id="g3455"
           transform="translate(298.0723,225.083)"><path
             d="m 0,0 c 59.687,65.544 57.866,167.1 -5.474,230.439 -61.144,61.144 -157.903,64.965 -223.499,11.464"
             style="fill:none;stroke:#000000;stroke-width:15;stroke-linecap:round;stroke-linejoin:round;stroke-miterlimit:10;stroke-dasharray:none;stroke-opacity:1"
             id="path3457" /></g></g></g></g></svg>
