<?xml version="1.0"?>
<svg xmlns="http://www.w3.org/2000/svg" id="Layer_1" data-name="Layer 1" viewBox="0 0 64 64" width="512" height="512"><circle cx="54" cy="50.5" r="1"/><circle cx="50" cy="50.5" r="1"/><circle cx="10" cy="50.5" r="1"/><circle cx="14" cy="50.5" r="1"/><path d="M58,25.5H56V9.5a1,1,0,0,0-1-1H9a1,1,0,0,0-1,1v4H6a3,3,0,0,0-3,3v15a3,3,0,0,0,3,3H8v11a5,5,0,0,0,0,10H56a5,5,0,0,0,2.82-9.13A3,3,0,0,0,61,43.5v-15A3,3,0,0,0,58,25.5Zm-48-15H54v15H52v-12a1,1,0,0,0-1-1H13a1,1,0,0,0-1,1H10Zm29,15a3,3,0,0,0-3,3v3.44L31.44,35a1,1,0,0,0-.44.83,1,1,0,0,0,.44.83L36,39.73V41.5H14v-7H25a3,3,0,0,0,3-3V27.73l4.56-3.07a1,1,0,0,0,.44-.83,1,1,0,0,0-.44-.83L28,19.94V16.5a3,3,0,0,0-.78-2H50v11Zm-34,6v-15a1,1,0,0,1,1-1H25a1,1,0,0,1,1,1v4a1,1,0,0,0,.44.83l3.77,2.53-3.77,2.53a1,1,0,0,0-.44.83V31.5a1,1,0,0,1-1,1H6A1,1,0,0,1,5,31.5Zm5,3h2v8a1,1,0,0,0,1,1H36a3,3,0,0,0,.78,2H10Zm24.82,13a3,3,0,0,1-5.64,0ZM56,53.5H8a3,3,0,0,1,0-6H27.1a5,5,0,0,0,9.8,0H56a3,3,0,0,1,0,6Zm3-10a1,1,0,0,1-1,1H39a1,1,0,0,1-1-1V39.19a1,1,0,0,0-.44-.83l-3.77-2.53,3.77-2.53a1,1,0,0,0,.44-.83v-4a1,1,0,0,1,1-1H58a1,1,0,0,1,1,1Z"/><path d="M45.5,34.5h7a1,1,0,0,0,0-2h-7a1,1,0,0,0,0,2Z"/><path d="M54,37.5H44a1,1,0,0,0,0,2H54a1,1,0,0,0,0-2Z"/><path d="M11.5,22.5h7a1,1,0,0,0,0-2h-7a1,1,0,0,0,0,2Z"/><path d="M10,27.5H20a1,1,0,0,0,0-2H10a1,1,0,0,0,0,2Z"/></svg>
