<svg id="Layer_2" viewBox="0 0 64 64" xmlns="http://www.w3.org/2000/svg" data-name="Layer 2"><path d="m60.49 14.44c1.38 0 2.51-1.12 2.51-2.5s-1.13-2.51-2.51-2.51h-3.73c-.12-.7-.68-1.26-1.39-1.38v-3.73c0-1.38-1.12-2.5-2.5-2.5s-2.51 1.12-2.51 2.5v3.7h-3.51v-3.7c0-1.38-1.12-2.5-2.51-2.5s-2.5 1.12-2.5 2.5v3.73c-.71.12-1.26.68-1.39 1.39h-3.72c-1.39 0-2.51 1.12-2.51 2.51 0 .09.01.18.03.27h-29.16c-2.26 0-4.09 1.83-4.09 4.09v30.82c0 2.26 1.83 4.09 4.09 4.09h15.94l-2.37 5.78h-1.04c-1.6 0-2.89 1.29-2.89 2.89v1.78c0 .29.22.51.51.51h23.39c.28 0 .5-.22.5-.51v-1.78c0-1.6-1.29-2.89-2.89-2.89h-1.03l-2.38-5.78h15.95c2.25 0 4.08-1.83 4.08-4.09v-16.55s.01.01.02.01c1.38 0 2.5-1.13 2.5-2.51v-3.73c.71-.12 1.26-.68 1.38-1.39h3.73c1.38 0 2.51-1.12 2.51-2.5s-1.13-2.51-2.51-2.51h-3.7v-3.51zm-24.25 43.57c1.04 0 1.88.84 1.88 1.88v1.28h-22.38v-1.28c0-1.04.85-1.88 1.88-1.88zm15.6-10.88c0 1.7-1.37 3.07-3.06 3.07h-43.69c-1.7 0-3.07-1.37-3.07-3.07v-30.82c0-1.7 1.37-3.07 3.07-3.07h29.5c.04.06.1.12.14.18.06.07.11.14.17.21.1.1.2.19.32.28.07.05.13.1.2.15.13.08.27.14.42.19.07.03.13.06.2.09.22.06.45.1.69.1h3.7v3.51h-3.7c-1.39 0-2.51 1.13-2.51 2.51s1.12 2.5 2.51 2.5h3.72c.12.71.68 1.27 1.39 1.39v3.73c0 1.38 1.12 2.51 2.5 2.51s2.51-1.13 2.51-2.51v-3.7h3.52v3.7c0 .23.04.45.09.66 0 .03.02.06.03.08.06.21.15.4.26.58.02.02.03.05.05.08.12.17.26.33.42.48.02.01.03.02.05.04.17.14.36.27.57.36zm3.93-24.45c0 .38-.3.68-.68.68h-12.97c-.37 0-.68-.31-.68-.68v-12.96c0-.37.31-.68.68-.68h12.97c.38 0 .68.31.68.68z"/><path d="m28.53 32.68c1.81-3.76 2.74-6.47 2.74-8.02 0-3.21-2.16-5.94-2.41-6.24h-.01s0-.01 0-.02c-1.05-1.49-3.44-1.43-3.52-1.43-.1 0-2.52-.06-3.51 1.38 0 .01-.03.04-.05.07h-.01c-.24.3-2.4 3.03-2.4 6.24 0 1.55.92 4.26 2.74 8.02-2.24 3.8-4.43 7.27-5.28 8.6-.32.49-.32 1.11-.02 1.61l1.82 2.97c.27.45.76.73 1.3.73s1.02-.28 1.3-.73c1.03-1.69 2.54-4.22 4.1-7.02 1.56 2.8 3.07 5.33 4.1 7.02.28.45.76.73 1.3.73s1.02-.28 1.3-.73l1.81-2.97c.31-.5.3-1.12-.01-1.61-.85-1.33-3.04-4.8-5.28-8.6zm.19-10.32c.1-.27.19-.51.27-.73.02-.07.04-.13.06-.19.05-.17.1-.32.13-.47.01-.04.03-.08.04-.12.52 1.02 1.03 2.37 1.03 3.81 0 .92-.42 2.88-2.34 6.97 0-.01-.02-.02-.03-.04-.35-.59-.68-1.18-1-1.74-.04-.05-.07-.11-.1-.16-.29-.51-.57-1-.83-1.48-.02-.04-.04-.08-.06-.12 1.35-2.47 2.28-4.35 2.83-5.73zm-3.41-.49c1.26 0 1.97.29 2.31.48-.5 1.19-1.26 2.73-2.31 4.68-1.04-1.93-1.82-3.5-2.31-4.68.34-.2 1.05-.48 2.31-.48zm-4.97 23.46c-.13.22-.35.24-.43.24-.09 0-.3-.02-.44-.24l-1.81-2.97c-.1-.17-.1-.37 0-.53.81-1.27 2.84-4.47 4.96-8.05l.07.14c.27.54.56 1.09.86 1.66.06.13.14.27.21.4.27.52.55 1.05.85 1.59.04.07.08.14.12.22-1.66 3.01-3.3 5.75-4.39 7.54zm12.61-2.97-1.81 2.97c-.13.22-.35.24-.43.24-.09 0-.3-.02-.44-.24-.91-1.51-2.72-4.52-4.52-7.79-1-1.82-1.89-3.52-2.63-5.05-2.28-4.69-2.76-6.84-2.76-7.83 0-1.44.51-2.79 1.04-3.81 0 .03.02.06.02.08.04.16.09.33.15.52.02.05.03.11.05.17.08.23.17.47.27.74.57 1.43 1.54 3.39 2.97 5.98.27.49.56 1 .85 1.53.56.97 1.16 2.01 1.8 3.1 2.3 3.9 4.57 7.49 5.44 8.86.1.16.11.36 0 .53z"/></svg>