<svg id="&#x421;&#x43B;&#x43E;&#x439;_1" viewBox="0 0 128 128" xmlns="http://www.w3.org/2000/svg"><path d="m44 62h-34a2 2 0 0 0 0 4h34a2 2 0 0 0 0-4z"/><path d="m10 76h21.53a2 2 0 0 0 0-4h-21.53a2 2 0 0 0 0 4z"/><path d="m52 16a2 2 0 0 0 -2 2v76a2 2 0 0 0 4 0v-76a2 2 0 0 0 -2-2z"/><path d="m44 82h-34a2 2 0 0 0 -2 2v10a2 2 0 0 0 2 2h34a2 2 0 0 0 2-2v-10a2 2 0 0 0 -2-2zm-2 10h-30v-6h30z"/><path d="m120 24.07v-6.07a2 2 0 0 0 -2-2h-58a2 2 0 0 0 -2 2v33a2 2 0 0 0 2 2h58a2 2 0 0 0 2-2v-26.92zm-4-4.07v3l-10.35 6.85-10.12-2.78a2 2 0 0 0 -1.94.52l-10.06 10.05-10.76-4.49a2 2 0 0 0 -2 .24l-8.77 6.48v-19.87zm-54 29v-4.16l10.27-7.56 11 4.57a2 2 0 0 0 2.18-.44l10.14-10.18 9.88 2.7a2 2 0 0 0 1.63-.26l8.9-5.89v21.22z"/><path d="m120 67a8 8 0 0 0 -15.51-2.74l-7.63-.75a8 8 0 0 0 -15.86 1.49 7.81 7.81 0 0 0 .15 1.54l-9 4.32a8 8 0 1 0 -8.15 12.88v8.26h-4a2 2 0 0 0 0 4h58a2 2 0 0 0 0-4h-4v-17.26a8 8 0 0 0 6-7.74zm-8-4a4 4 0 1 1 -4 4 4 4 0 0 1 4-4zm-23-2a4 4 0 1 1 -4 4 4 4 0 0 1 4-4zm-27 15a4 4 0 1 1 4 4 4 4 0 0 1 -4-4zm6 7.74a8 8 0 0 0 6-7.74 7.81 7.81 0 0 0 -.15-1.54l9-4.32a8.05 8.05 0 0 0 4.15 2.6v19.26h-19zm23 8.26v-19.26a8 8 0 0 0 5.59-5.24l7.52.74a8 8 0 0 0 5.89 6.5v17.26z"/><path d="m122 8h-116a6 6 0 0 0 -6 6v84a6 6 0 0 0 6 6h56v12h-31a2 2 0 0 0 0 4h66a2 2 0 0 0 0-4h-31v-12h56a6 6 0 0 0 6-6v-84a6 6 0 0 0 -6-6zm2 90a2 2 0 0 1 -2 2h-116a2 2 0 0 1 -2-2v-84a2 2 0 0 1 2-2h116a2 2 0 0 1 2 2z"/><path d="m31 54h-8a4.1 4.1 0 0 1 -4-4v-7h-7a4.1 4.1 0 0 1 -4-4v-8a4.11 4.11 0 0 1 4-4h7v-7a4.11 4.11 0 0 1 4-4h8a4.11 4.11 0 0 1 4 4v7h7a4.11 4.11 0 0 1 4 4v8a4.11 4.11 0 0 1 -4 4h-7v7a4.1 4.1 0 0 1 -4 4zm0-13a2 2 0 0 1 2-2h9v-8h-9a2 2 0 0 1 -2-2v-9h-8v9a2 2 0 0 1 -2 2h-9v8h9a2 2 0 0 1 2 2v9h8z"/></svg>