<svg id="Layer_1" enable-background="new 0 0 512 512" viewBox="0 0 512 512" xmlns="http://www.w3.org/2000/svg"><path d="m505.5667419 465.1190186h-6.4508057v-155.549408c0-8.209198-6.6555481-14.8857117-14.833252-14.8857117h-250.1965026c-8.2091827 0-14.8909607 6.6765137-14.8909607 14.8857117v155.549408h-5.0546417c-2.9708405 0-5.3748016 2.4039612-5.3748016 5.3748169v7.0386963c0 13.720459 11.138031 24.8847351 24.8322601 24.8847351h252.4587555c13.7204895 0 24.8847656-11.1642761 24.8847656-24.8847351-.1735534-4.5668641 1.4818421-12.1585694-5.3748169-12.4135132zm-275.6219024-155.549408c0-2.2832642 1.8580933-4.1361084 4.1413422-4.1361084h250.1965027c2.2150269 0 4.0836182 1.8948364 4.0836182 4.1361084v155.549408h-258.4214631zm270.2470855 167.9629211c0 7.7945251-6.3405762 14.1351013-14.1351318 14.1351013h-252.4587555c-8.4545898.0498047-14.8345032-7.4654541-14.0826416-15.7990112h280.6765289zm-29.2937622-101.0454712h-13.4226074c15.8046265-32.1325073-25.2471924-62.3377991-51.1958923-37.5816956-25.9237366-24.6482544-66.5606689 5.1600952-51.3153076 37.119812h-13.3136597c-7.0280762.027832-7.0303345 10.7223816.0003052 10.7496033-.0003052.0000305 21.2889709.0000305 21.2889709.0000305l39.5395203 39.5395203c1.007782 1.007782 2.3724976 1.574646 3.8001709 1.574646s2.7923889-.566864 3.8001709-1.574646l39.0329895-39.0776367h21.7853394c7.0285644-.0270996 7.0296935-10.7229614-.0000001-10.7496338zm-64.6184997 38.4215394-28.1377258-28.1337891h1.8777771l8.2669373 7.6632996c2.5958862 2.5380554 7.3085022 1.5117188 8.6133118-1.8687134.0000305.0001221 5.9417114-14.2242432 5.9417114-14.2242432l6.2986145 8.9492798c1.0445251 1.4854431 2.598175 2.4617004 4.5874939 2.2780151 4.3219299.1757812 6.5358582-6.8174744 8.6343384-9.6211243 1.949585 2.3106079 4.3528748 7.6383667 8.0516357 7.2852173.0000916.0001526 3.506958.0001526 3.506958.0001526zm38.2273254-38.4215394h-11.363739l-6.8760071-9.4164124c-1.0549927-1.4539185-2.7713623-2.3094788-4.5822144-2.1992493-4.1636658-.2242737-6.5419922 6.8421936-8.5031433 9.4846497l-7.1436768-10.1617737c-2.2442932-3.4096985-7.9026184-2.8205872-9.3586426 1.0184631-.0000305-.0001831-6.7290344 16.1085205-6.7290344 16.1085205-1.9758301-1.5856934-4.9393921-5.5790405-7.8207092-5.29599-.000061-.0000916-14.4934387-.0000916-14.4934387-.0000916-18.2835083-24.349823 15.8908386-49.6651001 34.8428345-25.723938 2.099823 2.0884094 5.5010681 2.0936584 7.6006165-.0058899 19.1654968-23.8842771 53.8057251 2.0920718 34.4271545 26.1917116zm-192.9999084-190.3597106c-2.089035-2.1100311-2.078537-5.5112762.0262451-7.6055756 36.4385986-37.6741028 101.0359497-37.6892395 137.3988953.0115662 4.9268188 4.9736938-2.5621643 12.5592651-7.5900574 7.6094971-32.3659363-33.5460358-89.8039551-33.5294647-122.2294617.0117035-2.1100769 2.0828399-5.506073 2.0723418-7.6056213-.0271912zm105.7746582 24.0659332c-19.431488-20.2834473-54.6946106-20.3434601-74.0243835.0373383-4.9344482 4.9740601-12.5801086-2.5410004-7.6420593-7.5591431 23.3231506-24.5897369 65.8235474-24.5502472 89.2667236-.0778046 4.9284973 4.9854736-2.5911255 12.5536499-7.6002808 7.5996094zm-37.0515747 7.9047546c7.0582275-.6111755 27.7897949 6.9980621 20.5655212 16.1768799-2.1085205 2.0855713-5.5175781 2.0607758-7.6008911-.0524292-6.8129883-6.8917389-18.9535522-6.9757233-25.9607544.0314941-2.0995483 2.089035-5.5060425 2.0942841-7.6055908-.005249-7.1535034-9.2052612 13.6487121-16.741806 20.6017151-16.1506958zm-61.4744263 148.295517h5.1123657v5.1071167c0 7.0386963 5.7265015 12.7651978 12.7651978 12.7651978 7.0334473 0 12.7599182-5.7265015 12.7599182-12.7651978v-5.1071167h5.1123657c7.0334473 0 12.7599487-5.7265015 12.7599487-12.7651978 0-7.0334473-5.7265015-12.7599182-12.7599487-12.7599182h-5.1123657v-5.1123657c0-7.0334473-5.7264709-12.7599487-12.7599182-12.7599487-7.0386963 0-12.7651978 5.7265015-12.7651978 12.7599487v5.1123657h-5.1123657c-16.8289795.443512-16.8166962 25.085968 0 25.525116zm0-14.7754822h10.4871826c2.9708557 0 5.3748169-2.4039612 5.3748169-5.3748169v-10.4871826c-.0369568-2.5939636 4.0619507-2.6172485 4.0258484.0002136 0-.0002136 0 10.486969 0 10.486969 0 2.9708557 2.4039917 5.3748169 5.3748169 5.3748169h10.4871826c2.5991516-.0357666 2.6120605 4.0631409-.0002136 4.0258484h-10.486969c-2.9708252 0-5.3748169 2.4039612-5.3748169 5.3748169v10.4819336c.0362854 2.6068726-4.0636292 2.6195984-4.0258484-.0002136v-10.48172c0-2.9708557-2.4039612-5.3748169-5.3748169-5.3748169h-10.4871826c-2.5939636.0369568-2.6172485-4.0619507 0-4.0258484zm-174.8231583-68.1982117c7.2329025 0 13.6837311-4.8131714 15.6677933-12.0933228l21.3680344-79.1630249 21.3837814 79.1420288c4.9578247 18.1864319 32.1326447 14.6394653 32.1595154-4.2574158.0001221-.4770203-.010376-.9651794-.0576019-1.3903198l-8.8915405-103.1712341v-47.6069946l57.6270294 12.6916962c16.4389954 3.5944977 24.8736267-19.3857651 9.8882904-27.2206268-18.231781-6.769249-78.7008362-35.4167862-97.4324036-36.9976311 25.0633698-14.6151619 14.6430054-53.7392693-14.70401-53.7702904-29.3473587.030942-39.7720795 39.1500969-14.7144318 53.7660255-18.3915558 1.470562-79.5197525 30.3348199-97.4635372 37.0273705-14.9290552 7.8178558-6.5074844 30.7737045 9.8687496 27.2002106-.0005035.0001907 57.799736-12.7334976 57.799736-12.7334976l.0157471 46.5677185-8.9335251 104.709137c-.5552749 9.3149719 7.1151047 17.4238281 16.4183731 17.3001708zm18.7960968-244.8794288c.630867-24.0073624 35.7965775-24.0072613 36.4216995.0005531-.6305084 24.017952-35.7925033 24.0084648-36.4216995-.0005531zm-24.4648437 228.5083046c-.2522202-.1563416 9.0132065-104.8835754 8.9122162-105.1553345.0003128.0000458.0003128-53.737587.0003128-53.737587.0850754-3.3218765-3.2961044-6.0546951-6.5296021-5.2487488.0000458-.0000916-64.3559952 14.1770248-64.3559952 14.1770248-4.2437296 1.0150299-6.5814276-5.3876877-2.2723951-7.3168106-.0003529-.0000763 72.1187286-29.8922272 72.1187286-29.8922272 22.428299-9.3061905 47.1345901-9.3009415 69.5733871-.005249l72.4340057 30.0286255c1.6667175.871933 2.4541473 2.8165894 1.8633423 4.6032333-.5826111 1.8738327-2.5246887 3.0285797-4.4877625 2.577179l-64.1775818-14.1351318c-3.2440491-.7960815-6.6064606 1.9174652-6.5294952 5.2489319-.000061-.0000839.0209351 54.7400818.0209351 54.7400818l8.9282837 104.1160126c0 2.7294006-1.9525757 5.0493774-4.676712 5.5270386-2.7294006.5091248-5.6057739-1.2492371-6.3458557-4.052124l-24.4333496-90.4165344-2.1467819-7.8732605c-1.1824417-5.2253723-9.1497345-5.2662048-10.3874435-.0574341-.0000153-.0003052-26.5486526 98.336731-26.5486526 98.336731-1.5857745 6.2190856-11.0341311 4.9838561-10.9595843-1.4644166zm167.7319717 151.5340576c0-2.9708557 2.4039612-5.3748169 5.3748169-5.3748169h68.8595428c2.9708557 0 5.3748169 2.4039612 5.3748169 5.3748169 0 2.9708252-2.4039612 5.3747864-5.3748169 5.3747864h-68.8595428c-2.9708557 0-5.3748169-2.4039612-5.3748169-5.3747864zm132.5752411 24.9687195c0 2.9708557-2.4039917 5.3748169-5.3748169 5.3748169h-121.8256073c-2.9708557 0-5.3748169-2.4039612-5.3748169-5.3748169 0-2.9708252 2.4039612-5.3748169 5.3748169-5.3748169h121.8256073c2.9708252 0 5.3748169 2.4039917 5.3748169 5.3748169zm-196.7318268 31.7030029c0 2.9708557-2.4039764 5.3748169-5.3748169 5.3748169h-93.8282852c-2.9708481 0-5.3748169-2.4039612-5.3748169-5.3748169v-168.487793c0-2.9708557 2.4039688-5.3748169 5.3748169-5.3748169 2.9708405 0 5.3748093 2.4039612 5.3748093 5.3748169v163.1129761h88.453476c2.9708404 0 5.3748168 2.4039917 5.3748168 5.3748169zm72.5074921-413.1257935c0-2.9708443 2.4039612-5.3748131 5.3748169-5.3748131h193.461792c2.9708252 0 5.3748169 2.4039688 5.3748169 5.3748131v168.4878082c0 2.9708405-2.4039917 5.3748169-5.3748169 5.3748169-2.9708557 0-5.3748169-2.4039764-5.3748169-5.3748169v-163.1129913h-188.0869751c-2.9708557 0-5.3748169-2.4039688-5.3748169-5.3748169z"/></svg>