<svg enable-background="new 0 0 64 64" viewBox="0 0 64 64" xmlns="http://www.w3.org/2000/svg"><g id="guid"/><g id="Layer_1"/><g id="Layer_2"/><g id="Layer_3"/><g id="Layer_4"/><g id="Layer_5"/><g id="Layer_6"/><g id="Layer_7"/><g id="Layer_8"/><g id="Layer_9"/><g id="Layer_10"/><g id="Layer_11"/><g id="Layer_12"/><g id="Layer_13"/><g id="Layer_14"/><g id="Layer_15"/><g id="Layer_16"/><g id="Layer_17"/><g id="Layer_18"/><g id="Layer_19"/><g id="Layer_20"/><g id="Layer_21"/><g id="Layer_22"/><g id="Layer_23"/><g id="Layer_24"/><g id="Layer_25"/><g id="Layer_26"/><g id="Layer_27"/><g id="Layer_28"/><g id="Layer_29"/><g id="Layer_30"/><g id="Layer_31"/><g id="Layer_32"><g><path d="m39.57 10.01h-15.14c-2.44 0-4.42 1.97-4.42 4.4v35.17c0 2.43 1.98 4.4 4.42 4.4h15.13c2.44 0 4.42-1.97 4.42-4.4v-35.17c.01-2.42-1.98-4.4-4.41-4.4zm3.44 39.58c0 1.89-1.54 3.42-3.44 3.42h-15.14c-1.9 0-3.44-1.54-3.44-3.42v-35.18c0-1.89 1.54-3.42 3.44-3.42h15.13c1.9 0 3.44 1.54 3.44 3.42v35.18z"/><path d="m25.85 15.45h12.29c.85 0 1.54-.69 1.54-1.54 0-.84-.69-1.53-1.54-1.53h-12.29c-.85 0-1.54.69-1.54 1.54.01.84.7 1.53 1.54 1.53zm0-2.09h12.29c.31 0 .55.25.55.56 0 .3-.25.55-.55.55h-12.29c-.31 0-.55-.25-.55-.56 0-.3.25-.55.55-.55z"/><path d="m46.13 15.46c.12 0 .24-.04.33-.13l3.54-3.2h3.19c.21.66.83 1.15 1.56 1.15.9 0 1.64-.74 1.64-1.64s-.73-1.64-1.64-1.64c-.73 0-1.35.49-1.56 1.15h-3.38c-.12 0-.24.05-.33.13l-3.68 3.33c-.33.29-.1.87.33.85zm8.62-4.48c.36 0 .66.3.66.66s-.3.66-.66.66-.66-.3-.66-.66.3-.66.66-.66z"/><path d="m46.13 24.69h2.52c.27 0 .49-.22.49-.49v-5.37l2.82-2.33h4.84c.21.66.83 1.15 1.56 1.15.9 0 1.64-.74 1.64-1.64s-.74-1.64-1.64-1.64c-.73 0-1.35.49-1.56 1.15h-5.02c-.11 0-.23.04-.31.11l-3.13 2.59c-.11.09-.18.23-.18.38v5.11h-2.03c-.63 0-.63.99 0 .98zm12.23-9.33c.36 0 .66.3.66.66s-.3.66-.66.66-.66-.3-.66-.66.3-.66.66-.66z"/><path d="m46.13 29.85h5.3c.27 0 .49-.22.49-.49v-7.57h3c.22.65.83 1.12 1.55 1.12.9 0 1.64-.74 1.64-1.64s-.74-1.64-1.64-1.64c-.75 0-1.37.5-1.57 1.19h-3.47c-.27 0-.49.22-.49.49v7.57h-4.8c-.64-.02-.64.98-.01.97zm10.34-9.25c.36 0 .66.3.66.66s-.3.66-.66.66-.66-.3-.66-.66.3-.66.66-.66z"/><path d="m46.13 35.13h4.8v7.57c0 .27.22.49.49.49h3.47c.2.68.82 1.19 1.57 1.19.9 0 1.64-.74 1.64-1.64s-.74-1.64-1.64-1.64c-.72 0-1.33.47-1.55 1.12h-3v-7.57c0-.27-.22-.49-.49-.49h-5.3c-.62-.02-.62.98.01.97zm10.34 6.94c.36 0 .66.3.66.66s-.3.66-.66.66-.66-.3-.66-.66.3-.66.66-.66z"/><path d="m58.36 46.34c-.73 0-1.35.49-1.56 1.15h-4.84l-2.82-2.33v-5.36c0-.27-.22-.49-.49-.49h-2.52c-.64-.01-.64.99 0 .98h2.03v5.11c0 .15.07.28.18.38l3.13 2.59c.09.07.2.11.31.11h5.02c.21.66.83 1.15 1.56 1.15.9 0 1.64-.74 1.64-1.64s-.74-1.65-1.64-1.65zm0 2.3c-.36 0-.66-.3-.66-.66s.3-.66.66-.66.66.3.66.66-.3.66-.66.66z"/><path d="m54.75 50.72c-.73 0-1.35.49-1.56 1.15h-3.19l-3.54-3.21c-.46-.43-1.14.3-.66.72l3.68 3.33c.09.08.21.13.33.13h3.38c.21.67.83 1.16 1.56 1.16.9 0 1.64-.74 1.64-1.64 0-.91-.73-1.64-1.64-1.64zm0 2.3c-.36 0-.66-.3-.66-.66s.3-.66.66-.66.66.3.66.66-.3.66-.66.66z"/><path d="m46.13 32.5h7.56c.21.66.83 1.15 1.56 1.15.9 0 1.64-.74 1.64-1.64s-.74-1.64-1.64-1.64c-.73 0-1.35.49-1.56 1.15h-7.56c-.63 0-.63.99 0 .98zm9.12-1.15c.36 0 .66.3.66.66 0 .37-.3.66-.66.66s-.66-.3-.66-.66.3-.66.66-.66z"/><path d="m17.87 23.72h-2.03v-5.11c0-.15-.07-.28-.18-.38l-3.13-2.59c-.09-.07-.2-.11-.31-.11h-5.02c-.21-.66-.83-1.15-1.56-1.15-.9 0-1.64.74-1.64 1.64s.74 1.64 1.64 1.64c.73 0 1.35-.49 1.56-1.15h4.84l2.82 2.33v5.37c0 .27.22.49.49.49h2.52c.63 0 .63-.99 0-.98zm-12.23-7.04c-.36 0-.66-.3-.66-.66s.3-.66.66-.66.66.3.66.66-.3.66-.66.66z"/><path d="m17.87 28.87h-4.8v-7.57c0-.27-.22-.49-.49-.49h-3.48c-.2-.68-.82-1.19-1.57-1.19-.9 0-1.64.74-1.64 1.64s.74 1.64 1.64 1.64c.72 0 1.33-.47 1.55-1.12h3v7.57c0 .27.22.49.49.49h5.3c.63.02.63-.98 0-.97zm-10.34-6.94c-.36 0-.66-.3-.66-.66s.3-.66.66-.66.66.3.66.66-.3.66-.66.66z"/><path d="m9.25 13.28c.73 0 1.35-.49 1.56-1.15h3.19l3.54 3.21c.46.43 1.14-.3.66-.72l-3.68-3.33c-.09-.08-.21-.13-.33-.13h-3.38c-.21-.67-.83-1.16-1.56-1.16-.9 0-1.64.74-1.64 1.64s.73 1.64 1.64 1.64zm0-2.3c.36 0 .66.3.66.66s-.3.66-.66.66-.66-.3-.66-.66.3-.66.66-.66z"/><path d="m17.53 48.66-3.53 3.21h-3.19c-.21-.66-.83-1.15-1.56-1.15-.9 0-1.64.74-1.64 1.64s.74 1.64 1.64 1.64c.73 0 1.35-.49 1.56-1.15h3.38c.12 0 .24-.05.33-.13l3.68-3.33c.47-.42-.2-1.16-.67-.73zm-8.28 4.36c-.36 0-.66-.3-.66-.66s.3-.66.66-.66.66.3.66.66-.3.66-.66.66z"/><path d="m17.87 39.31h-2.52c-.27 0-.49.22-.49.49v5.37l-2.82 2.33h-4.84c-.21-.66-.83-1.15-1.56-1.15-.9 0-1.64.74-1.64 1.64s.74 1.64 1.64 1.64c.73 0 1.35-.49 1.56-1.15h5.02c.11 0 .23-.04.31-.11l3.13-2.59c.11-.09.18-.23.18-.38v-5.11h2.03c.63 0 .63-.99 0-.98zm-12.23 9.33c-.36 0-.66-.3-.66-.66s.3-.66.66-.66.66.3.66.66-.3.66-.66.66z"/><path d="m17.87 34.15h-5.3c-.27 0-.49.22-.49.49v7.57h-3c-.22-.65-.83-1.12-1.55-1.12-.9 0-1.64.74-1.64 1.64s.74 1.64 1.64 1.64c.75 0 1.37-.5 1.57-1.19h3.47c.27 0 .49-.22.49-.49v-7.57h4.8c.64.02.64-.98.01-.97zm-10.34 9.25c-.36 0-.66-.3-.66-.66s.3-.66.66-.66.66.3.66.66-.3.66-.66.66z"/><path d="m17.87 31.53h-7.56c-.21-.66-.83-1.15-1.56-1.15-.9 0-1.64.74-1.64 1.64s.74 1.64 1.64 1.64c.73 0 1.35-.49 1.56-1.15h7.56c.63 0 .63-.99 0-.98zm-9.12 1.15c-.36 0-.66-.3-.66-.66 0-.37.3-.66.66-.66s.66.3.66.66-.3.66-.66.66z"/><path d="m37.66 23.6c-2.33-.54-4.65.48-5.63 2.48h-.05c-.98-2-3.3-3.02-5.63-2.48-1.8.42-3.73 1.91-3.73 4.86.05 5.05 2.7 8.53 9.16 12.03.15.08.32.08.47 0 6.46-3.5 9.11-6.99 9.16-12.04-.02-2.94-1.95-4.43-3.75-4.85zm-5.66 15.9c-5.93-3.26-8.37-6.48-8.41-11.05 0-2.01 1.11-3.47 2.97-3.9 1.7-.36 3.61.15 4.53 1.96.35.7 1.47.7 1.82 0 .91-1.85 2.98-2.32 4.53-1.96 1.86.43 2.97 1.89 2.97 3.89-.04 4.59-2.48 7.8-8.41 11.06z"/><path d="m35.57 30.03h-1.59v-1.59c0-.27-.22-.49-.49-.49h-2.97c-.27 0-.49.22-.49.49v1.59h-1.59c-.27 0-.49.22-.49.49v2.97c0 .27.22.49.49.49h1.59v1.59c0 .27.22.49.49.49h2.97c.27 0 .49-.22.49-.49v-1.59h1.59c.27 0 .49-.22.49-.49v-2.97c0-.27-.22-.49-.49-.49zm-.49 2.98h-1.59c-.27 0-.49.22-.49.49v1.59h-2v-1.59c0-.27-.22-.49-.49-.49h-1.59v-2h1.59c.27 0 .49-.22.49-.49v-1.59h2v1.59c0 .27.22.49.49.49h1.59z"/><path d="m40.9 37.41c-.27 0-.49.22-.49.49v4.14h-5.02c-.64-.01-.64.99 0 .98h5.51c.27 0 .49-.22.49-.49v-4.63c0-.27-.22-.49-.49-.49z"/><path d="m40.9 19.62h-4.87c-.64-.01-.64.99 0 .98h4.38v2.87c-.01.63.99.63.98 0v-3.36c0-.27-.22-.49-.49-.49z"/><path d="m28.62 42.04h-5.02v-4.14c.01-.63-.99-.63-.98 0v4.63c0 .27.22.49.49.49h5.51c.64.01.64-.99 0-.98z"/><path d="m23.11 23.97c.27 0 .49-.22.49-.49v-2.88h4.38c.64.01.64-.99 0-.98h-4.87c-.27 0-.49.22-.49.49v3.36c0 .28.22.5.49.5z"/></g></g><g id="Layer_33"/><g id="Layer_34"/><g id="Layer_35"/><g id="Layer_36"/><g id="Layer_37"/><g id="Layer_38"/><g id="Layer_39"/><g id="Layer_40"/><g id="Layer_41"/><g id="Layer_42"/><g id="Layer_43"/><g id="Layer_44"/><g id="Layer_45"/><g id="Layer_46"/><g id="Layer_47"/><g id="Layer_48"/><g id="Layer_49"/><g id="Layer_50"/></svg>