<svg id="Line" height="512" viewBox="0 0 512 512" width="512" xmlns="http://www.w3.org/2000/svg"><g><path d="m494 0h-476a18.021 18.021 0 0 0 -18 18v134h16v-72h232v83.719l-24 16v-11.452a69.162 69.162 0 0 0 -23.509-51.977l-8.29-7.279a20.148 20.148 0 0 0 -29.442 3.086l-40.82 54.611a131.252 131.252 0 0 0 -25.939 78.083v78.994a20.217 20.217 0 0 0 20.174 20.215h14.608a93.183 93.183 0 0 0 76.878-40.612 26.278 26.278 0 0 0 4.06-20.113 76.942 76.942 0 0 1 -1.579-15.682c0-13.583 3.448-26.469 9.459-35.353a25.888 25.888 0 0 0 4.4-14.583v-18.709l32-21.333 32 21.333v18.709a25.9 25.9 0 0 0 4.4 14.583c6.012 8.884 9.46 21.77 9.46 35.353a76.959 76.959 0 0 1 -1.579 15.683 26.28 26.28 0 0 0 4.059 20.112 93.187 93.187 0 0 0 76.878 40.612h14.608a20.217 20.217 0 0 0 20.174-20.215v-78.994a131.252 131.252 0 0 0 -25.939-78.083l-40.821-54.608a20.147 20.147 0 0 0 -29.441-3.086l-8.29 7.279a69.162 69.162 0 0 0 -23.509 51.974v11.452l-24-16v-83.719h232v272h-480v-184h-16v246a18.021 18.021 0 0 0 18 18h182v6.246c-4.9 10.336-14.4 24.787-21.88 27.282l-6.974 2.324a27.966 27.966 0 0 0 -19.146 26.563v9.585a8 8 0 0 0 8 8h192a8 8 0 0 0 8-8v-9.585a27.966 27.966 0 0 0 -19.146-26.563l-6.973-2.324c-7.486-2.5-16.985-16.951-21.881-27.281v-6.247h128v-16h-48v-4a28.032 28.032 0 0 0 -28-28h-216a28.032 28.032 0 0 0 -28 28v4h-102a2 2 0 0 1 -2-2v-46h480v46a2 2 0 0 1 -2 2h-38v16h38a18.021 18.021 0 0 0 18-18v-396a18.021 18.021 0 0 0 -18-18zm-286 217.657a9.961 9.961 0 0 1 -1.651 5.616c-7.872 11.635-12.208 27.374-12.208 44.32a92.869 92.869 0 0 0 1.917 18.949 10.208 10.208 0 0 1 -1.6 7.8 77.192 77.192 0 0 1 -63.676 33.658h-14.608a4.2 4.2 0 0 1 -4.174-4.215v-78.994a115.135 115.135 0 0 1 22.756-68.5l40.819-54.612a4.145 4.145 0 0 1 6.07-.641l8.29 7.278a53.168 53.168 0 0 1 18.065 39.951v22.118l-12.807 8.539-20.793-27.724-12.8 9.6 20.259 27.013-50.3 33.531 8.876 13.312 15.8-10.531 12.338 30.846 14.856-5.942-13.59-33.973 38.161-25.441zm96-49.39a53.168 53.168 0 0 1 18.065-39.954l8.29-7.278a4.147 4.147 0 0 1 6.07.641l40.819 54.612a115.135 115.135 0 0 1 22.756 68.503v78.994a4.2 4.2 0 0 1 -4.174 4.215h-14.608a77.195 77.195 0 0 1 -63.679-33.654 10.21 10.21 0 0 1 -1.6-7.8 92.886 92.886 0 0 0 1.917-18.95c0-16.946-4.336-32.685-12.209-44.321a9.962 9.962 0 0 1 -1.65-5.615v-8.042l38.162 25.441-13.59 33.973 14.856 5.942 12.338-30.846 15.8 10.531 8.876-13.312-50.3-33.531 20.261-27.016-12.8-9.6-20.793 27.724-12.807-8.539zm-7.307 274.99a126.907 126.907 0 0 0 8.733 15.818c7.633 11.723 15.5 19 23.4 21.632l6.974 2.324a11.986 11.986 0 0 1 8.2 11.384v1.585h-176v-1.585a11.986 11.986 0 0 1 8.205-11.384l6.975-2.324c7.89-2.631 15.761-9.909 23.394-21.632a126.907 126.907 0 0 0 8.733-15.818 8 8 0 0 0 .693-3.257v-8h80v8a8 8 0 0 0 .693 3.257zm-160.693-31.257a12.013 12.013 0 0 1 12-12h216a12.013 12.013 0 0 1 12 12v4h-240zm176-396v4a12.013 12.013 0 0 1 -12 12h-88a12.013 12.013 0 0 1 -12-12v-4zm-296 48v-46a2 2 0 0 1 2-2h166v4a28.032 28.032 0 0 0 28 28h88a28.032 28.032 0 0 0 28-28v-4h166a2 2 0 0 1 2 2v46z"/><path d="m360 280h16v16h-16z"/><path d="m360 200h16v16h-16z"/><path d="m320 144h16v16h-16z"/><path d="m136 280h16v16h-16z"/><path d="m136 200h16v16h-16z"/><path d="m176 144h16v16h-16z"/><path d="m480 96h-48a8 8 0 0 0 -6.247 3l-32 40 12.494 10 29.6-37h44.153z"/><path d="m440 128h40v16h-40z"/><path d="m105.754 149 12.494-10-32-40a8 8 0 0 0 -6.248-3h-48v16h44.155z"/><path d="m32 128h40v16h-40z"/><path d="m32 248h48v16h-48z"/><path d="m32 280h48v16h-48z"/><path d="m32 312h48v16h-48z"/><path d="m432 248h48v16h-48z"/><path d="m432 280h48v16h-48z"/><path d="m432 312h48v16h-48z"/></g></svg>