<svg id="Layer_1" viewBox="0 0 512 512" xmlns="http://www.w3.org/2000/svg" data-name="Layer 1"><path d="m408.556 290.52a9.318 9.318 0 1 0 0 13.177 9.328 9.328 0 0 0 0-13.177zm-29.811 46.391a41.616 41.616 0 0 0 46.444 0c-9.727-18.764-36.716-18.764-46.444 0zm52.642-63.946a41.6 41.6 0 0 1 2.173 56.492 37.3 37.3 0 0 0 -19.885-15.752 20.289 20.289 0 0 0 8.6-16.6c0-18.03-21.9-27.127-34.67-14.361a20.314 20.314 0 0 0 2.652 30.957 37.3 37.3 0 0 0 -19.884 15.752 41.605 41.605 0 0 1 61.012-56.492zm-29.42-23.178a52.6 52.6 0 1 1 -52.6 52.6 52.6 52.6 0 0 1 52.6-52.6zm-126.2 95.832h-181.632v10.481h181.634v-10.481zm-50.993-10.993a49.8 49.8 0 0 1 -18.338-33.29h-42.971a49.8 49.8 0 0 1 -18.338 33.29zm83.158-44.283v-14.852h-280.939v5.837a9.055 9.055 0 0 0 9.015 9.015zm44.612-131.818h123.856a19.641 19.641 0 0 1 19.6 19.6v257.926a19.64 19.64 0 0 1 -19.6 19.6h-148.869a19.641 19.641 0 0 1 -19.6-19.6v-134.715h-90.413a38.914 38.914 0 0 0 38.367 33.289h24.048a6.834 6.834 0 0 1 6.828 6.828v18.812a6.873 6.873 0 0 1 -6.828 6.828h-189.963a6.806 6.806 0 0 1 -4.826-2 6.992 6.992 0 0 1 -2-4.826v-18.813a6.834 6.834 0 0 1 6.828-6.828h24.048a38.915 38.915 0 0 0 38.368-33.289h-116.38a20.053 20.053 0 0 1 -20.008-20.009v-204.969a20.052 20.052 0 0 1 20.008-20.007h296.53a20.052 20.052 0 0 1 20.008 20.007v82.166zm-25.015 0h14.023v-82.166a9.056 9.056 0 0 0 -9.016-9.015h-296.528a9.056 9.056 0 0 0 -9.015 9.015v188.141h280.941v-86.378a19.641 19.641 0 0 1 19.6-19.6zm33.174 10.992a8.386 8.386 0 0 0 8.339 8.036h65.847a8.385 8.385 0 0 0 8.338-8.036zm124.304 240.283h-166.08v26.251a8.643 8.643 0 0 0 8.6 8.605h148.873a8.643 8.643 0 0 0 8.6-8.605v-26.251zm-166.08-10.992v-220.686a8.644 8.644 0 0 1 8.6-8.605h22.178a19.382 19.382 0 0 0 19.335 19.028h65.847a19.381 19.381 0 0 0 19.334-19.028h22.179a8.643 8.643 0 0 1 8.6 8.605v220.686zm73.908 34.9h18.265a5.5 5.5 0 1 0 0-10.993h-18.265a5.5 5.5 0 0 0 0 10.993zm-198.962-309.757h-19.2v24.974a5.5 5.5 0 0 1 -5.5 5.5h-24.973v19.2h24.975a5.5 5.5 0 0 1 5.5 5.5v24.975h19.2v-24.984a5.5 5.5 0 0 1 5.5-5.5h24.974v-19.2h-24.98a5.5 5.5 0 0 1 -5.5-5.5v-24.965zm-24.695-10.993a5.5 5.5 0 0 0 -5.5 5.5v24.974h-24.971a5.5 5.5 0 0 0 -5.5 5.5v30.191a5.5 5.5 0 0 0 5.5 5.5h24.975v24.975a5.5 5.5 0 0 0 5.5 5.5h30.191a5.5 5.5 0 0 0 5.5-5.5v-24.986h24.974a5.5 5.5 0 0 0 5.5-5.5v-30.187a5.5 5.5 0 0 0 -5.5-5.5h-24.982v-24.97a5.5 5.5 0 0 0 -5.5-5.5zm68.267-2.109a75.2 75.2 0 1 0 0 106.344 75.2 75.2 0 0 0 0-106.344zm-53.172-33.016a86.188 86.188 0 1 0 86.189 86.188 86.191 86.191 0 0 0 -86.189-86.188z" fill-rule="evenodd"/></svg>