<svg height="454pt" viewBox="-51 0 454 454.88406" width="454pt" xmlns="http://www.w3.org/2000/svg"><path d="m259.632812 96.488281v-49.289062c-.03125-26.054688-21.144531-47.1718752-47.203124-47.199219h-164.789063c-26.054687.0273438-47.171875 21.144531-47.199219 47.199219v360.484375c.027344 26.054687 21.144532 47.171875 47.199219 47.199218h164.792969c11.222656.019532 22.082031-3.980468 30.613281-11.277343h79.171875c1.628906 0 3.1875-.660157 4.320312-1.832031 1.128907-1.171876 1.738282-2.753907 1.679688-4.378907-.039062-1.070312-3.757812-107.519531-.023438-147.644531.84375-9.078125 8.976563-30.753906 12.179688-38.707031 16.9375-32.476563 15.96875-71.378907-2.558594-102.972657-16.449218-28.582031-45.4375-47.707031-78.183594-51.582031zm25.957032 193.898438-13.707032-20.199219c7.683594-8.871094 7.597657-22.0625-.203124-30.828125-7.800782-8.765625-20.890626-10.390625-30.59375-3.789063-9.703126 6.597657-13.007813 19.367188-7.722657 29.84375 5.289063 10.476563 17.523438 15.40625 28.597657 11.519532l13.707031 20.203125c-22.378907 11.386719-49.753907 3.425781-62.535157-18.183594-12.78125-21.613281-6.566406-49.4375 14.195313-63.558594 20.765625-14.121093 48.925781-9.675781 64.328125 10.152344s12.746094 48.214844-6.066406 64.839844zm-20.957032-30.886719-5.441406-8.019531c-1.191406-1.800781-3.257812-2.824219-5.414062-2.679688-2.15625.148438-4.066406 1.445313-5 3.394531-.9375 1.949219-.75 4.25.484375 6.023438l5.4375 8.011719c-.15625.007812-.3125.023437-.472657.023437-5.070312.015625-9.542968-3.308594-10.992187-8.167968-1.445313-4.859376.480469-10.09375 4.730469-12.855469 4.253906-2.761719 9.816406-2.390625 13.667968.90625 3.847657 3.296875 5.070313 8.738281 2.996094 13.363281zm30.636719-47.574219c-18.53125-17.722656-46.34375-21.554687-68.976562-9.507812-22.636719 12.046875-34.988281 37.257812-30.636719 62.53125 4.351562 25.269531 24.421875 44.898437 49.785156 48.679687-4.089844 15.835938-18.34375 26.921875-34.699218 26.992188h-.167969c-19.699219.082031-30.390625.148437-31.769531.191406-4.871094.136719-9.589844-1.703125-13.082032-5.097656-3.496094-3.394532-5.46875-8.0625-5.46875-12.933594v-35.5c0-3.316406-2.6875-6-6-6h-30.148437l16.820312-44.066406h20.761719c9.074219.082031 17.492188-4.714844 22.054688-12.558594 4.558593-7.84375 4.558593-17.535156 0-25.378906-4.5625-7.847656-12.980469-12.640625-22.054688-12.5625h-14.425781c1.121093-4.878906 2.601562-9.667969 4.429687-14.328125h18.152344c20.402344 0 36.949219-16.539063 36.949219-36.945313v-19.609375c11.175781-4.726562 23.101562-7.425781 35.222656-7.976562v13.136719c0 23.640624 19.164063 42.804687 42.804687 42.808593h47.542969c5.132813 11.632813 7.863281 24.179688 8.035157 36.890625zm-150.023437-13.207031h16.441406c4.773438-.058594 9.210938 2.453125 11.613281 6.574219 2.402344 4.125 2.402344 9.222656 0 13.347656-2.402343 4.121094-6.839843 6.636719-11.613281 6.578125h-17.046875c.027344-9.464844.085937-19.707031.160156-20.953125.09375-1.863281.25-3.714844.445313-5.546875zm12.085937-38.332031c8.824219-15.949219 21.757813-29.246094 37.460938-38.5v13.554687c0 13.777344-11.171875 24.945313-24.949219 24.945313zm168.722657-8.585938h-41.234376c-17.011718 0-30.804687-13.792969-30.804687-30.808593v-13c29.667969 2.148437 56.484375 18.453124 72.039063 43.808593zm-278.414063-139.796875h164.792969c19.429687.019532 35.179687 15.765625 35.199218 35.199219v14.597656h-14.601562c-3.3125 0-6 2.6875-6 6 0 3.316407 2.6875 6 6 6h14.601562v21.941407c-60.917968-.460938-111.460937 47.003906-114.816406 107.835937-.117187 1.875-.164062 16.648437-.179687 21.710937l-20.359375 53.332032c-1.269532 3.320312-.820313 7.054687 1.195312 9.984375 2.019532 2.929687 5.347656 4.679687 8.90625 4.675781h25.882813v29.5c0 8.121094 3.289062 15.894531 9.113281 21.550781 5.828125 5.65625 13.695312 8.714844 21.8125 8.476563.714844-.023438 5.75-.078125 31.425781-.1875h.023438c4.132812-.011719 7.804687 2.644531 9.085937 6.574218v9.53125h-207.28125v-294.925781h168.0625c3.3125 0 6-2.6875 6-6 0-3.316406-2.6875-6-6-6h-168.0625v-14.601562c.023438-19.429688 15.769532-35.175781 35.199219-35.195313zm0 430.878906c-19.429687-.023437-35.175781-15.769531-35.199219-35.199218v-26.957032h207.277344v56.878907c0 1.535156.589844 3.011719 1.652344 4.125-2.917969.761719-5.921875 1.148437-8.9375 1.152343zm208.601563-67.273437c-2.484376 0-4.5-2.011719-4.5-4.5 0-2.484375 2.015624-4.5 4.5-4.5 2.484374 0 4.5 2.015625 4.5 4.5 0 2.488281-2.015626 4.5-4.5 4.5zm73.109374-129.335937c-1.21875 3.011718-11.941406 29.769531-13.113281 42.359374-3.316406 35.667969-.980469 119.277344-.226562 142.972657h-14.128907v-8.328125c0-3.3125-2.6875-6-6-6-3.316406 0-6 2.6875-6 6v8.328125h-27.640624v-45.140625c7.390624-2.886719 11.683593-10.625 10.214843-18.421875-1.46875-7.800781-8.28125-13.449219-16.214843-13.449219-7.9375 0-14.746094 5.648438-16.214844 13.449219-1.46875 7.796875 2.824218 15.535156 10.214844 18.421875v45.140625h-18.523438v-73.246094c0-.492187-.058594-.984375-.179688-1.464844-.6875-2.71875-1.898437-5.277343-3.5625-7.53125 15.203126-5.941406 26.359376-19.1875 29.632813-35.183593 8.699219-.484376 17.183594-2.886719 24.839844-7.039063l7.433593 10.953125v34.75c-7.398437 2.867188-11.703124 10.59375-10.253906 18.390625 1.453125 7.800781 8.25 13.460937 16.179688 13.480469 7.933594.015625 14.753906-5.613282 16.238281-13.40625 1.488281-7.792969-2.785156-15.539063-10.164063-18.441406v-36.613282c0-1.203125-.363281-2.375-1.035156-3.371094l-8.480468-12.5c23.179687-19.351562 28.117187-53.03125 11.460937-78.222656l35.890625-8.933594c-1.382812 11.363282-4.8125 22.378907-10.121094 32.519532-.085937.175781-.167968.347656-.242187.527344zm-33.507812 117.4375c2.484375 0 4.5 2.015624 4.5 4.5 0 2.484374-2.015625 4.5-4.5 4.5-2.488281 0-4.5-2.015626-4.5-4.5 0-2.484376 2.011719-4.5 4.5-4.5zm0 0"/><path d="m235.707031 292.863281c5.78125 2.808594 12.121094 4.269531 18.546875 4.28125 1.363282 0 2.738282-.066406 4.097656-.199219 3.300782-.324218 5.710938-3.257812 5.386719-6.558593-.320312-3.296875-3.257812-5.707031-6.554687-5.386719-5.574219.53125-11.183594-.484375-16.222656-2.925781-2.972657-1.410157-6.527344-.164063-7.96875 2.796875-1.441407 2.957031-.226563 6.527344 2.71875 7.992187zm0 0"/><path d="m292.320312 236.488281c-.980468-2.03125-2.121093-3.984375-3.410156-5.839843-2.875-4.136719-6.476562-7.71875-10.621094-10.582032-2.726562-1.835937-6.421874-1.136718-8.289062 1.570313-1.871094 2.703125-1.214844 6.40625 1.46875 8.304687 2.964844 2.046875 5.535156 4.605469 7.59375 7.5625.925781 1.332032 1.742188 2.738282 2.449219 4.199219 1.984375 4.089844 3.011719 8.578125 3.011719 13.125 0 1.035156-.054688 2.070313-.160157 3.097656-.34375 3.296875 2.054688 6.246094 5.351563 6.585938.207031.019531.414062.03125.621094.03125 3.074218-.003907 5.648437-2.328125 5.960937-5.382813.148437-1.441406.222656-2.886718.226563-4.335937.003906-6.351563-1.429688-12.621094-4.203126-18.335938zm0 0"/><path d="m224.90625 224.363281c-5.628906 5.421875-9.648438 12.296875-11.609375 19.863281-.835937 3.207032 1.089844 6.484376 4.296875 7.320313 3.207031.832031 6.480469-1.089844 7.316406-4.300781 1.402344-5.417969 4.28125-10.347656 8.316406-14.230469 2.363282-2.300781 2.425782-6.082031.140626-8.460937-2.289063-2.378907-6.066407-2.460938-8.460938-.191407zm0 0"/><path d="m295.882812 394.664062c-3.316406 0-6 2.683594-6 6v.152344c0 3.316406 2.683594 6 6 6 3.3125 0 6-2.683594 6-6v-.152344c0-3.316406-2.6875-6-6-6zm0 0"/><path d="m200.789062 73.800781h11.453126c3.3125 0 6-2.6875 6-6 0-3.316406-2.6875-6-6-6h-11.453126c-3.3125 0-6 2.683594-6 6 0 3.3125 2.6875 6 6 6zm0 0"/><path d="m130.042969 390.355469c-11.847657 0-21.453125 9.601562-21.453125 21.449219 0 11.847656 9.605468 21.449218 21.453125 21.449218 11.84375 0 21.449219-9.601562 21.449219-21.449218-.015626-11.839844-9.609376-21.4375-21.449219-21.449219zm0 30.898437c-5.21875 0-9.453125-4.230468-9.453125-9.449218s4.230468-9.449219 9.449218-9.449219c5.222657 0 9.453126 4.230469 9.453126 9.449219-.007813 5.214843-4.234376 9.441406-9.449219 9.449218zm0 0"/></svg>