<svg id="Слой_1" enable-background="new 0 0 5000 5000" height="512" viewBox="0 0 5000 5000" width="512" xmlns="http://www.w3.org/2000/svg"><g fill="rgb(0,0,0)"><path d="m4026.249 3466.42c-45.541-34.672-103.332-45.814-158.512-30.584l-459.11 126.772c122.724-89.552 228.592-201.218 312.055-330.217 130.02-200.942 198.741-434.26 198.741-674.741 0-303.3-110.455-595.438-311.021-822.599-198.762-225.121-471.358-370.757-767.58-410.081-17.179-2.266-32.915 9.789-35.191 26.944-2.276 17.158 9.789 32.915 26.947 35.195 583.864 77.506 1024.16 580.73 1024.16 1170.542 0 454.426-265.255 873.332-675.999 1067.855-.05.019-.094.048-.144.068l-52.015 14.362c-33.503 9.256-68.12 13.945-102.881 13.945h-553.971c11.226-31.493 15.603-65.55 12.229-100.427-7.321-75.688-49.342-140.813-115.281-178.685l-600.728-345.03c-61.168-35.132-129.322-54.949-198.526-58.856-49.427-131.746-74.536-270.645-74.536-413.234 0-459.884 270.04-881.166 687.969-1073.259 15.723-7.229 22.613-25.84 15.388-41.566-7.239-15.729-25.854-22.627-41.569-15.391-213.144 97.973-393.846 253.849-522.566 450.782-132.091 202.077-201.906 437.021-201.906 679.434 0 142.666 23.924 281.849 70.978 414.439-32.16 2.926-64.14 9.244-95.341 19.185l-593.92 189.246c-16.495 5.25-25.601 22.88-20.344 39.375s22.887 25.628 39.375 20.344l593.92-189.246c103.086-32.847 216.029-20.788 309.866 33.106l600.728 345.03c48.104 27.624 78.757 75.141 84.103 130.361 5.339 55.221-15.641 107.728-57.559 144.067-46.081 39.942-110.394 52.158-167.809 31.883-175.629-62.036-504.827-177.454-508.129-178.616-16.338-5.694-34.221 2.885-39.949 19.209-5.722 16.338 2.878 34.221 19.209 39.949 3.302 1.155 332.432 116.553 507.992 178.562 25.136 8.88 51.222 13.207 77.157 13.207 55.2 0 109.669-19.626 152.585-56.834 12.12-10.505 22.88-22.046 32.375-34.351h588.26c40.4 0 80.63-5.455 119.567-16.215l739.149-204.101c36.189-9.967 74.02-2.673 103.865 20.043 29.853 22.729 46.97 57.278 46.97 94.794 0 46.71-27.501 89.318-70.062 108.555l-763.479 345.058c-35.034 15.832-72.119 26.325-110.236 31.192l-1097.633 140.157c-65.153 8.319-130.758 5.845-195.036-7.335l-680.935-139.624c-98.704-20.241-199.281-23.146-298.977-8.647-17.131 2.488-28.991 18.396-26.503 35.527 2.495 17.131 18.402 29.012 35.526 26.503 92.49-13.446 185.808-10.753 277.361 8.019l680.935 139.624c43.634 8.948 87.808 13.433 132.084 13.433 27.829 0 55.699-1.771 83.48-5.318l1097.64-140.157c44.29-5.653 87.391-17.855 128.105-36.251l763.479-345.058c64.962-29.354 106.935-94.391 106.935-165.676.004-57.257-26.124-109.982-71.685-144.668z"/><path d="m1420.642 1420.868c67.313 0 124.216-47.37 138.38-115.199 17.849-85.456 63.451-164.565 128.413-222.749 88.163-78.979 202.405-115.302 321.815-102.231 188.576 20.829 340.573 172.823 361.402 361.396 18.32 166.154-63.492 325.876-208.435 406.909-210.499 117.708-341.264 346.326-341.264 596.63v13.904c0 77.67 63.191 140.854 140.861 140.854 77.663 0 140.854-63.185 140.854-140.854v-13.904c0-148.395 75.496-282.796 197.025-350.752 244.002-136.404 381.76-404.763 350.95-683.676-35.15-318.599-291.908-575.35-610.483-610.497-196.957-21.8-394.03 40.999-540.688 172.354-110.879 99.316-188.063 234.486-217.342 380.604-8.183 40.824 2.372 82.852 28.964 115.302 27.039 32.991 66.967 51.909 109.548 51.909zm-77.054-154.892c26.64-132.932 96.852-255.893 197.709-346.233 133.39-119.472 312.683-176.617 491.976-156.741 289.666 31.955 523.106 265.395 555.071 555.075 28.034 253.818-97.269 497.998-319.238 622.084-141.326 79.023-229.12 234.391-229.12 405.463v13.904c0 43.104-35.068 78.172-78.169 78.172-43.107 0-78.176-35.068-78.176-78.172v-13.904c0-227.63 118.467-435.282 309.169-541.919 166.975-93.352 261.242-277.245 240.146-468.498-24.021-217.499-199.322-392.796-416.855-416.825-18.307-2.003-36.49-2.994-54.53-2.994-117.312 0-227.903 41.959-315.957 120.842-74.847 67.037-127.388 158.177-147.95 256.628-8.032 38.466-39.703 65.331-77.021 65.331-23.728 0-45.979-10.558-61.059-28.96-14.643-17.862-20.474-40.92-15.996-63.253z"/><path d="m1963.382 2565.888c-86.297 0-156.509 70.212-156.509 156.509s70.212 156.502 156.509 156.502 156.502-70.205 156.502-156.502-70.206-156.509-156.502-156.509zm0 250.325c-51.734 0-93.823-42.082-93.823-93.816s42.089-93.823 93.823-93.823 93.816 42.089 93.816 93.823-42.082 93.816-93.816 93.816z"/><path d="m3411.11 2042.204c-64.634-64.743-150.623-100.399-242.115-100.399s-177.522 35.649-242.259 100.379l-540.736 540.739c-64.729 64.729-100.379 150.76-100.379 242.252 0 91.499 35.656 177.481 100.358 242.074 64.634 64.743 150.616 100.399 242.115 100.399 91.492 0 177.522-35.649 242.259-100.379l55.976-55.976c12.588 18.843 27.152 36.75 43.774 53.372 68.517 68.517 158.512 102.771 248.507 102.771 90.002 0 179.997-34.255 248.514-102.771 137.026-137.026 137.026-359.994 0-497.021-16.646-16.644-34.576-31.225-53.448-43.825 63.123-64.483 97.903-149.345 97.903-239.459-.001-91.366-35.692-177.372-100.469-242.156zm-585.081 980.742c-52.896 52.896-123.19 82.024-197.935 82.024-74.73 0-144.963-29.121-197.791-82.045-52.883-52.787-82.004-123.02-82.004-197.75 0-74.744 29.128-145.038 82.024-197.928l248.206-248.209 245.489 245.485c-64.248 98.721-73.794 222.841-28.73 329.162zm596.771-2.605c-112.581 112.581-295.777 112.595-408.372 0-112.588-112.588-112.588-295.784 0-408.372 56.294-56.294 130.238-84.444 204.183-84.444 73.951 0 147.896 28.15 204.189 84.444 112.587 112.588 112.587 295.784 0 408.372zm-452.697-452.696c-2.399 2.399-4.659 4.888-6.976 7.338l-240.273-240.27 248.206-248.206c52.89-52.893 123.184-82.021 197.935-82.021 74.73 0 144.963 29.121 197.771 82.021 52.965 52.961 82.127 123.228 82.127 197.853s-29.162 144.891-82.127 197.853l-10.623 10.621c-128-54.252-281.84-29.379-386.04 74.811z"/><path d="m3060.645 2974.123c6.118 6.118 14.144 9.181 22.162 9.181s16.044-3.063 22.162-9.181l271.619-271.619c12.236-12.243 12.236-32.081 0-44.324-12.236-12.236-32.088-12.236-44.324 0l-271.619 271.619c-12.236 12.243-12.236 32.081 0 44.324z"/></g></svg>