<svg id="_&#x43B;&#x43E;&#x439;_1" viewBox="0 0 1352.61 1440.12" xmlns="http://www.w3.org/2000/svg"><g fill="none" stroke="#000" stroke-linecap="round" stroke-linejoin="round" stroke-width="18"><g transform="translate(-323.69 -241)"><path d="m636.77 1021a506.88 506.88 0 0 1 18.23 93.69c2.72 27.75 3.26 56.3 13.52 82.24"/><path d="m1164.39 1614.38c187.12-22.9 287.63-168.1 308.61-248 34.48-131.24 34.89-196.86 54.75-294.83"/><path d="m740.49 1277.89c5.28 29.48 71.23 196.79 312.87 354.82 13 8.52 46.3 17.73 75.46 13.24"/><path d="m701.12 1071.58q10.55 52 20.5 104.2"/><path d="m824 1481.54c.42 29.19 3.64 115.83 2.87 136.53"/><path d="m849.11 975.57a47 47 0 0 0 -2 39.58"/><path d="m848.63 1020.22a570.58 570.58 0 0 0 127.13 1.34c5.74-.6 11.54-1.29 17.25-.49 10.5 1.46 20.39 8.6 23.75 18.66"/><path d="m811.62 1036c4.31 1.54 9.06 1 13.6.4 6.42-.82 12.88-1.65 19-3.67s12-5.33 16.1-10.35"/><path d="m849.44 1061.42a198 198 0 0 0 25.56-23.55c3.83-4.21 7.68-8.44 7.81-14.13"/><path d="m891.48 1059.18a59.14 59.14 0 0 0 13.18-32.92"/><path d="m922.8 1059.9q2.2-15.77 2.87-31.7"/><path d="m950.78 1056.08q.45-8 .49-15.92c0-4.08-.25-8.65-3.26-11.39"/><path d="m977.44 1048c1.61-4 1.69-8.45 1.74-12.78.05-3.87-.25-8.44-3.52-10.52"/><path d="m1027.39 902.19c3.09-9.48 3.36-13.28.84-22.92"/><path d="m1002.13 894.37a88 88 0 0 0 -8.21-27.7"/><path d="m975.71 889.37a121 121 0 0 0 -10.35-26.81"/><path d="m946.78 881.7a75.83 75.83 0 0 0 -11.48-22.8"/><path d="m904 848.45a60.69 60.69 0 0 1 10.8 22.55"/><path d="m873.43 844a25.2 25.2 0 0 1 7.18 13"/><path d="m850.25 850.08a34.11 34.11 0 0 0 5.8 7.56"/><path d="m848.36 853.61a223.17 223.17 0 0 0 -53.65 30.84"/><path d="m1136.59 1367.9c12.25-2 24.33-6.74 36.79-6.57 13.82.19 26.74 6.39 39.27 12.23 24.82 11.57 42.94 22.37 70.24 20.34"/><path d="m1025.52 1366.52c12.11-4.56 21.88-10 34.19-14 7.56-2.46 15.27-4.95 23.21-5 14.11-.05 27.25 7.6 41.33 8.44"/><path d="m1140.25 1414.12c3.39-.68 6.78-1.43 10.2-1.95 20.06-3.07 40.39 1.45 60.48 4.35s51 .21 72-22.62"/><path d="m983.81 1382.06c11.24 8.68 39.76 18.83 53.72 21.44 7.18 1.34 14.42 2.69 21.71 2.49 14.43-.38 28.32-6.76 42.75-6.27 8.07.28 16 2.7 24 2.71"/><path d="m1136.3 1456.73c49.5-7.85 81.44-15.18 106.17-40.54"/><path d="m983.8 1382.26c8.25 7.62 41.84 68.47 120.9 91.06a102.22 102.22 0 0 0 23.6 3.74"/><path d="m1042.2 1196.69a100.51 100.51 0 0 0 -8.79 38.9c-.25 11.29 2.31 24.06 11.82 30.13a39.67 39.67 0 0 0 10.16 4.09"/><path d="m1077 1251.66c15.22 0 18.93 20.22 23.53 25.3 12.33 13.59 30 16.74 46.82 9.45 5.44-2.36 10.56-6 13.35-11.24 1.51-2.85 2.28-6.06 3.93-8.83 3-5 7.47-12.15 19.52-12.15"/><path d="m1210.72 1268.78c11.44-8 21.3-28.77 3.56-72.1"/><path d="m1075 1197.52c1.92-9.71 5.47-19 8.37-28.48 5.25-17.11 8.4-47.54 9.37-65.42"/><path d="m1183.32 1203.11c-1.06-8.58-3.92-16.82-6.22-25.15-5.32-19.22-7.37-53.73-9.77-73.53"/><path d="m1400.31 977.47a47 47 0 0 1 2 39.58"/><path d="m1402.69 1022.13a587.72 587.72 0 0 1 -129 1.34c-5.74-.6-11.53-1.29-17.25-.49-10.5 1.46-20.39 8.6-23.75 18.66"/><path d="m1437.79 1037.86c-4.31 1.54-9.06 1-13.6.4-6.42-.82-12.88-1.65-19-3.67s-12-5.33-16.1-10.35"/><path d="m1400 1063.33a198 198 0 0 1 -25.58-23.55c-3.83-4.21-7.68-7.8-7.81-13.5"/><path d="m1357.93 1061.08a59.14 59.14 0 0 1 -13.18-32.92"/><path d="m1326.62 1061.8q-2.2-15.77-2.87-31.7"/><path d="m1298.63 1058q-.45-8-.49-15.92c0-4.08.25-8.65 3.26-11.39"/><path d="m1272 1049.87c-1.61-4-1.69-8.45-1.74-12.78-.05-3.87.25-8.44 3.52-10.52"/><path d="m1222 904.09c-3.09-9.48-3.36-13.28-.84-22.92"/><path d="m1247.28 896.27a88 88 0 0 1 8.21-27.7"/><path d="m1273.7 891.28a121 121 0 0 1 10.35-26.81"/><path d="m1302.63 883.61a75.83 75.83 0 0 1 11.48-22.8"/><path d="m1345.41 850.35a60.68 60.68 0 0 0 -10.8 22.55"/><path d="m1376 846a25.2 25.2 0 0 0 -7.18 13"/><path d="m1399.16 852a34.11 34.11 0 0 1 -5.8 7.56"/><path d="m1401.05 855.51a223.17 223.17 0 0 1 53.65 30.84"/><path d="m1584.19 1041.81c-9 30.58-7.19 41.16-10.3 72.88-2.72 27.75-3.26 56.3-13.52 82.24s-33.19 49.28-61.07 50"/><path d="m1406.29 1584.62c-.43 29.79-1.67 13.61-.71 34.73"/><path d="m893.13 1168.87c-55 29.9-86.72 47.05-139.89 72.73"/><path d="m613.34 1272.16c.36-4.7-6.51-15.49 2.87-23.27 8.12-6.74 15-1 16.7.2 10.16 7.31 15.66.07 62.26-17.16 5.77-2.13 11.76-4.3 17.9-3.84 5.7.43 11 3.09 16.56 4.3s8.2-.38 15.59-4.22l14.13 26.89c-5.67-.74-12 4.67-14.86 9.63s.95 7.9-7.91 15.17c-4.76 3.9-65.23 29-66.62 41.44-.23 2 0 14.06-15.55 14.21-4.72 0-8.56-3.83-12.29-6.71"/><path d="m617.78 1281.27c-1-9.4-11.07-15.69-20.53-15.89s-18.35 4.1-26.83 8.3c-18.17 9-111.23 55-237.73 120.63"/><path d="m633.62 1314.52c7.16 6.18 6.63 18 1.43 25.92s-13.79 12.78-22.06 17.38c-17.83 9.91-114 57.65-241.62 121.45"/><path d="m377.58 1375.62c14.27 26.37 25.28 51.92 36.93 79.55"/><path d="m566.54 1282.42 10.68 23.7"/><path d="m527.19 1303.69 10.68 23.7"/><path d="m486.35 1321.55 10.69 23.7"/><path d="m447 1342.82 10.69 23.7"/><path d="m406.16 1360.68 10.68 23.7"/><path d="m634.7 979.12c26 11.23 62.45-150.65 92.88-235.61 16.8-46.9 58.64-204.75 308.72-204.14h133.6c250.08-.6 291.92 157.24 308.72 204.14 30.43 85 66.89 246.84 92.88 235.61"/><path d="m599.32 957.13c47.87-89.75 43.74-260.27 191.07-396.38 53.52-49.44 138.52-67.07 221.46-71.88 0 0 142.5-3.67 232.95 4.94 65.23 6.21 126.76 27.94 169 66.94 147.31 136.12 138.33 290.18 186.2 379.93"/><path d="m1549.89 957.88s12.21 64.32 76.53-35.9c81.53-127 15.94-255.82 15.94-255.82 14.17-19.65 13.74-55 8.85-78.71l-17.71-86-.14-.67c-7.69-37.36-33.85-54.58-58.55-83.65-107.48-126.48-289-163-461.7-166.81v-.32q-8.33 0-16.7.08-8.37-.09-16.7-.08v.35c-172.71 3.82-354.22 40.33-461.71 166.81-24.7 29.07-50.86 46.29-58.55 83.65l-.14.67-17.71 86c-4.89 23.73-5.31 59.06 8.85 78.71 0 0-65.59 128.78 15.94 255.82 64.32 100.22 86 41.88 86 41.88l98-278.22"/><path d="m795.79 400.92a152.34 152.34 0 0 1 2.49-64.71c2.12-8.17 5-16.25 9.64-23.28 8.83-13.29 23.24-21.6 37.13-29.43"/><path d="m1566.36 556.16c-5.27-38.41 11.52-79.1 43.75-100.65"/><path d="m582.26 470.72c15.33 3.71 28.56 13.83 38.43 26.14s16.69 26.76 22.68 41.35c8.81 21.44 16.14 44.31 14.12 67.4"/><path d="m1598.67 644.11c22.26 4.14 28.71 6.15 44 22.09"/></g><path d="m806.88 349.67v884.68l-1.75 196.77"/><path d="m1167 1647.44s1.56 0 4.48-.21" transform="translate(-323.69 -241)"/><path d="m1207.95 1642.64c83.3-14.9 268.53-75.81 315.69-324.14" stroke-dasharray="8.83 36.81" transform="translate(-323.69 -241)"/><path d="m1526.77 1300.37q.35-2.21.68-4.44" transform="translate(-323.69 -241)"/><path d="m1167 1479.16s101 4.49 153.32-95c0 0-87.1-26.46-117.42-48.61-19.45-14.21-44.87 0-44.87 0" stroke-dasharray="8.97 37.39" transform="translate(-323.69 -241)"/><path d="m1223.81 1080.54c9.72-1.5 172.76 88.25 268.49-50.86" stroke-dasharray="8.97 37.39" transform="translate(-323.69 -241)"/></g></svg>