<svg enable-background="new 0 0 550 550" viewBox="0 0 550 550" xmlns="http://www.w3.org/2000/svg"><g id="_x36_70_-_Oriental_Medicine"><g><g><g><path d="m381.136 412.575h-83.112c-8.338 0-15.9-4.599-19.736-12.002s-3.232-16.233 1.577-23.045l41.556-58.872c4.159-5.892 10.947-9.409 18.16-9.409 7.212 0 14 3.518 18.159 9.409l41.557 58.872c4.808 6.812 5.412 15.643 1.575 23.046-3.836 7.403-11.398 12.001-19.736 12.001zm-49.913-86.999-41.556 58.872c-2.246 3.182-2.518 7.146-.726 10.604s5.188 5.522 9.082 5.522h83.112c3.895 0 7.289-2.064 9.081-5.522s1.521-7.422-.726-10.604l-41.555-58.872c-1.942-2.751-4.988-4.329-8.356-4.329s-6.414 1.578-8.356 4.329z" fill="#010101"/></g><g><g><path d="m327.732 358.159c-1.393 0-2.792-.482-3.927-1.466-2.504-2.171-2.774-5.96-.604-8.464l4.705-5.429c2.17-2.505 5.961-2.774 8.464-.604 2.504 2.171 2.774 5.96.604 8.464l-4.705 5.429c-1.186 1.369-2.857 2.07-4.537 2.07z" fill="#010101"/></g><g><path d="m344.292 376.429c-1.393 0-2.791-.482-3.927-1.466-2.504-2.17-2.774-5.959-.604-8.464l4.705-5.43c2.17-2.503 5.958-2.775 8.464-.604 2.504 2.17 2.774 5.959.604 8.464l-4.705 5.43c-1.186 1.369-2.856 2.07-4.537 2.07z" fill="#010101"/></g><g><path d="m346.986 352.414c-1.393 0-2.791-.482-3.927-1.466-2.504-2.17-2.774-5.959-.604-8.464l2.011-2.32c2.17-2.505 5.958-2.773 8.464-.604 2.504 2.17 2.774 5.959.604 8.464l-2.011 2.32c-1.186 1.369-2.857 2.07-4.537 2.07z" fill="#010101"/></g><g><path d="m343.286 395.858c-1.393 0-2.792-.482-3.928-1.467-2.504-2.171-2.773-5.96-.603-8.464l2.012-2.32c2.17-2.502 5.958-2.774 8.464-.603 2.504 2.171 2.773 5.96.603 8.464l-2.012 2.32c-1.186 1.369-2.856 2.07-4.536 2.07z" fill="#010101"/></g><g><path d="m361.194 386.554c-1.393 0-2.792-.482-3.927-1.466-2.504-2.171-2.774-5.96-.604-8.464l4.705-5.429c2.17-2.504 5.961-2.774 8.464-.604 2.504 2.171 2.774 5.96.604 8.464l-4.705 5.429c-1.186 1.369-2.857 2.07-4.537 2.07z" fill="#010101"/></g><g><path d="m320.312 395.858c-1.393 0-2.792-.482-3.927-1.466-2.504-2.171-2.774-5.96-.604-8.464l4.706-5.43c2.17-2.504 5.96-2.773 8.464-.604 2.504 2.171 2.774 5.96.604 8.464l-4.706 5.43c-1.187 1.369-2.858 2.07-4.537 2.07z" fill="#010101"/></g><g><path d="m313.254 379.144c-1.393 0-2.791-.482-3.927-1.466-2.504-2.17-2.774-5.959-.604-8.464l4.705-5.43c2.17-2.504 5.958-2.774 8.464-.604 2.504 2.17 2.774 5.959.604 8.464l-4.705 5.43c-1.187 1.368-2.856 2.07-4.537 2.07z" fill="#010101"/></g></g></g><g><g><path d="m238.357 398.153h-83.112c-8.338 0-15.9-4.599-19.736-12.002-3.836-7.402-3.232-16.233 1.576-23.045l41.556-58.872c4.159-5.893 10.948-9.41 18.16-9.41s14.001 3.518 18.16 9.41l41.556 58.872c4.808 6.812 5.413 15.642 1.577 23.045s-11.399 12.002-19.737 12.002zm-41.556-91.329c-3.368 0-6.414 1.578-8.356 4.33l-41.556 58.872c-2.246 3.182-2.517 7.146-.725 10.604s5.187 5.522 9.082 5.522h83.112c3.895 0 7.29-2.064 9.082-5.522s1.521-7.423-.726-10.604l-41.556-58.872c-1.943-2.752-4.989-4.33-8.357-4.33zm-13.259.87h.01z" fill="#010101"/></g><g><g><path d="m184.954 343.737c-1.393 0-2.792-.482-3.927-1.466-2.504-2.17-2.775-5.96-.604-8.464l4.706-5.43c2.17-2.506 5.959-2.773 8.464-.604 2.504 2.17 2.775 5.96.604 8.464l-4.706 5.43c-1.187 1.369-2.858 2.07-4.537 2.07z" fill="#010101"/></g><g><path d="m201.514 362.007c-1.393 0-2.792-.482-3.927-1.466-2.504-2.17-2.775-5.96-.604-8.464l4.706-5.43c2.17-2.505 5.959-2.773 8.464-.604 2.504 2.17 2.775 5.96.604 8.464l-4.706 5.43c-1.187 1.369-2.858 2.07-4.537 2.07z" fill="#010101"/></g><g><path d="m204.208 337.991c-1.394 0-2.793-.482-3.928-1.467-2.504-2.171-2.773-5.961-.603-8.464l2.011-2.319c2.171-2.504 5.96-2.773 8.464-.603 2.504 2.171 2.773 5.961.603 8.464l-2.011 2.319c-1.187 1.369-2.857 2.07-4.536 2.07z" fill="#010101"/></g><g><path d="m200.508 381.436c-1.393 0-2.792-.482-3.927-1.466-2.504-2.17-2.775-5.959-.605-8.464l2.011-2.32c2.169-2.505 5.959-2.774 8.463-.604s2.775 5.959.605 8.464l-2.011 2.32c-1.185 1.368-2.856 2.07-4.536 2.07z" fill="#010101"/></g><g><path d="m218.416 372.132c-1.393 0-2.792-.482-3.927-1.466-2.504-2.171-2.774-5.96-.604-8.464l4.706-5.429c2.17-2.505 5.961-2.774 8.463-.604 2.504 2.171 2.774 5.96.604 8.464l-4.706 5.429c-1.186 1.369-2.857 2.07-4.536 2.07z" fill="#010101"/></g><g><path d="m177.534 381.436c-1.393 0-2.792-.482-3.927-1.466-2.504-2.171-2.775-5.96-.604-8.464l4.705-5.429c2.17-2.505 5.959-2.774 8.464-.604 2.504 2.171 2.775 5.96.604 8.464l-4.705 5.429c-1.187 1.368-2.858 2.07-4.537 2.07z" fill="#010101"/></g><g><path d="m170.476 364.721c-1.393 0-2.792-.482-3.927-1.466-2.504-2.171-2.774-5.96-.604-8.464l4.706-5.429c2.17-2.506 5.96-2.774 8.463-.604 2.504 2.171 2.774 5.96.604 8.464l-4.706 5.429c-1.186 1.369-2.857 2.07-4.536 2.07z" fill="#010101"/></g></g></g><g><path d="m269.036 279.06c-52.083 0-101.117-5.196-138.068-14.632-27.87-7.117-61.092-19.954-61.092-40.697 0-12.001 10.977-22.604 32.626-31.516 3.064-1.263 6.571.2 7.832 3.265 1.261 3.064-.2 6.571-3.265 7.832-16.011 6.591-25.194 14.033-25.194 20.419 0 7.627 13.676 19.269 52.061 29.07 36.009 9.195 83.988 14.259 135.099 14.259 1.275.007 2.556 0 3.819-.019 19.525-.086 38.715-.933 57.101-2.516 37.029-3.166 70.094-9.334 93.105-17.367 20.742-7.241 33.125-15.999 33.125-23.427 0-9.49-21.355-23.35-69.066-32.921-3.248-.652-5.354-3.814-4.702-7.063s3.817-5.354 7.063-4.703c35.904 7.203 78.705 20.803 78.705 44.687 0 30.243-70.876 47.079-137.205 52.75-18.705 1.61-38.223 2.472-58.009 2.56-1.258.019-2.591.019-3.935.019z"/></g><g><path d="m311.677 181.616c-.118 0-.236-.003-.355-.01-13.707-.799-27.934-1.205-42.285-1.205h-.79c-3.313 0-6-2.687-6-6s2.687-6 6-6h.79c14.583 0 29.045.412 42.984 1.225 3.308.193 5.833 3.031 5.641 6.339-.187 3.19-2.832 5.651-5.985 5.651z"/></g><g><path d="m269.034 494.721c-109.818 0-199.162-89.34-199.162-199.153v-71.833c0-3.314 2.686-6 6-6 3.313 0 6 2.686 6 6v71.833c0 103.196 83.96 187.153 187.162 187.153 103.196 0 187.153-83.957 187.153-187.153v-71.833c0-3.314 2.687-6 6-6s6 2.686 6 6v71.833c.001 109.813-89.339 199.153-199.153 199.153z"/></g><g><g><path d="m465.35 94.063c-4.271 0-9.464-.791-15.612-2.367-12.92-3.313-28.883-9.814-44.948-18.306-6.544-3.459-63.649-34.338-53.706-53.152 9.946-18.813 67.625 10.979 74.169 14.438 16.065 8.492 30.429 18.021 40.443 26.83 12.482 10.981 16.82 19.591 13.262 26.323-2.2 4.161-6.693 6.234-13.608 6.234zm-103.16-67.955c2.299 5.648 18.618 21.033 48.206 36.672 29.587 15.638 51.493 20.457 57.454 19.177-2.298-5.647-18.616-21.032-48.206-36.672-29.586-15.639-51.495-20.459-57.454-19.177z"/></g><g><path d="m454.446 114.33c-20.609.003-55.398-17.983-60.394-20.623-16.067-8.493-30.431-18.021-40.444-26.829-12.333-10.848-16.716-19.382-13.387-26.077.039-.082.079-.164.122-.245l10.739-20.319c1.549-2.929 5.178-4.05 8.108-2.501 2.93 1.548 4.05 5.179 2.501 8.108l-10.477 19.822c.965 4.896 17.402 21.022 48.444 37.43 31.027 16.4 53.61 20.904 58.208 18.95l10.479-19.827c1.549-2.93 5.178-4.05 8.108-2.501 2.93 1.548 4.05 5.179 2.501 8.108l-10.672 20.191c-.021.043-.044.087-.066.13-2.351 4.453-7.381 6.183-13.77 6.183z"/></g><g><path d="m272.949 279.041c-.737 0-1.487-.138-2.214-.426-3.079-1.225-4.583-4.713-3.359-7.792l38.724-97.425 45.228-113.826c1.224-3.079 4.709-4.584 7.792-3.361 3.079 1.224 4.584 4.712 3.36 7.792l-45.228 113.827-38.725 97.426c-.935 2.351-3.192 3.785-5.578 3.785z"/></g><g><path d="m330.47 276.507c-1.155 0-2.323-.334-3.354-1.03-2.746-1.855-3.468-5.585-1.612-8.331l110.881-164.085c1.854-2.745 5.583-3.468 8.331-1.612 2.746 1.855 3.468 5.585 1.612 8.331l-110.881 164.085c-1.16 1.716-3.051 2.642-4.977 2.642z"/></g></g><g><g><path d="m179.149 236.48c-1.204 0-2.407-.361-3.44-1.084-1.752-1.226-42.912-30.461-42.912-67.987s41.159-66.761 42.912-67.987c2.065-1.445 4.814-1.445 6.88 0 1.752 1.227 42.912 30.461 42.912 67.987s-41.159 66.761-42.912 67.987c-1.033.723-2.236 1.084-3.44 1.084zm0-124.59c-9.322 7.483-34.352 29.961-34.352 55.519 0 25.635 25.022 48.059 34.346 55.523 9.317-7.478 34.357-29.959 34.357-55.523 0-25.556-25.026-48.033-34.351-55.519z" fill="#010101"/></g><g><g><path d="m178.626 236.487c-19.001.002-64.092-20.384-80.011-36.303-26.536-26.537-18.105-76.309-17.733-78.415.438-2.483 2.382-4.426 4.865-4.865 1.682-.297 41.51-7.079 68.971 10.23 2.803 1.767 3.644 5.472 1.876 8.275-1.767 2.803-5.471 3.644-8.275 1.876-18.726-11.802-45.781-10.275-56.188-9.133-1.3 11.879-3.105 45.472 14.969 63.546 14.77 14.77 56.515 32.79 71.409 32.79.162 0 .319-.002.475-.006 3.308-.097 6.071 2.521 6.162 5.833s-2.521 6.071-5.833 6.162c-.224.007-.455.01-.687.01z" fill="#010101"/></g><g><path d="m179.681 236.487c-.238 0-.47-.003-.7-.01-3.312-.093-5.922-2.853-5.83-6.166.093-3.312 2.849-5.909 6.166-5.83 14.441.419 56.944-17.845 71.883-32.784 18.072-18.072 16.27-51.659 14.969-63.546-10.406-1.141-37.467-2.67-56.195 9.133-2.803 1.768-6.508.927-8.275-1.876s-.927-6.508 1.876-8.275c27.461-17.309 67.297-10.526 68.978-10.23 2.483.438 4.426 2.382 4.865 4.865.372 2.106 8.803 51.878-17.733 78.415-15.923 15.924-60.999 36.302-80.004 36.304z" fill="#010101"/></g></g></g><g><path d="m269.026 536.004c-34.94 0-63.366-21.445-63.366-47.806 0-3.171.409-6.325 1.217-9.375.848-3.204 4.132-5.117 7.336-4.265 3.203.848 5.113 4.132 4.265 7.335-.542 2.049-.817 4.17-.817 6.305 0 19.743 23.043 35.806 51.366 35.806s51.366-16.063 51.366-35.806c0-2.126-.275-4.245-.817-6.297-.847-3.203 1.063-6.487 4.268-7.334 3.203-.846 6.487 1.063 7.334 4.268.807 3.052 1.216 6.202 1.216 9.363-.001 26.361-28.427 47.806-63.368 47.806z" fill="#010101"/></g></g></g><g id="Layer_1"/></svg>