<svg height="512" viewBox="0 0 512 512" width="512" xmlns="http://www.w3.org/2000/svg"><g id="solid"><path d="m141.571 181.782c-19.635-14.026-47.769-10.111-61.15 9.913-9.177 13.734-6.562 30.04 6.5 39.532l2.608 1.863-11.1 15.535-.026-.02a4 4 0 0 0 -5.229.372l-.973.973c-10.801-10.024-26.075-2.45-26.075-2.45a24.715 24.715 0 0 0 -11.694 31.84c6.217 14.434 14.179 33 15.972 37.185l-7.948 143.058a4 4 0 0 0 3.994 4.222h53.969a4 4 0 0 0 3.994-4.222l-7.264-130.746a11.382 11.382 0 0 1 9.073-11.729 15.239 15.239 0 0 0 5.383-27.662l-5.912-3.9 1.664-2.219a10.417 10.417 0 0 0 -2.081-14.567l-7.22-5.415 11.431-16 3.036 2.169c10.892 7.028 19.5 5.1 21.079 4.882 10.042-1.365 16.54-8.9 18.418-11.544a43.972 43.972 0 0 0 -10.449-61.07zm-34.371 114.343a7.24 7.24 0 0 1 -2.557 13.141 19.419 19.419 0 0 0 -15.483 20.015l7.03 126.524h-45.512l7.765-139.778c.035-.615-9.612-23.486-16.663-39.857a16.709 16.709 0 0 1 7.925-21.52s9.407-4.384 16.879 1.064a37.09 37.09 0 0 0 -8.9 28.3l14.338 136.21a4 4 0 0 0 3.978 3.581 4.293 4.293 0 0 0 3.991-3.715l6.7-93.844a57.751 57.751 0 0 1 11.428-30.6l2.763-3.685zm-15.546-37.579-6.826-5.12 11.21-15.687 6.939 4.956zm20.862-29.206-4.889 6.846-6.937-4.955 4.961-6.941a16.308 16.308 0 0 0 6.865 5.05zm32.872 9.035a20.269 20.269 0 0 1 -28.215 4.625l-3.036-2.169 6.983-9.775a20.2 20.2 0 0 0 2.815-.256 20 20 0 1 0 -19.563-31.353 19.869 19.869 0 0 0 -3.453 14.912 20.382 20.382 0 0 0 .478 2.118l-7.217 10.1-2.609-1.864a20.292 20.292 0 0 1 -4.785-28.172 36 36 0 0 1 58.6 41.83z"/><path d="m360.005 242.852c1.878 2.648 8.375 10.179 18.418 11.544 1.579.214 10.186 2.146 21.078-4.882l3.037-2.169 11.431 16-7.22 5.415a10.417 10.417 0 0 0 -2.082 14.567l1.665 2.219-5.912 3.9a15.239 15.239 0 0 0 5.383 27.662 11.383 11.383 0 0 1 9.073 11.729l-7.264 130.746a4 4 0 0 0 3.994 4.222h53.969a4 4 0 0 0 3.994-4.222l-7.948-143.063c1.792-4.182 9.754-22.751 15.972-37.185a24.715 24.715 0 0 0 -11.693-31.835s-15.269-7.569-26.071 2.455l-.974-.973a4 4 0 0 0 -5.228-.372l-.026.02-11.101-15.54 2.608-1.863c13.061-9.492 15.677-25.8 6.5-39.532-13.381-20.024-41.515-23.939-61.151-9.913a43.972 43.972 0 0 0 -10.452 61.07zm51.136 49.107 2.763 3.685a57.767 57.767 0 0 1 11.428 30.6l6.7 93.844a4.292 4.292 0 0 0 3.991 3.715 4 4 0 0 0 3.977-3.579l14.338-136.212a37.094 37.094 0 0 0 -8.9-28.3c7.472-5.448 16.879-1.064 16.879-1.064a16.71 16.71 0 0 1 7.925 21.52c-7.051 16.371-16.7 39.242-16.664 39.857l7.766 139.778h-45.51l7.029-126.524a19.419 19.419 0 0 0 -15.483-20.015 7.239 7.239 0 0 1 -2.557-13.141zm-2.093-49.259 6.938-4.956 11.214 15.682-6.826 5.12zm-2.674-18.4 4.961 6.941-6.937 4.955-4.89-6.846a16.313 16.313 0 0 0 6.866-5.06zm-31.271-36a36.041 36.041 0 0 1 50.136 8.253 20.293 20.293 0 0 1 -4.785 28.172l-2.609 1.864-7.217-10.1a20.382 20.382 0 0 0 .478-2.118 19.869 19.869 0 0 0 -3.453-14.912 20.032 20.032 0 1 0 -16.748 31.609l6.983 9.775-3.037 2.157a20.268 20.268 0 0 1 -28.214-4.629 36.042 36.042 0 0 1 8.463-50.079z"/><path d="m322.142 239.632a16.615 16.615 0 0 0 -15.763-21.868 18.519 18.519 0 0 0 -18.5 18.5s-.9 13.683 4.308 31.074a14.249 14.249 0 0 0 8.315 8.926 17.39 17.39 0 0 0 12.19-.432l7.711-3.856a14.688 14.688 0 0 0 3.818-23.525 8.567 8.567 0 0 1 -2.079-8.819zm-1.7 20.275a6.619 6.619 0 0 1 -3.612 4.912l-7.711 3.855a6.689 6.689 0 0 1 -9.337-3.868c-3.749-11.527-3.9-28.544-3.9-28.544a10.51 10.51 0 0 1 10.5-10.5 8.614 8.614 0 0 1 8.173 11.339 16.527 16.527 0 0 0 4.014 17 6.618 6.618 0 0 1 1.87 5.806z"/><path d="m191.713 271.986 7.711 3.856c6.339 2.315 10.386 1.179 12.19.432a14.615 14.615 0 0 0 8.315-8.926 85.625 85.625 0 0 0 4.308-31.074 18.52 18.52 0 0 0 -18.5-18.5 16.615 16.615 0 0 0 -15.762 21.868 8.567 8.567 0 0 1 -2.081 8.816 14.689 14.689 0 0 0 3.818 23.526zm1.839-17.869a16.525 16.525 0 0 0 4.014-17 8.614 8.614 0 0 1 8.172-11.339 10.51 10.51 0 0 1 10.5 10.5s.623 14.964-3.9 28.544a6.689 6.689 0 0 1 -9.338 3.864l-7.711-3.855a6.69 6.69 0 0 1 -1.739-10.714z"/><path d="m341.275 198.993a5.909 5.909 0 0 1 1.088-5.139c6.031-7.5 25.461-18.292 27.836-19.094a26.308 26.308 0 0 1 8.361-1.363 13.244 13.244 0 0 0 11.29-6.392l7.23-12.05c11.482-18.858 17.345-47.843 26.393-59.007 7.181-8.859 9.687-20.687 4.583-30.883 0 0-3.553-9.839-12.1-15.96a27.53 27.53 0 0 0 -13.741-4.855 127.464 127.464 0 0 0 -80.023 20.29s-12.533 7.445-16.432 12.36a31.905 31.905 0 0 0 -15.019-3.521c-12.34.368-21.5 11.325-21.5 11.325a16.847 16.847 0 0 1 -13.494 6.761h-.006a16.861 16.861 0 0 1 -13.5-6.758 29.973 29.973 0 0 0 -21.458-11.336h-.011s-8.6-.437-14.469 3.238c-2.393-2.549-16.156-12.066-16.156-12.066a127.433 127.433 0 0 0 -80.025-20.29 27.266 27.266 0 0 0 -13.733 4.847c-8.5 6.161-12.108 15.967-12.108 15.967a27.337 27.337 0 0 0 4.577 30.869 17.065 17.065 0 0 1 4.577 8.1 177.441 177.441 0 0 0 9.189 26.2c3.656 8.514 19.868 36.763 19.868 36.763a13.254 13.254 0 0 0 11.3 6.389 30.731 30.731 0 0 1 8.341 1.359c6.982 1.973 22.14 14.822 27.588 20.01a4.6 4.6 0 0 1 1.292 4.446l-7.071 28.3a75.922 75.922 0 0 0 8.548 57.497 33.757 33.757 0 0 0 56.245 2.5l15.92-21.88a41.25 41.25 0 0 0 6.383-13.179l.01-.033v-.017a4 4 0 0 0 -1.337-4.185 9.814 9.814 0 0 1 -3.585-9.083l5.47-38.28a4 4 0 0 0 -3.394-4.526c-.023 0-24.921-3.119-24.921-3.119a40.66 40.66 0 0 1 -34.194-30.29l-2.88-11.542a11.494 11.494 0 0 1 13.044-14.133l7.992 1.328a49.022 49.022 0 0 1 4.5 20.19 29.834 29.834 0 0 0 14.312 25.5 57.6 57.6 0 0 0 59.379 0 29.624 29.624 0 0 0 14.309-25.274 48.984 48.984 0 0 1 4.433-20.254l8.907-1.488a11.5 11.5 0 0 1 13.05 14.133l-2.89 11.541a40.655 40.655 0 0 1 -34.179 30.291l-25.37 3.17a3.881 3.881 0 0 0 -3.464 4.535l5.46 38.215a9.862 9.862 0 0 1 -3.275 8.83 3.984 3.984 0 0 0 -1.216 4.033h-.015a41.256 41.256 0 0 0 6.5 13.636l15.921 21.88a33.755 33.755 0 0 0 56.245-2.499 75.927 75.927 0 0 0 8.551-57.487zm-158.234-63.651a19.07 19.07 0 0 0 -4.592 17.964l2.881 11.542a48.708 48.708 0 0 0 40.964 36.288l20.811 2.605-4.895 34.259a17.714 17.714 0 0 0 4.421 14.481 33.3 33.3 0 0 1 -4.445 8.438l-15.919 21.878a25.757 25.757 0 0 1 -42.917-1.9 67.924 67.924 0 0 1 -7.649-51.433l8.13-32.54h-.007a3.671 3.671 0 0 0 -.493-3.1c-6.583-8.8-20.585-21.384-34.652-26.636a31.033 31.033 0 0 0 -10.889-1.788 5.142 5.142 0 0 1 -4.44-2.508s-15.861-27.615-19.373-35.8a262.638 262.638 0 0 1 -8.828-25.17c-2.307-7.386-4.946-9.854-6.475-11.478a19.269 19.269 0 0 1 -3.238-21.8s3.279-8.547 9.437-12.92a20 20 0 0 1 9.919-3.506 119.408 119.408 0 0 1 74.977 19.011s12.106 8.264 13.85 10c-8.044 7.834-14.947 24.4-3.633 40.473l5.885 7.848s-10.971-2.309-18.83 5.792zm108.709 23.632c0 7.5-4.9 15.356-10.426 18.414 0 0-25.8 14.613-51.148 0a21.3 21.3 0 0 1 -10.426-18.414 57.087 57.087 0 0 0 -11.35-34.039l-6.019-8.024a22.057 22.057 0 0 1 -3.781-18.585s5.1-16.6 21.159-16.957c0 0 9.162-.119 15.369 7.18 0 0 8.292 10.108 20.615 10.914 9.849.645 20.544-10.822 20.544-10.822a24.853 24.853 0 0 1 15.442-7.266 21.6 21.6 0 0 1 21 16.411s2.81 10.931-3.675 19.2l-5.96 7.945a57.094 57.094 0 0 0 -11.344 34.043zm41.24 121.916a25.757 25.757 0 0 1 -42.916 1.9l-15.915-21.87a33.382 33.382 0 0 1 -4.595-8.876 17.826 17.826 0 0 0 4.046-14.052l-4.884-34.192 21.329-2.665a48.7 48.7 0 0 0 40.955-36.287l2.892-11.544a19.35 19.35 0 0 0 -4.6-17.967c-8.454-9.017-19.791-5.618-19.791-5.618l5.949-7.93a30.143 30.143 0 0 0 5.154-25.471s-2.138-8.7-8.319-14.649a36.092 36.092 0 0 1 6.141-5.107l8.14-5.33a119.413 119.413 0 0 1 74.975-19.01 20.774 20.774 0 0 1 16.847 11.416l2.51 5.008c3.6 7.2 1.586 15.353-3.246 21.808-12.462 16.646-15.551 39.676-27.442 60.385l-7.228 12.046a5.2 5.2 0 0 1 -4.432 2.512 31.1 31.1 0 0 0 -10.934 2.387c-10.732 4.12-21.247 12.714-26.4 17.128-9.7 8.3-8.06 12.316-8.06 12.316l7.477 32.23a67.931 67.931 0 0 1 -7.65 51.432z"/><path d="m239.383 155.585a10.435 10.435 0 1 0 10.434 10.434 10.447 10.447 0 0 0 -10.434-10.434zm0 12.869a2.435 2.435 0 1 1 2.434-2.435 2.438 2.438 0 0 1 -2.434 2.435z"/><path d="m244.817 141.019a10.435 10.435 0 1 0 -10.434 10.435 10.446 10.446 0 0 0 10.434-10.435zm-12.869 0a2.435 2.435 0 1 1 2.435 2.435 2.438 2.438 0 0 1 -2.435-2.435z"/><path d="m238.817 114.019a10.435 10.435 0 1 0 -10.434 10.435 10.446 10.446 0 0 0 10.434-10.435zm-12.869 0a2.435 2.435 0 1 1 2.435 2.435 2.438 2.438 0 0 1 -2.435-2.435z"/><path d="m271.383 155.585a10.435 10.435 0 1 0 10.434 10.434 10.447 10.447 0 0 0 -10.434-10.434zm0 12.869a2.435 2.435 0 1 1 2.434-2.435 2.438 2.438 0 0 1 -2.434 2.435z"/><path d="m276.383 130.585a10.435 10.435 0 1 0 10.434 10.434 10.447 10.447 0 0 0 -10.434-10.434zm0 12.869a2.435 2.435 0 1 1 2.434-2.435 2.438 2.438 0 0 1 -2.434 2.435z"/><path d="m282.383 103.585a10.435 10.435 0 1 0 10.434 10.434 10.447 10.447 0 0 0 -10.434-10.434zm0 12.869a2.435 2.435 0 1 1 2.434-2.435 2.438 2.438 0 0 1 -2.434 2.435z"/></g></svg>