<svg id="_x33_0" enable-background="new 0 0 64 64" height="512" viewBox="0 0 64 64" width="512" xmlns="http://www.w3.org/2000/svg"><g><path d="m61 61h2v2h-2z"/><path d="m49 61h10v2h-10z"/><path d="m49 57h14v2h-14z"/><path d="m49 53h4v2h-4z"/><path d="m55 53h8v2h-8z"/><path d="m51.255 43.253-4.365-15.279-4.861 21.388-2.22-10.362h-3.124c.201-1.533.315-3.087.315-4.661v-7.146c0-1.495-.332-2.912-.913-4.192h2.913v-2h-4v-4h-2v2.115c-1.221-.938-2.655-1.612-4.221-1.92-1.145-1.574-1.779-3.488-1.779-5.439v-7.757c0-1.71-2.149-3-5-3s-5 1.29-5 3v9c0 1.639-.305 3.266-.865 4.8-2.004-2.245-3.135-5.162-3.135-8.203v-5.597c0-1.654-1.346-3-3-3s-3 1.346-3 3v5l-.6-.8c-.564-.752-1.461-1.2-2.4-1.2-1.654 0-3 1.346-3 3v1.244c0 .66.165 1.316.478 1.896l5.727 10.635c-3.853 2.763-6.205 7.277-6.205 12.056 0 10.336 5.613 19.876 14.648 24.896l3.118 1.731c.639.355 1.361.542 2.09.542.959 0 1.904-.326 2.66-.92 6.79-5.334 11.273-12.793 12.848-21.08h1.828l3.78 17.639 5.139-22.612 3.634 12.721 3.873-7.748h8.382v-2h-9.618zm-32.255-30.253v-6.579c.826.362 1.851.579 3 .579s2.174-.217 3-.579v5.337c0 1.839.463 3.652 1.317 5.267-2.538.12-4.909 1.153-6.717 2.961l-1.014 1.014h-1.743c1.395-2.422 2.157-5.199 2.157-8zm3-10c1.936 0 3 .751 3 1s-1.064 1-3 1-3-.751-3-1 1.064-1 3-1zm-19 8.244v-1.244c0-.551.449-1 1-1 .313 0 .612.149.8.4l2.2 2.933v2.667h2v-11c0-.551.449-1 1-1s1 .449 1 1v5.597c0 3.827 1.55 7.475 4.252 10.155-.25.456-.528.897-.828 1.323-1.927.184-3.8.74-5.515 1.646l-5.67-10.529c-.156-.29-.239-.618-.239-.948zm6.229 13.585c1.466-.88 3.09-1.452 4.771-1.694v.852c0 3.867-3.146 7.013-7.014 7.013-.572 0-1.145-.07-1.701-.209l-1.098-.275c1.065-2.327 2.795-4.339 5.042-5.687zm25.771 9.51c0 10.279-4.636 19.817-12.718 26.168-.185.146-.394.255-.613.335l-2.454-7.364c-.336-1.008-.587-2.037-.784-3.076l5.017-2.508-.895-1.789-4.426 2.213c-.076-.769-.127-1.541-.127-2.318 0-2.546.408-5.063 1.214-7.479l.735-2.205-1.897-.633-.735 2.205c-.335 1.004-.586 2.028-.793 3.059l-3.008-1.805-1.029 1.715 3.701 2.221c-.112.969-.188 1.942-.188 2.922 0 2.762.443 5.49 1.316 8.111l2.149 6.448-2.845-1.581c-8.401-4.667-13.62-13.537-13.62-23.147 0-1.172.172-2.323.482-3.43l1.319.33c.715.179 1.45.269 2.185.269 4.971 0 9.014-4.043 9.014-9.014v-.986h2.419l.682 1.193c2.084 3.647 5.457 6.292 9.496 7.446l6.403 1.83zm0-2.95-4.679-1.337c-.209-.745-.321-1.512-.321-2.288v-2.764h-2v2.764c0 .541.046 1.077.128 1.607-.551-.204-1.088-.434-1.604-.702-.341-.933-.524-1.907-.524-2.905v-2.764h-2v2.764c0 .432.036.86.088 1.285-1.29-1.065-2.397-2.356-3.25-3.848l-.591-1.034.768-.768c1.547-1.547 3.604-2.399 5.793-2.399 4.517 0 8.192 3.675 8.192 8.192z"/><path d="m37 13v6h22v-14h-6v12h-2v-8h-6v8h-2v-4zm18-6h2v10h-2zm-8 4h2v6h-2zm-6 6h-2v-2h2z"/><path d="m57 1v2h4v4h2v-6z"/><path d="m61 21h-4v2h6v-6h-2z"/><path d="m35 3h4v-2h-6v6h2z"/></g></svg>