<svg id="Layer_1" enable-background="new 0 0 66 66" viewBox="0 0 66 66" xmlns="http://www.w3.org/2000/svg"><g><path d="m12.07 39.39.47 5c.02.25.23.44.48.44h.05c.27-.03.46-.26.44-.53l-.47-5c-.03-.27-.26-.46-.53-.44-.27.03-.47.27-.44.53z"/><path d="m12.35 37.97h.05c.27-.03.46-.27.43-.53l-.16-1.47c-.03-.27-.27-.46-.53-.43-.27.03-.46.27-.43.53l.16 1.47c.02.25.23.43.48.43z"/><path d="m64.01 63.47h-11.5c.19-.25.34-.53.42-.83l7.01-25.02c.72-2.56.27-5.11-1.27-7.18-.01-.01-.02-.03-.03-.04-1.38-1.84-3.46-3.07-5.71-3.37-2.21-.3-4.35.29-6.18 1.71l-3.59 2.78-3.08-1.28c-.34-.14-.69-.26-1.03-.35l.69-6.3c.01-.14-.03-.27-.12-.38-.09-.1-.22-.16-.36-.16h-4.38l-.06-.84c0-.01-.01-.02-.01-.02l-.38-5.49c-.1-1.42-1.29-2.52-2.71-2.52h-1.24v-5.5c0-.88-.72-1.6-1.6-1.6h-2.86c-.88 0-1.6.72-1.6 1.6v5.5h-1.25c-1.42 0-2.61 1.11-2.71 2.53l-.44 6.35h-3.98l-.42-2.14c-.15-.75-.59-1.42-1.22-1.84-.14-.1-.29-.17-.44-.24l-.74-3.72c.01-.01.02-.02.03-.03.36-.53.49-1.17.36-1.8l-1.93-9.79c-.12-.63-.49-1.17-1.02-1.52-.53-.36-1.17-.49-1.8-.36-.62.11-1.16.47-1.51 1-.03.04-.05.09-.08.13l-4.4.87c-.79.16-1.37.86-1.37 1.67 0 .11.01.22.03.33.09.47.37.85.75 1.09-.19.28-.31.61-.31.96 0 .11.01.22.03.33.09.45.34.83.72 1.09.01 0 .02.01.03.01-.19.28-.31.61-.31.96 0 .1.01.21.03.33.09.47.37.85.74 1.09-.19.28-.31.61-.31.96 0 .11.01.21.03.33.09.45.34.83.72 1.09.01.01.02.01.03.01-.19.28-.31.61-.31.96 0 .11.01.21.03.33.1.45.36.84.73 1.09.28.19.61.29.94.29.11 0 .22-.01.33-.03l4.4-.87c.04.03.08.07.12.1.01.01.03.01.04.02l.74 3.73c-.11.12-.22.24-.31.38-.43.64-.59 1.41-.44 2.17l.2 1.03h-2.48c-.14 0-.27.06-.36.16s-.14.24-.12.38l2.48 22.78c-4.58.44-8.17 4.31-8.17 9 0 3.53 2.04 6.59 5 8.08h-4.51c-.27 0-.48.22-.48.48s.22.48.48.48h62.02c.27 0 .48-.22.48-.48s-.21-.48-.48-.48zm-25.3-39.44-.62 5.67c-.93-.14-1.86-.12-2.76.05l-.39-5.71h3.77zm-4.34 5.95c-1.11.35-2.15.93-3.06 1.73-.04.04-.08.08-.12.11h-3.26v-9.09h5.94zm-8.98-21.3c0-.35.28-.63.63-.63h2.86c.35 0 .63.28.63.63v5.5h-4.12zm-3.96 8.1c.06-.91.83-1.62 1.74-1.62h1.73 5.09 1.73c.91 0 1.68.71 1.74 1.62l.35 4.99h-6.36c-.27 0-.48.22-.48.48v9.58h-2.25l.7-11.18c0-.02 0-.07 0-.08 0-.87-.7-1.57-1.57-1.57-.83 0-1.51.65-1.56 1.47l-.71 11.36h-1.18zm3.02 3.78v.05l-.7 11.22h-1.2l.71-11.3c.02-.32.28-.56.6-.56s.59.27.59.59zm-4.5 3.47-.54 7.8h-1.65l-1.54-7.8zm-6.1-4.14c.42.28.72.72.81 1.22l2.11 10.72h-3.91l-1.96-9.98c-.1-.5 0-1.02.29-1.44.28-.42.72-.71 1.22-.81.51-.1 1.02 0 1.44.29zm-1.62-1.24c-.23.04-.45.13-.66.22l-.54-2.74c.08.01.15.02.23.02.15 0 .31-.02.47-.05.23-.05.45-.14.66-.24l.54 2.74c-.24-.01-.47 0-.7.05zm-9.74-13.21c-.01-.05-.02-.1-.02-.15 0-.35.25-.65.59-.72l3.89-.77c-.01.2-.01.41.03.61l.17.84-3.8.75c-.4.09-.78-.17-.86-.56zm.78 2.85c-.17-.11-.28-.28-.31-.47-.01-.05-.02-.1-.02-.15 0-.35.25-.65.59-.71l3.8-.75.28 1.43-3.8.76c-.19.03-.38-.01-.54-.11zm.16 1.93c-.01-.05-.02-.1-.02-.15 0-.35.25-.65.59-.72l3.81-.75.28 1.44-3.8.75c-.41.07-.79-.19-.86-.57zm.47 2.38c-.01-.05-.02-.1-.02-.15 0-.35.25-.65.59-.71l3.81-.75.28 1.43-3.81.75c-.19.04-.38 0-.55-.11-.16-.11-.27-.28-.3-.46zm1.32 2.96c-.19.04-.39 0-.55-.11s-.27-.27-.31-.46c-.01-.05-.02-.1-.02-.15 0-.35.25-.65.59-.72l3.81-.75.17.84c.04.2.11.4.2.58zm5.25-.62c-.32-.21-.53-.54-.6-.91l-.73-3.7-.94-4.78s0 0 0 0l-.26-1.32c-.07-.37 0-.76.21-1.07.21-.32.53-.53.91-.6.09-.02.19-.03.28-.03.28 0 .55.08.79.25.32.21.53.53.6.91l1.93 9.79c.07.37 0 .76-.21 1.07-.21.32-.54.53-.91.61-.37.06-.76-.01-1.07-.22zm-2.26 9.09h2.13l1.53 7.8h-2.81zm.96 8.77h21.13c-1.65 2.08-2.23 4.81-1.5 7.44l4.97 17.84c-.34.16-.71.25-1.1.25h-13.56c.32-.92.5-1.91.5-2.94 0-4.96-4.01-9-8.96-9.05zm-6.7 22.59c0-4.46 3.63-8.08 8.08-8.08s8.08 3.63 8.08 8.08c0 4.46-3.63 8.08-8.08 8.08s-8.08-3.62-8.08-8.08zm28.54 8.08h-15.1c-.35 0-.69-.05-1.02-.14 1.66-.91 2.99-2.33 3.82-4.04h13.96c.47 0 .93-.1 1.36-.28l.55 1.99c-.01.02-.03.04-.04.06-.57 1.47-1.96 2.41-3.53 2.41zm2.89 0c.41-.31.77-.69 1.06-1.12l.05.2c.1.35.27.65.48.92zm5.6 0c.19-.24.35-.52.45-.82l2.85-8.84c.17-.52.65-.87 1.2-.87.54 0 1.01.34 1.19.85l3.04 8.96c.09.26.22.5.38.72zm11.96-.3c-.26.2-.57.3-.9.3-.64 0-1.21-.41-1.41-1.03l-3.04-8.96c-.31-.9-1.15-1.51-2.1-1.51-.97 0-1.82.62-2.12 1.54l-2.85 8.84c-.11.33-.31.61-.59.81s-.6.31-.95.31c-.72 0-1.36-.49-1.55-1.18l-6.21-22.31c-.77-2.75.09-5.64 2.23-7.53s5.11-2.39 7.75-1.3l3.34 1.39 5.34 2.22c.06.03.12.04.19.04.19 0 .37-.11.45-.3.1-.25-.01-.53-.26-.63l-4.57-1.9 3.15-2.44c1.62-1.26 3.51-1.78 5.46-1.52 1.98.27 3.82 1.35 5.04 2.96.01.01.02.03.03.04 1.37 1.83 1.78 4.1 1.14 6.37l-7.01 25.02c-.11.3-.3.57-.56.77z"/><path d="m60.09 27.96c.12 0 .25-.05.34-.14l1.76-1.76c.19-.19.19-.5 0-.69s-.5-.19-.69 0l-1.76 1.76c-.19.19-.19.5 0 .69.1.09.23.14.35.14z"/><path d="m61.04 28.91c0 .27.22.48.48.48h2.48c.27 0 .48-.22.48-.48s-.22-.48-.48-.48h-2.48c-.26-.01-.48.21-.48.48z"/><path d="m58.65 26.52c.27 0 .48-.22.48-.48v-2.48c0-.27-.22-.48-.48-.48-.27 0-.48.22-.48.48v2.48c0 .26.22.48.48.48z"/><path d="m63.05 24.99c.12 0 .25-.05.34-.14l.41-.41c.19-.19.19-.5 0-.69s-.5-.19-.69 0l-.41.41c-.19.19-.19.5 0 .69.11.1.23.14.35.14z"/><path d="m14.56 53.96h-2.08v-2.08c0-.27-.22-.48-.48-.48h-2.9c-.27 0-.48.22-.48.48v2.08h-2.07c-.27 0-.48.22-.48.48v2.9c0 .27.22.48.48.48h2.07v2.07c0 .27.22.48.48.48h2.9c.27 0 .48-.22.48-.48v-2.07h2.08c.27 0 .48-.22.48-.48v-2.9c0-.26-.21-.48-.48-.48zm-.48 2.89h-2.08c-.27 0-.48.22-.48.48v2.07h-1.93v-2.07c0-.27-.22-.48-.48-.48h-2.08v-1.93h2.07c.27 0 .48-.22.48-.48v-2.08h1.93v2.08c0 .27.22.48.48.48h2.08v1.93z"/><path d="m42.23 17.93c-.31 1-.2 2.06.29 2.98s1.31 1.6 2.31 1.91c.38.12.76.17 1.15.17.63 0 1.26-.15 1.83-.46 1.57-.84 2.36-2.59 1.99-4.27.39-.05.77-.16 1.12-.35 1.54-.82 2.13-2.74 1.31-4.28-.4-.75-1.06-1.29-1.87-1.54s-1.66-.17-2.41.23c-1.07.57-1.7 1.68-1.68 2.85-.74-.06-1.48.09-2.14.45-.92.48-1.6 1.31-1.9 2.31zm3.74-1.81c.25 0 .5.03.75.1.17.04.34 0 .46-.12s.17-.3.13-.46c-.24-.98.21-1.99 1.1-2.46.52-.27 1.11-.33 1.67-.16s1.02.55 1.3 1.07c.57 1.07.16 2.4-.91 2.97-.39.21-.83.3-1.27.25-.17-.02-.34.05-.44.19s-.13.32-.06.48c.57 1.4 0 3-1.34 3.71-.69.37-1.49.45-2.24.22s-1.37-.74-1.74-1.43-.45-1.49-.22-2.24.74-1.37 1.43-1.74c.43-.26.9-.38 1.38-.38z"/><path d="m42.52 11.4c.15 0 .3-.02.46-.05.58-.12 1.07-.46 1.39-.97.32-.5.43-1.09.31-1.67s-.46-1.07-.95-1.39c-.5-.32-1.09-.43-1.66-.31-.58.12-1.07.46-1.4.95-.33.5-.45 1.09-.32 1.66.21 1.06 1.14 1.78 2.17 1.78zm-1.05-2.9c.19-.28.47-.47.79-.54.09-.02.17-.03.26-.03.24 0 .47.07.67.2.28.18.47.46.53.78.07.33.01.66-.17.94s-.46.47-.78.54c-.67.14-1.35-.3-1.49-.97-.06-.31.01-.64.19-.92z"/><path d="m49.2 7.28c.29.19.63.29.97.29.12 0 .25-.01.37-.04.47-.1.87-.37 1.13-.77.25-.4.34-.87.25-1.33-.1-.47-.37-.87-.76-1.13-.4-.27-.88-.36-1.35-.26s-.87.38-1.13.78c-.25.4-.34.88-.24 1.34.1.47.37.86.76 1.12zm.3-1.94c.11-.18.3-.31.51-.35.06-.01.11-.02.17-.02.16 0 .31.05.44.13.18.12.31.31.35.53.04.21 0 .42-.11.6-.12.18-.3.31-.51.35s-.43 0-.61-.12-.3-.3-.34-.51c-.06-.2-.02-.42.1-.61z"/></g></svg>