<svg id="Layer_1" viewBox="0 0 64 64" xmlns="http://www.w3.org/2000/svg" data-name="Layer 1"><path d="m59.108 8.58h-13.286v-2.58a2.4 2.4 0 0 0 -2.4-2.4h-22.842a2.4 2.4 0 0 0 -2.4 2.4v2.58h-13.288a2.9 2.9 0 0 0 -2.892 2.891v40.935a2.9 2.9 0 0 0 2.892 2.894h3.868v2.09a3.02 3.02 0 0 0 3.022 3.01h40.44a3.014 3.014 0 0 0 3.011-3.012v-2.088h3.875a2.9 2.9 0 0 0 2.892-2.894v-40.935a2.9 2.9 0 0 0 -2.892-2.891zm-38.927-2.58a.4.4 0 0 1 .4-.4h22.842a.4.4 0 0 1 .4.4v2.58h-23.642zm33.052 51.387a1.013 1.013 0 0 1 -1.011 1.013h-40.44a1.019 1.019 0 0 1 -1.022-1.012v-2.088h42.473zm6.767-4.981a.893.893 0 0 1 -.892.891h-54.216a.893.893 0 0 1 -.892-.891v-40.935a.892.892 0 0 1 .892-.891h14.267.022s.014 0 .021 0h25.598.022s.014 0 .022 0h14.264a.892.892 0 0 1 .892.891z"/><path d="m55.355 33.152v-14.227a3.187 3.187 0 0 0 -3.184-3.185h-13.914l-.2-1.187a1.677 1.677 0 0 0 -3.3-.113l-.311 1.3h-22.622a3.188 3.188 0 0 0 -3.185 3.185v26.023a3.2 3.2 0 0 0 3.185 3.2h40.347a3.194 3.194 0 0 0 3.184-3.2v-11.767-.014zm-3.184-15.412a1.172 1.172 0 0 1 1.184 1.185v13.242h-6.012l-2.816-5a1.732 1.732 0 0 0 -1.538-.865 1.681 1.681 0 0 0 -1.456 1.018l-.921 2.09-2.012-11.67zm-40.347 0h22.141l-3.065 12.808a1.636 1.636 0 0 0 -1.544-.741 1.693 1.693 0 0 0 -1.448 1.2l-1.345 4.353-2.88-9.74a1.684 1.684 0 0 0 -1.516-1.229 1.653 1.653 0 0 0 -1.64 1.032l-2.687 6.263h-7.2v-12.761a1.186 1.186 0 0 1 1.184-1.185zm40.347 28.405h-40.347a1.193 1.193 0 0 1 -1.185-1.2v-11.256h7.419a1.686 1.686 0 0 0 1.542-1.035l2.412-5.621 2.928 9.905a1.687 1.687 0 0 0 1.6 1.231h.01a1.682 1.682 0 0 0 1.606-1.211l1.434-4.636a1.649 1.649 0 0 0 1.632.793 1.694 1.694 0 0 0 1.428-1.309l3.688-15.4 2.476 14.372a1.7 1.7 0 0 0 1.467 1.422 1.676 1.676 0 0 0 1.733-1.008l1.09-2.475 2.584 4.583a1.682 1.682 0 0 0 1.457.864h6.21v10.784a1.192 1.192 0 0 1 -1.184 1.197z"/><path d="m15.747 25.633a2.845 2.845 0 1 0 -2.847-2.844 2.848 2.848 0 0 0 2.847 2.844zm0-3.69a.845.845 0 1 1 -.846.846.847.847 0 0 1 .846-.846z"/><path d="m47.514 21.686h2.693a1 1 0 0 0 0-2h-2.693a1 1 0 0 0 0 2z"/><path d="m47.514 24.637h2.693a1 1 0 0 0 0-2h-2.693a1 1 0 0 0 0 2z"/><path d="m14.327 40.716h-1.845a1 1 0 0 0 0 2h1.845a1 1 0 0 0 0-2z"/><path d="m19.64 40.716h-1.84a1 1 0 0 0 0 2h1.84a1 1 0 0 0 0-2z"/><path d="m24.953 40.716h-1.845a1 1 0 1 0 0 2h1.845a1 1 0 0 0 0-2z"/><path d="m30.266 40.716h-1.845a1 1 0 0 0 0 2h1.845a1 1 0 0 0 0-2z"/><path d="m35.579 40.716h-1.845a1 1 0 0 0 0 2h1.845a1 1 0 0 0 0-2z"/><path d="m40.892 40.716h-1.845a1 1 0 0 0 0 2h1.845a1 1 0 0 0 0-2z"/><path d="m46.205 40.716h-1.845a1 1 0 0 0 0 2h1.845a1 1 0 0 0 0-2z"/><path d="m51.518 40.716h-1.845a1 1 0 0 0 0 2h1.845a1 1 0 0 0 0-2z"/></svg>