<?xml version="1.0" encoding="UTF-8" standalone="no"?>
<!-- Created with Inkscape (http://www.inkscape.org/) -->

<svg
   version="1.1"
   id="svg3366"
   xml:space="preserve"
   width="682.66669"
   height="682.66669"
   viewBox="0 0 682.66669 682.66669"
   xmlns="http://www.w3.org/2000/svg"
   xmlns:svg="http://www.w3.org/2000/svg"><defs
     id="defs3370"><clipPath
       clipPathUnits="userSpaceOnUse"
       id="clipPath3380"><path
         d="M 0,512 H 512 V 0 H 0 Z"
         id="path3378" /></clipPath></defs><g
     id="g3372"
     transform="matrix(1.3333333,0,0,-1.3333333,0,682.66667)"><g
       id="g3374"><g
         id="g3376"
         clip-path="url(#clipPath3380)"><g
           id="g3382"
           transform="translate(28.05,7.5)"><path
             d="M 0,0 V 33.83"
             style="fill:none;stroke:#000000;stroke-width:15;stroke-linecap:round;stroke-linejoin:round;stroke-miterlimit:10;stroke-dasharray:none;stroke-opacity:1"
             id="path3384" /></g><g
           id="g3386"
           transform="translate(78.8,453.07)"><path
             d="m 0,0 c 0,0 42.84,-46.89 55.63,-63.73 82.71,-108.87 -21.39,-181.07 -76.39,-209.56 -18.38,-9.52 -29.99,-28.43 -29.99,-49.13 v -54.32"
             style="fill:none;stroke:#000000;stroke-width:15;stroke-linecap:round;stroke-linejoin:round;stroke-miterlimit:10;stroke-dasharray:none;stroke-opacity:1"
             id="path3388" /></g><g
           id="g3390"
           transform="translate(130.23,504.5)"><path
             d="m 0,0 49.08,-49.08 c 8.01,-8.01 21,-7.83 28.88,0.32 C 99.09,-26.92 137.03,0 179.97,0 c 32.42,0 58.98,-6.27 80.69,-16.86"
             style="fill:none;stroke:#000000;stroke-width:15;stroke-linecap:round;stroke-linejoin:round;stroke-miterlimit:10;stroke-dasharray:none;stroke-opacity:1"
             id="path3392" /></g><g
           id="g3394"
           transform="translate(420.22,468.55)"><path
             d="m 0,0 c 51.97,-43.95 63.73,-118.72 63.73,-169.11 0,-76.14 -63.95,-247.49 -238.71,-271.74 -32.92,-4.56 -78.14,3.7 -112.39,28.19 -13.43,9.59 -32.07,0.24 -32.07,-16.27 v -32.12"
             style="fill:none;stroke:#000000;stroke-width:15;stroke-linecap:round;stroke-linejoin:round;stroke-miterlimit:10;stroke-dasharray:none;stroke-opacity:1"
             id="path3396" /></g><g
           id="g3398"
           transform="translate(178.22,242.06)"><path
             d="m 0,0 c 7.67,13 13.09,26.46 16.2,40.31 5.71,25.3 6.53,59.2 6.3,81.93 -0.17,16.55 4.62,32.78 13.81,46.54 l 7.32,10.98 c 8.98,13.44 46.59,50.35 88.35,50.35 53.47,0 90.9,-19.14 114.43,-58.54 23.49,-39.31 26.99,-88.42 26.99,-114.19 0,-33.13 -14.9,-88.37 -48.19,-137.1 -18.32,-26.82 -40.28,-48.98 -65.27,-65.88 -28.7,-19.39 -61.46,-31.76 -97.36,-36.74 -4.28,-0.59 -8.9,-0.89 -13.73,-0.89 -18.65,0 -38.47,4.31 -55.81,12.15 -13.19,5.96 -31.37,16.98 -43.11,35.66 l -0.17,0.27 c -18.31,29.14 -12.81,67.09 12.72,90.18 0.14,0.13 0.27,0.26 0.41,0.38 5.91,5.37 11.36,10.84 16.34,16.43"
             style="fill:none;stroke:#000000;stroke-width:15;stroke-linecap:round;stroke-linejoin:round;stroke-miterlimit:10;stroke-dasharray:none;stroke-opacity:1"
             id="path3400" /></g><g
           id="g3402"
           transform="translate(132.8457,55.8869)"><path
             d="M 0,0 C 0,0 -34.431,25.86 -53.119,25.86"
             style="fill:none;stroke:#000000;stroke-width:15;stroke-linecap:round;stroke-linejoin:round;stroke-miterlimit:10;stroke-dasharray:none;stroke-opacity:1"
             id="path3404" /></g><g
           id="g3406"
           transform="translate(302.4675,288.3252)"><path
             d="m 0,0 c -8.926,0 -16.163,-7.236 -16.163,-16.163 v -16.162 h 32.326 v 16.162 C 16.163,-7.236 8.926,0 0,0 Z"
             style="fill:none;stroke:#000000;stroke-width:15;stroke-linecap:round;stroke-linejoin:round;stroke-miterlimit:10;stroke-dasharray:none;stroke-opacity:1"
             id="path3408" /></g><g
           id="g3410"
           transform="translate(342.781,230.6414)"><path
             d="M 0,0 -24.151,25.359 H -56.476 L -80.627,0 c -6.125,-6.431 -1.566,-17.068 7.315,-17.068 H -7.315 C 1.566,-17.068 6.125,-6.431 0,0 Z"
             style="fill:none;stroke:#000000;stroke-width:15;stroke-linecap:round;stroke-linejoin:round;stroke-miterlimit:10;stroke-dasharray:none;stroke-opacity:1"
             id="path3412" /></g><g
           id="g3414"
           transform="translate(79.2215,504.5)"><path
             d="m 0,0 142.312,-143.261 c 5.97,-6.01 13.777,-9.852 22.18,-10.917 l 25.534,-3.237 c 18.986,-2.407 33.22,-18.558 33.22,-37.697 v -21.063"
             style="fill:none;stroke:#000000;stroke-width:15;stroke-linecap:round;stroke-linejoin:round;stroke-miterlimit:10;stroke-dasharray:none;stroke-opacity:1"
             id="path3416" /></g><g
           id="g3418"
           transform="translate(291.3557,125.689)"><path
             d="m 0,0 c 0,-8.926 -7.236,-16.163 -16.163,-16.163 -8.926,0 -16.162,7.237 -16.162,16.163 0,8.926 7.236,16.163 16.162,16.163 C -7.236,16.163 0,8.926 0,0 Z"
             style="fill:none;stroke:#000000;stroke-width:15;stroke-linecap:round;stroke-linejoin:round;stroke-miterlimit:10;stroke-dasharray:none;stroke-opacity:1"
             id="path3420" /></g><g
           id="g3422"
           transform="translate(318.501,93.539)"><path
             d="m 0,0 -1.189,5.946 c -0.405,2.023 -0.116,4.113 0.765,5.979 0.644,1.366 1.224,2.769 1.738,4.203 0.696,1.941 1.97,3.623 3.687,4.767 l 5.048,3.365 c 5.63,3.754 5.63,12.027 0,15.78 L 5.001,43.405 C 3.284,44.549 2.01,46.231 1.314,48.172 0.8,49.606 0.22,51.009 -0.424,52.375 c -0.881,1.866 -1.17,3.956 -0.765,5.979 L 0,64.3 c 1.327,6.635 -4.523,12.485 -11.158,11.158 l -5.946,-1.189 c -2.023,-0.405 -4.112,-0.116 -5.979,0.764 -1.366,0.645 -2.769,1.225 -4.203,1.739 -1.941,0.696 -3.622,1.97 -4.767,3.686 l -3.365,5.049 c -3.753,5.63 -12.026,5.63 -15.78,0 l -3.365,-5.049 c -1.144,-1.716 -2.826,-2.99 -4.767,-3.686 -1.434,-0.514 -2.837,-1.094 -4.203,-1.739 -1.866,-0.88 -3.955,-1.169 -5.979,-0.764 l -5.946,1.189 C -82.093,76.785 -87.943,70.935 -86.616,64.3 l 1.189,-5.946 c 0.405,-2.023 0.116,-4.113 -0.764,-5.979 -0.645,-1.366 -1.225,-2.769 -1.739,-4.203 -0.696,-1.941 -1.97,-3.623 -3.686,-4.767 l -5.049,-3.365 c -5.63,-3.753 -5.63,-12.026 0,-15.78 l 5.049,-3.365 c 1.716,-1.144 2.99,-2.826 3.686,-4.767 0.514,-1.434 1.094,-2.837 1.739,-4.203 0.88,-1.866 1.169,-3.956 0.764,-5.979 L -86.616,0 c -1.327,-6.635 4.523,-12.485 11.158,-11.158 l 5.946,1.189 c 2.024,0.405 4.113,0.116 5.979,-0.764 1.366,-0.645 2.769,-1.225 4.203,-1.739 1.941,-0.696 3.623,-1.97 4.767,-3.686 l 3.365,-5.049 c 3.754,-5.63 12.027,-5.63 15.78,0 l 3.365,5.049 c 1.145,1.716 2.826,2.99 4.767,3.686 1.434,0.514 2.837,1.094 4.203,1.739 1.867,0.88 3.956,1.169 5.979,0.764 l 5.946,-1.189 C -4.523,-12.485 1.327,-6.635 0,0 Z"
             style="fill:none;stroke:#000000;stroke-width:15;stroke-linecap:round;stroke-linejoin:round;stroke-miterlimit:10;stroke-dasharray:none;stroke-opacity:1"
             id="path3424" /></g></g></g></g></svg>
