<svg id="Layer_1" enable-background="new 0 0 512 512" viewBox="0 0 512 512" xmlns="http://www.w3.org/2000/svg"><path d="m386.542 360.089c9.232 19.089 1.241 42.122-17.809 51.353-16.67 8.081-31.335 15.386-44.273 21.831-51.171 25.49-77.92 38.561-104.524 38.562-28.059.001-55.956-14.536-112.186-44.377-10.676-5.666-22.722-12.059-35.944-18.966h-64.318c-3.859 0-6.988-3.129-6.988-6.988s3.129-6.988 6.988-6.988h66.032c1.126 0 2.235.272 3.233.793 13.861 7.234 26.445 13.912 37.548 19.804 52.669 27.951 79.105 41.98 103.757 42.651 24.543.652 49.819-11.919 100.171-37.001 12.97-6.46 27.67-13.783 44.409-21.897 12.121-5.874 17.202-20.535 11.327-32.683-5.878-12.108-20.538-17.192-32.679-11.323l-88.049 42.683c-.744 1.226-1.535 2.416-2.404 3.54-7.548 9.793-18.939 14.932-30.454 14.932-8.199 0-16.461-2.603-23.445-7.986l-59.303-45.779c-3.055-2.358-3.62-6.747-1.262-9.801 2.359-3.056 6.748-3.622 9.802-1.261l59.299 45.775c5.143 3.963 11.563 5.682 18.069 4.85 6.506-.838 12.271-4.13 16.232-9.27.878-1.135 1.647-2.368 2.326-3.67 5.478-10.502 2.647-23.377-6.751-30.643l-83.624-64.529c-3.651-2.807-7.484-4.117-12.056-4.117h-132.178c-3.859 0-6.988-3.129-6.988-6.988s3.129-6.988 6.988-6.988h132.178c7.706 0 14.439 2.297 20.584 7.021l83.639 64.541c10.199 7.885 15.475 19.974 14.929 32.138l76.378-37.025c19.071-9.225 42.102-1.236 51.346 17.806zm88.45-154.743c-1.359 12.013-8.192 23.257-19.44 29.746l-20.392 11.793c-6.183 3.562-12.942 5.255-19.611 5.255-13.634 0-26.904-7.068-34.188-19.694-5.243-9.071-6.631-19.679-3.905-29.864 2.727-10.188 9.233-18.687 18.319-23.929l20.398-11.769c9.088-5.244 19.702-6.63 29.887-3.906 2.906.777 5.669 1.872 8.264 3.237 8.965-9.083 14.031-21.288 14.031-34.188 0-26.848-21.855-48.69-48.718-48.69-29.918 0-57.811 55.912-76.269 92.91-1.323 2.652-2.611 5.233-3.862 7.721-6.209 12.365-9.272 24.013-9.929 37.764l-4.442 93.839c-.177 3.743-3.267 6.657-6.975 6.658-.112 0-.223-.003-.336-.008-3.855-.183-6.832-3.456-6.65-7.311l4.442-93.842c.755-15.8 4.271-29.177 11.401-43.376 1.247-2.48 2.528-5.047 3.844-7.685 21.19-42.476 50.21-100.648 88.775-100.648 34.57 0 62.694 28.112 62.694 62.666 0 16.067-6.109 31.291-16.956 42.849 1.733 1.961 3.283 4.107 4.619 6.423l.002.004c1.348 2.34 2.428 4.763 3.25 7.232 15.367-14.601 24.278-35.002 24.278-56.507 0-42.947-34.94-77.886-77.887-77.886-16.12 0-31.586 4.882-44.727 14.119l-1.809 1.271h-193.292l-1.808-1.269c-13.142-9.237-28.619-14.119-44.757-14.119-42.947 0-77.887 34.939-77.887 77.886 0 21.511 8.917 41.913 24.297 56.508.825-2.473 1.91-4.899 3.264-7.242 1.336-2.314 2.885-4.459 4.617-6.418-10.847-11.558-16.956-26.782-16.956-42.848 0-34.554 28.111-62.666 62.665-62.666 32.475 0 43.005 20.488 54.153 42.177 2.359 4.591 4.799 9.338 7.521 14.055l28.121 48.687c8.911 15.431 13.467 30.943 14.338 48.818l4.357 91.814c.183 3.855-2.794 7.129-6.649 7.312-.113.005-.225.008-.337.008-3.707 0-6.797-2.915-6.974-6.657l-4.357-91.805c-.769-15.774-4.618-28.884-12.481-42.499l-28.122-48.689c-2.893-5.014-5.411-9.913-7.847-14.653-10.705-20.829-17.778-34.589-41.723-34.589-26.847 0-48.69 21.841-48.69 48.69 0 12.9 5.065 25.104 14.03 34.188 2.594-1.365 5.356-2.459 8.261-3.236 10.185-2.724 20.792-1.336 29.868 3.908l20.418 11.764c9.081 5.249 15.582 13.745 18.312 23.929 2.732 10.189 1.348 20.797-3.896 29.871-7.283 12.623-20.556 19.691-34.186 19.691-6.668 0-13.421-1.691-19.6-5.252l-20.434-11.804c-11.248-6.501-18.076-17.747-19.428-29.756-22.926-17.319-36.518-44.466-36.518-73.307 0-50.652 41.209-91.862 91.862-91.862 18.276 0 35.839 5.315 50.938 15.39h184.548c15.099-10.075 32.651-15.39 50.909-15.39 50.653 0 91.862 41.21 91.862 91.862.001 28.841-13.587 55.993-36.507 73.319zm-379.972-17.062-.003.005c-2.317 4.009-3.404 8.395-3.392 12.724.027.3.03.601.018.904.324 8.437 4.834 16.542 12.675 21.074l20.424 11.796c12.131 6.988 27.701 2.807 34.7-9.324 3.377-5.843 4.264-12.682 2.5-19.262-1.764-6.581-5.954-12.065-11.798-15.444l-20.419-11.764c-3.888-2.248-8.215-3.395-12.609-3.395-2.218 0-4.453.292-6.66.882-6.578 1.761-12.06 5.953-15.436 11.804zm366.236 13.489c-.003-.152.005-.303.012-.454.069-4.43-1.014-8.931-3.381-13.04-3.375-5.849-8.858-10.039-15.438-11.799-2.208-.591-4.446-.883-6.667-.883-4.4 0-8.731 1.147-12.624 3.393l-20.398 11.769c-5.85 3.375-10.042 8.858-11.803 15.438-1.76 6.577-.87 13.417 2.507 19.26 7.002 12.137 22.57 16.315 34.709 9.325l20.388-11.792c7.889-4.552 12.412-12.722 12.695-21.217zm-169.289-19.092c-6.762 12.357-9.911 24.687-9.911 38.804v99.727c0 3.86 3.129 6.988 6.988 6.988s6.988-3.129 6.988-6.988v-99.727c0-11.839 2.528-21.738 8.196-32.097l45.98-84.094c2.544-4.675 2.446-10.203-.275-14.81-2.74-4.599-7.554-7.345-12.879-7.345h-124.991c-5.426 0-10.273 2.805-12.954 7.483-2.712 4.695-2.712 10.302-.001 14.996l48.802 84.533c6.201 10.749 8.967 21.076 8.967 33.485v97.577c0 3.86 3.129 6.988 6.988 6.988s6.988-3.129 6.988-6.988v-97.577c0-14.794-3.444-27.653-10.838-40.471l-48.804-84.536c-.222-.385-.222-.632.012-1.037.204-.356.416-.476.84-.476h124.992c.38 0 .607.078.858.498.223.376.228.62.027.987z"/></svg>