<?xml version="1.0" encoding="UTF-8"?>
<svg xmlns="http://www.w3.org/2000/svg" viewBox="0 0 512 512" width="512" height="512"><g id="solid"><path d="M499.966,487.482,476,303.74V152a84.1,84.1,0,0,0-83.178-84L368.98,57.9a167.95,167.95,0,0,1-54.137-36.709A4,4,0,0,0,312,20H192a4,4,0,0,0-2.811,1.153,211.449,211.449,0,0,1-25.056,21.16A211.994,211.994,0,0,1,136.1,59.361l-17.069,8.645A84,84,0,0,0,36,152V303.74L12.034,487.482A4,4,0,0,0,16,492H96a4,4,0,0,0,3.966-3.482l23.561-180.631a848.971,848.971,0,0,1-12.766,164.118l-2.7,15.3A4,4,0,0,0,112,492H400a4,4,0,0,0,3.939-4.695l-2.7-15.3c-1.712-9.7-3.254-19.48-4.623-29.216l10.927,11.289,4.491,34.44A4,4,0,0,0,416,492h80a4,4,0,0,0,3.966-4.518ZM318.122,346.764a3.992,3.992,0,0,0-1.17-1l-11.738-6.617-15.429-19.4A166.1,166.1,0,0,1,267.7,283.093l2.032.234,57.943,54.878-.963,19.389Zm-51.546-47.727a174.115,174.115,0,0,0,16.947,25.692l9.894,12.44-5.828-.672-2.538-3.461a165.645,165.645,0,0,1-19.068-33.582A4.027,4.027,0,0,0,266.576,299.037Zm90.049,66.338,4,4.031c-.172.24-7.311,17.139-7.311,17.139l-3.872-4Zm9.75,9.375,4.75,4.5c-.151.21-7.722,17.723-7.722,17.723l-4.459-4.607Zm10.37,9.927,4.625,4.381a3.957,3.957,0,0,0-.341.544l-8.4,16.906-4.158-4.3Zm11.739-76.7,11.433,87.63-9.295-8.8C388.694,360.619,387.977,334.283,388.484,307.975ZM419.512,484l-2.645-20.29,10.1,10.437A19.051,19.051,0,0,0,440.776,480h.108A19.221,19.221,0,0,0,454,446.824l-44.874-42.5L396,303.74V208a4,4,0,0,0-7.976-.442l-2.47,22.191c-.084.754-.156,1.51-.238,2.264L380,236a80,80,0,0,1-96,0,47.072,47.072,0,0,1-13.789-16.522l-2.633-5.267a4,4,0,1,0-7.156,3.578l2.634,5.267A55.116,55.116,0,0,0,279.2,242.4a87.972,87.972,0,0,0,105.018.419,860.083,860.083,0,0,0-2.177,135.856l-78.46-74.311a4,4,0,0,0,1.643-4.8c-.976-2.615-2.026-5.185-3.122-7.638a4,4,0,0,0-7.3,3.261c.21.469.409.96.614,1.438L274.268,276.6a4,4,0,0,0-2.293-1.07L254.8,273.553a4,4,0,0,0-4.329,4.978q1.776,6.843,4.089,13.469H248a4,4,0,0,0,0,8h9.561A173.514,173.514,0,0,0,278.6,337.767l3.57,4.869a4,4,0,0,0,2.768,1.608l16.371,1.887,11.032,6.219,74.906,80.759c1.7,13.361,3.751,26.905,6.114,40.287l1.871,10.6H116.768l1.871-10.6a856.989,856.989,0,0,0,9.15-230.572A87.971,87.971,0,0,0,232.8,242.4a55.116,55.116,0,0,0,16.144-19.344l2.634-5.267a4,4,0,0,0-7.156-3.578l-2.633,5.267A47.072,47.072,0,0,1,228,236a80,80,0,0,1-96,0l-5.313-3.985c-.082-.755-.157-1.511-.241-2.267l-2.47-22.19A4,4,0,0,0,116,208v95.74L92.488,484H20.556l23.41-179.482A3.907,3.907,0,0,0,44,304V152a76,76,0,0,1,76-76,3.982,3.982,0,0,0,1.807-.432l17.911-9.07a220.262,220.262,0,0,0,29.088-17.69A219.685,219.685,0,0,0,193.633,28h27.659l14.994,37.485a4,4,0,0,0,7.428-2.97L229.908,28h52.184L268.286,62.515a4,4,0,1,0,7.428,2.97L290.708,28h19.634a175.878,175.878,0,0,0,55.517,37.263l24.58,10.42A3.986,3.986,0,0,0,392,76a76.086,76.086,0,0,1,76,76V304a3.907,3.907,0,0,0,.034.518L491.444,484Z"/><path d="M327.435,76.04l-35.141,5.02A67.681,67.681,0,0,0,256,98.405,67.674,67.674,0,0,0,219.706,81.06l-35.141-5.02a4,4,0,1,0-1.13,7.92l35.139,5.019a59.589,59.589,0,0,1,33.5,16.75l1.1,1.1a4,4,0,0,0,5.656,0l1.1-1.1a59.584,59.584,0,0,1,33.5-16.75l35.14-5.019a4,4,0,0,0-1.13-7.92Z"/><path d="M164,204c-8.972,0-16,5.271-16,12s7.028,12,16,12,16-5.271,16-12S172.972,204,164,204Z"/><path d="M348,204c-8.972,0-16,5.271-16,12s7.028,12,16,12,16-5.271,16-12S356.972,204,348,204Z"/><path d="M256,164a4,4,0,0,0-4,4v32a4,4,0,0,0,8,0V168A4,4,0,0,0,256,164Z"/><path d="M256,348a4,4,0,0,0,4-4v-8a4,4,0,0,0-8,0v8A4,4,0,0,0,256,348Z"/><path d="M256,420a4,4,0,0,0,4-4v-8a4,4,0,0,0-8,0v8A4,4,0,0,0,256,420Z"/><path d="M256,372a4,4,0,0,0,4-4v-8a4,4,0,0,0-8,0v8A4,4,0,0,0,256,372Z"/><path d="M256,396a4,4,0,0,0,4-4v-8a4,4,0,0,0-8,0v8A4,4,0,0,0,256,396Z"/><path d="M256,324a4,4,0,0,0,4-4v-8a4,4,0,0,0-8,0v8A4,4,0,0,0,256,324Z"/><path d="M248,436h16a4,4,0,0,0,0-8H248a4,4,0,0,0,0,8Z"/><path d="M319.851,334.06l-18.828-17.831a4,4,0,0,0-5.5,5.808l18.828,17.831a4,4,0,0,0,5.5-5.808Z"/><path d="M266.428,465.837a27.767,27.767,0,0,1-6.694,1.891,4,4,0,0,0,.578,7.958,4.041,4.041,0,0,0,.587-.044,35.774,35.774,0,0,0,8.628-2.43,4,4,0,0,0-3.1-7.375Z"/><path d="M266.058,262.011a33.9,33.9,0,0,1,6.276,3.385,4,4,0,1,0,4.49-6.621,41.943,41.943,0,0,0-7.764-4.18,4,4,0,1,0-3,7.416Z"/><path d="M287.516,281.667a4,4,0,1,0,6.7-4.363,82.283,82.283,0,0,0-4.932-6.811,4,4,0,0,0-6.221,5.031A74.18,74.18,0,0,1,287.516,281.667Z"/><path d="M251.354,252.323a35.612,35.612,0,0,0-8.647,2.368,4,4,0,1,0,3.049,7.4,27.6,27.6,0,0,1,6.7-1.841,4,4,0,0,0-1.1-7.924Z"/><path d="M281.1,464.567a3.988,3.988,0,0,0,2.782-1.127,66.993,66.993,0,0,0,5.7-6.305,4,4,0,1,0-6.252-4.992,58.977,58.977,0,0,1-5.016,5.551,4,4,0,0,0,2.784,6.873Z"/><path d="M303.02,422.854a3.994,3.994,0,0,0,5-2.647c.79-2.569,1.533-5.227,2.21-7.9a4,4,0,1,0-7.755-1.965c-.644,2.544-1.351,5.071-2.1,7.511A4,4,0,0,0,303.02,422.854Z"/><path d="M224.6,446.514a4,4,0,1,0-6.693,4.381,81.392,81.392,0,0,0,4.953,6.8,4,4,0,0,0,6.2-5.05A73.722,73.722,0,0,1,224.6,446.514Z"/><path d="M246.127,466.063a33.729,33.729,0,0,1-6.292-3.346,4,4,0,0,0-4.453,6.646,41.706,41.706,0,0,0,7.793,4.135,4,4,0,1,0,2.952-7.435Z"/><path d="M233.945,264.505a4,4,0,0,0-5.656-.114,66.482,66.482,0,0,0-5.728,6.288,4,4,0,1,0,6.236,5.011,58.592,58.592,0,0,1,5.034-5.53A4,4,0,0,0,233.945,264.505Z"/><path d="M311.709,375.771l.15,0a4,4,0,0,0,4-3.852c.1-2.622.146-5.287.146-7.946v-.2a4,4,0,0,0-8,0V364c0,2.536-.047,5.1-.14,7.626A4,4,0,0,0,311.709,375.771Z"/><path d="M308.928,399.6a4,4,0,0,0,4.578-3.323c.422-2.652.8-5.375,1.111-8.092a4,4,0,1,0-7.946-.924c-.3,2.607-.662,5.218-1.066,7.76A4,4,0,0,0,308.928,399.6Z"/><path d="M293.272,444.762a4,4,0,0,0,5.409-1.66c1.257-2.371,2.472-4.879,3.611-7.456a4,4,0,1,0-7.317-3.235c-1.062,2.4-2.193,4.739-3.362,6.943A4,4,0,0,0,293.272,444.762Z"/><path d="M211.834,297.42a4,4,0,0,0,5.279-2.031c1.068-2.4,2.2-4.737,3.376-6.935a4,4,0,0,0-7.059-3.764c-1.262,2.367-2.482,4.873-3.627,7.451A4,4,0,0,0,211.834,297.42Z"/><path d="M200.916,344.021a3.941,3.941,0,0,0,.471.028,4,4,0,0,0,3.968-3.533c.306-2.6.667-5.212,1.075-7.761a4,4,0,0,0-7.9-1.264c-.425,2.659-.8,5.381-1.12,8.091A4,4,0,0,0,200.916,344.021Z"/><path d="M217.292,433.011c-1.031-2.3-2.022-4.71-2.944-7.168a4,4,0,0,0-7.49,2.81c.981,2.615,2.036,5.183,3.136,7.633a4,4,0,1,0,7.3-3.275Z"/><path d="M200,368.453h.014A4,4,0,0,0,204,364.44V364c0-2.616.05-5.257.148-7.849a4,4,0,1,0-7.994-.3c-.1,2.692-.154,5.434-.154,8.164v.453A4,4,0,0,0,200,368.453Z"/><path d="M204.718,320.329a3.995,3.995,0,0,0,4.864-2.889c.649-2.55,1.359-5.076,2.112-7.506a4,4,0,0,0-7.643-2.366c-.792,2.56-1.539,5.217-2.222,7.9A4,4,0,0,0,204.718,320.329Z"/><path d="M209.69,410.988c-.638-2.48-1.233-5.042-1.768-7.612a4,4,0,1,0-7.832,1.631c.56,2.691,1.183,5.375,1.853,7.975a4,4,0,1,0,7.747-1.994Z"/><path d="M201.911,392.372a4,4,0,0,0,3.5-4.447c-.307-2.564-.568-5.19-.776-7.8a4,4,0,1,0-7.974.633c.216,2.72.487,5.452.806,8.121a4,4,0,0,0,3.967,3.524A3.925,3.925,0,0,0,201.911,392.372Z"/></g></svg>
