<svg id="Layer_1" viewBox="0 0 512 512" xmlns="http://www.w3.org/2000/svg" data-name="Layer 1"><path d="m508.067 316.504c-2.681 8.438-10.262 12.337-15.729 14.536-2.715 1.091-5.777 1.957-8.738 2.794-10.747 3.038-15.26 5.02-15.389 9.435-.212 7.316.691 20.594 1.565 33.435.808 11.869 1.643 24.143 1.643 32.388 0 12.413-3.627 22.032-10.775 28.589-13.159 12.07-35.525 11.244-57.304 9.362-.121-.01-.242-.023-.362-.04-15.718-2.083-28.602-4.375-40.076-7.141-11.791 12.694-20.904 26.29-29.989 44.621-1.351 2.724-4.128 4.448-7.168 4.448h-172.833c-2.69 0-5.2-1.352-6.681-3.599-1.479-2.247-1.731-5.086-.67-7.559 14.928-34.757 28.021-87.861 5.622-143.465-1.65-4.098.333-8.759 4.432-10.41 4.1-1.649 8.759.333 10.41 4.431 22.146 54.977 12.682 107.321-1.279 144.601h156.081c9.947-19.252 20.215-33.672 33.779-47.553 2.007-2.055 4.961-2.875 7.741-2.15 11.931 3.112 25.456 5.62 42.553 7.89 17.388 1.498 36.584 2.427 44.929-5.228 3.762-3.45 5.59-8.945 5.591-16.799 0-7.701-.816-19.699-1.605-31.301-.941-13.831-1.83-26.894-1.595-34.986.49-16.865 16.461-21.379 27.028-24.366 2.675-.756 5.201-1.47 7.123-2.243 3.81-1.531 5.979-3.058 6.449-4.536.482-1.518.657-6.515-8.113-20.102-3.778-5.783-7.418-11.218-10.63-16.014-13.459-20.095-20.872-31.165-21.105-40.386-.227-8.853 2.688-16.88 5.508-24.644 2.106-5.8 4.284-11.797 5.142-18.148 4.798-35.59-5.413-68.714-29.529-95.79-31.979-35.902-87.086-58.459-140.362-57.472-61.796 1.146-116.534 27.332-146.424 70.044-2.534 3.62-7.522 4.501-11.142 1.967-3.62-2.533-4.501-7.521-1.968-11.141 32.814-46.891 92.342-75.626 159.236-76.868 27.99-.52 56.845 4.861 83.462 15.559 27.556 11.075 51.466 27.42 69.145 47.268 27.316 30.668 38.88 68.211 33.438 108.57-1.088 8.057-3.676 15.184-5.959 21.471-2.522 6.947-4.701 12.947-4.553 18.775.116 4.583 9 17.847 18.405 31.89 3.235 4.832 6.902 10.307 10.755 16.204 9.572 14.83 12.632 25.199 9.942 33.661zm-165.763-57.386c6.361 39.397-.218 70.888-19.554 93.595-27.295 32.056-71.173 36.842-94.898 36.843-2.122 0-4.156-.843-5.657-2.343-1.5-1.5-2.343-3.535-2.343-5.657 0-78.295 44.363-97.829 83.505-115.063 9.644-4.246 18.753-8.257 27.062-13.035 2.278-1.311 5.057-1.418 7.428-.288 2.373 1.13 4.039 3.353 4.458 5.948zm-14.347 13.725c-5.981 2.934-12.132 5.642-18.153 8.293-34.178 15.049-66.654 29.354-72.881 81.354 14.67-13.586 27.611-26.369 38.563-38.102 3.014-3.229 8.076-3.404 11.307-.389 3.229 3.015 3.404 8.077.389 11.307-10.581 11.336-22.952 23.606-36.879 36.592 19.366-2.859 43.947-10.391 60.267-29.558 14.372-16.878 20.203-40.221 17.389-69.498zm-241.251-58.686c-30.533-2.449-58.187-20.55-82.193-53.801-1.538-2.131-1.932-4.881-1.053-7.358s2.918-4.364 5.455-5.048c9.538-2.574 19.095-6.287 29.211-10.218 39.431-15.323 83.926-32.599 137.925 16.833-.301-4.932-.152-9.557.308-13.844 3.289-30.601 22.594-55.202 49.182-62.676 25-7.028 50.849 2.356 72.064 25.817 21.215-23.46 47.059-32.846 72.066-25.816 26.587 7.474 45.892 32.075 49.18 62.675.625 5.819.613 11.688-.01 17.588h20.266c4.418 0 8 3.582 8 8s-3.582 8-8 8h-23.448c-7.434 25.531-26.137 51.359-55.4 76.116-3.373 2.854-8.421 2.433-11.274-.94-2.854-3.373-2.433-8.421.94-11.274 25.068-21.209 41.571-42.853 48.95-63.901h-74.974l-14.135 69.518c-.714 3.512-3.677 6.12-7.251 6.384-.198.015-.396.022-.593.022-3.343 0-6.362-2.09-7.517-5.272l-37.547-103.5-9.135 27.38c-1.09 3.266-4.146 5.468-7.589 5.468h-43.89c9.663 27.788 35.286 56.387 75.765 84.175 3.643 2.5 4.568 7.48 2.068 11.123-1.551 2.259-4.056 3.473-6.603 3.473-1.561 0-3.137-.455-4.521-1.405-52.731-36.198-75.302-69.703-83.317-96.992-17.014 16.307-48.043 39.764-85.714 39.764-2.383 0-4.784-.094-7.218-.289zm105.752-55.849h41.912l14.584-43.709c1.078-3.229 4.081-5.423 7.485-5.468h.104c3.362 0 6.37 2.104 7.52 5.272l35.688 98.375 9.772-48.064c.758-3.727 4.036-6.406 7.84-6.406h85.362c.693-5.356.78-10.655.218-15.878-2.586-24.061-17.345-43.288-37.602-48.982-20.928-5.882-43.308 4.242-61.393 27.78-1.515 1.971-3.858 3.126-6.344 3.126s-4.83-1.155-6.344-3.126c-18.085-23.539-40.463-33.667-61.392-27.78-20.257 5.694-35.017 24.92-37.603 48.982-.563 5.241-.482 10.539.191 15.878zm-104.473 39.9c26.985 2.162 51.281-11.421 67.531-23.9h-48.299c-4.418 0-8-3.582-8-8s3.582-8 8-8h48.514c-42.161-32.721-76.101-19.54-111.808-5.664-6.416 2.493-12.97 5.04-19.563 7.284 19.361 23.579 40.726 36.443 63.627 38.28zm79.853 112.872c-10.117 0-20.549-1.507-30.936-5.203-28.099-9.998-49.541-33.98-63.731-71.28-.935-2.457-.603-5.215.888-7.38 1.489-2.165 3.948-3.46 6.576-3.465 9.584-.017 19.479-1.098 29.953-2.242 42.516-4.644 90.702-9.91 129.848 57.896 2.21 3.826.898 8.719-2.928 10.928-15.167 8.756-41.15 20.746-69.67 20.746zm41.4-24.813c-18.556-4.283-35.404-8.724-50.236-13.25-4.226-1.29-6.606-5.761-5.316-9.986 1.289-4.226 5.758-6.608 9.986-5.316 15.349 4.684 32.949 9.285 52.448 13.716-31.393-41.919-66.669-38.07-103.793-34.014-6.541.714-13.221 1.444-19.867 1.894 12.2 26.762 28.921 44.062 49.807 51.493 23.718 8.438 48.771 2.671 66.972-4.536z"/></svg>