<svg id="Layer_1" enable-background="new 0 0 512 512" height="512" viewBox="0 0 512 512" width="512" xmlns="http://www.w3.org/2000/svg"><path clip-rule="evenodd" d="m340.979 327.423-21.441 57.66c17.69 8.551 21.815 32.1 7.813 46.102-11.197 11.197-29.349 11.197-40.546 0-17.725-17.725-5.629-48.115 19.322-48.928l20.818-55.982c-19.929-6.824-26.037-32.35-10.983-47.404 8.888-8.887 22.604-10.992 33.761-5.032l25.604-32.575c-3.179-3.787-5.396-8.408-6.277-13.487l-39.314-8.029c-6.076 20.733-32.338 27.651-47.79 12.198-16.485-16.485-7.33-44.63 15.391-48.529l24.723-66.932c-12.325-10.947-12.92-30.03-1.237-41.712 11.197-11.197 29.348-11.197 40.546 0 11.197 11.197 11.197 29.348 0 40.546-7.005 7.005-17.265 10.015-27.185 7.559l-22.766 61.633c9.63 3.26 16.909 11.467 18.917 21.518l39.644 8.096c6.477-20.309 32.35-26.797 47.593-11.554 11.197 11.197 11.197 29.348 0 40.546-8.156 8.156-20.508 10.697-31.291 6.203l-26.406 33.596c11.871 17.259 1.69 41.078-18.896 44.507zm-84.965-282.547c-61.421-32.586-103.369-37.591-125.882-15.023-14.62 14.656-20.211 40.833-16.784 78.526-71.029 19.456-94.786 58.892-61.92 117.138-18.561 38.63-28.048 74.431-21.333 104.873 6.803 30.841 29.755 55.547 75.89 71.268 5.573 41.329 52.678 99.305 100.41 94.001 15.95-1.772 31.411-9.963 46.383-24.573 14.841 13.678 31.708 21.71 48.918 23.752 51.065 6.062 98.289-47.46 104.426-93.189 45.996-15.697 68.919-40.165 75.756-70.742 6.787-30.355-2.779-66.103-21.482-104.855 11.283-19.816 18.591-41.918 12.613-62.766-8.534-29.766-40.947-45.76-74.262-54.911 3.414-37.701-2.204-63.877-16.854-78.527-22.533-22.534-64.494-17.523-125.879 15.028zm141.169 77.166c-2.262 16.548-6.038 35.029-11.332 55.447-.939 3.625-4.64 5.802-8.265 4.863s-5.802-4.64-4.863-8.265c18.417-71.029 18.268-115.903-.448-134.618-17.78-17.78-54.275-12.051-109.475 17.18l-3.181 402.217c13.262 13.054 28.38 20.66 43.674 22.475 59.021 7.006 122.02-82.153 65.917-141.725-2.569-2.73-2.438-7.025.292-9.594 2.73-2.568 7.025-2.438 9.594.292 16.966 18.013 26.326 36.878 27.565 56.749 37.612-13.939 56.434-34.257 61.983-59.077 5.59-24.999-1.796-55.113-16.846-88.24-7.156 10.465-15.959 21.468-26.411 33.012-2.51 2.774-6.793 2.988-9.567.478s-2.988-6.793-.478-9.567c26.821-29.633 53.039-67.206 44.593-96.662-6.863-23.936-35.228-37.167-62.752-44.965zm-151.118 336.549c-14.005 14.215-26.941 21.99-41.158 23.569-51.545 5.726-118.842-82.199-62.01-142.545 2.568-2.73 2.438-7.025-.292-9.594-2.73-2.568-7.025-2.438-9.594.292-16.969 18.017-26.329 36.884-27.566 56.76-37.729-13.975-56.582-34.519-62.116-59.605-5.527-25.055 1.776-55.178 16.679-88.182 7.215 10.616 16.118 21.773 26.71 33.471 2.509 2.774 6.793 2.988 9.567.478s2.988-6.793.478-9.567c-34.734-38.36-49.943-69.33-45.583-92.917 3.993-21.602 25.228-37.835 63.736-48.709 2.266 16.549 6.045 35.029 11.339 55.446.939 3.625 4.64 5.802 8.265 4.863s5.802-4.64 4.863-8.265c-18.422-71.047-18.311-115.94.369-134.666 17.743-17.787 54.232-12.043 109.492 17.236zm-52.773-196.013c3.728.455 6.381 3.846 5.926 7.574-.455 3.727-3.846 6.381-7.574 5.926l-35.804-4.475-51.132 46.483c-2.774 2.524-7.069 2.322-9.594-.452-2.524-2.774-2.322-7.069.452-9.594l53.199-48.363c1.429-1.437 3.482-2.224 5.65-1.96zm20.831-78.952c3.728.455 6.381 3.846 5.926 7.574s-3.846 6.381-7.574 5.926l-27.62-3.453-39.878 36.253c-2.774 2.524-7.069 2.322-9.594-.452-2.524-2.774-2.322-7.069.452-9.593l41.945-38.132c1.429-1.437 3.482-2.224 5.65-1.96zm-.982-89.577c3.728.455 6.381 3.846 5.926 7.574s-3.846 6.381-7.574 5.926l-19.435-2.429-28.625 26.023c-2.774 2.524-7.069 2.322-9.593-.452s-2.322-7.069.452-9.594l30.692-27.902c1.429-1.437 3.482-2.224 5.65-1.96zm9.719 272.9c3.728.455 6.381 3.846 5.926 7.574s-3.846 6.381-7.574 5.926l-27.62-3.453-39.878 36.253c-2.774 2.524-7.069 2.322-9.594-.452-2.524-2.774-2.322-7.069.452-9.593l41.945-38.133c1.429-1.437 3.482-2.224 5.65-1.96zm128.887-282.558c-9.462-9.462-25.718-2.733-25.718 10.653 0 13.385 16.256 20.115 25.718 10.653 5.882-5.882 5.882-15.423 0-21.306zm-38.876 116.629c-9.461-9.462-25.717-2.733-25.717 10.653s16.256 20.115 25.717 10.653c5.882-5.883 5.882-15.424 0-21.306zm34.017 87.47c-9.462-9.462-25.718-2.733-25.718 10.653 0 13.385 16.256 20.115 25.718 10.653 5.882-5.882 5.882-15.423 0-21.306zm-29.157 111.769c-9.462-9.462-25.718-2.733-25.718 10.653 0 13.385 16.256 20.115 25.718 10.653 5.882-5.882 5.882-15.424 0-21.306zm90.219-188.069c-9.462-9.462-25.718-2.733-25.718 10.653s16.256 20.115 25.718 10.653c5.882-5.882 5.882-15.424 0-21.306z" fill-rule="evenodd"/></svg>