<?xml version="1.0" encoding="UTF-8" standalone="no"?>
<!-- Created with Inkscape (http://www.inkscape.org/) -->

<svg
   version="1.1"
   id="svg4533"
   xml:space="preserve"
   width="682.66669"
   height="682.66669"
   viewBox="0 0 682.66669 682.66669"
   xmlns="http://www.w3.org/2000/svg"
   xmlns:svg="http://www.w3.org/2000/svg"><defs
     id="defs4537"><clipPath
       clipPathUnits="userSpaceOnUse"
       id="clipPath4547"><path
         d="M 0,512 H 512 V 0 H 0 Z"
         id="path4545" /></clipPath></defs><g
     id="g4539"
     transform="matrix(1.3333333,0,0,-1.3333333,0,682.66667)"><g
       id="g4541"><g
         id="g4543"
         clip-path="url(#clipPath4547)"><g
           id="g4549"
           transform="translate(504.5,145.21)"><path
             d="m 0,0 c 0,68.531 -55.556,124.087 -124.087,124.087 -68.531,0 -124.086,-55.556 -124.086,-124.087 0,-68.531 55.555,-124.087 124.086,-124.087 C -55.556,-124.087 0,-68.531 0,0 Z"
             style="fill:none;stroke:#000000;stroke-width:15;stroke-linecap:round;stroke-linejoin:round;stroke-miterlimit:10;stroke-dasharray:none;stroke-opacity:1"
             id="path4551" /></g><g
           id="g4553"
           transform="translate(404.9199,176.2158)"><path
             d="m 0,0 v 36.013 c 0,3.59 -2.91,6.5 -6.5,6.5 h -36.013 c -3.59,0 -6.5,-2.91 -6.5,-6.5 V 0 c 0,-3.59 -2.91,-6.5 -6.5,-6.5 h -36.012 c -3.59,0 -6.5,-2.91 -6.5,-6.5 v -36.013 c 0,-3.59 2.91,-6.5 6.5,-6.5 h 36.012 c 3.59,0 6.5,-2.91 6.5,-6.5 v -36.012 c 0,-3.59 2.91,-6.5 6.5,-6.5 H -6.5 c 3.59,0 6.5,2.91 6.5,6.5 v 36.012 c 0,3.59 2.91,6.5 6.5,6.5 h 36.013 c 3.59,0 6.5,2.91 6.5,6.5 V -13 c 0,3.59 -2.91,6.5 -6.5,6.5 L 6.5,-6.5 C 2.91,-6.5 0,-3.59 0,0 Z"
             style="fill:none;stroke:#000000;stroke-width:15;stroke-linecap:round;stroke-linejoin:round;stroke-miterlimit:10;stroke-dasharray:none;stroke-opacity:1"
             id="path4555" /></g><g
           id="g4557"
           transform="translate(111.0439,53.5215)"><path
             d="m 0,0 c 51.165,28.444 95.781,59.987 131.281,92.995 5.226,4.858 10.217,9.73 15.015,14.611"
             style="fill:none;stroke:#000000;stroke-width:15;stroke-linecap:round;stroke-linejoin:round;stroke-miterlimit:10;stroke-dasharray:none;stroke-opacity:1"
             id="path4559" /></g><g
           id="g4561"
           transform="translate(231.248,326.3027)"><path
             d="m 0,0 c 0,-29.082 -21.743,-65.313 -61.224,-102.023 -36.381,-33.826 -87.361,-67.469 -145.531,-96.248 -14.717,-7.28 -21.052,-24.884 -14.284,-39.844 l 18.687,-41.309 c 7.094,-15.681 25.768,-22.352 41.213,-14.76 3.184,1.566 6.348,3.143 9.491,4.732"
             style="fill:none;stroke:#000000;stroke-width:15;stroke-linecap:round;stroke-linejoin:round;stroke-miterlimit:10;stroke-dasharray:none;stroke-opacity:1"
             id="path4563" /></g><g
           id="g4565"
           transform="translate(322.6621,255.0566)"><path
             d="M 0,0 C 9.813,23.66 14.769,47.442 14.769,71.246"
             style="fill:none;stroke:#000000;stroke-width:15;stroke-linecap:round;stroke-linejoin:round;stroke-miterlimit:10;stroke-dasharray:none;stroke-opacity:1"
             id="path4567" /></g><g
           id="g4569"
           transform="translate(337.4307,326.3027)"><path
             d="m 0,0 c 0,93.677 -78.671,169.323 -173.413,164.342 -88.915,-4.676 -157.276,-78.35 -155.71,-167.373 0.952,-54.114 27.395,-108.097 78.689,-160.757"
             style="fill:none;stroke:#000000;stroke-width:15;stroke-linecap:round;stroke-linejoin:round;stroke-miterlimit:10;stroke-dasharray:none;stroke-opacity:1"
             id="path4571" /></g><g
           id="g4573"
           transform="translate(172.8555,226.9482)"><path
             d="m 0,0 c -37.682,35.793 -58.392,70.978 -58.392,99.354 0,32.197 26.195,58.392 58.393,58.392 32.197,0 58.392,-26.195 58.392,-58.392"
             style="fill:none;stroke:#000000;stroke-width:15;stroke-linecap:round;stroke-linejoin:round;stroke-miterlimit:10;stroke-dasharray:none;stroke-opacity:1"
             id="path4575" /></g><g
           id="g4577"
           transform="translate(172.8555,91.5693)"><path
             d="m 0,0 c 30.931,-21.12 65.45,-41.114 102.746,-59.45 13.298,-6.537 28.981,-2.495 37.614,8.761"
             style="fill:none;stroke:#000000;stroke-width:15;stroke-linecap:round;stroke-linejoin:round;stroke-miterlimit:10;stroke-dasharray:none;stroke-opacity:1"
             id="path4579" /></g><g
           id="g4581"
           transform="translate(446.9033,432.5742)"><path
             d="m 0,0 c -10.482,13.031 -30.159,17.389 -45.662,6.636 l -1.581,-1.097 c -11.575,-8.029 -26.919,-8.029 -38.494,0 l -1.581,1.097 c -19.626,13.613 -45.936,3.003 -51.816,-18.76"
             style="fill:none;stroke:#000000;stroke-width:15;stroke-linecap:round;stroke-linejoin:round;stroke-miterlimit:10;stroke-dasharray:none;stroke-opacity:1"
             id="path4583" /></g><g
           id="g4585"
           transform="translate(462.4395,238.3096)"><path
             d="m 0,0 c 17.959,5.443 29.285,25.613 21.521,44.939 l -0.718,1.786 c -5.252,13.072 -1.838,28.03 8.566,37.529 l 1.421,1.297 c 19.377,17.69 12.059,49.755 -13.075,57.286 l -1.844,0.553 c -9.318,2.792 -16.765,9.377 -20.789,17.814"
             style="fill:none;stroke:#000000;stroke-width:15;stroke-linecap:round;stroke-linejoin:round;stroke-miterlimit:10;stroke-dasharray:none;stroke-opacity:1"
             id="path4587" /></g><g
           id="g4589"
           transform="translate(166.499,490.7422)"><path
             d="M 0,0 C -128.31,-5.469 -60.137,-178.038 -37.92,-209.697"
             style="fill:none;stroke:#000000;stroke-width:15;stroke-linecap:round;stroke-linejoin:round;stroke-miterlimit:10;stroke-dasharray:none;stroke-opacity:1"
             id="path4591" /></g><g
           id="g4593"
           transform="translate(217.1338,281.0449)"><path
             d="M 0,0 C 22.218,31.659 90.39,204.229 -37.919,209.697"
             style="fill:none;stroke:#000000;stroke-width:15;stroke-linecap:round;stroke-linejoin:round;stroke-miterlimit:10;stroke-dasharray:none;stroke-opacity:1"
             id="path4595" /></g><g
           id="g4597"
           transform="translate(441.3535,318.8496)"><path
             d="m 0,0 c 0,-9.629 -7.806,-17.436 -17.436,-17.436 -9.629,0 -17.436,7.807 -17.436,17.436 0,9.63 7.807,17.437 17.436,17.437 C -7.806,17.437 0,9.63 0,0 Z"
             style="fill:none;stroke:#000000;stroke-width:15;stroke-linecap:round;stroke-linejoin:round;stroke-miterlimit:10;stroke-dasharray:none;stroke-opacity:1"
             id="path4599" /></g><g
           id="g4601"
           transform="translate(400.2187,377.042)"><path
             d="m 0,0 c 0,-9.629 -7.807,-17.436 -17.436,-17.436 -9.629,0 -17.436,7.807 -17.436,17.436 0,9.63 7.807,17.437 17.436,17.437 C -7.807,17.437 0,9.63 0,0 Z"
             style="fill:none;stroke:#000000;stroke-width:15;stroke-linecap:round;stroke-linejoin:round;stroke-miterlimit:10;stroke-dasharray:none;stroke-opacity:1"
             id="path4603" /></g></g></g></g></svg>
