<?xml version="1.0" encoding="UTF-8"?>
<svg xmlns="http://www.w3.org/2000/svg" id="Layer_1" data-name="Layer 1" viewBox="0 0 64 64" width="512" height="512"><path d="M42.83,15.55,46.54,10H54V8H46a1,1,0,0,0-.83.45L41.46,14H26v2H42A1,1,0,0,0,42.83,15.55Z"/><path d="M19,10H16V7a1,1,0,0,0-1-1H11a1,1,0,0,0-1,1v3H7a1,1,0,0,0-1,1v4a1,1,0,0,0,1,1h3v3a1,1,0,0,0,1,1h4a1,1,0,0,0,1-1V16h3a1,1,0,0,0,1-1V11A1,1,0,0,0,19,10Zm-1,4H15a1,1,0,0,0-1,1v3H12V15a1,1,0,0,0-1-1H8V12h3a1,1,0,0,0,1-1V8h2v3a1,1,0,0,0,1,1h3Z"/><path d="M3,24H23a1,1,0,0,0,1-1V3a1,1,0,0,0-1-1H3A1,1,0,0,0,2,3V23A1,1,0,0,0,3,24ZM4,4H22V22H4Z"/><rect x="56" y="8" width="2" height="2"/><rect x="60" y="8" width="2" height="2"/><path d="M41.17,2.45,37.46,8H26v2H38a1,1,0,0,0,.83-.45L42.54,4H58V2H42A1,1,0,0,0,41.17,2.45Z"/><rect x="60" y="2" width="2" height="2"/><path d="M32,38a4,4,0,1,0,4,4A4,4,0,0,0,32,38Zm0,6a2,2,0,1,1,2-2A2,2,0,0,1,32,44Z"/><path d="M39.82,31.66,58,42l1-1.83L55.24,38l.29-.52a7.36,7.36,0,0,0,.72-5.4l-.41-1.74-2,.5.42,1.75a5.26,5.26,0,0,1-.53,3.86l-.29.54-3.78-2.15A7.36,7.36,0,0,0,50.14,30l-.42-1.74-2,.5.42,1.74a5.28,5.28,0,0,1-.28,3.33l-4-2.3A7.42,7.42,0,0,0,44,27.4l-.42-1.74-2,.5L42,27.91a5.09,5.09,0,0,1,0,2.6l-1.2-.68a18.1,18.1,0,0,0-3-1.34,7.4,7.4,0,0,0,0-3.71l-.41-1.73-2,.5.42,1.74a5.32,5.32,0,0,1,0,2.63,17.28,17.28,0,0,0-4.17-.43,7.44,7.44,0,0,0,.06-3.75L31.37,22l-2,.5.42,1.74a5.29,5.29,0,0,1-.33,3.42,17.7,17.7,0,0,0-3.67.95,7.25,7.25,0,0,0-.14-2.78l-.42-1.74-2,.5.42,1.75a5.26,5.26,0,0,1-.31,3.39l-.19.1-3.6,2.05a7.5,7.5,0,0,0,0-3.43l-.41-1.74-2,.5L17.58,29a5.25,5.25,0,0,1-.53,3.86l-.4.74L12.41,36l.3-.54a7.42,7.42,0,0,0,.73-5.4L13,28.28l-2,.5.42,1.74a5.3,5.3,0,0,1-.52,3.86L9,37.91,5,40.17,6,42,24.18,31.66A15.71,15.71,0,0,1,39.82,31.66Z"/><path d="M21.17,54.45,17.46,60H10v2h8a1,1,0,0,0,.83-.45L22.54,56H62V54H22A1,1,0,0,0,21.17,54.45Z"/><rect x="2" y="60" width="2" height="2"/><rect x="6" y="60" width="2" height="2"/><path d="M52.48,42.88a1,1,0,0,0,0-1.76L38.75,33.71a14.18,14.18,0,0,0-13.5,0L11.52,41.12a1,1,0,0,0,0,1.76L21,48H18a1,1,0,0,0-.83.45L13.46,54H6v2h8a1,1,0,0,0,.83-.45L18.54,50h6.17l.54.29a14.18,14.18,0,0,0,13.5,0l.54-.29H62V48H43Zm-16.15-7.6a8.22,8.22,0,0,1,1.5,1.26A1,1,0,0,1,37,37a1,1,0,0,1-1-1A1,1,0,0,1,36.33,35.28ZM23.35,47,14.1,42l9.26-5a9.88,9.88,0,0,0,0,10ZM32,50a8,8,0,0,1,0-16,7.86,7.86,0,0,1,2.48.4A3,3,0,0,0,34,36a3,3,0,0,0,5,2.19A7.9,7.9,0,0,1,40,42,8,8,0,0,1,32,50Zm8.64-13,9.26,5-9.25,5a9.88,9.88,0,0,0,0-10Z"/><rect x="2" y="54" width="2" height="2"/></svg>
