<svg id="Layer_1" enable-background="new 0 0 106 106" viewBox="0 0 106 106" xmlns="http://www.w3.org/2000/svg"><g><path d="m101.31 74.35c-.21-1.05-5.32-25.79-8.48-28.79-2.01-1.91-11.29-4.61-11.32-4.61-.26-.12-3.26-.9-5.33-2.57 2.75-1.77 4.73-4.86 4.96-8.28 3.23.55 3.76-4.66 1.39-5.39 5.81-14.9-9.82-25.06-19.36-14.82-6.09 2.54-6.29 9.05-3.64 15.02-2.16 1.28-1.51 5.41 1.76 5.61.28 3.22 2.01 6.04 4.46 7.74-3.2 2.61-7.94 3.1-13.64 5.58-.36-.03-.73-.05-1.11-.06-.1-.05-5.05-2.38-5.06-2.28-2.25-.71-3.87-1.53-5.05-2.53 2.58-1.68 4.43-4.58 4.65-7.78 2.65.4 3.32-3.16 2.18-4.59 1.24-2.21 2.2-6.05 1.12-10.27 1.33-2.33 1.74-6.4 1.19-6.83-.66-.52-1.49 1.23-9.04-2.32-8.17-3.89-18.03.11-19.4 10.3-.11 4.71.79 7.93 2.66 9.63-1.01 1.81.13 4.29 2.51 4.45.27 3.02 1.89 5.67 4.18 7.27-1.75 1.5-4.17 2.29-5.42 2.78l-4.72 2.17c-10.55.2-13.07 8.32-12.14 18.79 0 .02.01.02.01.04-2.67 6.9-.89 14.21-2.69 19.95-1.12 3.56-1.39 10.33-1.26 15.47.02.93 1.25.3 8.12.49.23 0 .44-.17.48-.4.6-2.88 1.08-7.71 1.46-12.06.49-5.48 1.8-7.77 3.2-12.7 1.39 12.04-.59 20.6-1.07 24.39 0 .5 0 1.83 18.99 1.83 13.53 0 17.42-.68 18.54-1.27 2.75.64 7.61 1.08 13.44 1.2.14.48.58.78 1.05.78.64 0 .89-.5 1.21-.76 3.11.02 17.68-.09 19.89-2.29.64-.64.35.86-.86-24.58l.84 4.46c.09.46.82.54 1.5.66.45 3.36-.02 11.84 1.42 20.32.04.24.25.42.5.42 5.34-.17 6.38.38 6.43-.47.28-4.27 1.08-18.05.06-22.21.9-.63 1.48-1.09 1.39-1.49zm-39.06-44.36c-.01-.26-.23-.49-.53-.47-1.52.08-2.11-.96-2.11-.96-1.14-2.88.97-2.66 1.08-3.33 1.22-7.28 4.26-8.68 5-8.92 5.18 3.52 11.79 2.22 13.86 1.68.05 1.53.8 7.03 2.1 7.56.48.09.66.01.95.31.7.71.4 2.66-.4 3.13s-1.37-.24-1.81.04c-.15.1-.23.25-.23.42 0 5.06-4.27 9.5-9.12 9.5-4.63 0-8.57-4.02-8.79-8.96zm4.39 8.82c2.65 1.45 5.74 1.55 8.62.1 1.3 1.14 3.07 2.06 5.53 2.85-.53 7.97-19.16 7.96-19.67-.01 2.52-.91 4.25-1.83 5.52-2.94zm-21.3 56.58c-12.2 0-22.13-9.93-22.13-22.14 0-12.2 9.93-22.13 22.13-22.13 12.21 0 22.14 9.93 22.14 22.13 0 12.21-9.93 22.14-22.14 22.14zm-17.61-64.35c-.03-.51-.66-.49-.53-.47-1.43.07-1.98-.9-1.98-.9-1.09-2.79 1.19-2.49.99-3.32-.84-3.47.04-7.8 2.93-9.26 4.22 3.48 11.72 5.09 16.59 2.21.02 6.77-.32 7.64.48 7.62 1.47-.03 1.21 2.62.31 3.16-.54.31-1.24.01-1.25.01-.33-.15-.7.09-.7.45 0 4.76-4.01 8.93-8.59 8.93-4.35 0-8.05-3.78-8.25-8.43zm4.08 8.35c2.5 1.36 5.42 1.49 8.17.1 1.29 1.19 3.07 2.13 5.57 2.94-.53 7.81-18.8 7.8-19.31-.01 2.58-.93 4.32-1.88 5.57-3.03zm-18.02 46.58c-.37 4.12-.81 8.68-1.36 11.55h-6.73c-.28-14.73 2.11-14.1 2.18-20.99.05-6.24.59-10.5 1.66-13.39l7.38 1.82.74 5.77c-1.71 6.94-3.29 8.74-3.87 15.24zm54.04 12.53c-5.61-.11-10.27-.52-12.98-1.13-.07-.5-.15-1.04-.24-1.61 11.76.26 13.22-.6 13.22.68zm31.06-.98h-5.04c-1.32-8.14-.92-16.56-1.32-19.61 2.16.13 4.54-.42 6.5-1.51.86 3.71.09 17.32-.14 21.12zm-7.95-20.88c-2.27-10.95-1.82-11.89-2.7-11.77-.9.11-.29-.44 1.15 31.58-.26.9-6.73 2.08-18.25 2.08 5.02-5.23 5.71-5.2 5.71-6.39 0-.44-.18-.86-.49-1.18-6.6-6.25-6.66-7.38-7.85-6.89-1.09.46-.52 1.69-.68 3.78 0 1.18-1.68.48-5.13.68 6.55-7.45 7.46-17.87 3.07-26.12l7.43.01c1.86 0-.19 4.24 1.52 4.94.42.18.92.08 1.25-.25 7.32-7.55 7.93-7.34 7.93-8.66 0-1.31-.59-1.08-7.93-8.66-.72-.72-1.96-.21-1.96.82-.18 1.9.51 3.88-.81 3.88l-10.19-.03c-.9-5.85-3.9-9.32-8.93-10.34 1.63-.63 3.67-1.32 6.07-2.06.94 8.89 20.67 8.9 21.61.01 5.57 1.7 9.34 3.22 10.38 4.21 2.4 2.29 6.63 20.72 8.14 28-2.24 2.09-6.2 3.24-9.34 2.36z"/><path d="m53.44 71.51c0-.43-.04-.84-.16-1.23 1.52-.57 1.06-2.95-.02-3.16.04-.28-.22-.97-.31-1.23.31-.21.5-.55.52-.94-.26-1.99 1.19-4.29-2.8-3.46-.38-.73-.93-1.36-1.61-1.86.54-.77 1.31-1.68 1.8-1.85.83-.29.09-2.63-2.65 1.33-.38-.19-.78-.35-1.2-.45l.4-3.29c.08-.65-.91-.79-.99-.12l-.4 3.27c-.33-.03-.66-.03-1 0-1.1-4.71-2.67-2.82-1.99-2.23.41.36.79 1.51 1 2.37-.5.12-1 .3-1.48.52-.15-.15-.21-.31-.53-.38-.96-.22-3.33 2.3-3.93 3.07-.39-1.33-2.13-5.98-3.5-4.87-.49.59-2.49 1.37-1.71 2.36 1.45 1.97 2.21 4.51 2.33 7.76-.7-.32-1.27-.73-1.85-.18-.09.14-1.72 1.16-.64 2.09.25.2.46.4.63.55-.95.14-1.43.12-1.75.52-.4.5-.12.97-.08 1.78.06.49.48.86.98.86h.3c-.52 2.67.3 5.6 2.19 7.64.14.4.34.8.59 1.19.22 3.29-.12 4.88 1.05 4.81 1.61-.14 2.54.15 2.74-.73 4.38 3.54 12.2 4.85 13.12 4.85 1.52 0 2.4-.8 3.2-2.12 4.23-6.94.85-15.69-2.25-16.87zm-.38-3.42c.21.48.34 1.17-.17 1.26-.47.08-.79.56-.61 1.08.1.29.15.59.16.91-1.19-.01-1.59.31-3.58-.74.53-1.83 1.39-3.47 3.13-4.3h.05l.21.67c-.55.38-1.09.58-.89 1.08.09.22.33.35.57.3.38-.08.77-.17 1.13-.26zm-3.39-6.33c-3.15 1.04-5.3 3.34-6.84 6.23-.92-1.32-2.08-.59-2.91-1.08-.14-.09-.29-.13-.45-.15 1.71-4.55 4.9-4.42 4.09-5.87l-.5-.85c2.84-1.26 5.47-.24 6.61 1.72zm-14.79 16.82c-3.18-5.06 1.07-7.11-2.37-6.82l-.14-1.03c.73-.09 1.48-.23 2.23-.31.45-.04.61-.62.25-.89-.53-.39-1.13-1-1.48-1.23l.66-.63c.91.48 1.9.84 2.73 1.27 1.37.68 2.21-1.43 2.65-1.17 1.36.8 2.09-.34 2.88 1.29-.35.76-.6 1.3-1.14 2.77-1.9 2.16-5.6 3.36-6.27 6.75zm18.55 10.74c-1.68.74-9.03-1.72-11.26-2.97-2.08-1.16-5.35-4.05-6.29-6.42-.61-2.03 1.56-3.9 3.25-5.12-.16 1.18-.39 2.8-.4 3.52-.69.58-1.12 1.46-1.08 2.35.02.66 1.02.62 1-.04-.02-.38.11-.77.33-1.1.3.6.93 1.11 1.69 1.03.4-.04.75-.23.95-.29.07.17.12.48.47 2.02-.19.51-.57.94-1.04 1.15-.69.31-.13 1.83 1.35.22.09.2.04.9.6.9 1.08 0 .07-1.66-.33-4.27-.4-1.72-1.62-.77-2.1-.72-.33.03-.79-.31-.84-1.05-.04-.75.39-3.62.53-4.56 3.1-2.35 2.9-4.65 6.04-3.52-.66 1.26-.51 2.77.52 3.88-.11.75-2.95 1.69-2.07 4.15.09.26.38.39.64.3.79-.29-.24-1.12.54-2.14.41-.54 1.23-.87 1.69-1.66 1.08.62 1.82.69 1.34 2.05-.12.37-.73 1.28-1.03 1.96-1.05 2.48 1 3.27 1.6 3.76-.24.78-.47 1.31-1.04 2.02-.44.56.64 1.95 1.8-1.13.69 1.26.08 2.05.87 2.08h.02c1.1 0 .28-2.59-.76-3.54-1.09-1.08-2.77-.87-1-3.86.27.25.57.31.95.39 1.49.29.84 1.5 1.64 1.5.99 0 .39-1.97-1.09-2.4-.6-.18-.92-.06-.97-.57.66-2.06-.76-2.48-1.99-3.22-1.06-.75-1.35-2.07-.74-3.16 1.81.93 2.65 1.61 4.66 1.49.95-.05 1.59-.08 2.57 1.26-.25 1.4-2.11 2.52-1.56 4.49.07.26.34.42.61.35.66-.18.13-.73.42-1.6.51.69 1.57 1.25 1.75.44.13-.64-.57-.32-1.22-1.49.24-.37.47-.71.67-1.09 3.53 6.8.21 13.77-1.69 14.61z"/></g></svg>