<?xml version="1.0" encoding="UTF-8"?>
<!-- Generator: Adobe Illustrator 26.0.3, SVG Export Plug-In . SVG Version: 6.00 Build 0)  -->
<svg xmlns="http://www.w3.org/2000/svg" xmlns:xlink="http://www.w3.org/1999/xlink" version="1.1" id="Capa_1" x="0px" y="0px" viewBox="0 0 512 512" style="enable-background:new 0 0 512 512;" xml:space="preserve" width="512" height="512">
<g>
	<g>
		<path d="M148.645,165.161h16.516v-17.937c2.585,0.917,5.363,1.42,8.258,1.42c2.895,0,5.673-0.504,8.258-1.42v50.969h16.516    v-74.323c0-13.66-11.113-24.774-24.774-24.774c-13.661,0-24.774,11.114-24.774,24.774V165.161z M173.419,115.613    c4.553,0,8.258,3.705,8.258,8.258s-3.705,8.258-8.258,8.258c-4.553,0-8.258-3.705-8.258-8.258S168.866,115.613,173.419,115.613z"/>
		<path d="M128.956,66.065h19.689V49.548h-19.689c-0.235,0-0.47,0.011-0.705,0.013l3.631-14.526L115.86,31.03l-5.03,20.121    c-8.047,1.423-15.825,3.779-23.195,6.981l3.044-15.221l-16.195-3.24l-5.843,29.215c-15.083,10.793-27.305,25.661-34.94,43.475    l15.18,6.506C62.627,86.79,94.059,66.065,128.956,66.065z"/>
		<path d="M457.737,344.081l-38.845-7.769l7.769,38.846c2.461,12.301,13.352,21.229,25.897,21.229    c14.562,0,26.409-11.847,26.409-26.409C478.968,357.432,470.039,346.54,457.737,344.081z M452.558,379.871    c-4.7,0-8.779-3.345-9.701-7.954l-2.91-14.552l14.552,2.91c4.608,0.922,7.954,5.002,7.954,9.701    C462.452,375.432,458.013,379.871,452.558,379.871z"/>
		<path d="M463.54,315.782l-62.457-9.608l-37.728-52.82v-27.741l37.728-52.82l62.457-9.608c28.079-4.321,48.46-28.075,48.46-56.486    c0-31.513-25.637-57.151-57.151-57.151c-15.788,0-30.862,5.908-42.447,16.635c-11.584,10.727-18.63,25.305-19.841,41.047    l-4.231,55.005l-37.482,52.475H308.65l-60.908-53.295v-37.543C247.742,55.569,192.173,0,123.871,0S0,55.569,0,123.871    c0,44.627,16.328,87.574,45.977,120.927l17.31,19.474c-8.908,11.331-13.738,25.224-13.738,39.86v4.875    c0,9.432,1.314,18.813,3.905,27.884c8.369,29.286,12.611,59.581,12.611,90.041v16.53c0,37.792,30.747,68.539,68.539,68.539    c16.35,0,32.192-5.86,44.605-16.5l31.779-27.239c8.02,6.414,16.984,11.693,26.686,15.574l3.445,1.378l3.68,11.039    c3.14,9.419,11.921,15.748,21.85,15.748h40.644c12.699,0,23.031-10.332,23.031-23.031c0-9.472-5.683-17.866-14.477-21.384    L286.6,455.887l-31.174-57.152c-11.661-21.377-33.814-34.814-58.079-35.355c0.553-2.711,0.845-5.483,0.845-8.284    c0-5.505-1.091-10.758-3.055-15.565l13.815-9.209h38.79c18.214,0,33.032-14.818,33.032-33.032c0-4.635-0.963-9.047-2.694-13.054    l29.968-19.978h42.799l37.482,52.475l4.231,55.005c1.211,15.742,8.257,30.319,19.841,41.047    c11.584,10.727,26.658,16.635,42.446,16.635c31.514,0,57.151-25.638,57.151-57.151C512,343.858,491.619,320.103,463.54,315.782z     M409.029,108.495c1.829-23.793,21.956-42.431,45.82-42.431c22.406,0,40.635,18.229,40.635,40.635    c0,20.199-14.491,37.09-34.456,40.161l-55.609,8.555L409.029,108.495z M247.742,185.722v-2.362l49.548,43.355v24.866    l-29.373,19.582c-5.586-4.323-12.582-6.905-20.175-6.905c-6.679,0-13.366,1.578-19.337,4.566l-6.308,3.154l-32.574-8.884    l0.838-0.252c16.71-5.013,31.047-15.061,41.462-29.057C242.237,219.787,247.742,203.167,247.742,185.722z M16.516,123.871    c0-59.196,48.159-107.355,107.355-107.355s107.355,48.159,107.355,107.355v61.851c0,28.482-18.329,53.117-45.61,61.302l-26.2,7.86    l-10.706-2.919c-10.269-2.801-20.872-4.221-31.516-4.221c-12.898,0-25.641,2.068-37.878,6.146l-2.44,0.813l-6.18-6.952    l3.881-3.234c26.079-21.733,41.035-53.666,41.035-87.613v-8.258H99.097c-9.107,0-16.516-7.41-16.516-16.516    s7.41-16.516,16.516-16.516h16.516V99.097H99.097c-18.214,0-33.032,14.818-33.032,33.032c0,18.099,14.63,32.843,32.686,33.03    c-2.181,25.907-14.572,49.857-34.747,66.668l-4.285,3.572l-1.398-1.572C31.363,203.498,16.516,164.449,16.516,123.871z     M240.928,406.646l34.02,62.37l34.763,13.906c2.488,0.995,4.096,3.37,4.096,6.049c0,3.591-2.922,6.515-6.515,6.515h-40.644    c-2.809,0-5.292-1.79-6.18-4.454l-6.103-18.306l-10.557-4.223c-20.232-8.093-36.742-23.285-46.487-42.775l-14.773,7.387    c4.358,8.716,9.86,16.705,16.307,23.794l-30.396,26.054c-9.422,8.074-21.446,12.522-33.857,12.522    c-28.685,0-52.023-23.337-52.023-52.023v-16.53c0-31.995-4.456-63.815-13.246-94.579c-2.17-7.595-3.27-15.45-3.27-23.347v-4.875    c0-12.234,4.542-23.765,12.815-32.688l5.659-1.887c10.55-3.515,21.536-5.299,32.655-5.299c9.177,0,18.317,1.224,27.17,3.638    l79.475,21.675l11.954-5.976c3.689-1.846,7.821-2.821,11.949-2.821c1.639,0,3.22,0.248,4.715,0.695l-48.506,32.338h-78.131    c-10.805,0-21.624-2.555-31.289-7.386l-7.386,14.773c11.378,5.689,24.052,8.817,36.77,9.102c-5.21,6.91-8.303,15.5-8.303,24.801    c0,15.802,9.017,29.705,22.279,36.63l-23.546,20.602c-9.691,8.48-15.25,20.729-15.25,33.607h16.516    c0-8.115,3.502-15.834,9.609-21.178l36.773-32.175c9.368-8.197,21.382-12.711,33.83-12.711    C214.637,379.871,231.919,390.13,240.928,406.646z M179.445,365.376c-10.025,2.493-19.411,7.257-27.409,14.011    c-11.387-2.274-19.907-12.385-19.907-24.29c0-13.66,11.114-24.774,24.774-24.774c13.66,0,24.774,11.114,24.774,24.774    C181.677,358.67,180.908,362.169,179.445,365.376z M264.258,297.29c0,9.107-7.41,16.516-16.516,16.516h-14.016l30.133-20.088    C264.114,294.87,264.258,296.063,264.258,297.29z M346.839,247.742h-33.032v-16.516h33.032V247.742z M454.849,412.903    c-23.864,0-43.991-18.638-45.821-42.431l-3.61-46.92l55.609,8.555c19.966,3.071,34.457,19.961,34.457,40.161    C495.484,394.675,477.255,412.903,454.849,412.903z"/>
		<path d="M478.968,108.99c0-14.562-11.847-26.409-26.409-26.409c-12.545,0-23.436,8.928-25.896,21.229l-7.769,38.846l38.845-7.769    C470.039,132.427,478.968,121.536,478.968,108.99z M454.498,118.691l-14.552,2.91l2.91-14.552    c0.922-4.609,5.001-7.954,9.701-7.954c5.456,0,9.893,4.439,9.893,9.893C462.452,113.69,459.107,117.77,454.498,118.691z"/>
	</g>
</g>















</svg>
