<svg id="Layer_1" enable-background="new 0 0 512 512" viewBox="0 0 512 512" xmlns="http://www.w3.org/2000/svg"><path d="m407.71 239.68v-51.03c0-17.48-14.22-31.7-31.7-31.7h-19.02c-2.18 0-4.19 1.18-5.24 3.08-3 5.4-12.81 11.21-27.23 11.21s-24.23-5.81-27.23-11.21c-1.06-1.9-3.07-3.08-5.24-3.08h-9.12c-6.41 0-12.19 2.4-16.73 6.93l-19.86 19.86-7.85-4.55c-2.6-1.51-5.91-.86-7.75 1.52-5.11 6.6-15.71 10.87-27 10.87s-21.89-4.26-27-10.87c-1.84-2.38-5.15-3.02-7.75-1.52l-61.71 35.73c-1.85 1.07-2.99 3.05-2.99 5.19v73.36c0 8.52 5.57 15.75 13.25 18.28v157.66h-6.58c-3.31 0-6 2.69-6 6v15.59c0 3.31 2.69 6 6 6h25.16c3.31 0 6-2.69 6-6v-15.59c0-3.31-2.69-6-6-6h-6.58v-157.66c7.68-2.53 13.25-9.76 13.25-18.28v-51.77l6.85-3.96v253.26c0 3.31 2.69 6 6 6h39.49c3.31 0 6-2.69 6-6v-160.69h5.24v58.37c0 14.2 11.55 25.75 25.75 25.75s25.75-11.55 25.75-25.75v-150.95l6.85 3.96v51.78c0 4.45 1.53 8.53 4.07 11.79v158.41c0 3.31 2.69 6 6 6h39.49c3.31 0 6-2.69 6-6v-149.88h6.9v177.21c0 3.31 2.69 6 6 6h39.49c3.31 0 6-2.69 6-6v-218.63c16.32-1.92 29.04-15.84 29.04-32.69zm-277.59 245.32h-13.16v-3.59h13.16zm-6.58-184.28c-4 0-7.25-3.25-7.25-7.25v-1.08h14.49v1.08c.01 4-3.24 7.25-7.24 7.25zm131.32-78.59c-1.86-1.07-4.15-1.08-6-.01-1.86 1.07-3 3.05-3 5.2v161.35c0 7.58-6.17 13.75-13.75 13.75s-13.75-6.17-13.75-13.75v-64.37c0-3.31-2.69-6-6-6h-17.24c-3.31 0-6 2.69-6 6v160.7h-27.49v-257.68c0-2.14-1.15-4.13-3-5.2-1.86-1.07-4.15-1.07-6 .01l-18.85 10.91c-1.85 1.07-2.99 3.05-2.99 5.19v42.15h-14.49v-56.82l54.58-31.6c7.87 7.25 19.97 11.6 32.88 11.6s25.01-4.35 32.88-11.6l54.58 31.6v12.39c-6.53 3.08-11.06 9.71-11.06 17.4 0 7.78 4.63 14.66 11.06 17.65v22.46c0 4-3.25 7.25-7.25 7.25s-7.25-3.25-7.25-7.25v-55.24c0-2.14-1.14-4.12-2.99-5.19zm84.3 262.87v-177.21c0-3.31-2.69-6-6-6h-18.9c-3.31 0-6 2.69-6 6v149.88h-27.49v-145.23c1.04.17 2.09.29 3.18.29 10.61 0 19.25-8.63 19.25-19.25v-20.87h63.45v212.39zm56.55-245.32c0 11.54-9.39 20.93-20.93 20.93h-76.49c-2.79 0-6.16-3.23-6.16-7.25 0-4 3.25-7.25 7.25-7.25h73.27c3.31 0 6-2.69 6-6v-34.71c0-3.31-2.69-6-6-6s-6 2.69-6 6v28.71h-63.45v-14c0-2.14-1.14-4.12-2.99-5.19l-19.38-11.22 6.93-6.93c2.34-2.34 2.34-6.14 0-8.48s-6.14-2.34-8.49 0l-9.19 9.19-12.98-7.52 17.59-17.59c2.3-2.3 4.99-3.41 8.24-3.41h5.92c6.84 8.78 20.35 14.3 35.67 14.3s28.83-5.51 35.67-14.3h15.82c10.86 0 19.7 8.84 19.7 19.7zm-233.86-96.62c0 23.1 18.79 41.89 41.89 41.89s41.89-18.79 41.89-41.89-18.79-41.89-41.89-41.89-41.89 18.79-41.89 41.89zm71.79 0c0 16.48-13.41 29.89-29.89 29.89s-29.89-13.41-29.89-29.89 13.41-29.89 29.89-29.89 29.89 13.4 29.89 29.89zm90.88-63.05c-23.1 0-41.89 18.79-41.89 41.89s18.79 41.89 41.89 41.89 41.89-18.79 41.89-41.89-18.79-41.89-41.89-41.89zm0 71.79c-16.48 0-29.89-13.41-29.89-29.89s13.41-29.89 29.89-29.89 29.89 13.41 29.89 29.89-13.41 29.89-29.89 29.89zm-297.52 104.2c0 59.36 22.61 115.63 63.68 158.46 2.29 2.39 2.21 6.19-.18 8.48-1.16 1.12-2.66 1.67-4.15 1.67-1.58 0-3.15-.62-4.33-1.85-43.22-45.07-67.02-104.3-67.02-166.76 0-64.37 25.07-124.89 70.59-170.41s106.04-70.59 170.41-70.59c47.11 0 92.33 13.45 131.45 38.98l-3.33-25.2c-.43-3.29 1.88-6.3 5.16-6.73 3.29-.43 6.3 1.88 6.73 5.16l5.1 38.63c.43 3.29-1.88 6.3-5.16 6.73l-38.63 5.1c-.27.04-.53.05-.79.05-2.96 0-5.54-2.2-5.94-5.21-.43-3.29 1.88-6.3 5.16-6.73l23.11-3.05c-36.69-23.41-78.9-35.73-122.86-35.73-126.27 0-229 102.73-229 229zm470 0c0 69.94-30.34 136.34-83.23 182.18-1.13.98-2.53 1.47-3.93 1.47-1.68 0-3.35-.7-4.54-2.07-2.17-2.5-1.9-6.29.6-8.46 50.27-43.57 79.1-106.67 79.1-173.12 0-3.31 2.69-6 6-6s6 2.69 6 6zm-6-155.96h-19.04v-19.04c0-3.31-2.69-6-6-6h-33.39c-3.31 0-6 2.69-6 6v19.04h-19.04c-3.31 0-6 2.69-6 6v33.39c0 3.31 2.69 6 6 6h19.04v19.04c0 3.31 2.69 6 6 6h33.39c3.31 0 6-2.69 6-6v-19.04h19.04c3.31 0 6-2.69 6-6v-33.39c0-3.31-2.69-6-6-6zm-6 33.39h-19.04c-3.31 0-6 2.69-6 6v19.04h-21.39v-19.04c0-3.31-2.69-6-6-6h-19.04v-21.39h19.04c3.31 0 6-2.69 6-6v-19.04h21.39v19.04c0 3.31 2.69 6 6 6h19.04z"/></svg>