<svg id="Layer_1" height="512" viewBox="0 0 48 48" width="512" xmlns="http://www.w3.org/2000/svg" data-name="Layer 1"><g fill="rgb(0,0,0)"><path d="m43 46h-11a1 1 0 0 1 0-2h11a1 1 0 0 0 1-1v-4a1 1 0 0 0 -1-1h-7a1 1 0 0 1 0-2h7a3 3 0 0 1 3 3v4a3 3 0 0 1 -3 3z"/><path d="m16 46h-11a3 3 0 0 1 -3-3v-4a3 3 0 0 1 3-3h7a1 1 0 0 1 0 2h-7a1 1 0 0 0 -1 1v4a1 1 0 0 0 1 1h11a1 1 0 0 1 0 2z"/><path d="m36 35a1 1 0 0 1 -1-1v-10a1 1 0 0 1 2 0v10a1 1 0 0 1 -1 1z"/><path d="m6 35a1 1 0 0 1 -1-1v-29a3 3 0 0 1 3-3h21a1 1 0 0 1 0 2h-21a1 1 0 0 0 -1 1v29a1 1 0 0 1 -1 1z"/><path d="m10 35a1 1 0 0 1 -1-1v-23a1 1 0 0 1 1-1 3 3 0 0 0 3-3 1 1 0 0 1 1-1h13a1 1 0 0 1 0 2h-12.1a5 5 0 0 1 -3.9 3.9v22.1a1 1 0 0 1 -1 1z"/><path d="m32 28a1 1 0 0 1 -1-1v-1a1 1 0 0 1 2 0v1a1 1 0 0 1 -1 1z"/><path d="m21 15h-6a1 1 0 0 1 0-2h6a1 1 0 0 1 0 2z"/><path d="m19 19h-4a1 1 0 0 1 0-2h4a1 1 0 0 1 0 2z"/><path d="m17 23h-2a1 1 0 0 1 0-2h2a1 1 0 0 1 0 2z"/><path d="m32.28 23.83a2.43 2.43 0 0 1 -.65-.09 2.25 2.25 0 0 1 -1.63-2.16v-9.27a1 1 0 0 1 2 0v9.26a.27.27 0 0 0 .5.13l2.66-4.1a1 1 0 0 1 1.68 0l2.66 4.11a.24.24 0 0 0 .22.12.27.27 0 0 0 .28-.27v-9.25a1 1 0 0 1 2 0v9.26a2.27 2.27 0 0 1 -2.28 2.26 2.23 2.23 0 0 1 -1.9-1l-1.82-2.83-1.82 2.81a2.25 2.25 0 0 1 -1.9 1.02z"/><path d="m36 16a7 7 0 1 1 7-7 7 7 0 0 1 -7 7zm0-12a5 5 0 1 0 5 5 5 5 0 0 0 -5-5z"/><path d="m38.57 9.64a1 1 0 0 1 -1-1 1.57 1.57 0 0 0 -1.57-1.58 1 1 0 0 1 0-2 3.58 3.58 0 0 1 3.57 3.58 1 1 0 0 1 -1 1z"/><path d="m45 42h-10a1 1 0 0 1 0-2h10a1 1 0 0 1 0 2z"/><path d="m13 42h-10a1 1 0 0 1 0-2h10a1 1 0 0 1 0 2z"/><path d="m24 46a10 10 0 1 1 10-10 10 10 0 0 1 -10 10zm0-18a8 8 0 1 0 8 8 8 8 0 0 0 -8-8z"/><path d="m27.26 41.2a1 1 0 0 1 -.59-.19l-2.67-1.94-2.67 1.93a1 1 0 0 1 -1.18 0 1 1 0 0 1 -.36-1.12l1-3.14-2.67-1.94a1 1 0 0 1 .61-1.8h3.27l1-3.14a1 1 0 0 1 1.9 0l1.1 3.14h3.3a1 1 0 0 1 .59 1.81l-2.67 1.94 1 3.14a1 1 0 0 1 -.37 1.11 1 1 0 0 1 -.59.2zm-3.26-4.37a1.06 1.06 0 0 1 .59.19l.77.56-.3-.9a1 1 0 0 1 .37-1.12l.77-.56h-.95a1 1 0 0 1 -1-.69l-.25-.91-.29.91a1 1 0 0 1 -1 .69h-.91l.77.56a1 1 0 0 1 .37 1.12l-.3.9.77-.56a1.06 1.06 0 0 1 .59-.19z"/></g></svg>