<?xml version="1.0" encoding="iso-8859-1"?>
<!-- Generator: Adobe Illustrator 19.0.0, SVG Export Plug-In . SVG Version: 6.00 Build 0)  -->
<svg version="1.1" id="Capa_1" xmlns="http://www.w3.org/2000/svg" xmlns:xlink="http://www.w3.org/1999/xlink" x="0px" y="0px"
	 viewBox="0 0 512 512" style="enable-background:new 0 0 512 512;" xml:space="preserve">
<g>
	<g>
		<path d="M423.174,46.289c-6.285-7.428-13.108-9.354-17.725-9.661c-6.013-0.41-11.195,1.611-14.759,3.609
			c-3.564-1.998-8.748-4.011-14.759-3.609c-2.141,0.143-4.759,0.643-7.575,1.869c-0.393-0.483-0.787-0.965-1.19-1.441
			c-11.309-13.358-24.409-23.293-38.935-29.526C316.594,2.533,304.347,0,291.829,0c-11.976,0-24.015,2.292-35.83,6.815
			C244.185,2.292,232.146,0,220.169,0c-12.518,0-24.764,2.533-36.399,7.528c-14.532,6.241-27.632,16.175-38.936,29.527
			c-15.97,18.875-23.774,42.911-22.305,68.259c-3.52-1.84-8.364-3.533-13.934-3.175c-4.617,0.308-11.44,2.233-17.725,9.661
			c-4.891,5.78-6.665,13.083-5.13,21.118c3.248,17.01,19.941,32.895,34.077,40.456c1.105,0.591,2.321,0.887,3.538,0.887
			c1.217,0,2.433-0.296,3.538-0.887c4.66-2.493,9.597-5.895,14.24-9.94c6.598,11.519,14.796,22.847,24.47,33.783
			c18.841,21.307,42.462,40.123,66.509,52.983l20.35,10.891c1.105,0.592,2.322,0.888,3.539,0.888c1.217,0,2.434-0.296,3.539-0.888
			l20.342-10.886c6.934-3.698,14.003-8.013,21.01-12.82c3.416-2.344,4.285-7.013,1.941-10.428
			c-2.343-3.416-7.011-4.284-10.427-1.941c-6.55,4.495-13.141,8.518-19.596,11.962l-16.811,8.996l-16.813-8.997
			c-22.516-12.042-44.658-29.69-62.349-49.696c-10.134-11.455-18.496-23.318-24.919-35.324c4.437-5.885,7.778-12.373,9.051-19.037
			c1.534-8.035-0.24-15.338-5.13-21.118c-6.285-7.428-13.107-9.354-17.724-9.661c-0.238-0.016-0.466-0.004-0.701-0.013
			c-0.651-20.627,5.908-40.06,18.871-55.381c9.788-11.562,21.027-20.119,33.405-25.435c19.968-8.575,42.126-8.338,63.437,0.506
			c1.841,0.764,3.908,0.764,5.749,0c21.311-8.843,43.466-9.082,63.438-0.505c12.372,5.309,23.61,13.866,33.399,25.43
			c0.378,0.447,0.733,0.911,1.101,1.365c-3.819,5.462-5.117,12.082-3.74,19.298c2.31,12.099,11.423,23.625,21.579,31.995
			c-0.019,5.711-0.579,11.525-1.688,17.333c-5.593,29.31-23.644,54.542-37.804,70.552c-5.447,6.166-11.394,12.181-17.677,17.879
			c-3.068,2.782-3.3,7.525-0.517,10.594c1.48,1.633,3.515,2.462,5.558,2.462c1.797,0,3.6-0.642,5.036-1.944
			c6.691-6.068,13.03-12.48,18.839-19.057c15.401-17.412,35.069-45.022,41.299-77.672c0.697-3.651,1.2-7.31,1.526-10.956
			c0.484,0.096,0.973,0.158,1.464,0.158c1.216,0,2.433-0.296,3.538-0.887c14.136-7.562,30.829-23.446,34.077-40.457
			C429.838,59.371,428.064,52.069,423.174,46.289z M144.387,121.491c1.223,1.446,2.746,3.912,1.847,8.615
			c-1.722,9.019-11.442,20.724-22.88,27.975c-11.438-7.251-21.158-18.956-22.881-27.976c-0.898-4.703,0.625-7.17,1.848-8.615
			c2.331-2.755,4.686-4.187,7.197-4.378c0.199-0.016,0.397-0.022,0.597-0.022c3.6,0,7.142,2.377,8.208,3.304
			c2.856,2.584,7.207,2.584,10.063,0c0.04-0.035,4.261-3.573,8.73-3.287C139.656,117.277,142.034,118.711,144.387,121.491z
			 M413.567,64.593c-1.722,9.021-11.442,20.726-22.881,27.977c-11.438-7.251-21.159-18.956-22.881-27.977
			c-0.898-4.703,0.624-7.169,1.848-8.614c0.575-0.679,1.151-1.276,1.731-1.796c0.01-0.009,0.019-0.019,0.03-0.028
			c1.761-1.572,3.555-2.413,5.437-2.556c0.199-0.015,0.397-0.022,0.597-0.022c3.6,0,7.141,2.377,8.207,3.304
			c2.856,2.584,7.207,2.584,10.063,0c0.04-0.035,4.259-3.603,8.73-3.286c2.541,0.169,4.919,1.603,7.271,4.384
			C412.943,57.424,414.465,59.89,413.567,64.593z"/>
	</g>
</g>
<g>
	<g>
		<path d="M334.224,64.923c-11.341-13.403-24.492-20.692-39.088-21.665c-17.251-1.148-31.816,7.009-39.134,12.124
			c-7.859-5.494-24.082-14.495-43.006-11.705c-4.098,0.604-6.93,4.416-6.326,8.514c0.605,4.099,4.421,6.931,8.514,6.326
			c19.061-2.81,35.639,11.767,35.787,11.898c2.857,2.585,7.207,2.582,10.063-0.001c0.148-0.134,15.022-13.37,33.105-12.189
			c10.385,0.692,20.019,6.206,28.634,16.388c7.747,9.155,10.375,20.604,7.812,34.025c-5.702,29.857-37.435,67.248-74.583,88.345
			c-37.148-21.097-68.882-58.487-74.584-88.345c-2.563-13.422,0.065-24.87,7.81-34.023c0.576-0.684,1.157-1.336,1.739-1.97
			c2.797-3.055,2.588-7.799-0.467-10.597c-3.055-2.796-7.799-2.589-10.596,0.468c-0.71,0.775-1.418,1.571-2.126,2.407
			c-10.664,12.604-14.5,28.692-11.095,46.529c7.655,40.087,48.947,81.006,85.78,100.707c1.105,0.591,2.321,0.887,3.538,0.887
			c1.216,0,2.432-0.296,3.538-0.887c36.833-19.701,78.125-60.62,85.78-100.707C348.725,93.615,344.888,77.526,334.224,64.923z"/>
	</g>
</g>
<g>
	<g>
		<path d="M488.07,161.735c-4.395-7.032-10.031-10.922-16.753-11.56c-17.595-1.675-37.588,19.901-70.726,55.637l-0.212,0.229
			c-2.941-4.103-7.347-6.936-12.587-7.917c-7.84-1.469-24.081,0.023-44.773,26.493c-42.374,54.201-82.398,105.397-81.849,139.872
			c0.006,0.348,0.043,0.686,0.094,1.021c1.252,26.798,18.508,67.01,30.389,91.789l-11.115,11.115c-2.929,2.93-2.929,7.678,0,10.607
			l30.783,30.783c1.464,1.464,3.384,2.196,5.303,2.196s3.839-0.732,5.303-2.196l104.261-104.261c2.929-2.93,2.929-7.678,0-10.606
			l-30.783-30.784c-1.406-1.407-3.314-2.197-5.303-2.197s-3.897,0.79-5.303,2.196l-14.722,14.722l-3.368-6.363
			c11.983-12.758,47.547-53.185,53.511-89.483c3.671-22.316,23.788-45.156,41.537-65.308c8.843-10.04,17.195-19.522,22.541-27.985
			C486.941,185.549,494.986,172.813,488.07,161.735z M373.456,396.707c0.04-0.039,0.079-0.078,0.118-0.118l16.528-16.527
			l20.177,20.178l-93.655,93.654l-20.177-20.177l9.433-9.433c0.006-0.006,0.012-0.012,0.018-0.018L373.456,396.707z M450.5,207.805
			c-19.083,21.666-40.712,46.224-45.082,72.789c-6.255,38.07-52.71,84.851-53.177,85.317c-2.333,2.327-2.873,5.904-1.331,8.817
			l8.068,15.243l-56.06,56.06c-10.443-22.323-26.556-60.406-26.729-83.188c0-0.042-0.006-0.082-0.007-0.124
			c0.911-29.42,40.42-79.959,78.653-128.864c13.409-17.152,24.646-22.04,30.197-20.987c2.021,0.378,3.347,1.566,3.941,3.533
			c0.965,3.192-0.019,8.975-5.966,14.765c-25.565,24.891-38.958,68.251-39.516,70.085c-1.206,3.963,1.03,8.152,4.993,9.357
			c3.964,1.204,8.152-1.03,9.358-4.994c0.125-0.412,12.798-41.473,35.628-63.7c5.299-5.16,8.771-11.248,10.149-17.352
			c0.738-0.781,1.488-1.565,2.205-2.337l5.765-6.213c25.811-27.833,48.071-51.859,58.311-50.903
			c0.753,0.072,2.753,0.262,5.447,4.573C478.969,175.483,462.515,194.164,450.5,207.805z"/>
	</g>
</g>
<g>
	<g>
		<path d="M398.033,394.67l-4.084-4.084c-2.93-2.928-7.678-2.929-10.607,0.001c-2.93,2.929-2.929,7.678,0,10.606l4.084,4.084
			c1.465,1.464,3.384,2.196,5.303,2.196s3.839-0.732,5.304-2.197C400.962,402.347,400.961,397.598,398.033,394.67z"/>
	</g>
</g>
<g>
	<g>
		<path d="M168.981,224.617c-20.692-26.47-36.936-27.961-44.773-26.493c-5.241,0.981-9.647,3.814-12.587,7.917l-0.212-0.229
			c-33.139-35.735-53.146-57.307-70.726-55.637c-6.722,0.638-12.358,4.527-16.754,11.563c-6.915,11.075,1.13,23.811,3.773,27.996
			c5.346,8.463,13.698,17.945,22.541,27.985c17.749,20.151,37.866,42.991,41.537,65.306c5.964,36.301,41.528,76.728,53.511,89.485
			l-3.368,6.363l-14.722-14.722c-1.406-1.406-3.314-2.196-5.303-2.196c-1.989,0-3.897,0.79-5.303,2.197l-30.783,30.784
			c-2.929,2.929-2.929,7.677,0,10.606l104.261,104.261c1.464,1.464,3.384,2.196,5.303,2.196s3.839-0.732,5.303-2.196l30.784-30.783
			c1.407-1.407,2.197-3.314,2.197-5.304s-0.79-3.896-2.197-5.304l-11.115-11.115c4.389-9.155,10.001-21.449,15.188-34.572
			c1.522-3.853-0.366-8.209-4.218-9.731c-3.85-1.526-8.209,0.365-9.732,4.218c-4.18,10.575-8.654,20.616-12.5,28.823l-56.064-56.065
			l8.068-15.243c1.541-2.911,1-6.488-1.33-8.816c-0.468-0.468-46.923-47.248-53.179-85.319
			c-4.369-26.564-25.999-51.122-45.082-72.788c-12.015-13.641-28.469-32.321-24.849-38.12c2.696-4.314,4.696-4.504,5.449-4.576
			c10.23-0.965,32.5,23.069,58.311,50.903l5.766,6.215c0.716,0.771,1.466,1.555,2.204,2.336c1.378,6.104,4.849,12.192,10.149,17.352
			c22.771,22.17,35.504,63.291,35.63,63.704c1.207,3.96,5.398,6.194,9.356,4.99c3.963-1.205,6.199-5.396,4.993-9.358
			c-0.558-1.833-13.951-45.193-39.516-70.084c-5.947-5.79-6.931-11.572-5.966-14.765c0.594-1.967,1.92-3.155,3.941-3.533
			c5.549-1.049,16.788,3.835,30.197,20.987c38.243,48.918,77.764,99.472,78.654,128.888c-0.001,0.049-0.008,0.096-0.008,0.145
			c-0.042,6.191-1.317,14.068-3.791,23.412c-1.06,4.005,1.328,8.109,5.332,9.169c0.643,0.171,1.289,0.252,1.924,0.252
			c3.32,0,6.356-2.222,7.246-5.583c2.489-9.405,3.899-17.669,4.216-24.628c0.051-0.334,0.088-0.673,0.094-1.021
			C251.379,330.015,211.355,278.818,168.981,224.617z M206.1,464.265c0.006,0.006,0.012,0.012,0.018,0.018l9.435,9.435
			l-20.179,20.176L101.72,400.24l20.177-20.178l16.528,16.528c0.039,0.04,0.078,0.079,0.118,0.118L206.1,464.265z"/>
	</g>
</g>
<g>
	<g>
		<path d="M128.658,390.587c-2.93-2.929-7.678-2.93-10.607-0.001l-4.084,4.084c-2.929,2.929-2.929,7.678,0,10.606
			c1.465,1.465,3.384,2.197,5.304,2.197c1.919,0,3.838-0.732,5.303-2.196l4.084-4.084
			C131.587,398.264,131.587,393.515,128.658,390.587z"/>
	</g>
</g>
<g>
</g>
<g>
</g>
<g>
</g>
<g>
</g>
<g>
</g>
<g>
</g>
<g>
</g>
<g>
</g>
<g>
</g>
<g>
</g>
<g>
</g>
<g>
</g>
<g>
</g>
<g>
</g>
<g>
</g>
</svg>
