<svg id="Layer_1" enable-background="new 0 0 708.66 708.66" height="708.66" viewBox="0 0 708.66 708.66" width="708.66" xmlns="http://www.w3.org/2000/svg"><g style="fill:none;stroke:#373431;stroke-linecap:round;stroke-linejoin:round;stroke-miterlimit:10;stroke-width:12"><path d="m402.574 296.726v-13.892c-2.93-24.048-23.389-42.676-48.242-42.676-24.83 0-45.289 18.628-48.23 42.676v13.892c-6.287 2.221-10.828 8.154-10.828 15.209 0 13.844 7.008 25.025 15.76 25.416 8.045 24.755 24.377 41.747 43.299 41.747 18.92 0 35.277-16.992 43.311-41.747 8.74-.391 15.771-11.572 15.771-25.416-.001-7.054-4.542-12.988-10.841-15.209z"/><path d="m294.469 445.357-6.713 53.711z"/><path d="m420.908 499.068-6.713-53.711z"/><path d="m465.488 448.58c0-10.863-4.395-20.678-11.475-27.783l-64.184-26.586c-2.76-1.172-5.299-2.832-7.422-4.956-4.127-4.102-6.666-9.814-6.666-16.113v-1.904c-6.445 5.029-13.721 7.861-21.41 7.861-7.691 0-14.941-2.832-21.412-7.861v1.904c0 6.299-2.539 12.012-6.676 16.113-2.113 2.124-4.615 3.784-7.41 4.956l-64.16 26.586c-7.117 7.105-11.512 16.92-11.512 27.783v19.922c28.725 28.003 67.908 45.288 111.17 45.288s82.445-17.285 111.156-45.263v-19.947z"/><circle cx="354.332" cy="354.344" r="159.447"/><path d="m637.801 513.79c0 29.345-23.803 53.149-53.148 53.149-29.371 0-53.148-23.805-53.148-53.149 0-29.37 23.777-53.173 53.148-53.173 29.345 0 53.148 23.803 53.148 53.173z"/><path d="m615.658 513.79c0 17.114-13.893 31.005-31.006 31.005-17.139 0-31.006-13.891-31.006-31.005 0-17.139 13.867-31.03 31.006-31.03 17.114 0 31.006 13.891 31.006 31.03z"/><path d="m637.801 124.047c0 29.346-23.803 53.148-53.148 53.148-29.371 0-53.148-23.803-53.148-53.148 0-29.369 23.777-53.174 53.148-53.174 29.345 0 53.148 23.804 53.148 53.174z"/><path d="m615.658 124.047c0 17.114-13.893 30.981-31.006 30.981-17.139 0-31.006-13.867-31.006-30.981 0-17.139 13.867-31.029 31.006-31.029 17.114-.001 31.006 13.89 31.006 31.029z"/><path d="m177.172 531.514c0 29.345-23.791 53.149-53.148 53.149s-53.148-23.805-53.148-53.149c0-29.37 23.791-53.173 53.148-53.173s53.148 23.803 53.148 53.173z"/><path d="m155.029 531.514c0 17.114-13.879 31.005-31.006 31.005s-31.006-13.891-31.006-31.005c0-17.139 13.879-31.03 31.006-31.03s31.006 13.892 31.006 31.03z"/><path d="m177.172 230.345c0 29.345-23.791 53.148-53.148 53.148s-53.148-23.804-53.148-53.148c0-29.371 23.791-53.174 53.148-53.174s53.148 23.803 53.148 53.174z"/><path d="m155.029 230.345c0 17.113-13.879 31.005-31.006 31.005s-31.006-13.892-31.006-31.005c0-17.139 13.879-31.031 31.006-31.031s31.006 13.893 31.006 31.031z"/><path d="m496.055 602.363c0 19.556-15.846 35.425-35.426 35.425s-35.424-15.869-35.424-35.425c0-19.555 15.844-35.424 35.424-35.424s35.426 15.869 35.426 35.424z"/><path d="m478.354 141.747c0 19.556-15.869 35.425-35.424 35.425-19.58 0-35.449-15.869-35.449-35.425 0-19.58 15.869-35.448 35.449-35.448 19.554 0 35.424 15.868 35.424 35.448z"/><path d="m159.461 389.767c0 19.556-15.869 35.424-35.426 35.424-19.58 0-35.449-15.868-35.449-35.424s15.869-35.424 35.449-35.424c19.557.001 35.426 15.869 35.426 35.424z"/><path d="m124.023 106.322c0 9.766-7.922 17.7-17.713 17.7-9.789 0-17.725-7.935-17.725-17.7 0-9.789 7.936-17.725 17.725-17.725 9.792 0 17.713 7.936 17.713 17.725z"/><path d="m301.182 566.939c0 9.766-7.934 17.699-17.711 17.699-9.791 0-17.713-7.934-17.713-17.699 0-9.791 7.922-17.725 17.713-17.725 9.777.001 17.711 7.934 17.711 17.725z"/><path d="m212.609 620.088c0 9.766-7.936 17.7-17.725 17.7-9.791 0-17.713-7.935-17.713-17.7 0-9.79 7.922-17.725 17.713-17.725 9.79 0 17.725 7.935 17.725 17.725z"/><path d="m602.352 354.344c0 9.765-7.91 17.699-17.699 17.699-9.791 0-17.725-7.935-17.725-17.699 0-9.791 7.934-17.725 17.725-17.725 9.788 0 17.699 7.933 17.699 17.725z"/><path d="m336.619 88.597c0 9.791-7.922 17.725-17.713 17.725-9.789 0-17.725-7.934-17.725-17.725 0-9.789 7.936-17.725 17.725-17.725 9.791.001 17.713 7.936 17.713 17.725z"/><path d="m248.033 141.747c0 9.766-7.91 17.7-17.699 17.7-9.791 0-17.725-7.935-17.725-17.7 0-9.79 7.934-17.725 17.725-17.725 9.789 0 17.699 7.935 17.699 17.725z"/><path d="m485.385 445.064 55.615 38.477z"/><path d="m467.074 241.599 79.98-79.979z"/><path d="m532.162 130.59-54.248 6.787z"/><path d="m335.191 95.58 75.17 32.202z"/><path d="m228.076 451.461-62.098 47.754z"/><path d="m213.928 278.733-43.311-23.315z"/><path d="m116.541 177.927-7.74-54.149z"/><path d="m216.771 153.026-52.111 43.433z"/><path d="m124.023 478.342v-53.15z"/><path d="m183.873 606.294-26.781-33.472z"/><path d="m266.197 563.082-90.355-20.068z"/><path d="m489.389 581.806 52.1-37.207z"/><path d="m584.652 460.617v-88.574z"/></g></svg>