<svg id="Layer_1" enable-background="new 0 0 75 75" viewBox="0 0 75 75" xmlns="http://www.w3.org/2000/svg"><g id="Internet_Dating"><path d="m21.6513672 12.281352c.0081787-.0042725.0168457-.0078125.0250244-.0119629.0415039.0081787.0788574.0268555.1224365.0280762.2695313.0073242 1.0908203.0292969 1.5517578 1.2241211.1630859.4057617.1455078.8823242-.0537109 1.4204102-.8733044 2.4026117 1.136755 3.5998392 3.7148438 3.4765635 1.0722656.1137695 1.7275391.4892578 1.9482422 1.1176758.5107422 1.4536133-1.0292969 4.4223633-3.5810547 6.9042969-1.8211422 1.7677212-5.9140968 3.1729546-7.5166016 5.5825195-1.59375 2.40625.8652344 4.6025391 2.0527344 5.6630859.9013672.7890625 2.1474609 1.0795898 3.3330078.7758789.9208984-.2412109 1.4716797-.1918945 1.6835938-.0620117 1.3818359.8408203 3.6171875 1.6240234 5.2490234 2.1333008 1.2324219.3833008 2.0634766 1.5517578 1.9765625 2.7749023-.0986328 1.3149414-.7724609 2.421875-1.3164063 3.1142578-1.0146484 1.2714844-1.7089844 2.6547852-2.0654297 4.1166992-.2841797 1.2099609-.3720703 2.2792969-.2597656 3.1855469-1.2001953-1.0205078-2.3388672-3.3999023-3.1621094-6.6347656-.2626953-1.0239258-.8447266-1.9306641-1.6347656-2.5498047-1.1621094-.9248047-1.8466797-1.9467773-2.2177734-2.6445313-1.3338928-2.4754982-4.5346203-1.1776314-9.4511719-6.6079102-.2783203-.3066406-.7519531-.3300781-1.0595703-.0517578-.3066406.2783203-.3300781.7524414-.0517578 1.0595703 2.3031702 2.5405045 4.4871778 4.0803185 8.2050781 5.4511719.4648438.175293.8330078.480957 1.0351563.8564453.4365234.8203125 1.2421875 2.0253906 2.6103516 3.1142578.5361328.4199219.9306641 1.0395508 1.1113281 1.7441406.7050781 2.7705078 1.9863281 6.3632813 4.0869141 7.7392578.9995155.6649132 2.288723-.2069588 2.0615234-1.3833008-.1054688-.53125-.1572266-1.4716797.1855469-2.9287109.3027344-1.2431641.9013672-2.4311523 1.7822266-3.5351563.9697266-1.234375 1.5351563-2.5942383 1.6367188-3.9360352.1357422-1.9130859-1.1376953-3.7285156-3.0263672-4.3164063-1.2705078-.3964844-3.5976563-1.1806641-4.9140625-1.9814453-.6464844-.3955078-1.6025391-.4331055-2.8398438-.1098633-.7050781.1782227-1.4404297.0107422-1.9638672-.4467773-1.9482422-1.7407227-2.4355469-2.7470703-1.7978516-3.7104492 1.3237801-1.9899616 5.3747864-3.4576263 7.3134766-5.3359375 2.5703125-2.5004883 4.7890625-6.0917969 3.9501953-8.4775391-.2988281-.8520508-1.1103516-1.9111328-3.2753906-2.1196289-.0419922-.003418-.0810547-.0048828-.1240234-.0014648-.5712891.0395508-1.8925781-.0458984-2.2763672-.5571289-.1435547-.1914063-.1416016-.4960947.0058594-.902833.3261719-.8813477.3388672-1.7441406.0419922-2.4858398-.2613525-.6772461-.6474609-1.2072754-1.1340332-1.5751953 6.7161484-2.6940527 14.3778725-2.4499397 21.1104736 1.1762695-.0959473 4.7789316-3.9503174 7.0179453-4.1219482 7.114747-2.0917969 1.1870117-2.9375 3.1640625-3 3.3251953-.7568359 2.5683594.2841797 4.4868164 2.9277344 5.4003906 1.7119141.6005859 2.9707031 2.1030273 3.2929688 3.9750977.7668762 4.2905807.9179993 4.3378181.9716797 4.5722656.1064453.3120117.3974609.5083008.7099609.5083008.5148163 0 .8754845-.5066109.7099609-.9916992-.0610619-.2698975-.1572113-.108757-.9228516-4.3974609-.4052734-2.3540039-2.0400391-4.3012695-4.2685547-5.0830078-2.4658203-.8520508-2.3115234-2.4399414-2.0107422-3.4799805.0068359-.015625.6982422-1.5981445 2.328125-2.5229492.1899414-.1071777 4.3179932-2.5014648 4.8354492-7.552125 4.0030518 2.5109863 7.1657715 6.0172129 9.1862793 10.1977549-1.0492744 1.1770096-2.0972939 2.2860966-2.6760254 3.887085-.4958382 1.3475571-.1602554 3.8499966-.2724609 4.7519531-.056282.4470825.2924538.8427734.7451172.8427734.3730469 0 .6962891-.277832.7431641-.6572266.1254921-1.0069122-.1678925-3.4382496.1933594-4.4233398.4412842-1.2216797 1.3477783-2.2438965 1.9182129-2.8774414.8781662 2.1742496 1.4949493 4.3761368 1.7263184 6.8486328.0058594.0571289.0019531.0507813.0205078.1054688 0 .0004883.0136719.1293945.0136719.1298828.0507813.3725586.3632813.6162109.7294922.6162109.4600945 0 .8649406-.4212418.7246094-1.0527344-1.7813686-18.3108014-21.8136028-29.3020948-38.2617191-20.8647469-.8815594.45364-.1989097 1.7876902.6855469 1.3349609z"/><path d="m7.3955078 31.3111382c-.4189453-.0405273-.7783203.2617188-.8193359.6733398-1.7931747 18.3007622 15.296896 32.8272896 33.0712891 28.1518555 2.1176987-.5547104 4.209446-1.3981171 5.9492188-2.3637695l-.7255859-1.3125c-2.4433937 1.342144-5.018692 2.2071915-7.6802979 2.6711426.0539551-.6739502.175293-1.6230469.5533447-2.6950684.2490234-.3286133.6376953-.5634766 1.1582031-.699707 2.4657707-.6496391 2.3216858-2.986454.7431641-5.027832-.4384766-.8081055-.5507813-1.4741211-.3330078-1.9804688.0483017-.1121674.3662834-.9389343 2.2324219-1.3486328.40625-.0795898.671875-.4736328.5927734-.8798828-.0800781-.4077148-.4736328-.6708984-.8798828-.5927734-.0876808.0170784-.3625183.0800018-.4580078.1225586-2.800602.7660255-3.9220657 2.7858582-2.4375 5.4584961.0195313.0361328.0439453.0722656.0703125.1049805.359375.4506836 1.0380859 1.5776367.8378906 2.1826172-.0751953.2275391-.328125.3989258-.7490234.5102539-1.1955338.3121033-1.9803963 1.0831451-2.1533203 1.5429688-.541626 1.4868164-.6500244 2.7583008-.6973877 3.5234375-15.6438332 1.7425041-29.1511269-11.401104-27.602417-27.2211914.0410155-.4121096-.2607423-.7792971-.6728517-.8198244z"/><path d="m12.6123047 25.6807671c.6865234-.8266602 6.7089844-8.1835938 6.7089844-11.9550791 0-4.0170898-3.2685547-7.2851563-7.2861328-7.2851563-4.0166016 0-7.2851563 3.2680664-7.2851563 7.2851563 0 3.7714853 6.0214844 11.1284189 6.7080078 11.9550791.2996092.3601455.854249.360672 1.1542969 0zm-.5771484-17.7402354c3.1904297 0 5.7861328 2.5952148 5.7861328 5.7851563 0 2.4755869-3.7587891 7.72754-5.7861328 10.2841806-2.0273438-2.5561523-5.7851563-7.8066406-5.7851563-10.2841806 0-3.1899414 2.5947266-5.7851563 5.7851563-5.7851563z"/><path d="m15.3369141 13.725688c0-1.8203125-1.4814453-3.3012695-3.3017578-3.3012695s-3.3017578 1.480957-3.3017578 3.3012695 1.4814453 3.3012705 3.3017578 3.3012705 3.3017578-1.480958 3.3017578-3.3012705zm-5.1035157 0c0-.9931641.8085938-1.8012695 1.8017578-1.8012695s1.8017578.8081055 1.8017578 1.8012695-.8085938 1.8012695-1.8017578 1.8012695-1.8017578-.8081055-1.8017578-1.8012695z"/><path d="m14.4667969 28.9463921c.4140625 0 .75-.3359375.75-.75s-.3359375-.75-.75-.75h-4.8632813c-.4140625 0-.75.3359375-.75.75s.3359375.75.75.75z"/><path d="m67.4628906 68.1680679c1.6748962-.879921 2.315239-2.9469833 1.4375-4.6166954l-3.0849609-5.8735352c-.1914063-.3657227-.6425781-.5083008-1.0126953-.3154297-.3671875.1928711-.5078125.6459961-.3154297 1.0126953l3.0849609 5.8735313c.4921417.9378891.1349411 2.0972366-.8066406 2.5913086-.9394531.4912109-2.0996094.1293945-2.5908203-.8066406l-3.0849609-5.8735313c-.1914063-.3657227-.6435547-.5087891-1.0126953-.3154297-.3671875.1928711-.5078125.6459961-.3154297 1.0126953l3.0849609 5.8735313c.8799057 1.6740724 2.9517059 2.3115236 4.6162109 1.4375001z"/><path d="m44.9707031 43.5357475c-1.9511719 6.2919922 1.5791016 13.0053711 7.8691406 14.9638672 8.0481796 2.5117226 15.9399872-3.9093971 15.4902344-12.0107422-.0234375-.4140625-.3984375-.7275391-.7910156-.7075195-.4130859.0234375-.7294922.3774414-.7070313.7905273.396286 7.1302299-6.5524673 12.6770172-13.5458984 10.4956055-5.5019531-1.7128906-8.5898438-7.5839844-6.8828125-13.0864258 1.6816406-5.3945313 7.2666016-8.4594727 12.7138672-6.9780273.4042969.1098633.8115234-.1279297.9208984-.5268555.1083984-.3994141-.1269531-.8115234-.5263672-.9204102-6.2343749-1.6972656-12.618164 1.8105469-14.5410156 7.9799805z"/><path d="m59.6503906 42.7056694c0-1.7695313-1.4394531-3.2089844-3.2089844-3.2089844s-3.2099609 1.4394531-3.2099609 3.2089844 1.4404297 3.2089844 3.2099609 3.2089844 3.2089844-1.4394531 3.2089844-3.2089844zm-4.9189453 0c0-.9423828.7666016-1.7089844 1.7099609-1.7089844.9423828 0 1.7089844.7666016 1.7089844 1.7089844s-.7666016 1.7089844-1.7089844 1.7089844c-.9433593 0-1.7099609-.7666016-1.7099609-1.7089844z"/><path d="m50.6640625 50.8838921c0 2.0888672 2.5380859 3.7250977 5.7773438 3.7250977s5.7773438-1.6362305 5.7773438-3.7250977c0-2.0883789-2.5380859-3.7246094-5.7773438-3.7246094s-5.7773438 1.6362305-5.7773438 3.7246094zm5.7773438-2.2246094c2.5205078 0 4.2773438 1.1723633 4.2773438 2.2246094s-1.7568359 2.2250977-4.2773438 2.2250977-4.2773438-1.1728516-4.2773438-2.2250977 1.7568359-2.2246094 4.2773438-2.2246094z"/><path d="m65.9970703 36.6158257c-1.6404953-1.4568596-4.2529297-.2935905-4.2529297 1.9086914 0 3.2402344 3.7939453 4.8984375 3.9550781 4.9672852.1906738.0815735.403244.0797615.5888672.0004883.1621094-.069336 3.9619141-1.7275392 3.9619141-4.9677735 0-2.2099572-2.6096649-3.3618126-4.2529297-1.9086914zm-.0039062 5.3530273c-.7646484-.3989258-2.7490234-1.6098633-2.7490234-3.4443359 0-.5820313.4726563-1.0551758 1.0546875-1.0551758.4433594 0 .8408203.277832.9892578.6918945.2210007.6163635 1.1514359.7122765 1.4101563.0048828.1533203-.4165039.5537109-.6967773.9970703-.6967773.5820313 0 1.0546875.4731445 1.0546875 1.0551758-.0000001 1.8242187-1.991211 3.0429687-2.756836 3.4443359z"/></g></svg>