<svg id="Layer_1" height="512" viewBox="0 0 64 64" width="512" xmlns="http://www.w3.org/2000/svg" data-name="Layer 1"><path d="m45 53h2v-4h4v-2h-4v-4h-2v4h-4v2h4z"/><path d="m28 13h-2v2a4 4 0 0 0 0 8h2a2 2 0 0 1 0 4h-6v2h4v2h2v-2a4 4 0 0 0 0-8h-2a2 2 0 0 1 0-4h6v-2h-4z"/><path d="m27 42a20 20 0 0 0 8-1.68v14.68a1 1 0 0 0 .49.86l10 6a1 1 0 0 0 1 0l10-6a1 1 0 0 0 .51-.86v-28a1 1 0 0 0 -1-1h-6c0-4.26-1.25-8.57-3.64-9a20 20 0 0 0 -31.7-10.72l1.24 1.56a18 18 0 0 1 28.54 9.77c-1.68 1.39-2.44 5.06-2.44 8.39h-1.59a14 14 0 1 0 -5.41 7.47v4.64a18 18 0 0 1 -22.94-26.11l-1.66-1.14a20 20 0 0 0 16.6 31.14zm19-23c.58 0 2 2.45 2 7h-4c0-4 1.14-6.7 2-7zm0 16a2.56 2.56 0 0 0 2-1.07s0 0 0 .07a2 2 0 0 1 -4 0s0 0 0-.07a2.56 2.56 0 0 0 2 1.07zm-.79-2.83a1.92 1.92 0 0 1 1.58 0c-.33.59-.64.83-.79.83s-.46-.24-.79-.83zm-3.11-4.17a16.36 16.36 0 0 0 .72 3.61 3.92 3.92 0 0 0 -.82 2.39 4 4 0 1 0 4-4 3.89 3.89 0 0 0 -1.49.3 15.26 15.26 0 0 1 -.4-2.3h10.89v26.43l-9 5.4-9-5.4v-26.43zm-15.1 6a12 12 0 1 1 12-12 11.86 11.86 0 0 1 -.7 4h-2.3a1 1 0 0 0 -1 1v3.92a11.91 11.91 0 0 1 -8 3.08z"/></svg>