<?xml version="1.0" encoding="UTF-8"?>
<svg xmlns="http://www.w3.org/2000/svg" xmlns:xlink="http://www.w3.org/1999/xlink" version="1.1" id="Capa_1" x="0px" y="0px" viewBox="0 0 512 512" style="enable-background:new 0 0 512 512;" xml:space="preserve" width="512" height="512">
<g>
	<g>
		<path style="fill:none;stroke:#000000;stroke-width:15;stroke-linecap:round;stroke-linejoin:round;stroke-miterlimit:10;" d="&#10;&#9;&#9;&#9;M149.939,59.16l-10.461-37.378c-1.015-3.628,1.104-7.391,4.732-8.405l20.137-5.625c3.626-1.013,7.386,1.104,8.401,4.729&#10;&#9;&#9;&#9;l9.907,35.401"/>
		<path style="fill:none;stroke:#000000;stroke-width:15;stroke-linecap:round;stroke-linejoin:round;stroke-miterlimit:10;" d="&#10;&#9;&#9;&#9;M223.984,52.084l14.206-31.308c1.555-3.428,5.594-4.947,9.022-3.394l19.043,8.625c3.432,1.554,4.953,5.598,3.396,9.029&#10;&#9;&#9;&#9;l-16.388,36.116"/>
		<path style="fill:none;stroke:#000000;stroke-width:15;stroke-linecap:round;stroke-linejoin:round;stroke-miterlimit:10;" d="&#10;&#9;&#9;&#9;M117.144,98.407c13.338-26.852,37.432-51.767,80.859-49.905c37.87,1.624,59.008,24.054,70.77,49.906"/>
		<path style="fill:none;stroke:#000000;stroke-width:15;stroke-linecap:round;stroke-linejoin:round;stroke-miterlimit:10;" d="&#10;&#9;&#9;&#9;M290.371,171.613c7.677-18.38,18.866-35.301,32.9-49.45c4.311-19.008-26.644-43.128-37.636-34.723&#10;&#9;&#9;&#9;c-18.357,14.037-35.766,28.852-54.816,52.715"/>
		<path style="fill:none;stroke:#000000;stroke-width:15;stroke-linecap:round;stroke-linejoin:round;stroke-miterlimit:10;" d="&#10;&#9;&#9;&#9;M330.071,331.464c-1.072-16.953-2.044-31.65-1.814-41.75c2.151-94.293-41.102-155.128-156.022-155.128&#10;&#9;&#9;&#9;c-0.563,0-1.124,0.003-1.683,0.008"/>
		<path style="fill:none;stroke:#000000;stroke-width:15;stroke-linecap:round;stroke-linejoin:round;stroke-miterlimit:10;" d="&#10;&#9;&#9;&#9;M36.583,355.185c11.515,23.881,31.121,49.6,63.6,74.448c109.337,83.647,173.68,89.731,210.012,54.751&#10;&#9;&#9;&#9;c19.238-18.523,22.903-60.42,22.233-101.883"/>
		<path style="fill:none;stroke:#000000;stroke-width:15;stroke-linecap:round;stroke-linejoin:round;stroke-miterlimit:10;" d="&#10;&#9;&#9;&#9;M48.141,120.55c-0.925-22.512-6.74-44.832-17.092-64.855c1.583-19.425,38.346-33.181,46.316-21.874&#10;&#9;&#9;&#9;c12.727,18.058,24.414,36.537,35.053,63.012"/>
		<path style="fill:none;stroke:#000000;stroke-width:15;stroke-linecap:round;stroke-linejoin:round;stroke-miterlimit:10;" d="&#10;&#9;&#9;&#9;M19.826,171.253C2.495,236.492-0.394,295.664,36.583,355.185c16.204,26.082,104.666-81.694,127.17-132.614&#10;&#9;&#9;&#9;c25.083-56.757,14.378-115.631-51.95-123.585c-37.806-4.534-63.818,18.453-78.194,40.477"/>
		<path style="fill:none;stroke:#000000;stroke-width:15;stroke-linecap:round;stroke-linejoin:round;stroke-miterlimit:10;" d="&#10;&#9;&#9;&#9;M478.889,348.869H489.5c8.284,0,15-6.716,15-15s-6.716-15-15-15h-55.547l-36.003-67.81c-2.65-4.991-7.87-8.072-13.531-7.963&#10;&#9;&#9;&#9;c-5.65,0.106-10.761,3.379-13.221,8.467l-41.5,85.82l-43.618-58.174c-3.016-4.022-7.855-6.27-12.865-5.977&#10;&#9;&#9;&#9;c-5.019,0.29-9.559,3.074-12.093,7.416l-22.301,38.221H195.5c-8.284,0-15,6.716-15,15s6.716,15,15,15h51.937&#10;&#9;&#9;&#9;c5.334,0,10.268-2.833,12.956-7.44l15.248-26.134l44.834,59.797c2.849,3.799,7.307,6.002,11.999,6.001&#10;&#9;&#9;&#9;c5.697-0.001,11.026-3.341,13.506-8.47l39.346-81.367l26.359,49.646c2.603,4.902,7.699,7.966,13.249,7.966h18.4"/>
	</g>
</g>















</svg>
