<svg viewBox="0 0 64 64" xmlns="http://www.w3.org/2000/svg"><g id="Layer_9" fill="none" stroke="#000" stroke-linejoin="round" stroke-width="2" data-name="Layer 9"><path d="m41 52h16v10h-18"/><path d="m34.24 32.89-1.24-30.89h26l-2 50"/><path d="m41 62v-3a1 1 0 0 1 1-1h8a1 1 0 0 1 1 1v3"/><path d="m44 40h13"/><path d="m34 18h24"/><path d="m39 22h14v14h-14z"/><path d="m46 25v8"/><path d="m42 29h8"/><path d="m33 6h26"/><path d="m9 38h28v4h-28z"/><path d="m6 42h34a1 1 0 0 1 1 1v17a2 2 0 0 1 -2 2h-32a2 2 0 0 1 -2-2v-17a1 1 0 0 1 1-1z"/><path d="m5 46h36"/><path d="m17.36 38c-.3-.14-.95-.48-1.23-.64a10.45 10.45 0 0 1 -5.06-7l-.07-.36 6.76 2.88a10.56 10.56 0 0 0 4.74 1.12 10.56 10.56 0 0 0 4.74-1.12l2.52-.82a4.77 4.77 0 0 1 5.29 1.67 4.75 4.75 0 0 1 1 2.86v1.41"/><path d="m27 52h-2v-2h-4v2h-2v4h2v2h4v-2h2z"/></g></svg>