<svg id="Line" enable-background="new 0 0 32 32" viewBox="0 0 32 32" xmlns="http://www.w3.org/2000/svg"><path d="m6.951 2.691c2.129 6.559.572 9.482-.932 12.308-1.039 1.95-2.019 3.792-2.019 7.001 0 3.794.939 6.655.949 6.684.175.524-.108 1.091-.632 1.265-.106.034-.213.051-.317.051-.419 0-.809-.265-.949-.684-.043-.128-1.051-3.201-1.051-7.316 0-3.708 1.197-5.957 2.253-7.94 1.428-2.683 2.662-5 .795-10.751-.17-.525.117-1.089.643-1.26.526-.17 1.09.118 1.26.642z"/><path d="m30 22c0 4.115-1.008 7.188-1.051 7.316-.14.419-.53.684-.949.684-.104 0-.211-.017-.315-.052-.524-.174-.808-.739-.634-1.264.01-.028.949-2.911.949-6.684 0-3.209-.979-5.05-2.015-6.999-.52-.978-1.058-1.989-1.436-3.151-.17-.525.117-1.09.642-1.261.527-.169 1.089.117 1.26.642.324.996.798 1.888 1.3 2.832 1.054 1.982 2.249 4.229 2.249 7.937z"/><path d="m16 7c0-4.145 5.022-6 10-6 .552 0 1 .447 1 1l.006.49c.038 2.215.127 7.403-5.31 8.49-.066.014-.132.02-.197.02-.467 0-.885-.328-.979-.804-.108-.542.243-1.068.784-1.177 3.303-.66 3.712-3.264 3.708-5.988-3.123.197-7.012 1.323-7.012 3.969 0 .553-.448 1-1 1s-1-.447-1-1z"/><path d="m23 17.5c0 1.379-1.122 2.5-2.5 2.5h-3.5v1c0 .553-.448 1-1 1s-1-.447-1-1v-1c0-1.103.897-2 2-2h3.5c.276 0 .5-.225.5-.5s-.224-.5-.5-.5h-9c-1.378 0-2.5-1.121-2.5-2.5s1.122-2.5 2.5-2.5h3.5c.552 0 1 .447 1 1s-.448 1-1 1h-3.5c-.276 0-.5.225-.5.5s.224.5.5.5h9c1.378 0 2.5 1.121 2.5 2.5z"/><path d="m19.023 12.945c.03.551-.392 1.022-.943 1.053-.019.002-.038.002-.057.002-.527 0-.968-.412-.998-.945-.281-5.099 4.278-7.807 4.472-7.92.477-.275 1.089-.114 1.367.363.277.477.115 1.088-.361 1.366-.17.101-3.692 2.233-3.48 6.081z"/><path d="m9 2.037c0-.552.448-1.037 1-1.037 2.056 0 4.066.085 6.047 1.111.49.254.682.857.428 1.348-.255.491-.858.683-1.348.428-1.195-.619-2.46-.822-4.104-.873.12 2.257.802 4.315 4.178 5.007.541.11.89.639.779 1.18-.097.474-.513.8-.979.8-.066 0-.134-.007-.202-.021-5.799-1.188-5.799-5.921-5.799-7.943z"/><path d="m20.817 22.424c.318.451.211 1.075-.24 1.394-.572.403-2.226 1.516-3.577 1.974v3.208c0 .553-.448 1-1 1s-1-.447-1-1v-3.209c-1.351-.458-3.005-1.57-3.577-1.974-.451-.318-.559-.942-.24-1.394.318-.452.943-.558 1.393-.241 1.373.968 2.973 1.818 3.424 1.818.452 0 2.052-.849 3.423-1.817.452-.317 1.076-.211 1.394.241z"/></svg>