<svg height="512" viewBox="0 0 62 60" width="512" xmlns="http://www.w3.org/2000/svg"><g id="036---IVF"><path id="Shape" d="m42.54 20.46c-1.6008875-1.5968384-4.0742064-1.9205523-6.032127-.7894994s-2.9130937 3.4353405-2.3295522 5.6198801c.5835415 2.1845395 2.5605473 3.7055737 4.8216792 3.7096193 2.0250888.0036232 3.8523848-1.2146287 4.6278431-3.0853671.7754583-1.8707385.3459253-4.024491-1.0878431-5.4546329zm-1.42 5.66c-1.1884135 1.1276288-3.0515865 1.1276288-4.24 0-.8587681-.8577-1.1161198-2.1483463-.6519956-3.2698278.4641241-1.1214815 1.5582691-1.8528121 2.7719956-1.8528121s2.3078715.7313306 2.7719956 1.8528121c.4641242 1.1214815.2067725 2.4121278-.6519956 3.2698278z"/><path id="Shape" d="m50.12 26.88c-.959919-.9611132-2.4458539-1.1573018-3.6223237-.4782569-1.1764697.6790449-1.7498687 2.0638576-1.3977979 3.3758138.3520708 1.3119563 1.541747 2.2236379 2.9001216 2.2224431 1.2125666-.0010665 2.305263-.7319802 2.7691479-1.8523059.4638849-1.1203258.2077333-2.4097468-.6491479-3.2676941zm-1.41 2.83c-.2860905.2884599-.7182668.3751619-1.0934815.219371-.3752147-.155791-.6188811-.5231059-.6165185-.929371 0-.5522847.4477153-1 1-1 .4062651-.0023626.77358.2413038.929371.6165185.1557909.3752147.0690889.807391-.219371 1.0934815z"/><path id="Shape" d="m31.12 24.88c-.959919-.9611132-2.4458539-1.1573018-3.6223237-.4782569-1.1764697.6790449-1.7498687 2.0638576-1.3977979 3.3758138.3520708 1.3119563 1.541747 2.2236379 2.9001216 2.2224431 1.2125666-.0010665 2.305263-.7319802 2.7691479-1.8523059.4638849-1.1203258.2077333-2.4097468-.6491479-3.2676941zm-1.41 2.83c-.2860905.2884599-.7182668.3751619-1.0934815.219371-.3752147-.155791-.6188811-.5231059-.6165185-.929371 0-.5522847.4477153-1 1-1 .4062651-.0023626.77358.2413038.929371.6165185.1557909.3752147.0690889.807391-.219371 1.0934815z"/><path id="Shape" d="m47 35c0 .5522847-.4477153 1-1 1s-1-.4477153-1-1 .4477153-1 1-1 1 .4477153 1 1z"/><path id="Shape" d="m49 38c0 .5522847-.4477153 1-1 1s-1-.4477153-1-1 .4477153-1 1-1 1 .4477153 1 1z"/><path id="Shape" d="m37 8c-6.9582572-.02348378-13.5785893 2.9980475-18.12 8.27l-9-13.58-1.22-1.8c-.37026198-.55496203-.99286039-.8887648-1.66-.89h-4c-1.1045695 0-2 .8954305-2 2 0 5.31-.12 5.27.33 6 10.59 16.48 10.73 16 10.73 16.1-.9187179.6108369-1.1692857 1.8502526-.56 2.77 1.32 2 1.24 1.95 1.69 2.23-.6645907 5.3119093.4841347 10.6925954 3.26 15.27-2.1605096.9015773-3.7387442 2.8089224-4.22 5.1-.42 1.93.38 5 .32 5.79-.09 1.3-1.81 1.55-3 2.09-.36863667.1715166-.59672786.5491539-.57697144.9552581s.28342686.7598179.66697144.8947419c1.92.78 3.25 1.18 5.27.31 2.0023031-.9413817 3.3459315-2.8842989 3.52-5.09 0 0 0-.06 0-.09.37-2.59.28-2.54.34-3 .28-.61.63-.51 3.26-.59 8.2280783 6.5832184 19.7879096 7.0292701 28.498812 1.0996652 8.7109025-5.929605 12.5350427-16.8476915 9.4277721-26.9166986-3.1072707-10.0690072-12.4190356-16.93338591-22.9565841-16.9229666zm-34-1.14v-4.86h4l.64 1-1.64 1.07c-.36003552.24131211-.52363219.68708822-.40516315 1.10400811s.49203118.71006071.92516315.72599189c.44 0 .57-.17 2.22-1.27l1.11 1.67-1.67 1.11c-.36553376.24563779-.5273388.70149492-.39847014 1.12261928.12886865.42112435.51807046.70836737.95847014.70738072.43 0 .49-.12 2.22-1.28l1.11 1.68-1.67 1.11c-.3725906.2494578-.5335836.7164314-.3938876 1.1425041.139696.4260728.5459258.7070717.9938876.6874959.38 0 .36 0 2.22-1.28l1.07 1.7-1.67 1.11c-.3655338.2456378-.5273388.7014949-.3984701 1.1226193.1288686.4211243.5180704.7083673.9584701.7073807.38 0 .36 0 2.22-1.28l1.11 1.67-1.67 1.12c-.3655338.2456378-.5273388.7014949-.3984701 1.1226193.1288686.4211243.5180704.7083673.9584701.7073807.42 0 .56-.17 2.22-1.28l1.11 1.67-5 3.33zm11.27 20.57-1.11-1.67.84-.56 7.51-5 1.11 1.67c-8.48 5.65-8.25 5.56-8.35 5.56zm9.44-7.53c6.3548449-6.9902148 17.0324424-7.878181 24.4546423-2.0336874 7.4221999 5.8444935 9.063194 16.4325392 3.7583289 24.2495439-5.3048651 7.8170046-15.7503198 10.2028063-23.9229712 5.4641435.3136105-.4957571.5528223-1.0348259.71-1.6 1.7358211.38111 3.5460643-.1506489 4.8-1.41l.76-.76c2.63-2.63 5.65-8 2.55-11-2.87-2.88-7.68-.46-10.45 2l-1.55-2.32c.9149848-.5321427 1.2569121-1.6850514.78-2.63l-2.8-5.69c1-.67 1.6-1 1.78-1.89s-.37-1.64-.87-2.38zm6.12 20.1-2.33-3.5c1.85-1.71 5.92-4.28 7.92-2.28s-.6 6.25-2.56 8.21c-.87.87-1.53 1.73-3.11 1.71s-2.39-1-3.21-1.83c-1.167921-1.1400457-1.3610031-2.9491411-.46-4.31l2.08 3.12c.1467316.2220203.3759089.3763952.6367947.4289477s.5319584-.0010525.7532053-.1489477c.2248627-.1468099.3812281-.3778912.4338941-.6412212.052666-.2633299-.0027939-.5367763-.1538941-.7587788zm-5.73 2.22c-.39 1.08-.22 1.2-.68 1.55-2.9473191-3.3549113-4.5250939-7.6955768-4.42-12.16l1.43 1.65c.688493.7985082 1.8786273.9253975 2.72.29l1.77 2.66c-1.5060064 1.6334393-1.8333759 4.032818-.82 6.01zm-.28-11.5-1.82 1.28-4-4.64 3.12-2.07zm-8.62-1.53c.15-.1-.28.22 1.12-.71l.86 1c-.6732034 5.1005823.6684427 10.2626911 3.74 14.39-.808415-.0716625-1.621585-.0716625-2.43 0-2.813723-4.3437792-3.9806981-9.5508294-3.29-14.68zm1.8 21.23c-.1701831.3417652-.2591605.7182082-.26 1.1-.19 1.94-.32 2.61-.33 2.71-.100314 1.4933304-.9988243 2.8162434-2.35 3.46-.3340127.1605804-.6920969.2653031-1.06.31.8647877-.5358817 1.4276544-1.446837 1.52-2.46.16-.9-.69-4.06-.34-5.65.3762961-1.824656 1.6999967-3.3085739 3.47-3.89 1.55-.47 2.78-.13 4.45-.13.3327526.0278262.6672474.0278262 1 0h.1c1.0601846-.1378957 1.9707684-.8208336 2.4-1.8.373351.4120917.8005276.7719964 1.27 1.07-.4836902 2.0257359-2.2680781 3.4737564-4.35 3.53-2.32.27-4.65-.23-5.52 1.75zm7.7-.17c.7283778-.2551374 1.4055854-.6377596 2-1.13 9.0071594 5.428188 20.6795201 2.9536208 26.7092697-5.6624261 6.0297495-8.616047 4.3568783-20.429979-3.8279462-27.03322-8.1848246-6.60324112-20.0853308-5.7398534-27.2313235 1.9756461-.6436104-.3149785-1.4065482-.2615728-2 .14l-.35-.54c4.1678158-5.0970377 10.4159977-8.03735864 17-8 12.1502645 0 22 9.8497355 22 22 0 17.63-19.77 28-34.26 18.25z"/></g></svg>