<svg id="Capa_1" enable-background="new 0 0 512 512" height="512" viewBox="0 0 512 512" width="512" xmlns="http://www.w3.org/2000/svg"><g><path d="m474.5 340.326c-4.143 0-7.5 3.357-7.5 7.5v156.674c0 4.143 3.357 7.5 7.5 7.5s7.5-3.357 7.5-7.5v-156.674c0-4.142-3.357-7.5-7.5-7.5z"/><path d="m504.5 0c-4.143 0-7.5 3.357-7.5 7.5v169.66c-4.263-6.059-9.302-11.533-15-16.245v-153.415c0-4.143-3.357-7.5-7.5-7.5s-7.5 3.357-7.5 7.5v143.56c-11.26-5.773-24-9.053-37.5-9.053h-2.729c2.774-17.015 8.656-33.156 17.553-48.079 9.675-16.229 10.228-35.975 1.479-52.819-8.742-16.831-25.197-27.726-44.018-29.143-4.697-.354-9.264-.534-13.573-.534-40.572 0-76.927 16.286-102.368 45.858-2.701 3.141-2.346 7.876.794 10.577 3.14 2.7 7.875 2.347 10.577-.794 22.873-26.588 54.34-40.642 90.997-40.642 3.935 0 8.122.165 12.445.491 13.604 1.024 25.504 8.912 31.834 21.1 6.337 12.2 5.943 26.49-1.052 38.226-1.072 1.798-2.091 3.617-3.084 5.447-4.1-9.133-13.274-15.513-23.916-15.513-14.45 0-26.206 11.756-26.206 26.206v10.045l-7.217-7.218c-4.95-4.949-11.53-7.675-18.53-7.675-7.001 0-13.581 2.726-18.531 7.676-10.217 10.218-10.217 26.843 0 37.06l14.731 14.731h-24.48v-5.596c0-4.143-3.357-7.5-7.5-7.5s-7.5 3.357-7.5 7.5v5.596h-16.235v-5.596c0-4.143-3.357-7.5-7.5-7.5s-7.5 3.357-7.5 7.5v5.596h-14.09c1.047-24.649 7.233-47.959 18.084-67.812 1.986-3.635.65-8.191-2.984-10.178-3.634-1.986-8.191-.651-10.178 2.984-13.148 24.057-20.099 52.587-20.099 82.506 0 41.653 13.389 79.96 37.699 107.864 5.401 6.199 11.293 11.8 17.602 16.786.318.292.651.558 1.003.786 23.193 17.962 51.964 27.64 83.204 27.64 4.31 0 8.877-.18 13.572-.534 18.821-1.417 35.276-12.312 44.019-29.143 8.749-16.845 8.196-36.59-1.479-52.819-8.891-14.915-14.781-31.058-17.558-48.079h2.734c20.678 0 37.5 16.822 37.5 37.5v93.316c0 4.143 3.357 7.5 7.5 7.5s7.5-3.357 7.5-7.5v-93.316c0-28.948-23.552-52.5-52.5-52.5h-24.587c-4.143 0-7.5 3.357-7.5 7.5s3.357 7.5 7.5 7.5h6.684c.95 6.469 2.298 12.828 4.048 19.059v20.56c0 6.179-5.027 11.205-11.206 11.205s-11.206-5.026-11.206-11.205v-28.152c0-3.033-1.827-5.769-4.63-6.929-2.803-1.163-6.027-.52-8.174 1.625l-20.021 20.021c-2.116 2.116-4.93 3.282-7.923 3.282-2.994 0-5.808-1.166-7.924-3.283-4.369-4.368-4.369-11.478 0-15.847l27.533-27.533c2.929-2.93 2.929-7.678 0-10.606l-27.533-27.535c-4.369-4.368-4.369-11.478 0-15.847 4.368-4.371 11.479-4.368 15.847-.001l20.021 20.021c2.146 2.146 5.37 2.788 8.174 1.626 2.803-1.16 4.63-3.896 4.63-6.929v-28.152c0-6.179 5.027-11.206 11.206-11.206s11.206 5.027 11.206 11.206v20.573c-1.749 6.228-3.099 12.581-4.048 19.046h-6.685c-4.143 0-7.5 3.357-7.5 7.5s3.357 7.5 7.5 7.5h24.588c37.22 0 67.5 30.28 67.5 67.5v279.993c0 4.143 3.357 7.5 7.5 7.5s7.5-3.357 7.5-7.5v-279.993-217.007c0-4.143-3.357-7.5-7.5-7.5zm-170.545 186.737c-10.217 10.218-10.217 26.843 0 37.06 4.949 4.95 11.53 7.677 18.531 7.677 7 0 13.581-2.727 18.53-7.676l7.217-7.218v10.046c0 14.449 11.756 26.205 26.206 26.205 10.642 0 19.816-6.38 23.916-15.512.993 1.83 2.013 3.648 3.084 5.446 6.995 11.735 7.389 26.025 1.052 38.226-6.33 12.188-18.23 20.075-31.835 21.1-4.322.326-8.51.491-12.444.491-25.406 0-48.353-7.209-67.43-20.034l9.06-9.06c2.929-2.93 2.929-7.678 0-10.607-2.93-2.928-7.678-2.928-10.607 0l-10.432 10.432c-26.494-23.292-43.18-58.943-44.942-101.306h14.111v6.873c0 4.143 3.357 7.5 7.5 7.5s7.5-3.357 7.5-7.5v-6.873h16.235v6.873c0 4.143 3.357 7.5 7.5 7.5s7.5-3.357 7.5-7.5v-6.873h24.479z"/><path d="m197.098 235.525c-8.742-16.83-25.197-27.725-44.02-29.142-4.708-.354-9.273-.534-13.57-.534-40.251 0-76.407 16.057-101.809 45.211-24.31 27.905-37.699 66.211-37.699 107.865 0 30.804 7.339 60.032 21.223 84.525 2.041 3.603 6.617 4.868 10.223 2.826 3.604-2.042 4.869-6.619 2.826-10.223-12.608-22.241-19.272-48.912-19.272-77.128 0-80.006 52.363-138.075 124.508-138.075 3.923 0 8.11.165 12.444.491 13.604 1.024 25.504 8.912 31.834 21.099 6.337 12.201 5.944 26.491-1.052 38.228-1.07 1.795-2.088 3.616-3.081 5.45-4.099-9.135-13.274-15.517-23.918-15.517-14.45 0-26.206 11.756-26.206 26.206v10.045l-7.217-7.218c-10.219-10.217-26.844-10.217-37.062 0-10.217 10.218-10.217 26.843.001 37.062l22.23 22.229-22.231 22.23c-4.949 4.95-7.675 11.531-7.675 18.53 0 7 2.727 13.581 7.676 18.531 4.95 4.949 11.53 7.675 18.53 7.675s13.58-2.726 18.53-7.675l7.218-7.219v10.046c0 14.45 11.756 26.206 26.206 26.206 10.644 0 19.819-6.382 23.918-15.517.993 1.834 2.011 3.656 3.081 5.45 6.995 11.735 7.389 26.025 1.052 38.227-6.33 12.187-18.23 20.074-31.835 21.099-4.321.326-8.508.491-12.443.491-34.778 0-65.098-12.774-87.682-36.942-2.827-3.025-7.573-3.187-10.601-.358-3.026 2.828-3.187 7.573-.358 10.601 25.492 27.28 59.602 41.7 98.641 41.7 4.311 0 8.877-.18 13.571-.534 18.821-1.417 35.277-12.312 44.019-29.142 8.749-16.845 8.196-36.591-1.479-52.82-12.679-21.269-19.38-45.675-19.38-70.579 0-24.903 6.701-49.31 19.38-70.578 9.675-16.231 10.228-35.977 1.479-52.822zm-30.157 81.986c-3.759 13.405-5.702 27.337-5.702 41.414s1.943 28.009 5.702 41.415v20.704c0 6.179-5.027 11.206-11.206 11.206s-11.206-5.027-11.206-11.206v-28.152c0-3.033-1.827-5.769-4.63-6.929-2.804-1.163-6.028-.52-8.174 1.625l-20.021 20.021c-4.367 4.369-11.479 4.369-15.846 0-4.37-4.369-4.37-11.479-.001-15.847l27.534-27.534c1.406-1.407 2.196-3.314 2.196-5.304s-.79-3.896-2.197-5.304l-27.533-27.532c-4.369-4.37-4.369-11.479 0-15.848 2.116-2.117 4.931-3.283 7.924-3.283s5.808 1.166 7.924 3.283l20.021 20.021c2.146 2.145 5.369 2.787 8.174 1.625 2.803-1.16 4.63-3.896 4.63-6.929v-28.151c0-6.179 5.027-11.206 11.206-11.206s11.206 5.027 11.206 11.206v20.705z"/><path d="m91.974 188.284c2.012 0 4.018-.804 5.494-2.393 24.534-26.387 48.041-41.662 95.594-41.662h7.731l-13.035 13.034c-2.929 2.93-2.929 7.678 0 10.607 1.465 1.464 3.385 2.196 5.304 2.196s3.839-.732 5.304-2.196l25.838-25.838c2.929-2.93 2.929-7.678 0-10.607l-25.838-25.838c-2.93-2.928-7.678-2.928-10.607 0-2.929 2.93-2.929 7.678 0 10.607l13.035 13.034h-7.731c-52.787 0-79.916 17.772-106.578 46.447-2.821 3.034-2.648 7.779.385 10.6 1.443 1.345 3.276 2.009 5.104 2.009z"/><path d="m334.139 337.655c-24.533 26.386-48.04 41.661-95.594 41.661h-7.731l13.034-13.033c2.93-2.929 2.93-7.678.001-10.606s-7.678-2.93-10.606-.001l-25.838 25.837c-1.407 1.407-2.197 3.314-2.197 5.304s.79 3.896 2.196 5.304l25.838 25.838c1.465 1.464 3.385 2.196 5.304 2.196s3.839-.732 5.304-2.196c2.929-2.93 2.929-7.678 0-10.607l-13.035-13.034h7.731c52.787 0 79.917-17.771 106.578-46.446 2.821-3.034 2.648-7.779-.385-10.6-3.037-2.824-7.782-2.65-10.6.383z"/></g></svg>