<svg id="Capa_1" enable-background="new 0 0 512.013 512.013" height="512" viewBox="0 0 512.013 512.013" width="512" xmlns="http://www.w3.org/2000/svg"><g><path d="m179.058 215.78c6.855 0 14.453-.991 22.77-2.977 17.477-4.172 38.478-12.945 61.232-25.514 6.053 43.01 43.092 76.21 87.744 76.21 4.143 0 7.5-3.357 7.5-7.5s-3.357-7.5-7.5-7.5c-40.593 0-73.617-33.024-73.617-73.617v-37.847c0-1.989-.79-3.896-2.196-5.304l-25.163-25.163c-2.93-2.928-7.678-2.928-10.607 0-2.929 2.93-2.929 7.678 0 10.607l22.967 22.966v30.423c-52.483 30.262-91.863 38.348-105.723 21.546-5.647-6.849-6.515-17.979-5.184-30.198h19.73v8.404c0 4.143 3.357 7.5 7.5 7.5s7.5-3.357 7.5-7.5v-8.404h15.003v8.404c0 4.143 3.357 7.5 7.5 7.5s7.5-3.357 7.5-7.5v-8.404h10.497c4.143 0 7.5-3.357 7.5-7.5s-3.357-7.5-7.5-7.5h-10.497v-8.36c0-4.143-3.357-7.5-7.5-7.5s-7.5 3.357-7.5 7.5v8.36h-15.004v-8.36c0-4.143-3.357-7.5-7.5-7.5s-7.5 3.357-7.5 7.5v8.36h-17.239c1.076-5.047 2.339-10.063 3.625-14.844 1.076-4-1.293-8.115-5.293-9.191-4-1.077-8.115 1.293-9.191 5.293-7.49 27.835-12.435 56.002 1.98 73.484 7.758 9.408 19.202 14.126 34.166 14.126z"/><path d="m503.849 14.586c-7.152-9.27-17.876-14.586-29.421-14.586h-67.168c-13.107 0-25.449 6.146-33.632 16.215-10.974-10.616-25.126-16.215-41.216-16.215h-74.53c-50.781 0-83.77 26.643-100.849 81.451-.971 3.114-1.94 6.205-2.901 9.27-1.296 4.132-2.577 8.214-3.822 12.236-1.226 3.957.988 8.158 4.945 9.383.739.229 1.486.338 2.221.338 3.201 0 6.166-2.065 7.162-5.283 1.24-4.005 2.516-8.07 3.807-12.185.964-3.073 1.937-6.174 2.909-9.297 15.076-48.38 42.571-70.913 86.528-70.913h74.53c26.254 0 45.021 20.319 47.812 51.766.318 3.597.514 7.129.579 10.499.08 4.092 3.422 7.354 7.496 7.354.05 0 .1 0 .149-.001 4.142-.081 7.434-3.505 7.353-7.646-.073-3.713-.287-7.592-.636-11.531-1.254-14.127-5.297-26.762-11.802-37.15 5.235-8.17 14.261-13.291 23.897-13.291h67.168c6.86 0 13.255 3.189 17.545 8.75 4.607 5.97 6.135 13.645 4.191 21.055-3.12 11.898-8.266 25.149-16.669 37.702l-9.452-9.452c-2.93-2.928-7.678-2.928-10.607 0-2.929 2.93-2.929 7.678 0 10.607l10.787 10.786c-12.958 14.435-31.34 26.854-57.438 33.556-9.011 2.316-18.302-.036-25.233-6.136 2.514-5.288 4.483-11.088 5.848-17.397.875-4.048-1.697-8.04-5.746-8.916-4.052-.873-8.039 1.698-8.916 5.746-2.021 9.347-5.535 17.235-10.443 23.447-16.298 20.62-29.854 22.792-48.617 25.798-4.039.647-8.165 1.314-12.489 2.184v-12.588l22.666-22.665c2.929-2.93 2.929-7.678 0-10.607-2.93-2.928-7.678-2.928-10.607 0l-24.862 24.862c-1.406 1.407-2.196 3.314-2.196 5.304v37.847c0 32.321 26.296 58.617 58.617 58.617 4.143 0 7.5-3.357 7.5-7.5s-3.357-7.5-7.5-7.5c-24.051 0-43.617-19.566-43.617-43.617v-6.826c5.142-1.14 10.062-1.93 14.862-2.699 19.417-3.11 37.77-6.063 57.493-30.668 7.624 5.927 17.005 9.158 26.548 9.158 3.479 0 6.98-.429 10.425-1.313 61.617-15.824 85.214-59.811 94.159-93.925 3.129-11.943.641-24.343-6.828-34.024z"/><path d="m284.687 117.11c1.919 0 3.839-.732 5.304-2.196l18.649-18.649c2.929-2.93 2.929-7.678 0-10.607-2.93-2.928-7.678-2.928-10.607 0l-13.346 13.347-13.647-13.649c-2.93-2.928-7.678-2.928-10.607 0-2.929 2.93-2.929 7.678 0 10.607l18.95 18.95c1.465 1.465 3.385 2.197 5.304 2.197z"/><path d="m299.808 416.202c-7.021 3.261-14.671 5.964-22.736 8.035-9.001 2.311-18.28-.032-25.208-6.115 6.401-13.449 9.098-30.312 8.025-50.344-.221-4.136-3.748-7.288-7.891-7.088-4.136.222-7.31 3.754-7.088 7.891 1.225 22.868-2.924 40.498-12.33 52.4-16.298 20.62-29.854 22.792-48.616 25.798-4.04.647-8.166 1.313-12.49 2.182v-12.586l22.666-22.665c2.929-2.93 2.929-7.678 0-10.607-2.93-2.928-7.678-2.928-10.607 0l-24.862 24.862c-1.406 1.407-2.196 3.314-2.196 5.304v66.73c0 4.143 3.357 7.5 7.5 7.5s7.5-3.357 7.5-7.5v-35.71c5.142-1.14 10.063-1.93 14.862-2.699 19.419-3.11 37.771-6.063 57.495-30.67 7.623 5.928 17.003 9.16 26.546 9.16 3.479 0 6.981-.43 10.425-1.313 8.953-2.3 17.473-5.314 25.324-8.961 3.757-1.744 5.388-6.204 3.643-9.961-1.744-3.757-6.203-5.39-9.962-3.643z"/><path d="m338.715 296.232h-67.168c-13.127 0-25.487 6.167-33.669 16.265-10.881-10.457-25.122-16.265-41.179-16.265h-74.53c-50.782 0-83.77 26.643-100.848 81.45-.956 3.068-1.912 6.115-2.859 9.136-14.918 47.549-27.801 88.614-9.282 111.068 7.758 9.407 19.202 14.127 34.166 14.127 6.856 0 14.453-.991 22.769-2.977 17.253-4.119 37.941-12.719 60.359-25.031v15.994c0 4.143 3.357 7.5 7.5 7.5s7.5-3.357 7.5-7.5v-66.73c0-1.989-.79-3.896-2.196-5.304l-25.163-25.163c-2.93-2.928-7.678-2.928-10.607 0-2.929 2.93-2.929 7.678 0 10.607l22.967 22.966v30.423c-52.486 30.263-91.864 38.347-105.722 21.544-13.345-16.18-1.023-55.454 12.021-97.033.951-3.029 1.909-6.085 2.868-9.163 15.075-48.38 42.57-70.913 86.527-70.913h74.53c20.235 0 36.141 11.821 43.636 32.433 1.416 3.893 5.715 5.899 9.612 4.485 3.893-1.416 5.9-5.72 4.485-9.612-1.844-5.069-4.128-9.744-6.798-13.995 5.234-8.181 14.268-13.31 23.912-13.31h67.168c6.86 0 13.255 3.189 17.545 8.75 4.607 5.97 6.135 13.645 4.191 21.055-6.748 25.737-19.56 46.337-38.08 61.229-3.229 2.596-3.741 7.316-1.146 10.544 1.481 1.843 3.655 2.801 5.85 2.801 1.649 0 3.31-.541 4.694-1.655 20.782-16.709 35.718-40.608 43.191-69.113 3.132-11.942.644-24.343-6.825-34.023-7.15-9.273-17.874-14.59-29.419-14.59z"/><path d="m172.927 381.89c-2.93-2.928-7.678-2.928-10.607 0l-13.346 13.347-13.646-13.647c-2.93-2.928-7.678-2.928-10.607 0-2.929 2.93-2.929 7.678 0 10.607l18.95 18.95c1.465 1.464 3.385 2.196 5.304 2.196s3.839-.732 5.304-2.196l18.649-18.649c2.928-2.931 2.928-7.679-.001-10.608z"/><path d="m43.262 266.597c.147 4.047 3.474 7.228 7.49 7.228.092 0 .185-.002.277-.005 4.14-.15 7.373-3.629 7.223-7.768-1.311-36.005 4.51-63.428 38.136-97.053l5.467-5.467v18.433c0 4.143 3.357 7.5 7.5 7.5s7.5-3.357 7.5-7.5v-36.54c0-4.143-3.357-7.5-7.5-7.5h-36.54c-4.143 0-7.5 3.357-7.5 7.5s3.357 7.5 7.5 7.5h18.433l-5.467 5.467c-37.327 37.327-43.943 69.077-42.519 108.205z"/><path d="m471.589 174.821c-.151-4.14-3.629-7.37-7.768-7.223-4.14.15-7.373 3.629-7.223 7.768 1.311 36.005-4.51 63.429-38.137 97.055l-5.466 5.466v-18.433c0-4.143-3.357-7.5-7.5-7.5s-7.5 3.357-7.5 7.5v36.54c0 4.143 3.357 7.5 7.5 7.5h36.54c4.143 0 7.5-3.357 7.5-7.5s-3.357-7.5-7.5-7.5h-18.434l5.467-5.467c37.329-37.327 43.945-69.077 42.521-108.206z"/></g></svg>