<svg clip-rule="evenodd" fill-rule="evenodd" height="512" image-rendering="optimizeQuality" shape-rendering="geometricPrecision" text-rendering="geometricPrecision" viewBox="0 0 7111 7111" width="512" xmlns="http://www.w3.org/2000/svg"><g id="Layer_x0020_1"><path d="m3574 1640c-19 0-37-7-53-19-83-69-188-107-297-107-46 0-83-38-83-84s37-83 83-83c147 0 291 52 403 145 36 30 41 82 11 118-16 19-40 30-64 30z"/><path d="m2015 3835c-28 0-56-15-72-41-23-40-9-91 30-114 96-57 206-86 318-86 77 0 152 14 224 41 43 16 64 64 48 107s-64 65-107 48c-53-19-108-29-165-29-82 0-163 21-234 63-13 7-27 11-42 11z"/><path d="m2364 5459c-46 0-83-37-83-83s37-84 83-84c248 0 537-201 537-460 0-46 37-83 83-83s84 37 84 83c0 168-81 327-227 449-135 113-309 178-477 178z"/><path d="m2998 6024c-41 0-76-30-82-71-7-45 25-88 70-95 96-14 187-61 256-134 32-33 85-35 118-3s34 85 3 118c-95 99-220 165-353 184-4 1-8 1-12 1z"/><path d="m3632 6465h-93c-275 0-516-179-600-435-9 1-18 1-27 1-333 0-607-259-630-586-277-70-477-321-477-613 0-60 8-119 25-176-109-116-170-270-170-431 0-186 83-361 222-480-131-131-207-311-207-498 0-75 12-148 35-218 14-44 61-68 105-54 44 15 68 62 53 105-17 54-26 110-26 167 0 172 84 335 224 436 23 17 36 44 34 72-1 28-17 54-41 68-144 83-233 237-233 402 0 132 57 258 155 346 26 24 35 60 22 93-21 53-32 110-32 168 0 233 174 431 404 461 43 6 74 43 72 86v21c0 256 208 464 465 464 25 0 51-2 76-6 44-7 86 22 95 66 43 217 235 374 456 374h93c256 0 465-208 465-465v-4037c0-256-209-465-465-465-132 0-258 57-346 155-16 17-38 28-62 28-194 0-370 122-436 305-12 32-43 54-78 54-213 3-397 149-447 356-11 44-56 72-100 61-45-11-73-56-62-101 64-263 286-453 552-479 98-208 304-348 534-362 118-117 278-184 445-184 348 0 632 284 632 632v4037c0 348-284 632-632 632z"/><path d="m5232 6465h-94c-348 0-631-284-631-632v-4037c0-348 283-632 631-632 167 0 328 67 445 184 231 14 437 154 535 362 318 31 569 302 569 628 0 86-18 171-51 249 271 101 459 363 459 660 0 187-76 367-206 498 139 119 222 294 222 480 0 161-62 315-170 431 16 57 25 116 25 176 0 292-201 543-477 613-24 327-297 586-630 586-9 0-18 0-27-1-84 256-326 435-600 435zm-94-5134c-256 0-464 209-464 465v4037c0 257 208 465 464 465h94c221 0 413-157 455-374 9-44 51-73 96-66 25 4 50 6 76 6 256 0 465-208 465-464 0-7-1-14-1-21-2-43 30-80 73-86 230-30 403-228 403-461 0-58-10-115-31-168-13-33-4-69 22-93 98-88 154-214 154-346 0-165-89-319-232-402-25-14-40-40-42-68-1-28 12-55 35-72 140-101 223-264 223-436 0-255-181-477-430-527-28-5-50-24-61-49-11-26-8-55 7-78 50-76 76-164 76-255 0-254-206-462-460-465-34 0-65-22-77-54-67-183-242-305-436-305-24 0-47-11-62-28-89-98-215-155-347-155z"/><path d="m5196 1640c-24 0-47-11-64-30-29-36-24-88 11-118 113-93 256-145 403-145 46 0 83 37 83 83s-37 84-83 84c-108 0-213 38-297 107-15 12-34 19-53 19z"/><path d="m6055 2970c-76 0-151-14-222-41-43-16-65-64-49-107 17-43 65-65 108-49 52 20 107 30 163 30 157 0 303-78 389-210 25-38 77-49 115-23 39 25 50 77 24 115-117 178-314 285-528 285z"/><path d="m6120 3895c-24 0-47-10-63-29-31-34-27-87 8-117 115-100 262-155 414-155 112 0 222 29 318 86 40 23 53 74 30 114-23 39-74 53-114 30-70-42-151-64-234-64-112 0-220 41-305 115-16 13-35 20-54 20z"/><path d="m6406 5459c-168 0-342-65-477-178-146-122-226-281-226-449 0-46 37-83 83-83s83 37 83 83c0 259 289 460 537 460 46 0 84 38 84 84s-38 83-84 83z"/><path d="m5772 6024c-4 0-8 0-12-1-132-19-257-85-352-184-32-33-31-86 3-118 33-32 86-30 117 3 70 73 161 120 256 135 46 6 77 49 71 94-6 41-42 71-83 71z"/><path d="m3512 4306c-61 0-123-8-185-25-438-122-706-628-778-780-53-113-249-276-436-364-42-20-59-69-40-111 20-42 69-60 111-40 196 92 436 274 516 444 171 363 422 621 672 690 128 36 258 22 387-42l-1314-1314c-32-32-32-85 0-117 33-33 86-33 118 0l1391 1390c17 18 26 42 24 67-3 25-16 47-37 61-140 94-284 141-429 141z"/><path d="m1972 3321c-21 0-42-8-59-24l-1760-1761c-99-98-153-229-153-369 0-139 54-270 153-368 98-99 229-153 368-153 140 0 271 54 369 153l1760 1760c16 16 25 37 25 59s-9 44-25 59l-619 620c-16 16-37 24-59 24zm-1451-2508c-95 0-184 37-251 103-66 67-103 156-103 251s37 184 103 251l1702 1702 502-502-1702-1702c-67-66-156-103-251-103z"/><path d="m1651 2561c-71 0-138-27-188-77l-808-808c-50-50-77-116-77-187s27-138 77-188c50-49 117-77 188-77s137 28 187 77l808 808c50 50 77 117 77 188s-27 137-77 187-116 77-187 77zm-808-1170c-27 0-51 10-70 28-18 19-28 43-28 70 0 26 10 51 28 69l808 808c19 19 43 29 70 29 26 0 51-10 69-29 38-38 38-100 0-139l-808-808c-18-18-43-28-69-28z"/><path d="m4122 5030c-195 0-390-111-521-300-26-38-16-90 21-116 38-26 90-17 116 21 111 160 276 246 431 225 45-6 88 26 94 71 6 46-26 88-71 94-24 3-47 5-70 5z"/><path d="m4648 5030c-23 0-46-2-69-5-46-6-78-48-71-94 6-45 48-77 93-71 156 21 321-65 431-225 26-38 78-47 116-21s47 78 21 116c-131 189-325 300-521 300z"/><path d="m3167 2598c-14 0-29 0-43-1-46-3-81-42-79-88 3-46 42-81 88-78 280 15 389-169 390-170 24-40 75-54 114-31 40 23 54 74 31 114-7 11-152 254-501 254z"/><path d="m5604 2598c-350 0-495-243-501-254-23-40-10-91 30-114s90-9 114 30c5 9 117 186 391 171 46-3 85 32 87 78 3 46-32 85-78 88-15 1-29 1-43 1z"/></g></svg>