<?xml version="1.0" encoding="UTF-8"?>
<svg xmlns="http://www.w3.org/2000/svg" xmlns:xlink="http://www.w3.org/1999/xlink" version="1.1" id="Capa_1" x="0px" y="0px" viewBox="0 0 512 512" style="enable-background:new 0 0 512 512;" xml:space="preserve" width="512" height="512">
<g>
	<g>
		
			<path style="fill-rule:evenodd;clip-rule:evenodd;fill:none;stroke:#000000;stroke-width:20;stroke-linecap:round;stroke-linejoin:round;stroke-miterlimit:2.6131;" d="&#10;&#9;&#9;&#9;M327.324,381.433c-21.421,13.795-45.96,23.164-72.325,26.829v16.737c0,13.75-11.25,25-25,25h0c-13.75,0-25-11.25-25-25v-16.737&#10;&#9;&#9;&#9;c-31.019-4.311-59.507-16.521-83.369-34.539l-11.839,11.839c-9.723,9.723-25.633,9.723-35.355,0l0,0&#10;&#9;&#9;&#9;c-9.723-9.723-9.723-25.633,0-35.355l11.839-11.839c-18.021-23.86-30.226-52.351-34.538-83.369H35c-13.75,0-25-11.25-25-25v0&#10;&#9;&#9;&#9;c0-13.75,11.25-25,25-25h16.737c4.311-31.019,16.521-59.507,34.539-83.369l-11.839-11.839c-9.723-9.723-9.723-25.633,0-35.355l0,0&#10;&#9;&#9;&#9;c9.723-9.723,25.633-9.723,35.355,0l11.839,11.839c23.859-18.021,52.351-30.227,83.369-34.539V35c0-13.75,11.25-25,25-25h0&#10;&#9;&#9;&#9;c13.75,0,25,11.25,25,25v16.737c31.019,4.311,59.507,16.521,83.369,34.538l11.839-11.839c9.723-9.723,25.633-9.723,35.355,0l0,0&#10;&#9;&#9;&#9;c9.723,9.723,9.723,25.633,0,35.355l-11.839,11.839c18.021,23.859,30.227,52.351,34.539,83.369h16.736c13.75,0,25,11.25,25,25v0&#10;&#9;&#9;&#9;c0,13.75-11.25,25-25,25h-16.736c-3.663,26.359-13.032,50.889-26.82,72.308"/>
		
			<ellipse transform="matrix(0.7071 -0.7071 0.7071 0.7071 -123.9525 212.1452)" style="fill-rule:evenodd;clip-rule:evenodd;fill:none;stroke:#000000;stroke-width:20;stroke-linecap:round;stroke-linejoin:round;stroke-miterlimit:2.6131;" cx="194.106" cy="255.696" rx="40" ry="40"/>
		
			<ellipse transform="matrix(0.5847 -0.8112 0.8112 0.5847 -39.1441 302.9887)" style="fill-rule:evenodd;clip-rule:evenodd;fill:none;stroke:#000000;stroke-width:20;stroke-linecap:round;stroke-linejoin:round;stroke-miterlimit:2.6131;" cx="276.362" cy="189.727" rx="22.5" ry="22.5"/>
		
			<line style="fill-rule:evenodd;clip-rule:evenodd;fill:none;stroke:#000000;stroke-width:20;stroke-linecap:round;stroke-linejoin:round;stroke-miterlimit:22.9256;" x1="309.431" y1="242.772" x2="309.438" y2="242.772"/>
		
			<line style="fill-rule:evenodd;clip-rule:evenodd;fill:none;stroke:#000000;stroke-width:20;stroke-linecap:round;stroke-linejoin:round;stroke-miterlimit:22.9256;" x1="221.321" y1="160.094" x2="221.328" y2="160.094"/>
		
			<line style="fill-rule:evenodd;clip-rule:evenodd;fill:none;stroke:#000000;stroke-width:20;stroke-linecap:round;stroke-linejoin:round;stroke-miterlimit:22.9256;" x1="283.183" y1="280.812" x2="283.19" y2="280.812"/>
		
			<path style="fill-rule:evenodd;clip-rule:evenodd;fill:none;stroke:#000000;stroke-width:20;stroke-linecap:round;stroke-linejoin:round;stroke-miterlimit:2.6131;" d="&#10;&#9;&#9;&#9;M385.76,454.57C422.871,423.415,459.452,368.416,412,362c-47.452,6.416-10.871,61.415,26.24,92.569"/>
		
			<ellipse transform="matrix(0.7071 -0.7071 0.7071 0.7071 -170.6561 412.0002)" style="fill-rule:evenodd;clip-rule:evenodd;fill:none;stroke:#000000;stroke-width:20;stroke-linecap:round;stroke-linejoin:round;stroke-miterlimit:2.6131;" cx="412" cy="412" rx="90" ry="90"/>
		
			<path style="fill-rule:evenodd;clip-rule:evenodd;fill:none;stroke:#000000;stroke-width:20;stroke-linecap:round;stroke-linejoin:round;stroke-miterlimit:2.6131;" d="&#10;&#9;&#9;&#9;M179.339,115.7c15.486-6.874,32.625-10.7,50.66-10.7c69.035,0,125,55.964,125,124.999c0,69.035-55.964,125-125,125&#10;&#9;&#9;&#9;c-69.035,0-124.999-55.964-124.999-125c0-18.035,3.826-35.175,10.7-50.66"/>
		
			<line style="fill-rule:evenodd;clip-rule:evenodd;fill:none;stroke:#000000;stroke-width:20;stroke-linecap:round;stroke-linejoin:round;stroke-miterlimit:22.9256;" x1="141.606" y1="141.606" x2="141.612" y2="141.612"/>
	</g>
</g>















</svg>
