<?xml version="1.0" encoding="UTF-8"?>
<svg xmlns="http://www.w3.org/2000/svg" xmlns:xlink="http://www.w3.org/1999/xlink" version="1.1" id="Capa_1" x="0px" y="0px" viewBox="0 0 512.011 512.011" style="enable-background:new 0 0 512.011 512.011;" xml:space="preserve" width="512" height="512">
<g>
	<path style="fill:none;stroke:#000000;stroke-width:15;stroke-linecap:round;stroke-linejoin:round;stroke-miterlimit:10;" d="&#10;&#9;&#9;M321.26,474.877c0.582,9.901,1.208,19.779,1.879,29.634"/>
	<path style="fill:none;stroke:#000000;stroke-width:15;stroke-linecap:round;stroke-linejoin:round;stroke-miterlimit:10;" d="&#10;&#9;&#9;M315.387,240.663c-0.43,68.813,0.911,136.702,4.216,203.566"/>
	<path style="fill:none;stroke:#000000;stroke-width:15;stroke-linecap:round;stroke-linejoin:round;stroke-miterlimit:10;" d="&#10;&#9;&#9;M323.139,7.5c-3.656,62.596-6.095,124.558-7.182,185.814"/>
	<path style="fill:none;stroke:#000000;stroke-width:15;stroke-linecap:round;stroke-linejoin:round;stroke-miterlimit:10;" d="&#10;&#9;&#9;M24.628,504.511c10.891-159.989,9.98-326.135,0-497.011"/>
	
		<line style="fill:none;stroke:#000000;stroke-width:15;stroke-linecap:round;stroke-linejoin:round;stroke-miterlimit:10;" x1="214.416" y1="472.413" x2="214.416" y2="504.511"/>
	
		<line style="fill:none;stroke:#000000;stroke-width:15;stroke-linecap:round;stroke-linejoin:round;stroke-miterlimit:10;" x1="133.351" y1="504.511" x2="133.351" y2="472.413"/>
	
		<line style="fill:none;stroke:#000000;stroke-width:15;stroke-linecap:round;stroke-linejoin:round;stroke-miterlimit:10;" x1="144.754" y1="264.009" x2="198.907" y2="264.009"/>
	
		<line style="fill:none;stroke:#000000;stroke-width:15;stroke-linecap:round;stroke-linejoin:round;stroke-miterlimit:10;" x1="198.907" y1="322.138" x2="144.754" y2="322.138"/>
	
		<line style="fill:none;stroke:#000000;stroke-width:15;stroke-linecap:round;stroke-linejoin:round;stroke-miterlimit:10;" x1="173.884" y1="381.573" x2="173.884" y2="446.649"/>
	
		<line style="fill:none;stroke:#000000;stroke-width:15;stroke-linecap:round;stroke-linejoin:round;stroke-miterlimit:10;" x1="173.884" y1="153.87" x2="173.884" y2="218.946"/>
	
		<line style="fill:none;stroke:#000000;stroke-width:15;stroke-linecap:round;stroke-linejoin:round;stroke-miterlimit:10;" x1="173.884" y1="40.018" x2="173.884" y2="105.094"/>
	<g>
		<path style="fill:none;stroke:#000000;stroke-width:15;stroke-linecap:round;stroke-linejoin:round;stroke-miterlimit:10;" d="&#10;&#9;&#9;&#9;M361.795,193.575l15.286-11.611l-15.071-19.842l-94.85,72.043l0,0c23.252,12.011,51.338,9.578,72.179-6.251l12.597-9.568&#10;&#9;&#9;&#9;c2.072-1.574,3.469-3.876,3.909-6.44l2.04-11.891C358.326,197.451,359.723,195.149,361.795,193.575z"/>
		
			<line style="fill:none;stroke:#000000;stroke-width:15;stroke-linecap:round;stroke-linejoin:round;stroke-miterlimit:10;" x1="459.901" y1="103.415" x2="455.99" y2="106.385"/>
		<path style="fill:none;stroke:#000000;stroke-width:15;stroke-linecap:round;stroke-linejoin:round;stroke-miterlimit:10;" d="&#10;&#9;&#9;&#9;M400.41,115.785l-40.531,34.501c-2.337,1.989-2.713,5.458-0.857,7.902l21.049,27.712c1.856,2.444,5.298,3.012,7.842,1.295&#10;&#9;&#9;&#9;l86.683-58.539c13.814-9.329,16.954-28.348,6.872-41.622l0,0c-10.082-13.274-29.246-15.352-41.939-4.547l-16.743,14.252"/>
	</g>
	<path style="fill:none;stroke:#000000;stroke-width:15;stroke-linecap:round;stroke-linejoin:round;stroke-miterlimit:10;" d="&#10;&#9;&#9;M111.36,30.257c-4.436,5.208-10.625,8.657-17.418,9.711c-5.93,0.92-12.325,0.947-18.964,0.507c-3.53-0.234-6.827,1.958-7.809,5.357&#10;&#9;&#9;c-2.013,6.963-1.062,13.486,2.757,19.581c1.807,2.884,5.391,4.169,8.632,3.133c9.781-3.127,19.368-3.756,28.629-0.194&#10;&#9;&#9;c2.126,0.818,3.108,3.293,2.042,5.306c-4.031,7.609-6.381,20.88-7.056,33.403c-0.555,10.298,5.86,19.869,15.741,22.822&#10;&#9;&#9;c0.132,0.039,0.265,0.078,0.398,0.116c9.46,2.705,19.587-1.141,25.012-9.35c8.52-12.891,18.096-26.132,30.559-25.906&#10;&#9;&#9;c12.464-0.226,22.04,13.015,30.56,25.906c5.425,8.209,15.552,12.055,25.012,9.35c0.133-0.038,0.266-0.077,0.398-0.116&#10;&#9;&#9;c9.881-2.953,16.296-12.524,15.741-22.822c-0.675-12.523-3.025-25.794-7.056-33.403c-1.067-2.013-0.085-4.488,2.042-5.306&#10;&#9;&#9;c9.261-3.562,18.848-2.934,28.629,0.194c3.241,1.036,6.826-0.249,8.632-3.133c3.819-6.096,4.77-12.618,2.757-19.581&#10;&#9;&#9;c-0.982-3.399-4.279-5.591-7.81-5.357c-6.638,0.439-13.033,0.412-18.964-0.507c-7.291-1.13-13.888-5.018-18.366-10.881&#10;&#9;&#9;c-4.954-6.487-10.352-11.924-16.279-16.115c-9.314-6.587-21.601-7.209-31.727-1.955l-13.57,7.041l-13.57-7.041&#10;&#9;&#9;c-8.014-4.158-17.376-4.621-25.552-1.374"/>
	<path style="fill:none;stroke:#000000;stroke-width:15;stroke-linecap:round;stroke-linejoin:round;stroke-miterlimit:10;" d="&#10;&#9;&#9;M123.518,130.834c-3.977,3.468-7.707,7.517-11.21,12.104c-4.478,5.863-11.076,9.751-18.366,10.882&#10;&#9;&#9;c-5.93,0.919-12.325,0.947-18.964,0.507c-3.53-0.234-6.827,1.958-7.809,5.357c-2.013,6.963-1.062,13.486,2.757,19.582&#10;&#9;&#9;c1.807,2.884,5.391,4.169,8.632,3.133c9.781-3.127,19.368-3.756,28.629-0.193c2.126,0.818,3.108,3.293,2.042,5.306&#10;&#9;&#9;c-4.031,7.609-6.381,20.88-7.056,33.403c-0.555,10.298,5.86,19.869,15.741,22.822c0.132,0.04,0.265,0.078,0.398,0.116&#10;&#9;&#9;c9.46,2.705,19.587-1.141,25.012-9.35c8.52-12.891,18.096-26.132,30.559-25.906c12.464-0.226,22.04,13.015,30.56,25.906&#10;&#9;&#9;c5.425,8.209,15.552,12.055,25.012,9.35c0.133-0.038,0.266-0.077,0.398-0.116c9.881-2.953,16.296-12.524,15.741-22.822&#10;&#9;&#9;c-0.675-12.523-3.025-25.794-7.056-33.403c-1.067-2.013-0.085-4.488,2.042-5.306c9.261-3.563,18.848-2.934,28.629,0.193&#10;&#9;&#9;c3.241,1.036,6.826-0.249,8.632-3.133c3.819-6.096,4.77-12.618,2.757-19.582c-0.982-3.399-4.279-5.591-7.81-5.357&#10;&#9;&#9;c-6.638,0.439-13.033,0.412-18.964-0.507c-7.291-1.131-13.888-5.018-18.366-10.882c-3.503-4.586-7.233-8.636-11.21-12.104"/>
	<path style="fill:none;stroke:#000000;stroke-width:15;stroke-linecap:round;stroke-linejoin:round;stroke-miterlimit:10;" d="&#10;&#9;&#9;M205.084,121.539c-5.966-0.637-12.117,0.468-17.63,3.328l-13.57,7.041l-13.57-7.041c-5.513-2.861-11.665-3.965-17.63-3.328"/>
	<path style="fill:none;stroke:#000000;stroke-width:15;stroke-linecap:round;stroke-linejoin:round;stroke-miterlimit:10;" d="&#10;&#9;&#9;M123.518,244.685c-3.977,3.468-7.707,7.517-11.21,12.104c-4.478,5.864-11.076,9.751-18.366,10.882&#10;&#9;&#9;c-5.93,0.919-12.325,0.947-18.963,0.507c-3.53-0.234-6.827,1.958-7.81,5.357c-2.013,6.963-1.062,13.486,2.757,19.582&#10;&#9;&#9;c1.807,2.884,5.391,4.169,8.632,3.133c9.781-3.127,19.368-3.756,28.629-0.193c2.126,0.818,3.108,3.293,2.042,5.306&#10;&#9;&#9;c-4.031,7.609-6.381,20.88-7.056,33.403c-0.555,10.298,5.86,19.869,15.741,22.822c0.132,0.04,0.265,0.078,0.398,0.116&#10;&#9;&#9;c9.46,2.705,19.587-1.141,25.012-9.35c0.301-0.455,0.603-0.91,0.906-1.365V235.254"/>
	<path style="fill:none;stroke:#000000;stroke-width:15;stroke-linecap:round;stroke-linejoin:round;stroke-miterlimit:10;" d="&#10;&#9;&#9;M203.537,235.254v111.735c0.303,0.455,0.606,0.91,0.906,1.365c5.425,8.209,15.552,12.055,25.012,9.35&#10;&#9;&#9;c0.133-0.038,0.266-0.077,0.398-0.116c9.881-2.953,16.296-12.524,15.741-22.822c-0.675-12.523-3.025-25.794-7.056-33.403&#10;&#9;&#9;c-1.067-2.013-0.085-4.488,2.042-5.306c9.261-3.563,18.848-2.934,28.629,0.193c3.241,1.036,6.826-0.249,8.632-3.133&#10;&#9;&#9;c3.819-6.096,4.77-12.618,2.757-19.582c-0.982-3.399-4.279-5.591-7.81-5.357c-6.638,0.439-13.033,0.412-18.963-0.507&#10;&#9;&#9;c-7.291-1.131-13.888-5.018-18.366-10.882c-3.503-4.586-7.233-8.636-11.21-12.104"/>
	<path style="fill:none;stroke:#000000;stroke-width:15;stroke-linecap:round;stroke-linejoin:round;stroke-miterlimit:10;" d="&#10;&#9;&#9;M123.518,358.537c-3.977,3.468-7.707,7.517-11.21,12.104c-4.478,5.863-11.076,9.751-18.366,10.882&#10;&#9;&#9;c-5.93,0.919-12.325,0.947-18.964,0.507c-3.53-0.234-6.827,1.958-7.809,5.357c-2.013,6.963-1.062,13.486,2.757,19.581&#10;&#9;&#9;c1.807,2.884,5.391,4.169,8.632,3.133c9.781-3.127,19.368-3.756,28.629-0.193c2.126,0.818,3.108,3.293,2.042,5.306&#10;&#9;&#9;c-4.031,7.609-6.381,20.88-7.056,33.403c-0.555,10.298,5.86,19.869,15.741,22.822c0.132,0.04,0.265,0.078,0.398,0.117&#10;&#9;&#9;c9.46,2.705,19.587-1.142,25.012-9.35c8.52-12.891,18.096-26.132,30.559-25.906c12.464-0.226,22.04,13.015,30.56,25.906&#10;&#9;&#9;c5.425,8.208,15.552,12.055,25.012,9.35c0.133-0.038,0.266-0.077,0.398-0.117c9.881-2.953,16.296-12.524,15.741-22.822&#10;&#9;&#9;c-0.675-12.523-3.025-25.794-7.056-33.403c-1.067-2.013-0.085-4.488,2.042-5.306c9.261-3.563,18.848-2.934,28.629,0.193&#10;&#9;&#9;c3.241,1.036,6.826-0.249,8.632-3.133c3.819-6.096,4.77-12.618,2.757-19.581c-0.982-3.399-4.279-5.591-7.81-5.357&#10;&#9;&#9;c-6.638,0.439-13.033,0.412-18.964-0.507c-7.291-1.131-13.888-5.018-18.366-10.882c-3.503-4.587-7.233-8.636-11.21-12.104"/>
	<path style="fill:none;stroke:#000000;stroke-width:15;stroke-linecap:round;stroke-linejoin:round;stroke-miterlimit:10;" d="&#10;&#9;&#9;M205.084,349.243c-5.966-0.637-12.118,0.468-17.63,3.328l-13.57,7.041l-13.57-7.041c-5.513-2.86-11.665-3.965-17.63-3.328"/>
</g>















</svg>
