<?xml version="1.0" encoding="UTF-8" standalone="no"?>
<!-- Created with Inkscape (http://www.inkscape.org/) -->

<svg
   version="1.1"
   id="svg1413"
   xml:space="preserve"
   width="682.66669"
   height="682.66669"
   viewBox="0 0 682.66669 682.66669"
   xmlns="http://www.w3.org/2000/svg"
   xmlns:svg="http://www.w3.org/2000/svg"><defs
     id="defs1417"><clipPath
       clipPathUnits="userSpaceOnUse"
       id="clipPath1427"><path
         d="M 0,512 H 512 V 0 H 0 Z"
         id="path1425" /></clipPath></defs><g
     id="g1419"
     transform="matrix(1.3333333,0,0,-1.3333333,0,682.66667)"><g
       id="g1421"><g
         id="g1423"
         clip-path="url(#clipPath1427)"><g
           id="g1429"
           transform="translate(403.2578,386.2764)"><path
             d="M 0,0 -20.208,-116.171 95.964,-95.964 68.598,-68.598 98.742,-38.454 57.51,2.779 27.366,-27.365 Z"
             style="fill:none;stroke:#000000;stroke-width:20;stroke-linecap:round;stroke-linejoin:round;stroke-miterlimit:10;stroke-dasharray:none;stroke-opacity:1"
             id="path1431" /></g><g
           id="g1433"
           transform="translate(108.7422,386.2764)"><path
             d="m 0,0 20.208,-116.171 -116.172,20.207 27.366,27.366 -30.144,30.144 41.232,41.233 30.144,-30.144 z"
             style="fill:none;stroke:#000000;stroke-width:20;stroke-linecap:round;stroke-linejoin:round;stroke-miterlimit:10;stroke-dasharray:none;stroke-opacity:1"
             id="path1435" /></g><g
           id="g1437"
           transform="translate(365.0132,225.0835)"><path
             d="m 0,0 c 0,0 0,0.001 0,0.001 -4.363,9.269 -9.489,18.371 -15.425,27.294 -3.193,4.79 -6.555,9.525 -10.118,14.193 h -166.94 c -3.564,-4.668 -6.925,-9.403 -10.118,-14.193 -5.936,-8.923 -11.063,-18.025 -15.425,-27.294 0,0 0,-0.001 0,-0.001 -30.019,-63.848 -0.889,-146.222 29.164,-215.083 H -29.164 C 0.888,-146.222 30.019,-63.848 0,0 Z"
             style="fill:none;stroke:#000000;stroke-width:20;stroke-linecap:round;stroke-linejoin:round;stroke-miterlimit:10;stroke-dasharray:none;stroke-opacity:1"
             id="path1439" /></g><g
           id="g1441"
           transform="translate(350.6489,377.9722)"><path
             d="m 0,0 h -189.956 c 0.034,-0.043 0.067,-0.086 0.1,-0.13 0,0 24.779,-75.264 17.921,-103.394 -1.821,-2.24 -5.902,-7.509 -6.183,-7.876 H -11.18 c -0.27,0.367 -4.992,6.428 -7.151,9.046 C -24.57,-74.714 -0.095,-0.13 -0.095,-0.13 -0.063,-0.086 -0.032,-0.043 0,0 Z"
             style="fill:none;stroke:#000000;stroke-width:20;stroke-linecap:round;stroke-linejoin:round;stroke-miterlimit:10;stroke-dasharray:none;stroke-opacity:1"
             id="path1443" /></g><g
           id="g1445"
           transform="translate(351.0493,378.4883)"><path
             d="m 0,0 h -0.007 l 0.005,0.002 c 25.216,32.972 28.58,85.288 6.741,120.613 -2.338,3.781 -201.696,3.781 -203.623,0.468 -20.974,-36.11 -19.217,-87.943 6.126,-121.081 L -190.754,0 h -0.008 c 0.135,-0.17 0.271,-0.34 0.406,-0.516 H -0.4 C -0.271,-0.34 -0.136,-0.17 0,0 Z"
             style="fill:none;stroke:#000000;stroke-width:20;stroke-linecap:round;stroke-linejoin:round;stroke-miterlimit:10;stroke-dasharray:none;stroke-opacity:1"
             id="path1447" /></g><g
           id="g1449"
           transform="translate(362.3633,225.6733)"><path
             d="M 0,0 -106.692,-71.68 -213.055,-0.326"
             style="fill:none;stroke:#000000;stroke-width:20;stroke-linecap:round;stroke-linejoin:round;stroke-miterlimit:10;stroke-dasharray:none;stroke-opacity:1"
             id="path1451" /></g><g
           id="g1453"
           transform="translate(255.6714,150.6509)"><path
             d="M 0,0 V -137.662"
             style="fill:none;stroke:#000000;stroke-width:20;stroke-linecap:round;stroke-linejoin:round;stroke-miterlimit:10;stroke-dasharray:none;stroke-opacity:1"
             id="path1455" /></g></g></g></g></svg>
