<svg id="Layer_1" enable-background="new 0 0 472 472" viewBox="0 0 472 472" xmlns="http://www.w3.org/2000/svg"><g><g><path d="m385.989 15.192c-11.247-9.449-25.926-15.192-41.979-15.192-19.998 0-37.876 8.896-49.621 22.795l-34.129 5.72-102.532-18.357-.881-.157-108.385 19.404v93.82c-15.283 4.134-26.221 18.209-26.221 34.059v31.291c-17.568 7.412-21.398 16.181-21.398 22.392 0 6.292 3.8 11.733 10.212 16.284-5.984 23.813-8.47 54.774 1.711 74.162 4.987 9.495 13.251 17.23 24.627 23.071-23.055 17.346-37.393 44.847-37.393 74.509v73.007h261c8.404 0 15.539-5.49 18.038-13.067l84.577-15.144 108.385 19.406v-432.603zm-41.979-5.192c29.776 0 54 23.202 54 51.722 0 42.057-42.35 77.121-53.933 85.922-11.548-9.146-54.067-45.569-54.067-85.922 0-28.52 24.224-51.722 54-51.722zm-78.779 27.822 21.509-3.604c-4.297 8.288-6.73 17.625-6.73 27.504 0 26.283 15.201 50.288 30.446 67.757v17.83h-45.225zm-103.385-16.768 46.016 8.239v118.016h-46.016zm-103.384 16.72 93.384-16.72v126.254h-2.386c-6.233-21.219-31.327-31.458-50.757-20.974-3.36 1.814-7.011 2.817-10.693 3.021v-28.616h-10v27.143c-1.18-.426-2.341-.93-3.465-1.536l-.121-.065c-5.043-2.716-10.496-4.124-15.961-4.26v-84.247zm-26.221 119.51c0-18.888 20.959-31.194 37.554-22.137 10.538 5.677 23.121 5.672 33.656-.012 16.557-8.944 37.457 3.318 37.457 22.189v34.506c-1.663 3.795-21.569 10.76-54.333 10.76s-52.67-6.965-54.333-10.76v-34.546zm-21.398 53.683c0-3.999 5.21-8.646 13.86-12.556 9.113 11.02 41.501 14.18 61.871 14.18s52.758-3.159 61.871-14.179c8.65 3.911 13.86 8.557 13.86 12.555 0 9.623-28.811 23.045-75.731 23.045-46.921 0-75.731-13.422-75.731-23.045zm160.783-4.485h38.113c-6.869 8.045-11.002 18.358-11.002 29.589 0 27.671 22.422 51.869 35.657 63.742h-75.168c12.494-22.458 7.949-53.191 2.964-72.634 6.353-4.536 10.115-9.954 10.115-16.213 0-1.381-.191-2.891-.679-4.484zm113.111 29.589c0 29.231-28.614 53.89-37.937 61.146-9.311-7.523-38.063-33.038-38.063-61.146 0-20.123 17.047-36.495 38-36.495s38 16.372 38 36.495zm-1.002-29.589h26.721v93.331h-51.045c13.311-11.639 35.326-35.201 35.326-63.742 0-11.231-4.133-21.544-11.002-29.589zm-197.161 87.576c-22.257 0-40.364-18.107-40.364-40.364v-13.415c12.615 2.468 26.631 3.733 40.364 3.733s27.749-1.266 40.364-3.733v13.415c0 22.256-18.107 40.364-40.364 40.364zm18.761 6.361v13.929c0 10.346-8.417 18.762-18.762 18.762s-18.762-8.416-18.762-18.762v-13.929c11.959 4.819 25.567 4.819 37.524 0zm10-5.418c13.045-9.111 21.603-24.225 21.603-41.308v-15.707c5.967-1.589 11.448-3.486 16.227-5.682 4.902 20.368 8.628 51.676-7.881 69.954-5.372 5.947-12.478 10.896-21.108 14.76-2.863-1.547-5.814-2.937-8.841-4.184zm-93.715 1.761c-8.508-16.2-6.369-43.53-1.513-64.401 4.749 2.172 10.187 4.051 16.103 5.626v15.707c0 17.083 8.557 32.197 21.602 41.308v17.82c-3.67 1.514-7.204 3.259-10.601 5.198-12.277-5.152-20.883-12.294-25.591-21.258zm90.653 165.238h-67.755v-35.475h-10v35.475h-24.518v-63.007c0-32.722 19.546-62.508 49.187-75.867 3.72 11.578 14.588 19.983 27.387 19.983 12.795 0 23.661-8.401 27.384-19.975 6.829 3.069 13.188 7.017 18.976 11.804-.001.067-.01.133-.01.2v11.384h-3.924c-10.477 0-19 8.523-19 19v87.478c0 3.255.825 6.319 2.273 9zm157.727-9c0 4.963-4.038 9-9 9h-132c-4.962 0-9-4.037-9-9v-71.518h150zm0-81.518h-150v-5.96c0-4.963 4.038-9 9-9h52.404l10.434-22.975c.809-1.781 2.596-2.933 4.552-2.933h28.592c1.957 0 3.744 1.151 4.552 2.933l10.434 22.975h21.032c4.962 0 9 4.037 9 9zm-127.077-24.96v-11.384c0-.552.449-1 1-1h14.919c.551 0 1 .448 1 1v11.384zm215.693 88.004-47.388 8.484v-75.071h32.256c5.416 0 10.549-1.238 15.132-3.444zm103.384 16.72-93.384-16.72v-77.26c6.12-6.316 9.898-14.918 9.898-24.391v-20.789h83.486zm0-149.161h-93.486v30.789c0 13.821-11.229 25.065-25.03 25.065h-42.256v86.861l-21.228 3.802v-83.079c0-10.477-8.523-19-19-19h-14.59l-7.77-17.109c-2.427-5.345-7.788-8.798-13.658-8.798h-28.592c-5.87 0-11.231 3.453-13.658 8.798l-7.77 17.109h-5.121v-11.384c0-6.065-4.935-11-11-11h-14.919c-2.269 0-4.379.691-6.132 1.873-1.198-.946-2.414-1.865-3.651-2.752 6.937-3.754 12.881-8.257 17.757-13.447h168.559v-113.331h-48.582c-7.316-4.375-15.926-6.906-25.137-6.906s-17.821 2.531-25.137 6.906h-57.106c-3.19-2.692-7.585-5.382-13.587-7.914v-5.199h20.095v-10h-20.095v-16.044c0-.006-.001-.011-.001-.017h66.955v-126.225l37.369 6.69v119.535h65.225v-17.2c8.095 8.004 15.154 13.678 18.554 16.286v32.074h10v-32.005c3.585-2.632 11.049-8.409 19.504-16.676v125.043h93.488zm0-47.253h-83.486v-117.074h83.486zm0-127.074h-82.229c4.391-5.154 8.714-10.864 12.609-17.041h6.548v-10h-.875c3.344-6.631 6.072-13.686 7.821-21.084h56.126zm0-58.125h-54.412c.276-2.603.422-5.241.422-7.911 0-12.715-4.01-24.543-10.871-34.374l64.861 11.613z"/></g><g><g><g><g><path d="m422.953 100.717h12.014v10h-12.014z"/></g></g><g><g><path d="m339.01 204.195h10v12.361h-10z"/></g></g><g><g><path d="m339.01 231.608h10v12.506h-10z"/></g></g><g><g><path d="m295.22 330.318h37.777v10h-37.777z"/></g></g><g><g><path d="m267.151 330.318h13.034v10h-13.034z"/></g></g><g><g><path d="m432.746 279.208h13.034v10h-13.034z"/></g></g><g><g><path d="m381.72 279.208h36.993v10h-36.993z"/></g></g><g><g><path d="m256.777 173.365h64.345v10h-64.345z"/></g></g><g><g><path d="m216.737 173.365h14.345v10h-14.345z"/></g></g><g><g><path d="m230.902 135.076h10v12.361h-10z"/></g></g><g><g><path d="m230.902 66.989h10v52.361h-10z"/></g></g><g><g><path d="m186.697 173.365h14.345v10h-14.345z"/></g></g><g><g><path d="m339.01 261.167h10v52.082h-10z"/></g></g><g><g><path d="m430.01 333.722h10v10.202h-10z"/></g></g><g><g><path d="m430.01 356.346h10v10.321h-10z"/></g></g><g><g><path d="m430.01 380.739h10v42.982h-10z"/></g></g><g><g><path d="m78.01 53.722h10v10.202h-10z"/></g></g><g><g><path d="m78.01 76.346h10v10.321h-10z"/></g></g></g></g><g><g><path d="m344.01 93.655c-17.125 0-31.056-13.375-31.056-29.815s13.932-29.816 31.056-29.816 31.056 13.376 31.056 29.816-13.932 29.815-31.056 29.815zm0-49.632c-11.61 0-21.056 8.89-21.056 19.816s9.446 19.815 21.056 19.815 21.056-8.89 21.056-19.815c-.001-10.926-9.446-19.816-21.056-19.816z"/></g></g><g><g><path d="m246.737 260.775c-13.228 0-23.99-10.387-23.99-23.154s10.762-23.154 23.99-23.154 23.99 10.387 23.99 23.154-10.762 23.154-23.99 23.154zm0-36.308c-7.714 0-13.99 5.901-13.99 13.154s6.276 13.154 13.99 13.154 13.99-5.901 13.99-13.154-6.276-13.154-13.99-13.154z"/></g></g><g><g><path d="m34.518 405.773h10v10.752h-10z"/></g></g><g><g><g><g><path d="m195 453.345c-17.461 0-31.667-14.263-31.667-31.793s14.206-31.793 31.667-31.793 31.667 14.263 31.667 31.793-14.206 31.793-31.667 31.793zm0-53.586c-11.947 0-21.667 9.776-21.667 21.793s9.72 21.793 21.667 21.793 21.667-9.776 21.667-21.793-9.72-21.793-21.667-21.793z"/></g></g><g><g><circle cx="195" cy="421.552" r="10"/></g></g></g><g><g><path d="m132.592 390.934h10.341v10h-10.341z"/></g></g><g><g><path d="m248.714 390.934h10.342v10h-10.342z"/></g></g></g></g><g/><g/><g/><g/><g/><g/><g/><g/><g/><g/><g/><g/><g/><g/><g/></svg>