<svg id="Layer_1" enable-background="new 0 0 500 500" viewBox="0 0 500 500" xmlns="http://www.w3.org/2000/svg"><g><path d="m167.44 465.261c-1.112 0-2.223-.222-3.268-.67-34.737-14.885-54.251-35.413-57.994-61.029-7.545-51.621 53.352-103.064 55.95-105.229 3.073-2.56 7.55-2.56 10.623 0 2.598 2.166 63.495 53.608 55.95 105.229-3.743 25.616-23.255 46.144-57.994 61.029-1.044.448-2.154.67-3.267.67zm0-149.387c-13.904 13.108-49.909 50.79-44.84 85.317 2.751 18.757 17.83 34.457 44.84 46.711 27.009-12.254 42.088-27.954 44.841-46.711 5.068-34.527-30.936-72.208-44.841-85.317z"/><path d="m215.349 465.228c-4.48 0-8.169-3.57-8.288-8.074-.122-4.579 3.494-8.393 8.074-8.512 53.67-1.425 67.721-56.643 71.223-79.24-14.226 1.183-41.74 4.78-64.155 15.522-4.14 1.993-9.087.238-11.067-3.894-1.983-4.132-.238-9.09 3.894-11.066 34.896-16.72 78.711-17.688 80.558-17.719 2.474.118 4.539.891 6.138 2.555 1.601 1.674 2.43 3.936 2.29 6.243-2.142 35.284-23.383 102.459-88.443 104.182-.074.003-.149.003-.224.003z"/><path d="m116.214 465.077c-.181 0-.362-.006-.546-.017-62.33-4.05-82.726-69.81-84.803-104.019-.141-2.306.688-4.569 2.289-6.243 1.599-1.669 3.638-2.55 6.138-2.555 1.847.032 45.661.999 80.559 17.719 4.131 1.977 5.876 6.935 3.894 11.066-1.98 4.132-6.927 5.887-11.066 3.894-22.473-10.77-49.95-14.355-64.156-15.528 3.435 22.165 17.021 75.779 68.22 79.106 4.571.297 8.039 4.245 7.742 8.82-.285 4.387-3.934 7.757-8.271 7.757z"/><path d="m393.588 465.261h-114.856c-4.583 0-8.296-3.715-8.296-8.296 0-4.579 3.713-8.295 8.296-8.295h114.856c14.483 0 26.599-11.126 27.007-24.806.21-6.994-2.352-13.604-7.213-18.617-4.863-5.011-11.39-7.771-18.373-7.771h-3.354c-4.583 0-8.296-3.716-8.296-8.296v-3.743c0-24.25 15.061-46.398 38.364-56.422 22.286-9.587 36.685-31.444 36.685-55.677v-101.754c0-.964-.783-1.747-1.747-1.747h-300.305c-.964 0-1.747.783-1.747 1.747v107.16c0 .978.022 1.95.068 2.917.224 4.575-3.303 8.469-7.88 8.69-4.599.135-8.469-3.305-8.69-7.88-.062-1.237-.088-2.479-.088-3.726v-107.16c0-10.112 8.225-18.338 18.338-18.338h300.305c10.113 0 18.339 8.226 18.339 18.338v101.754c0 30.871-18.339 58.706-46.72 70.917-15.816 6.805-26.491 21.009-28.114 36.936 9.539 1.151 18.317 5.488 25.122 12.504 8.015 8.258 12.236 19.146 11.893 30.666-.679 22.552-20.232 40.899-43.594 40.899z"/><path d="m391.655 397.476h-67.44c-4.583 0-8.296-3.716-8.296-8.296s3.713-8.296 8.296-8.296h67.44c4.582 0 8.295 3.716 8.295 8.296 0 4.579-3.713 8.296-8.295 8.296z"/><path d="m445.517 331.315h-217.674c-4.582 0-8.295-3.716-8.295-8.295 0-4.58 3.713-8.296 8.295-8.296h217.674c4.582 0 8.296 3.716 8.296 8.296s-3.714 8.295-8.296 8.295z"/><path d="m370.252 223.251h-223.939c-4.582 0-8.295-3.715-8.295-8.296 0-4.58 3.713-8.295 8.295-8.295h223.939c4.582 0 8.295 3.715 8.295 8.295 0 4.581-3.713 8.296-8.295 8.296z"/><path d="m466.704 223.251h-55.026c-4.582 0-8.295-3.715-8.295-8.296 0-4.58 3.713-8.295 8.295-8.295h55.026c4.583 0 8.296 3.715 8.296 8.295 0 4.581-3.713 8.296-8.296 8.296z"/><path d="m390.15 169.703h-70.232c-3.284 0-6.257-1.937-7.585-4.94-1.329-3.002-.762-6.508 1.448-8.936l84.417-92.866c12.722-13.996 34.462-15.033 48.456-2.309 6.78 6.162 10.755 14.596 11.191 23.748.437 9.152-2.717 17.928-8.882 24.706l-52.676 57.886c-1.573 1.725-3.801 2.711-6.137 2.711zm-51.48-16.592h47.813l50.206-55.169c3.178-3.497 4.81-8.028 4.583-12.751-.224-4.726-2.277-9.082-5.776-12.262-3.502-3.181-8.039-4.796-12.76-4.585-4.726.224-9.078 2.276-12.262 5.776z"/><path d="m428.637 127.427c-1.99 0-3.988-.713-5.576-2.158l-38.489-34.987c-3.392-3.081-3.64-8.328-.559-11.717 3.081-3.391 8.328-3.64 11.717-.559l38.489 34.987c3.391 3.081 3.64 8.328.559 11.717-1.637 1.802-3.886 2.717-6.141 2.717z"/><path d="m450.766 465.261h-417.47c-4.583 0-8.296-3.715-8.296-8.296 0-4.579 3.713-8.295 8.296-8.295h417.47c4.583 0 8.296 3.716 8.296 8.295 0 4.58-3.713 8.296-8.296 8.296z"/><path d="m167.44 417.031c-4.582 0-8.295-3.715-8.295-8.296v-48.197c0-4.58 3.713-8.295 8.295-8.295 4.583 0 8.296 3.716 8.296 8.295v48.197c0 4.581-3.713 8.296-8.296 8.296z"/><path d="m194.998 133.557c-3.288 0-6.399-1.968-7.701-5.207l-4.469-11.131c-4.617-11.498-3.821-24.8 2.131-35.581 3.737-6.77 4.077-15.068.91-22.195l-5.803-13.04c-1.861-4.186.022-9.09 4.208-10.953 4.191-1.85 9.092.024 10.952 4.207l5.804 13.043c5.265 11.85 4.687 25.662-1.545 36.955-3.57 6.465-4.039 14.455-1.258 21.379l4.469 11.132c1.707 4.253-.356 9.084-4.606 10.79-1.018.407-2.063.601-3.092.601z"/><path d="m244.715 133.557c-3.288 0-6.399-1.968-7.701-5.207l-4.469-11.131c-4.617-11.498-3.821-24.8 2.131-35.581 3.737-6.77 4.077-15.068.91-22.195l-5.803-13.04c-1.861-4.186.022-9.09 4.208-10.953 4.196-1.85 9.095.024 10.952 4.207l5.804 13.043c5.265 11.85 4.687 25.662-1.545 36.955-3.57 6.465-4.04 14.455-1.259 21.379l4.469 11.132c1.707 4.253-.356 9.084-4.606 10.79-1.017.407-2.062.601-3.091.601z"/><path d="m294.432 133.557c-3.288 0-6.399-1.968-7.701-5.207l-4.469-11.131c-4.617-11.498-3.821-24.8 2.131-35.581 3.737-6.772 4.075-15.068.907-22.195l-5.801-13.043c-1.861-4.185.022-9.089 4.21-10.95 4.191-1.85 9.09.024 10.95 4.21l5.801 13.042c5.268 11.845 4.69 25.66-1.541 36.952-3.57 6.465-4.04 14.455-1.259 21.379l4.469 11.132c1.707 4.253-.356 9.084-4.606 10.79-1.017.408-2.062.602-3.091.602z"/><path d="m81.349 326.136c-4.582 0-8.295-3.716-8.295-8.296v-156.298c0-4.583 3.713-8.296 8.295-8.296 4.583 0 8.296 3.713 8.296 8.296v156.298c0 4.581-3.713 8.296-8.296 8.296z"/></g></svg>