<svg clip-rule="evenodd" fill-rule="evenodd" height="1.707in" image-rendering="optimizeQuality" shape-rendering="geometricPrecision" text-rendering="geometricPrecision" viewBox="0 0 1707 1707" width="1.707in" xmlns="http://www.w3.org/2000/svg"><g id="Layer_x0020_1"><path d="m410 1478c-9 0-18-5-24-12l-99-130h-42c-102 0-185 83-185 185v125h138v-95c0-39 60-39 60 0v95h479v-95c0-39 60-39 60 0v95h137v-64c-67-63-115-146-135-239-31-9-60-7-92-7l-99 130c-12 15-35 16-47 0l-64-79-63 79c-6 7-15 12-24 12zm342-431 101-32c19-32 42-62 68-89 216-218 575-169 726 95v-823l-471-136-678 251c-8 3-16 3-23 0l-415-191v841l172 66c-31-54-70-149-52-221-57-94-16-465 275-389 121 31 64 53 225 62 112 6 152 33 153 104 2 84 50 117-18 218 29 80-23 186-63 244zm65 42-153 49v59l46 79c27 0 53-1 80 3-4-65 5-130 27-190zm-488 41-310-118c-11-5-19-16-19-28v-909c0-22 23-36 43-27l445 205 677-251c6-2 12-2 18 0l502 144c13 4 22 16 22 29v909c0 13-9 24-21 28 91 295-130 594-438 594-94 0-181-28-254-76 0 31 8 76-30 76-311 0-622 0-934 0-16 0-30-13-30-30v-155c0-135 110-245 245-245h40l46-79v-66zm28-53c46 27 80 42 140 42 219 0 292-256 259-302-52-63-274 20-345-24-35-22-71-42-94-42-20 0-40 16-77 65-12 34-1 90 28 151 25 54 50 85 89 110zm589 430c17-17 41-50 67-25 26 26-8 51-25 68 150 129 370 129 520 0-17-17-51-42-25-68 25-25 50 8 67 25 129-149 129-370 0-519-16 16-41 51-67 25s8-51 25-68c-150-128-370-128-520 0 17 17 51 42 25 68s-52-9-67-25c-129 149-129 370 0 519zm302 80c-14 0-26-9-29-22l-59-230-230-58c-29-8-29-51 0-59l230-58 59-230c7-30 50-30 58 0l59 230 229 58c30 8 30 51 0 59l-229 58-59 230c-4 13-16 22-29 22zm-189-339 133 34c11 2 19 11 22 21l34 134 34-134c3-10 11-19 22-21l133-34-133-35c-11-2-19-11-22-21l-34-133-34 133c-3 10-11 19-22 21zm196 30c-16 0-45 0-45-30 0-41 75-41 75 0 0 16-13 30-30 30zm259-531c-11 0-23-7-27-19l-140-354-296 282c-15 14-40 9-48-10l-138-307c-16-36 38-60 55-24l120 268 298-283c15-15 40-9 48 11l156 395c8 20-7 41-28 41zm-379-374c-51 0-93-42-93-94 0-51 42-93 93-93s93 42 93 93c0 52-42 94-93 94zm0-127c-44 0-44 67 0 67s44-67 0-67zm-950 167c-47 0-84-37-84-84 0-46 37-84 84-84 46 0 84 38 84 84 0 47-38 84-84 84zm0-108c-32 0-32 48 0 48 31 0 31-48 0-48zm1074 405c-26 0-40-33-21-51l15-15c-12-12-38-34-15-57s45 3 57 14c12-11 34-37 57-14s-3 45-15 57c12 12 38 34 15 57-24 24-46-3-57-15-12 12-20 24-36 24zm-892 543-29 51 73 95 46-58zm171 88 46 58 72-95-29-51zm-147-180v31l106 105 107-105v-31c-69 24-144 25-213 0zm276-429c45 0 81 7 108 24 37-64 0-82-2-169-1-25-1-41-96-46-174-10-128-36-237-64-191-50-236 153-219 267 72-81 128-60 222-2 25 15 166-10 224-10z"/></g></svg>