<svg clip-rule="evenodd" fill-rule="evenodd" height="512" image-rendering="optimizeQuality" shape-rendering="geometricPrecision" text-rendering="geometricPrecision" viewBox="0 0 1.70666 1.70666" width="512" xmlns="http://www.w3.org/2000/svg"><g id="Layer_x0020_1"><g id="_401638744"><g><path id="_401640232" d="m1.08747 1.59985h-1.06733c-.0110394 0-.02-.0089685-.02-.0199961v-.22624c0-.135768.110457-.24622.24622-.24622h.175693v-.0957717c0-.0073189.004-.0140669.0104291-.0175669.00644488-.00351181.0142598-.00319685.0204094.00077559.0659055.0425748.135894.0425906.201799 0 .00614961-.00397244.0139803-.00429134.0204094-.00077559.00642913.0035.0104291.0102323.0104291.0175669v.0957717h.175713c.135768 0 .24622.110453.24622.24622v.22624c.00001575.0110276-.00895276.0199961-.0199961.0199961zm-1.04733-.0400039h1.02732v-.206244c0-.113701-.0925157-.206224-.206228-.206224h-.195661c-.0110354 0-.0199961-.00897244-.0199961-.0199961v-.0817756c-.0599213.0282874-.123614.0282717-.183512 0v.0817756c0 .0110354-.00895669.0199961-.0199961.0199961h-.195689c-.113717 0-.206224.0925118-.206224.206224v.206244h-.00001575z" fill="rgb(0,0,0)"/></g><g><path id="_401640400" d="m.553811 1.23124c-.0693898 0-.136339-.041815-.155736-.097248-.0036378-.0104291.00184646-.0218268.0122756-.0254803.0104882-.00359449.0218465.00187402.0254803.0122756.0138189.0395039.0656417.0704449.11798.0704449.0523543 0 .104161-.0309567.117996-.0704449.0036378-.0104134.0150118-.0158976.0254803-.0122756.0104134.00365354.0159134.0150512.0122756.0254803-.0194016.0554331-.0863622.097248-.155752.097248z" fill="rgb(0,0,0)"/></g><g><path id="_401640568" d="m.173346 1.59985c-.0110354 0-.0199961-.0089685-.0199961-.0199961v-.209756c0-.0110354.00896063-.0199961.0199961-.0199961.0110394 0 .0199961.0089685.0199961.0199961v.209756c0 .0110276-.00895276.0199961-.0199961.0199961z" fill="rgb(0,0,0)"/></g><g><path id="_401640712" d="m.173346 1.47802h-.153205c-.0110394 0-.02-.0089685-.02-.0199961s.00896063-.0199961.02-.0199961h.153205c.0110394 0 .0199961.0089685.0199961.0199961s-.00895276.0199961-.0199961.0199961z" fill="rgb(0,0,0)"/></g><g><path id="_401640880" d="m.934276 1.59985c-.0110354 0-.0199961-.0089685-.0199961-.0199961v-.209756c0-.0110354.0089685-.0199961.0199961-.0199961s.0199961.0089685.0199961.0199961v.209756c.00001181.0110276-.00895669.0199961-.0199961.0199961z" fill="rgb(0,0,0)"/></g><g><path id="_401639608" d="m1.08747 1.47802h-.153193c-.0110354 0-.0199961-.0089685-.0199961-.0199961s.0089685-.0199961.0199961-.0199961h.153193c.0110354 0 .0199961.0089685.0199961.0199961s-.00895276.0199961-.0199961.0199961z" fill="rgb(0,0,0)"/></g><g><path id="_401639800" d="m.553811 1.0669c-.134102 0-.239902-.13278-.281461-.25615-.00207087-.00616535-.0010315-.0129567.00281496-.0182047.0273031-.0372441.0355906-.145252.0364921-.183732.00019685-.00819291.0053622-.0154409.0130394-.0182913.00770472-.00280315.0163425-.00070866.0218031.00537402.0405591.0450906.113563.0679449.216972.0679449.111594 0 .217339-.0277008.218409-.0279764.00633465-.0016811.0130787-.00015354.0180669.00408268.00498425.00423622.00759449.0106496.00695669.0171772-.00935827.0965512.0187323.156697.0199409.159205.00238583.00500394.00259843.0107638.00058268.0159134-.0457677.116815-.148126.234657-.273618.234657zm-.240406-.259913c.0390079.10761.129161.219906.240417.219906.104091 0 .191315-.100134.233394-.201772-.00761024-.0195236-.0243425-.0713346-.0218858-.144268-.0397441.0086378-.118386.023-.201831.023-.0925669 0-.164335-.017626-.214114-.0524803-.0036063.0452992-.0127874.115496-.0359803.155614z" fill="rgb(0,0,0)"/></g><g><path id="_401639440" d="m.808866.845067c-.0010315 0-.00205906-.00008268-.00309843-.00023622-.00645669-.00101181-.0120118-.00512205-.014874-.011-.00129134-.00262598-.0287874-.0603346-.0255787-.152976-.0397598.0086378-.118398.0229843-.201815.0229843-.0925669 0-.164335-.017626-.214114-.0524803-.00390157.0490197-.0143465.127185-.0419685.164846-.0038622.00526378-.0100984.00834646-.0165945.00816929-.00653937-.00015354-.0125787-.00348819-.0161929-.00894488-.00618504-.00931496-.15098-.229835-.0956299-.346185.0180984-.038063.0539488-.0607165.106622-.0673898.101965-.0984016.211701-.150366.317681-.150366.129177 0 .242346.0771535.29535.201358.0559921.131201.0271181.279134-.0753622.386059-.0037874.0039685-.00901181.00616142-.0144252.00616142zm-.0218465-.20987c.00469291 0 .00929134.00165354.0129606.00476772.00498425.00423622.00759449.0106496.00695669.0171614-.00552362.0570433.00212598.10161.00948425.128898.0731024-.0923307.0908189-.211213.0454646-.317488-.0466024-.109217-.145681-.177051-.258567-.177051-.0970118 0-.198894.0497126-.29463.143736-.00326378.00320866-.00752756.00519685-.0120827.0056378-.0422008.00411024-.0688504.0190118-.0814882.0455472-.0326614.0686102.0310945.203382.0741142.276756.0161929-.0479094.0217047-.12348.0224252-.154339.00019685-.00819291.0053622-.0154409.0130394-.0182717.00767717-.00283465.0163346-.00070866.0218031.00537402.0405748.0450866.113575.0679449.216972.0679449.111358 0 .217354-.0277008.218409-.0279803.00172047-.00046457.00344488-.00069291.0051378-.00069291z" fill="rgb(0,0,0)"/></g><g><path id="_401640040" d="m.553811 1.59985c-.00806693 0-.0153307-.00484646-.0184528-.0122913l-.18926-.452465c-.00425984-.0101772.00054331-.0218937.0107323-.0261614.0101929-.00426772.0218976.00053937.0261654.0107205l.170807.408362.170803-.408362c.00425984-.0101772.0159803-.0149685.0261654-.0107205.010189.00425984.015.0159685.0107323.0261614l-.18924.452469c-.0031063.00744094-.0103858.0122874-.0184528.0122874z" fill="rgb(0,0,0)"/></g><g><path id="_401639872" d="m.388437 1.59985c-.00719291 0-.0141496-.00390157-.0177165-.0107244l-.107272-.204728c-.00390157-.00744488-.00272441-.0165394.00294094-.0227638l.0330512-.0362047-.065878-.0302559c-.00511417-.00234646-.00898425-.00672441-.0107087-.0120827-.00170472-.00534646-.00109449-.0111772.00170866-.0160394l.0858465-.14961c.0055-.00958661.0177362-.0128858.0273031-.00738976.00956693.0055.0128858.0177008.00738976.0273031l-.0749488.130626.070878.0325512c.0057874.00266535.00998031.00792913.0112441.0141929.00126772.00624803-.00052756.012748-.00483071.0174567l-.042063.0460748.10076.192327c.00512205.00977953.00135039.0218622-.00842913.0269843-.00297244.00154724-.00613386.00228346-.00927559.00228346z" fill="rgb(0,0,0)"/></g><g><path id="_401640016" d="m.719185 1.59985c-.0031378 0-.00630315-.00073622-.00926378-.00229528-.00977953-.00512205-.0135512-.0172047-.00842913-.0269803l.10076-.192331-.042063-.0460748c-.00430315-.00472441-.00609843-.0112047-.00483071-.0174567.00126378-.00625984.00544094-.0115236.0112441-.0141929l.0708661-.0325512-.0749488-.130626c-.0055-.00958268-.00217717-.0218031.00738976-.0273031.00961024-.0055.0218189-.00216929.0273031.00738976l.0858504.14961c.00279134.00487795.00341732.0107087.00169291.0160394-.00170472.0053622-.00558268.00973622-.0107047.0120827l-.0658622.0302598.0330472.0362008c.00566929.00620866.00684646.015315.00294488.0227638l-.107256.204732c-.00359055.00683071-.0105433.0107323-.0177402.0107323z" fill="rgb(0,0,0)"/></g><g><g><path id="_401639944" d="m1.08968 1.11478c-.00296063 0-.00592913-.00066535-.00869291-.002-.00683071-.00329134-.0112205-.0101772-.0112874-.0177756l-.0016811-.141476h-.0343031c-.0272598 0-.0494331-.0221732-.0494331-.049437v-.482913c0-.00606693.00274803-.0117874.0074685-.0155906.00474803-.00379134.0108819-.00523228.0168425-.00394094.00911811.00201181.0185236.00303543.027937.00303543.0378228 0 .0736142-.0165276.0981772-.0453504.0037874-.00445669.00935827-.00702756.0152205-.00702756l.507154-.00000394c.0272598 0 .049437.0221614.049437.0494252v.502382c0 .0272638-.0221772.049437-.049437.049437h-.352854l-.202303.157043c-.00355118.00275984-.00789764.00419291-.0122441.00419291zm-.065374-.670539v.459878c0 .00511417.0043189.00943307.00942913.00943307h.0540433c.0109606 0 .0198701.00881496.0199803.0197756l.00144488.121008.175945-.136575c.0035-.00272441.0078189-.00420866.0122598-.00420866h.359701c.00511024 0 .00943307-.0043189.00943307-.00943307v-.502394c0-.00511417-.00432283-.00943307-.00943307-.00943307h-.498276c-.0346457.0363386-.0842205.0555591-.134528.0519488z" fill="rgb(0,0,0)"/></g><g><path id="_401639728" d="m1.59224.501835h-.332272c-.0110394 0-.0199961-.00895669-.0199961-.0199961 0-.0110394.0089685-.0199961.0199961-.0199961h.332272c.0110394 0 .0199961.00895669.0199961.0199961 0 .0110394-.00895276.0199961-.0199961.0199961zm-.437866 0h-.0557953c-.0110394 0-.0199961-.00895669-.0199961-.0199961 0-.0110394.0089685-.0199961.0199961-.0199961h.0557953c.0110394 0 .0199961.00895669.0199961.0199961 0 .0110394-.00895669.0199961-.0199961.0199961z" fill="rgb(0,0,0)"/></g><g><path id="_401639272" d="m1.59223.576917h-.0557992c-.0110354 0-.0199961-.00895669-.0199961-.0199961 0-.0110354.0089685-.0199961.0199961-.0199961h.0557992c.0110354 0 .0199961.00896063.0199961.0199961 0 .0110394-.00896063.0199961-.0199961.0199961zm-.16139 0h-.33228c-.0110394 0-.0199961-.00895669-.0199961-.0199961 0-.0110354.0089685-.0199961.0199961-.0199961h.33228c.0110354 0 .0199961.00896063.0199961.0199961 0 .0110394-.00896063.0199961-.0199961.0199961z" fill="rgb(0,0,0)"/></g><g><path id="_401638648" d="m1.59224.652004h-.332272c-.0110394 0-.0199961-.00896063-.0199961-.0199961 0-.0110394.0089685-.0199961.0199961-.0199961h.332272c.0110394 0 .0199961.00895669.0199961.0199961 0 .0110354-.00895276.0199961-.0199961.0199961zm-.437866 0h-.0557953c-.0110394 0-.0199961-.00896063-.0199961-.0199961 0-.0110394.0089685-.0199961.0199961-.0199961h.0557953c.0110394 0 .0199961.00895669.0199961.0199961 0 .0110354-.00895669.0199961-.0199961.0199961z" fill="rgb(0,0,0)"/></g><g><path id="_401639008" d="m1.54491.859091h-.398988c-.0191929 0-.034811-.0156102-.034811-.0347874v-.091063c0-.0191811.015626-.0347874.034811-.0347874h.398988c.0191929 0 .0347953.0156063.0347953.0347874v.091063c0 .0191772-.0156063.0347874-.0347953.0347874zm-.393807-.0399921h.388587v-.0806693h-.388587z" fill="rgb(0,0,0)"/></g><g><path id="_401638960" d="m1.03653.444673c-.0931496 0-.168941-.0757756-.168941-.168929 0-.0931575.0757913-.168933.168941-.168933.0931496 0 .168941.0757756.168941.168933 0 .0931535-.0757874.168929-.168941.168929zm0-.297862c-.0711024 0-.128937.0578543-.128937.128937 0 .0710866.0578346.128937.128937.128937.0710984 0 .128937-.0578504.128937-.128937 0-.0710827-.0578386-.128937-.128937-.128937z" fill="rgb(0,0,0)"/></g><g><path id="_401638912" d="m1.01791.337823c-.00530709 0-.0103858-.00211024-.0141496-.0058622l-.046878-.0468819c-.00782283-.00780315-.00782283-.0204685 0-.0282717.0078189-.0078189.0204843-.0078189.0282874 0l.0327283.0327283.0700039-.0700118c.00782283-.00782283.0204843-.00782283.0282913 0 .0078189.00780315.0078189.0204685 0 .0282717l-.0841535.0841535c-.00374409.00377165-.00883858.00587402-.0141299.00587402z" fill="rgb(0,0,0)"/></g></g></g></g></svg>