<svg id="Bahan" viewBox="0 0 64 64" xmlns="http://www.w3.org/2000/svg"><path d="m7.17 30.85h13.16v-2h-8.18v-19.54h20.5v19.54h-8.18v2h13.16a3 3 0 0 0 3-3v-17.54a3 3 0 0 0 -3-3h-9.92v-2.31a2 2 0 0 0 -2-2h-6.62a2 2 0 0 0 -2 2v2.31h-9.92a3 3 0 0 0 -3 3v17.54a3 3 0 0 0 3 3zm27.48-21.54h3a1 1 0 0 1 1 1v17.54a1 1 0 0 1 -1 1h-3zm-15.56-4.31h6.62v2.31h-6.62zm-12.92 5.31a1 1 0 0 1 1-1h3v19.54h-3a1 1 0 0 1 -1-1zm52.66-3h-2.62a1 1 0 0 0 0 2h1.62v3.49a5.25 5.25 0 0 1 -2.33 4.37 3.5 3.5 0 0 0 -5.89 0 5.27 5.27 0 0 1 -2.34-4.37v-3.49h1.62a1 1 0 0 0 0-2h-2.61a1 1 0 0 0 -1 1v4.49a7.26 7.26 0 0 0 3.72 6.35 3.49 3.49 0 0 0 2.51 3.28v16a3.31 3.31 0 1 1 -6.61 0v-1.7a3.61 3.61 0 0 0 -3.61-3.61h-16a2 2 0 0 1 -2-2v-5.12c8.45-1.42 7.61-13.66-1-13.86-8.61.21-9.45 12.44-1 13.86v5.21a4 4 0 0 0 4 4h16a1.62 1.62 0 0 1 1.61 1.61v1.7a5.31 5.31 0 1 0 10.61 0v-16a3.49 3.49 0 0 0 2.51-3.26 7.27 7.27 0 0 0 3.77-6.37v-4.58a1 1 0 0 0 -.96-1zm-36.43 16.74c-6.57-.21-6.57-9.73 0-9.94 6.6.21 6.6 9.73 0 9.94zm30.15-3.45a1.52 1.52 0 0 1 0-3 1.52 1.52 0 0 1 0 3zm3.39 32.62h-1.62l.9-.9c3.54-3.7-1.77-9-5.5-5.5l-6.4 6.4c-1.26-.07-3.59.29-4.67-.53l-8-5.14h7.46a4.37 4.37 0 0 0 0-8.73h-10.69c-2.41-.7-5.7-2.07-8.26-1.52l-5.09 1.29a3 3 0 0 0 -2.81-2h-4.09a3 3 0 0 0 -3 3v17.25a3 3 0 0 0 3 3h4.09a3 3 0 0 0 3-2.56 26.52 26.52 0 0 1 3.35.09c3.21.48 18.38 3.83 21.36 3.63h17c5.09-.13 5.1-7.66-.03-7.78zm-43.68 3.62a1 1 0 0 1 -1 1h-4.09a1 1 0 0 1 -1-1v-3.74a2.5 2.5 0 0 1 2.5-2.5h1.09a2.5 2.5 0 0 1 2.5 2.5zm0-7.48a5.62 5.62 0 0 0 -3.59-.76 4.45 4.45 0 0 0 -2.5.76v-9.74a1 1 0 0 1 1-1h4.09a1 1 0 0 1 1 1zm38.87-1.12a1.89 1.89 0 0 1 2.68 2.66l-2.32 2.32h-5.34zm4.81 10.76c-3-.11-18.28.32-20.88-.36l-17.12-3.24a26.53 26.53 0 0 0 -3.68-.12v-14.68l5.33-1.34a8 8 0 0 1 3.38.28l4 1.23a1 1 0 0 0 .3 0h10.86a2.37 2.37 0 0 1 0 4.73h-10.86a1 1 0 0 0 -.55 1.84l10.85 7a5.32 5.32 0 0 0 2.88.85h15.49a1.89 1.89 0 1 1 0 3.78zm-30.39-39.92a1 1 0 0 1 -1 1h-1.15v1.15a1 1 0 0 1 -2 0v-1.15h-1.15a1 1 0 0 1 0-2h1.15v-1.16a1 1 0 1 1 2 0v1.16h1.15a1 1 0 0 1 1 1z"/></svg>