<?xml version="1.0"?>
<svg xmlns="http://www.w3.org/2000/svg" data-name="Layer 1" id="Layer_1" viewBox="0 0 1000 1000"><title/><path d="M552.91,856.33H215A93.39,93.39,0,0,1,121.75,763V351.91A93.39,93.39,0,0,1,215,258.61H552.91A93.34,93.34,0,0,1,642,324.05a16,16,0,0,1-30.55,9.54,61,61,0,0,0-58.51-43H215a61.36,61.36,0,0,0-61.29,61.3V763A61.35,61.35,0,0,0,215,824.33H552.91a61.69,61.69,0,0,0,48-23.18H554.28a45.26,45.26,0,0,1-45.21-45.21V459.71a16,16,0,1,1,32,0V755.94a13.22,13.22,0,0,0,13.21,13.21H627a16,16,0,0,1,15.33,20.57,94,94,0,0,1-33.16,47.75A92.49,92.49,0,0,1,552.91,856.33Z"/><path d="M630.2,390.25h-3.41A23.64,23.64,0,0,1,609,381.92,28.07,28.07,0,0,1,602.29,362h-48a13.18,13.18,0,0,0-13.2,12.65,16,16,0,1,1-32-1.34A45.09,45.09,0,0,1,554.28,330h66.31a16,16,0,0,1,15.85,18.25L634.92,359a16,16,0,0,1-4.72,31.29Z"/><path d="M525.07,475.71H240.38a41.66,41.66,0,0,1-41.62-41.61V399.63A41.66,41.66,0,0,1,240.38,358H525.09a16,16,0,0,1,0,32H240.38a9.63,9.63,0,0,0-9.62,9.61V434.1a9.63,9.63,0,0,0,9.62,9.61H525.07a16,16,0,0,1,0,32Z"/><path d="M525.07,569.45H214.76a16,16,0,0,1,0-32H525.07a16,16,0,0,1,0,32Z"/><path d="M525.07,663.19H214.76a16,16,0,0,1,0-32H525.07a16,16,0,1,1,0,32Z"/><path d="M525.07,756.93H214.76a16,16,0,0,1,0-32H525.07a16,16,0,0,1,0,32Z"/><path d="M255.14,916h-7.48A47.69,47.69,0,0,1,200,868.37v-28a16,16,0,0,1,16-16h70.73a16,16,0,0,1,16,16v28A47.68,47.68,0,0,1,255.14,916ZM232,856.33v12A15.65,15.65,0,0,0,247.66,884h7.48a15.64,15.64,0,0,0,15.62-15.63v-12Z"/><path d="M520.28,916H512.8a47.68,47.68,0,0,1-47.62-47.63v-28a16,16,0,0,1,16-16h70.73a16,16,0,0,1,16,16v28A47.69,47.69,0,0,1,520.28,916Zm-23.1-59.67v12A15.64,15.64,0,0,0,512.8,884h7.48a15.65,15.65,0,0,0,15.63-15.63v-12Z"/><path d="M508.3,175.32H259.64a45.66,45.66,0,0,1,0-91.32H508.3a45.66,45.66,0,1,1,0,91.32ZM259.64,116a13.66,13.66,0,0,0,0,27.32H508.3a13.66,13.66,0,1,0,0-27.32Z"/><path d="M263.64,290.61a16,16,0,0,1-16-16V159.32a16,16,0,0,1,32,0V274.61A16,16,0,0,1,263.64,290.61Z"/><path d="M323,290.61a16,16,0,0,1-16-16V159.32a16,16,0,0,1,32,0V274.61A16,16,0,0,1,323,290.61Z"/><path d="M445,290.61a16,16,0,0,1-16-16V159.32a16,16,0,1,1,32,0V274.61A16,16,0,0,1,445,290.61Z"/><path d="M504.3,290.61a16,16,0,0,1-16-16V159.32a16,16,0,1,1,32,0V274.61A16,16,0,0,1,504.3,290.61Z"/><path d="M833,801.15H554.28a45.26,45.26,0,0,1-45.21-45.21V375.26c0-.68,0-1.34,0-2A45.07,45.07,0,0,1,554.28,330h66.31a16,16,0,0,1,0,32H554.28a13.18,13.18,0,0,0-13.2,12.65c0,.25,0,.41,0,.57V755.94a13.22,13.22,0,0,0,13.21,13.21H833a13.23,13.23,0,0,0,13.21-13.21V375.26A13.23,13.23,0,0,0,833,362H766.72a16,16,0,0,1,0-32H833a45.27,45.27,0,0,1,45.21,45.22V755.94A45.26,45.26,0,0,1,833,801.15Z"/><path d="M760.53,390.25H626.79A23.64,23.64,0,0,1,609,381.92a28.3,28.3,0,0,1-6.4-22.65L605,342a52.32,52.32,0,0,1,8.52-22.25c7.34-10.68,18.18-17.09,30-17.81a50.36,50.36,0,0,1,47.74-34.39H696a50.5,50.5,0,0,1,47.75,34.39,38.5,38.5,0,0,1,25.63,12.4A50.76,50.76,0,0,1,782.3,342l.26,1.78,2.21,15.56a28.38,28.38,0,0,1-6.42,22.65A23.71,23.71,0,0,1,760.53,390.25Zm-7.45-26.46h0ZM635,358.25H752.3l-1.68-11.75a18.61,18.61,0,0,0-4.45-10.2c-.88-.93-2.62-2.46-4.6-2.46a28.94,28.94,0,0,1-27.87-21A18.39,18.39,0,0,0,696,299.52h-4.78a18.19,18.19,0,0,0-13,5.36,18.41,18.41,0,0,0-4.7,8,28.89,28.89,0,0,1-27.86,20.94c-1.94,0-4.13,1.51-5.87,4a20.13,20.13,0,0,0-3.19,8.58Z"/><path d="M809.05,465.63H686.7a16,16,0,0,1,0-32H809.05a16,16,0,0,1,0,32Z"/><path d="M809.05,552.34H686.7a16,16,0,0,1,0-32H809.05a16,16,0,0,1,0,32Z"/><path d="M809.05,639.06H686.7a16,16,0,0,1,0-32H809.05a16,16,0,0,1,0,32Z"/><path d="M809.05,725.78H686.7a16,16,0,0,1,0-32H809.05a16,16,0,0,1,0,32Z"/><path d="M595.65,481.94a16,16,0,0,1-11.32-4.68L567,459.87a16,16,0,1,1,22.62-22.63l6.08,6.07L617,422a16,16,0,0,1,22.62,22.63L607,477.26A16,16,0,0,1,595.65,481.94Z"/><path d="M595.65,568.66A15.94,15.94,0,0,1,584.33,564L567,546.59A16,16,0,1,1,589.57,524l6.08,6.07L617,508.71a16,16,0,0,1,22.62,22.63L607,564A15.92,15.92,0,0,1,595.65,568.66Z"/><path d="M595.65,655.38a16,16,0,0,1-11.32-4.69L567,633.3a16,16,0,0,1,22.62-22.62l6.08,6.07L617,595.43a16,16,0,0,1,22.62,22.63L607,650.69A16,16,0,0,1,595.65,655.38Z"/><path d="M595.65,742.09h0a16,16,0,0,1-11.32-4.68L567,720a16,16,0,0,1,22.63-22.63l6.07,6.08L617,682.15a16,16,0,0,1,22.62,22.62L607,737.41A16,16,0,0,1,595.65,742.09Z"/></svg>
