<svg id="Layer_1" enable-background="new 0 0 96 96" viewBox="0 0 96 96" xmlns="http://www.w3.org/2000/svg"><path clip-rule="evenodd" d="m32.319 90.007c.01.495-.384.904-.879.914s-.904-.383-.914-.879l-.264-12.096c-.064-2.931-1.088-5.222-2.518-6.892-1.811-2.114-4.261-3.236-6.231-3.401-.25-.021-.468-.142-.617-.321l-4.258-4.533c-1.367-1.455-2.651-1.886-3.802-1.757-.903.102-1.763.538-2.538 1.102l8.91 9.484c.34.361.322.929-.039 1.269s-.929.322-1.269-.039l-9.573-10.19.001-.001-.022-.024c-.326-.373-.288-.939.084-1.265 1.179-1.031 2.618-1.938 4.249-2.121 1.677-.188 3.486.375 5.306 2.312l4.066 4.328c2.308.295 5.06 1.613 7.096 3.99 1.675 1.955 2.873 4.624 2.947 8.023zm15.843-49.815 3.338 4.346c.125.163.184.355.184.545h.002v17.751h15.448v-14.453c0-3.974-1.626-7.587-4.246-10.207-2.568-2.568-6.09-4.181-9.971-4.244zm1.726 22.642v-17.449l-8.795-11.45c-3.801.114-7.247 1.715-9.771 4.239-2.62 2.62-4.246 6.233-4.246 10.207v14.453zm24.056-30.25c1.103-.229 2.091-.78 2.86-1.55 1.029-1.029 1.668-2.45 1.668-4.013v-11.685c0-.789-.322-1.505-.84-2.023-.519-.519-1.235-.841-2.023-.841h-3.611v-2.525h3.126c.497 0 .9-.403.9-.9s-.403-.9-.9-.9h-4.026-16.088c-.476-.458-.991-.877-1.538-1.251-.091-.094-.2-.164-.317-.209-1.843-1.176-4.032-1.858-6.38-1.858-3.279 0-6.248 1.329-8.397 3.478s-3.478 5.118-3.478 8.397 1.329 6.248 3.478 8.397c.749.749 1.598 1.398 2.525 1.927-.005.037-.007.075-.007.113v4.999c-4.221.163-8.041 1.955-10.847 4.761-2.945 2.945-4.774 7.009-4.774 11.479v15.353c0 .497.403.9.9.9h24.612 17.248c.497 0 .9-.403.9-.9v-15.352c0-4.47-1.828-8.534-4.774-11.479-2.806-2.806-6.626-4.598-10.847-4.761v-4.854c0-.206-.069-.396-.186-.548.741-.47 1.426-1.02 2.044-1.638 2.149-2.149 3.478-5.118 3.478-8.397 0-2.511-.779-4.839-2.109-6.757h13.655v2.524h-3.764c-.789 0-1.505.322-2.023.841-.519.518-.84 1.235-.84 2.023v11.686c0 1.563.639 2.983 1.668 4.013.804.803 1.846 1.369 3.008 1.578-.018.107-.027.217-.027.329v1.093c0 .557.228 1.064.596 1.436l.006.005c.357.356.843.582 1.377.598v27.66c0 .497.403.9.9.9s.9-.403.9-.9v-27.66c.537-.016 1.024-.242 1.38-.598.369-.369.598-.879.598-1.441v-1.093c0-.121-.011-.241-.031-.357zm-3.689.118h.003 1.678.003c.064.001.122.028.166.071.044.044.071.104.071.169v1.093c0 .065-.027.125-.071.169s-.104.071-.169.071h-.839-.839c-.067 0-.127-.026-.169-.068l-.004-.003c-.042-.042-.067-.102-.067-.169v-1.093c0-.068.026-.127.067-.169l.004-.004c.041-.04.1-.066.166-.067zm-1.522-12.246v-1.033h4.575v1.033zm4.575 1.8v4.044h-4.575v-4.044zm-5.475-4.633h6.374c.497 0 .9.403.9.9v2.833 5.843c0 .497-.403.9-.9.9h-6.374c-.497 0-.9-.403-.9-.9v-5.843-2.833c.001-.497.404-.9.9-.9zm7.775-3.352c.292 0 .558.12.751.313s.313.459.313.751v11.686c0 1.066-.437 2.036-1.141 2.74s-1.674 1.141-2.74 1.141h-.855-1.678-1.008c-1.066 0-2.036-.437-2.74-1.141s-1.141-1.674-1.141-2.74v-11.685c0-.292.12-.558.313-.751s.46-.313.751-.313h4.663 4.512zm-25.165-4.074c.8-.496 1.589-1.017 2.367-1.561.385.289.75.605 1.09.944 1.165 1.165 2.046 2.613 2.53 4.234zm6.393 5.962c.01.181.015.362.015.545 0 2.782-1.128 5.301-2.951 7.125-1.823 1.823-4.342 2.951-7.125 2.951-2.782 0-5.301-1.128-7.124-2.951s-2.951-4.342-2.951-7.125c0-.296.013-.59.038-.88 2.992-.653 5.855-1.625 8.603-2.884 1.135-.52 2.25-1.089 3.345-1.705zm-19.741-2.258c.479-1.655 1.37-3.135 2.556-4.321 1.823-1.823 4.342-2.951 7.124-2.951 1.56 0 3.036.354 4.354.987-2.1 1.421-4.276 2.659-6.534 3.694-2.398 1.099-4.895 1.97-7.5 2.591zm4.203 39.11c.497 0 .9.403.9.9s-.403.9-.9.9h-5.478c-.497 0-.9-.403-.9-.9s.403-.9.9-.9zm0-5.245c.497 0 .9.403.9.9s-.403.9-.9.9h-1.839v1.839c0 .497-.403.9-.9.9s-.9-.403-.9-.9v-1.839h-1.839c-.497 0-.9-.403-.9-.9s.403-.9.9-.9h1.839v-1.84c0-.497.403-.9.9-.9s.9.403.9.9v1.84zm10.216-20.17v5.221l-4.41 5.806-4.409-5.806v-4.957c1.272.466 2.646.719 4.08.719 1.685.001 3.288-.35 4.739-.983zm13.96 62.446c-.01.495-.419.888-.914.879-.495-.01-.888-.419-.879-.914l.265-12.097c.074-3.399 1.272-6.069 2.947-8.023 2.036-2.376 4.788-3.695 7.096-3.99l4.066-4.328c1.82-1.938 3.63-2.501 5.306-2.312 1.631.183 3.07 1.09 4.249 2.121.372.326.41.893.084 1.265l-.022.024.001.001-9.573 10.19c-.34.361-.908.378-1.269.039-.361-.34-.378-.908-.038-1.269l8.909-9.484c-.774-.563-1.635-1-2.537-1.102-1.151-.129-2.435.302-3.802 1.757l-4.258 4.533c-.149.179-.367.3-.617.321-1.971.166-4.42 1.288-6.231 3.401-1.431 1.67-2.454 3.96-2.518 6.892zm11.429.25c-.01.495-.419.888-.914.879-.495-.01-.888-.419-.879-.914l.127-5.806c.011-.509.107-.981.289-1.418.183-.439.449-.84.8-1.204l13.784-14.309c.193-.2.338-.416.435-.649.098-.235.149-.49.155-.765l.473-21.633c-1.914.147-3.028.931-3.699 2.045-.834 1.385-1.087 3.343-1.296 5.274l-.442 4.075c-.052.493-.495.85-.988.798s-.85-.495-.798-.988l.442-4.076c.232-2.135.517-4.31 1.542-6.012 1.09-1.808 2.919-3.003 6.173-2.932.495.01.888.419.879.914l-.493 22.569c-.011.509-.107.981-.289 1.418-.183.439-.449.84-.8 1.204l-13.785 14.31c-.193.201-.338.417-.435.649-.098.235-.15.49-.156.765zm-56.013-.036-.127-5.806c-.011-.509-.108-.981-.289-1.418-.183-.439-.449-.84-.8-1.204l-13.784-14.308c-.193-.2-.338-.416-.435-.649-.098-.235-.149-.49-.155-.765l-.472-21.632c1.914.147 3.028.931 3.699 2.045.834 1.385 1.087 3.343 1.296 5.274l.442 4.075c.052.493.495.85.988.798s.85-.495.798-.988l-.442-4.076c-.232-2.135-.517-4.31-1.542-6.012-1.09-1.808-2.919-3.003-6.173-2.932-.495.01-.888.419-.879.914l.493 22.569c.011.509.107.981.289 1.418.183.439.449.84.8 1.204l13.783 14.309c.193.201.338.417.435.649.098.235.15.49.156.765l.127 5.806c.01.495.419.888.914.879.494-.01.888-.42.878-.915z" fill-rule="evenodd"/></svg>