<svg id="Layer_1" enable-background="new 0 0 64 64" viewBox="0 0 64 64" xmlns="http://www.w3.org/2000/svg"><path d="m12.4902344 35.6064453c-.1064453.1064453-.2041016.2177734-.2939453.3334961l-1.2714844-11.9995117c-.1826172-1.7397461-1.6396484-3.0512695-3.3896484-3.0512695-.9609375 0-1.8828125.4086914-2.5273438 1.1206055-.6455078.7124023-.9609375 1.6694336-.8662109 2.6264648l1.6435547 16.5361328c.1904297 1.9057617 1.1054688 3.6303711 2.5751953 4.855957l8.9763794 7.4801636-.8748169.8748169c-.1875.1875-.2929688.4418945-.2929688.7070312s.1054688.5195312.2929688.7070312l5.9101562 5.909668c.1884766.1889649.4433594.2929688.7070313.2929688.0419922 0 .0849609-.0024414.1269531-.0083008.3076172-.0390625.5791016-.21875.7353516-.4858398l8.0585937-13.7363892 8.0585938 13.7363892c.15625.2670898.4277344.4467773.7353516.4858398.0419921.0058594.0849608.0083008.126953.0083008.2636719 0 .5185547-.1040039.7070312-.2929688l5.9101562-5.909668c.1875-.1875.2929688-.4418945.2929688-.7070312s-.1054688-.5195312-.2929688-.7070312l-.8748169-.8748169 8.9763794-7.4801636c1.4697266-1.2255859 2.3847656-2.9501953 2.5751953-4.8564453l1.6435547-16.5361328c.0947266-.956543-.2207031-1.9135742-.8662109-2.6259766-.6445312-.7119141-1.5664062-1.1206055-2.5273438-1.1206055-1.75 0-3.2070312 1.3115234-3.3896484 3.050293l-1.2714844 12.0004883c-.0898438-.1157227-.1875-.2275391-.2939453-.3339844-1.3300781-1.328125-3.6445312-1.3266602-4.9726562.0004883l-8.8886108 8.8876953-1.453186-1.453125c-.390625-.390625-1.0234375-.390625-1.4140625 0l-2.78125 2.7807617-2.78125-2.7807617c-.390625-.390625-1.0234375-.390625-1.4140625 0l-1.453186 1.453125-8.8886108-8.8876953c-1.3271485-1.3276367-3.6416016-1.3295898-4.9726563 0zm35.4609375 1.4140625c.5712891-.5727539 1.5693359-.5727539 2.1445312 0 .5830078.5834961.5908203 1.527832.0224609 2.1206055l-5.6787109 5.6791992c-.390625.390625-.390625 1.0234375 0 1.4140625s1.0234375.390625 1.4140625 0l5.65625-5.6557617c.0117188-.0117188.0234375-.0234375.0351562-.0351562l.4365234-.4370117c1.0039062-1.0043945 1.6396484-2.3344727 1.7890625-3.7460938l1.2929688-12.2109375c.0761719-.7182617.6787109-1.2602539 1.4013672-1.2602539.4033203 0 .7744141.1645508 1.0449219.4633789.2714844.2988281.3984375.6845703.3583984 1.0854492l-1.6435547 16.5351562c-.1376953 1.3813477-.8007812 2.6308594-1.8662109 3.519043l-9.1154785 7.5960693-6.1802979-6.1800537zm-12.4628907 8.1416016 1.4530029 1.4529419c.000061.000061.000061.0001221.0001221.0001831s.0001221.000061.0001831.0001221l8.4754028 8.4749756-1.1615601 1.161438-3.099182-3.7376099c-.3515625-.4248047-.9824219-.484375-1.4082031-.1318359-.4248047.3525391-.4833984.9833984-.1308594 1.4082031l3.2182007 3.8811035-1.7064819 1.7062988-7.3417969-12.5146484zm-6.9765624 0 1.7011719 1.7011719-7.3417969 12.5146484-1.5949707-1.5947876 3.763916-3.9398804c.3818359-.3994141.3671875-1.0327148-.0322266-1.4140625-.3984375-.3818359-1.0322266-.3662109-1.4130859.0322266l-3.7329712 3.9074707-1.2787476-1.2785645 8.4754028-8.4749756c.000061-.000061.0001221-.000061.0001831-.0001221s.000061-.0001221.0001221-.0001831zm-3.5743409.7460937-6.1802979 6.1800537-9.1154785-7.5960693c-1.0654297-.8881836-1.7285156-2.1376953-1.8662109-3.5185547l-1.6435547-16.5351562c-.0400391-.4013672.0869141-.7871094.3583984-1.0859375.2705078-.2988281.6416016-.4633789 1.0449219-.4633789.7226562 0 1.3251953.5419922 1.4013672 1.2612305l1.2929688 12.2099609c.1494141 1.4116211.7851562 2.7416992 1.7890625 3.7460938l.4365234.4370117.0351562.0351562 5.65625 5.6557617c.390625.390625 1.0234375.390625 1.4140625 0s.390625-1.0234375 0-1.4140625l-5.6787109-5.6791992c-.5683594-.5927734-.5605469-1.5371094.0224609-2.1201172.5751953-.5737305 1.5732422-.5732422 2.1445312-.0004883z"/><path d="m32 35.1503906c9.1396484 0 16.5751953-7.4355469 16.5751953-16.5751953s-7.4355469-16.5751953-16.5751953-16.5751953-16.5751953 7.4355469-16.5751953 16.5751953 7.4355469 16.5751953 16.5751953 16.5751953zm0-31.1503906c8.0371094 0 14.5751953 6.5385742 14.5751953 14.5751953s-6.5380859 14.5751953-14.5751953 14.5751953-14.5751953-6.5385742-14.5751953-14.5751953 6.5380859-14.5751953 14.5751953-14.5751953z"/><path d="m22.8818359 22.7739258h5.546875v5.546875c0 .5522461.4472656 1 1 1h5.1425781c.5527344 0 1-.4477539 1-1v-5.546875h5.546875c.5527344 0 1-.4477539 1-1v-5.1420898c0-.5522461-.4472656-1-1-1h-5.546875v-5.546875c0-.5522461-.4472656-1-1-1h-5.1425781c-.5527344 0-1 .4477539-1 1v5.546875h-5.546875c-.5527344 0-1 .4477539-1 1v5.1420898c0 .5522461.4472657 1 1 1zm1-5.1420899h5.546875c.5527344 0 1-.4477539 1-1v-5.546875h3.1425781v5.546875c0 .5522461.4472656 1 1 1h5.546875v3.1420898h-5.546875c-.5527344 0-1 .4477539-1 1v5.546875h-3.1425781v-5.546875c0-.5522461-.4472656-1-1-1h-5.546875z"/><path d="m38.8066406 13.9033203c.8183594 0 1.4833984-.6655273 1.4833984-1.4838867s-.665039-1.4838867-1.4833984-1.4838867-1.484375.6655273-1.484375 1.4838867.6660156 1.4838867 1.484375 1.4838867zm0-2c.2841797 0 .515625.2314453.515625.5161133s-.2314453.5161133-.515625.5161133c-.2851562 0-.5166016-.2314453-.5166016-.5161133s.2314454-.5161133.5166016-.5161133z"/><path d="m25.8671875 13.9033203c.8183594 0 1.484375-.6655273 1.484375-1.4838867s-.6660156-1.4838867-1.484375-1.4838867-1.4833984.6655273-1.4833984 1.4838867.665039 1.4838867 1.4833984 1.4838867zm0-2c.2851562 0 .5166016.2314453.5166016.5161133s-.2314453.5161133-.5166016.5161133c-.2841797 0-.515625-.2314453-.515625-.5161133s.2314453-.5161133.515625-.5161133z"/><path d="m38.8066406 23.5161133c-.8183594 0-1.484375.6655273-1.484375 1.4838867s.6660156 1.4838867 1.484375 1.4838867 1.4833985-.6655273 1.4833985-1.4838867-.6650391-1.4838867-1.4833985-1.4838867zm0 2c-.2851562 0-.5166016-.2314453-.5166016-.5161133s.2314453-.5161133.5166016-.5161133c.2841797 0 .515625.2314453.515625.5161133s-.2314453.5161133-.515625.5161133z"/><path d="m25.8671875 23.5161133c-.8183594 0-1.4833984.6655273-1.4833984 1.4838867s.6650391 1.4838867 1.4833984 1.4838867 1.484375-.6655273 1.484375-1.4838867-.6660156-1.4838867-1.484375-1.4838867zm0 2c-.2841797 0-.515625-.2314453-.515625-.5161133s.2314453-.5161133.515625-.5161133c.2851562 0 .5166016.2314453.5166016.5161133s-.2314453.5161133-.5166016.5161133z"/></svg>