<svg id="Layer_1" enable-background="new 0 0 500 500" viewBox="0 0 500 500" xmlns="http://www.w3.org/2000/svg"><g><path d="m198.982 337.636h-43.925c-3.201 0-5.798-2.596-5.798-5.797 0-3.203 2.596-5.797 5.798-5.797h43.925c3.201 0 5.798 2.594 5.798 5.797 0 3.201-2.597 5.797-5.798 5.797z"/><path d="m281.568 394.412c-1.466 0-2.927-.551-4.05-1.649-8.631-8.426-19.219-14.761-30.681-18.365l-52.591 5.781c-22.952 2.524-46.14-1.298-67.073-11.055l-88.064-42.008c-6.414-2.987-11.23-8.645-13.177-15.499-1.945-6.856-.812-14.203 3.11-20.161 6.507-9.894 19.893-13.593 31.13-8.594l89.197 40.066c2.306-18.218 16.853-33.207 35.885-35.301l70.128-7.71c11.76-1.291 23.499-.237 34.852 3.143 12.202 3.634 23.253 9.717 32.842 18.083l34.373 29.978c1.326 1.156 2.054 2.852 1.982 4.611-.077 1.759-.945 3.39-2.364 4.432l-69.725 51.177c-.654.477-1.261.996-1.842 1.533-1.113 1.026-2.522 1.538-3.932 1.538zm-34.178-31.707c.558 0 1.117.081 1.654.242 12.046 3.587 23.29 9.785 32.803 18.046l62.525-45.893-28.92-25.219c-8.329-7.268-17.928-12.551-28.527-15.708-9.862-2.938-20.056-3.862-30.276-2.729l-70.126 7.707c-15.924 1.752-27.456 16.129-25.705 32.051.228 2.068-.672 4.099-2.35 5.323-1.684 1.226-3.899 1.452-5.788.6l-97.24-43.679c-6.1-2.701-13.286-.828-16.715 4.383-2.066 3.138-2.666 7.012-1.638 10.622 1.021 3.611 3.562 6.591 6.963 8.177l88.064 42.006c18.958 8.838 40.031 12.311 60.862 10.015l53.78-5.911c.213-.021.423-.033.634-.033z"/><path d="m469.206 439.803c-1.796 0-3.571-.833-4.702-2.403l-70.758-98.012c-6.865-9.345-20.1-11.383-29.504-4.49l-76.9 56.444c-9.392 6.893-11.425 20.14-4.534 29.529l7.124 9.706c1.894 2.58 1.34 6.209-1.242 8.105-2.582 1.887-6.209 1.338-8.103-1.245l-7.124-9.704c-5.169-7.047-7.291-15.685-5.963-24.323 1.326-8.64 5.932-16.245 12.979-21.417l76.902-56.446c14.545-10.669 35.066-7.528 45.738 7.017l70.781 98.05c1.878 2.594 1.291 6.219-1.305 8.094-1.026.739-2.212 1.095-3.389 1.095z"/><path d="m173.373 241.247c-2.592 0-5.19-.824-7.454-2.466l-13.961-10.143c-.37-.272-.891-.277-1.28.002l-7.97 5.793c-2.243 1.624-5.316 1.445-7.349-.435l-13.579-12.574c-1.659-1.538-2.273-3.897-1.575-6.046l2.336-7.186c.149-.449-.012-.938-.391-1.214l-13.965-10.143c-4.525-3.289-6.332-8.854-4.604-14.177s6.461-8.764 12.058-8.764h17.26c.472 0 .886-.3 1.031-.749l5.332-16.411c1.728-5.325 6.465-8.765 12.06-8.765 5.597 0 10.334 3.44 12.063 8.765l5.332 16.411c.144.449.558.749 1.031.749h17.258c5.597 0 10.334 3.441 12.062 8.764 1.729 5.325-.079 10.888-4.609 14.177l-13.958 10.141c-.384.279-.542.768-.396 1.219l5.332 16.411c1.729 5.321-.079 10.885-4.604 14.175-2.265 1.643-4.864 2.466-7.46 2.466zm-22.05-24.418c2.613 0 5.225.81 7.451 2.429l13.961 10.143c.17.123.635.465 1.279 0 .637-.465.461-1.01.393-1.217l-5.335-16.411c-1.701-5.244.151-10.943 4.613-14.18l13.954-10.141c.177-.128.642-.463.396-1.214-.244-.751-.819-.751-1.033-.751h-17.258c-5.511 0-10.357-3.52-12.058-8.761l-5.335-16.413c-.067-.205-.242-.751-1.033-.751-.789 0-.963.547-1.031.751l-5.332 16.413c-1.703 5.242-6.549 8.761-12.06 8.761h-17.26c-.214 0-.789 0-1.031.751-.244.751.219 1.089.393 1.214l13.961 10.143c4.457 3.234 6.312 8.934 4.609 14.177l-1.189 3.662 7.363 6.819 4.122-2.997c2.232-1.617 4.85-2.427 7.46-2.427z"/><path d="m183.714 276.674c-1.414 0-2.827-.514-3.939-1.542l-109.656-101.549c-1.21-1.124-1.887-2.71-1.857-4.364.03-1.652.768-3.213 2.019-4.29l109.655-94.149c2.175-1.864 5.383-1.864 7.556 0l23.42 20.109c1.205 1.034 1.929 2.515 2.012 4.101.084 1.585-.491 3.135-1.582 4.286-2.692 2.842-6.465 4.471-10.357 4.471h-21.268c-1.698 0-2.329 1.162-2.555 1.855-.226.694-.4 2.006.977 3.006l17.209 12.502c5.018 3.646 7.102 10.064 5.186 15.967l-6.572 20.228c-.523 1.617.386 2.578.975 3.006.591.428 1.789.991 3.159 0l17.206-12.501c5.016-3.646 11.772-3.654 16.792 0l17.206 12.501c1.37.998 2.571.428 3.159 0 .593-.43 1.503-1.391.977-3.006l-6.575-20.226c-.26-.813-.433-1.608-.547-2.408-.34-2.389.837-4.739 2.954-5.897 2.117-1.161 4.73-.891 6.563.685l41.31 35.47c1.254 1.077 1.989 2.638 2.019 4.29.03 1.654-.645 3.241-1.857 4.364l-109.648 101.549c-1.112 1.028-2.524 1.542-3.941 1.542zm-100.946-107.18 100.946 93.483 100.944-93.483-20.901-17.948.709 2.178c1.947 5.995-.091 12.263-5.19 15.969-5.095 3.704-11.681 3.711-16.792 0l-17.206-12.502c-.947-.691-2.219-.684-3.159 0l-17.206 12.502c-5.104 3.711-11.693 3.704-16.79 0s-7.135-9.973-5.188-15.969l6.57-20.227c.363-1.112-.03-2.319-.972-3.006l-17.208-12.502c-5.1-3.704-7.138-9.971-5.188-15.967 1.947-5.994 7.279-9.868 13.582-9.868h14.863l-10.867-9.332z"/><path d="m250.878 172.471c-2.92 0-5.842-.928-8.394-2.78l-17.206-12.502c-.947-.691-2.219-.682-3.152-.002l-17.213 12.505c-5.104 3.711-11.693 3.704-16.79 0s-7.135-9.973-5.188-15.969l6.57-20.227c.363-1.112-.03-2.319-.972-3.006l-17.208-12.502c-5.1-3.704-7.138-9.971-5.188-15.967 1.947-5.994 7.279-9.868 13.582-9.868h21.268c1.168 0 2.199-.747 2.557-1.859l6.574-20.228c1.947-5.994 7.279-9.868 13.584-9.868 6.302 0 11.635 3.874 13.584 9.87l6.57 20.228c.358 1.11 1.389 1.857 2.554 1.857h21.273c6.302 0 11.637 3.874 13.584 9.868 1.947 5.996-.091 12.263-5.19 15.967l-17.206 12.502c-.947.687-1.34 1.895-.977 3.006l6.574 20.227c1.947 5.995-.091 12.263-5.19 15.969-2.554 1.851-5.474 2.779-8.4 2.779zm-27.182-27.4c2.945 0 5.884.914 8.398 2.739l17.206 12.501c1.37.998 2.571.428 3.159 0 .593-.43 1.503-1.391.977-3.006l-6.575-20.226c-1.917-5.905.17-12.321 5.19-15.969l17.206-12.502c1.377-1 1.205-2.312.977-3.006-.226-.693-.856-1.855-2.554-1.855h-21.273c-6.205 0-11.662-3.967-13.582-9.868l-6.572-20.23c-.523-1.616-1.826-1.857-2.554-1.857s-2.031.241-2.557 1.857l-6.574 20.23c-1.922 5.901-7.377 9.868-13.584 9.868h-21.268c-1.698 0-2.329 1.162-2.555 1.855-.226.694-.4 2.006.977 3.006l17.209 12.502c5.018 3.646 7.102 10.064 5.186 15.967l-6.572 20.228c-.523 1.617.386 2.578.975 3.006.591.428 1.789.991 3.159 0l17.211-12.501c2.508-1.825 5.449-2.739 8.39-2.739z"/><path d="m155.131 329.603h-17.96c-.819 0-1.628-.174-2.375-.509l-63.109-28.348c-2.084-.935-3.424-3.003-3.424-5.288v-126.13c0-2.303 1.368-4.39 3.476-5.311 2.11-.924 4.567-.509 6.263 1.059l105.713 97.901 105.71-97.901c1.696-1.568 4.153-1.982 6.263-1.059 2.11.921 3.476 3.008 3.476 5.311v120.888c0 1.894-.924 3.667-2.475 4.753-1.556 1.086-3.541 1.342-5.314.693-1.47-.54-2.95-1.042-4.451-1.489-9.859-2.938-20.054-3.855-30.274-2.731l-70.126 7.71c-13.461 1.477-24.002 11.904-25.637 25.353-.354 2.909-2.822 5.098-5.756 5.098zm-16.72-11.595h11.911c4.104-16.308 17.839-28.501 34.931-30.381l70.128-7.712c10.855-1.189 21.668-.389 32.186 2.396v-99.713l-99.913 92.534c-2.226 2.056-5.653 2.056-7.88 0l-99.918-92.534v109.107z"/><path d="m155.131 329.603h-17.96c-.819 0-1.628-.174-2.375-.509l-42.494-19.088c-1.777-.798-3.031-2.431-3.348-4.35-.314-1.919.354-3.869 1.782-5.193l62.788-58.149c2.226-2.059 5.655-2.059 7.882 0l22.308 20.663 22.31-20.663c2.226-2.059 5.656-2.059 7.882 0l42.636 39.489c1.666 1.54 2.278 3.915 1.568 6.07-.714 2.154-2.617 3.697-4.874 3.946l-66.713 7.335c-13.463 1.48-24.006 11.904-25.637 25.351-.353 2.909-2.821 5.098-5.755 5.098zm-16.72-11.595h11.911c4.099-16.308 17.834-28.501 34.931-30.381l54.094-5.946-29.383-27.214-22.31 20.666c-2.226 2.056-5.653 2.056-7.88 0l-22.311-20.666-52.421 48.552z"/><path d="m278.141 430.1c-1.854 0-3.68-.889-4.802-2.54-1.796-2.65-1.11-6.256 1.54-8.054l123.517-83.863c2.643-1.794 6.253-1.112 8.054 1.54 1.796 2.65 1.11 6.256-1.54 8.054l-123.517 83.863c-.995.676-2.133 1-3.252 1z"/></g></svg>