<svg id="Layer_1" enable-background="new 0 0 100 100" viewBox="0 0 100 100" xmlns="http://www.w3.org/2000/svg"><g><g><path d="m38.510437 60.7251701c-2.2079201 0-4.0044098-1.7964897-4.0044098-4.0044098v-2.7706146c0-4.4581947 2.4438896-8.5331955 6.2259445-10.3811111 1.7576637-.859169 2.8497772-2.6067505 2.8502808-4.5615578 0-1.3038788-.5415192-2.563385-1.5252266-3.5470924-.9837036-.9832039-2.2432137-1.5247231-3.5465889-1.5247231-2.7963295.0005035-5.0718117 2.275486-5.0718117 5.071312 0 2.2079201-1.7959862 4.0039024-4.0039062 4.0039024s-4.0044098-1.7959824-4.0044098-4.0039024c0-7.211668 5.8674526-13.0791206 13.0791206-13.0796261 3.4427223 0 6.714016 1.3744678 9.2103424 3.8707943 2.49683 2.4963264 3.8712997 5.7676201 3.8707962 9.2103424-.0005074 5.0385399-2.8144836 9.5431213-7.3432655 11.7555771-1.052784.5142937-1.7329597 1.7647247-1.7329597 3.1860847v2.7706146c0 2.2079201-1.7959824 4.0044098-4.0039063 4.0044098zm0-28.8547382c1.8549767 0 3.6328087.7563114 5.0067749 2.1297703 1.3739624 1.3734589 2.1302719 3.1517944 2.1302719 5.0072746-.0005035 2.7499428-1.5368233 5.2089577-4.0089493 6.417038-3.0781784 1.5040474-5.067276 4.8504677-5.067276 8.525631v2.7706146c0 1.0694237.8697586 1.9391785 1.9391785 1.9391785 1.0689201 0 1.9386749-.8697548 1.9386749-1.9391785v-2.7706146c0-2.2043915 1.1349716-4.183403 2.8916245-5.0415649 3.8143234-1.8635445 6.1840973-5.657196 6.1846008-9.9000969.0005035-2.8911209-1.1591721-5.6435852-3.2657471-7.7501583-2.106575-2.1060715-4.8585358-3.2657471-7.7486496-3.2657471-6.0736694.0005035-11.0153999 4.9417286-11.0153999 11.0143948 0 1.0689163.8697567 1.9386749 1.9391785 1.9386749 1.0689182 0 1.9386749-.8697586 1.9386749-1.9386749 0-3.9343263 3.2017098-7.136038 7.137043-7.1365415z"/></g><g><path d="m38.510437 72.5205765c-2.2079201 0-4.0044098-1.7959824-4.0044098-4.0038986v-.5838776c0-2.2079163 1.7964897-4.0039024 4.0044098-4.0039024 2.2079239 0 4.0039062 1.7959862 4.0039062 4.0039024v.5838776c.0000001 2.2079162-1.7959823 4.0038986-4.0039062 4.0038986zm0-6.5264511c-1.0694199 0-1.9391785.8697586-1.9391785 1.9386749v.5838776c0 1.0689163.8697586 1.9386673 1.9391785 1.9386673 1.0689201 0 1.9386749-.869751 1.9386749-1.9386673v-.5838776c0-1.0689163-.8697548-1.9386749-1.9386749-1.9386749z"/></g><g><path d="m38.507412 85.2326355c-19.8546486 0-36.007412-16.1527634-36.007412-36.007412s16.1527634-36.007412 36.007412-36.007412c10.0180817 0 19.6620445 4.2197065 26.4597588 11.5770884.3872299.4189968.3615112 1.0724487-.0574799 1.4591751-.4189987.3872299-1.0724487.361515-1.4591751-.0574799-6.4079629-6.9358682-15.4993134-10.9135541-24.9431038-10.9135541-18.7156448 0-33.9421806 15.2265377-33.9421806 33.9421844s15.2265357 33.9421788 33.9421806 33.9421788c6.7235985 0 13.2132416-1.9608536 18.7670746-5.6708069.4734535-.3171463 1.1148033-.1900864 1.4324532.284874.3166428.4744568.1890755 1.1158066-.2848778 1.4324493-5.8951836 3.937355-12.7816392 6.0187149-19.91465 6.0187149z"/></g><g><path d="m75.0533218 27.8357697c-6.2632599 0-10.6281738-6.7972088-10.6281738-12.8976059 0-6.1437578 4.4697876-10.6029606 10.6281738-10.6029606 6.1583786 0 10.6281662 4.4592032 10.6281662 10.6029606 0 6.1003971-4.3649139 12.8976059-10.6281662 12.8976059zm0-21.4353366c-5.0415649 0-8.5629425 3.5107913-8.5629425 8.5377312 0 5.6693001 4.0815506 10.8323765 8.5629425 10.8323765 4.4813843 0 8.5629349-5.1630764 8.5629349-10.8323765 0-5.0269399-3.5213775-8.5377312-8.5629349-8.5377312z"/></g><g><path d="m81.8328781 95.6636658c-1.4657288 0-2.8926315-.5440369-3.9832306-1.5348053-1.2337952-1.1213531-1.9411926-2.7191849-1.9411926-4.3835754v-17.8852158c0-.8596725-.6993332-1.5590057-1.5590057-1.5590057-.534462 0-.8974915.251091-1.1082458.4613495-.3005066.2939529-.4613495.6811829-.4613495 1.0976562v17.6684113c0 3.1452408-2.3480911 5.828125-5.3456039 6.1084595-1.6578293.1623535-3.3171768-.3907623-4.5469322-1.5080795-1.2337952-1.1213531-1.9411964-2.7191849-1.9411964-4.3835754v-33.4465448c0-.5702591.4623566-1.0326157 1.0326157-1.0326157s1.0326157.4623566 1.0326157 1.0326157v33.4465446c0 1.0835419.4613495 2.1242218 1.2650528 2.8548203.8112717.7376556 1.8665771 1.0890884 2.9632263.9806824 1.9497604-.1820221 3.4749908-1.9618683 3.4749908-4.0523071v-17.6684113c0-.9766464.3816833-1.8877487 1.0739594-2.5659103.6801758-.6796722 1.5922852-1.0583267 2.5608673-1.0583267 1.9981689 0 3.6242371 1.6260681 3.6242371 3.6242371v17.8852156c0 1.0835419.4613495 2.1242218 1.2650528 2.8548203.811264.7376556 1.8650589 1.0890884 2.9632187.9806824 1.9497681-.1820221 3.4749985-1.9618683 3.4749985-4.0523071v-31.8255273c0-.5702553.4623566-1.0326157 1.032608-1.0326157.5702591 0 1.0326157.4623604 1.0326157 1.0326157v31.8255272c0 3.1452408-2.3480835 5.828125-5.3455963 6.1084595-.1880649.0181503-.3766407.0267258-.5637058.0267258z"/></g><g><path d="m89.5391769 58.735569h-19.8884353c-.3110962 0-.6055527-.1401672-.8016891-.3816833-.1956253-.2410126-.2727737-.5581589-.2092438-.8621941l.2894135-1.3835411c.1169815-.5581589.6660614-.9156418 1.2221985-.799675.5581589.1169777.9161453.6640434.799675 1.2221985l-.0292435.1396637h17.7768097l.8828659-4.2575188c.1154633-.5586624.6589966-.918663 1.2206879-.8011856.5581512.1154633.9171524.6620255.8011856 1.2206841l-1.0532913 5.0803871c-.0993272.4789962-.5213472.8228645-1.0109331.8228645z"/></g><g><path d="m71.8722763 48.0791626c-.0695801 0-.1406708-.0070572-.2117615-.0216827-.5581589-.1164703-.9166489-.6630287-.8001785-1.2216911l4.0684433-19.5369988c.0998306-.4784927.5218506-.8218575 1.0109329-.8218575h19.8879318c.3110886 0 .6050415.1401691.801178.3811817.1961365.2410107.2732849.5581551.2097549.8621922l-3.4386902 16.4905815c-.1159668.5581589-.6615219.9181633-1.2216949.8001785-.5581589-.1164742-.9166489-.6635361-.8001785-1.2216949l3.1795273-15.2472076h-17.7783203l-3.8970184 18.7151413c-.1013413.4870643-.5309296.8218574-1.0099259.8218574z"/></g><g><path d="m72.154129 57.3520279h-9.8764c-4.8802147 0-8.8508415-3.9706268-8.8508415-8.8513489v-7.5192337c0-6.8814125 5.5982056-12.4801216 12.4796219-12.4801216h9.1468124c.5702515 0 1.0326157.4623566 1.0326157 1.0326138 0 .5702591-.4623642 1.0326157-1.0326157 1.0326157h-9.1468124c-5.7424126 0-10.4143906 4.6719799-10.4143906 10.4148922v7.5192337c0 3.7417183 3.0438957 6.7861176 6.7856102 6.7861176h9.8764c1.9885941 0 3.6060867-1.6174965 3.6060867-3.6060867s-1.6174927-3.6065903-3.6060867-3.6065903h-8.6042862c-.5702553 0-1.0326118-.4623566-1.0326118-1.0326157v-5.948124c0-.5702591.4623566-1.0326157 1.0326118-1.0326157.5702591 0 1.0326157.4623566 1.0326157 1.0326157v4.9155083h7.5716705c3.1270905 0 5.6713181 2.5442276 5.6713181 5.6718216 0 3.1270904-2.5442276 5.671318-5.6713181 5.671318z"/></g><g><path d="m93.4644241 54.2844353h-.5359726c-3.1270905 0-5.6713181-2.5442276-5.6713181-5.6713181 0-3.127594 2.5442276-5.6718216 5.6713181-5.6718216h1.0734558c1.0018616 0 1.9573288.4305954 2.6208649 1.1813583.6640396.7507629.9741287 1.7521172.8506012 2.7469177l-.5369797 4.345253c-.215805 1.7495957-1.7082519 3.0696107-3.4719696 3.0696107zm-.5359726-9.2779084c-1.9885864 0-3.6060867 1.618-3.6060867 3.6065903s1.6175003 3.6060867 3.6060867 3.6060867h.5359726c.7225266 0 1.3336258-.5405121 1.4218597-1.2569885l.5374908-4.3462601c.0514221-.4139557-.0721054-.8132858-.3484116-1.1253891-.2758026-.3121033-.6569824-.4840393-1.0734558-.4840393z"/></g><g><path d="m91.7955017 95.6051788h-43.4747162c-.5702553 0-1.0326157-.4623566-1.0326157-1.0326157s.4623604-1.0326157 1.0326157-1.0326157h43.4747162c.5702591 0 1.0326157.4623566 1.0326157 1.0326157s-.4623566 1.0326157-1.0326157 1.0326157z"/></g><g><path d="m42.1195488 95.6051788h-3.6091118c-.5702553 0-1.0326157-.4623566-1.0326157-1.0326157s.4623604-1.0326157 1.0326157-1.0326157h3.6091118c.5702591 0 1.0326157.4623566 1.0326157 1.0326157s-.4623566 1.0326157-1.0326157 1.0326157z"/></g></g></svg>