<?xml version="1.0" encoding="iso-8859-1"?>
<!-- Generator: Adobe Illustrator 19.0.0, SVG Export Plug-In . SVG Version: 6.00 Build 0)  -->
<svg version="1.1" id="Capa_1" xmlns="http://www.w3.org/2000/svg" xmlns:xlink="http://www.w3.org/1999/xlink" x="0px" y="0px"
	 viewBox="0 0 512.01 512.01" style="enable-background:new 0 0 512.01 512.01;" xml:space="preserve">
<g>
	<g>
		<path d="M120.227,0c-34.313-0.005-62.134,27.807-62.14,62.12c0,0.003,0,0.007,0,0.01c0.039,34.294,27.826,62.086,62.12,62.13
			c34.313,0.005,62.134-27.807,62.14-62.12C182.353,27.827,154.541,0.006,120.227,0z M120.227,98.27
			c-19.954,0.005-36.134-16.166-36.14-36.12c0-0.007,0-0.013,0-0.02c0.028-19.937,16.183-36.092,36.12-36.12
			c19.954-0.005,36.134,16.166,36.14,36.12C156.353,82.084,140.181,98.264,120.227,98.27z"/>
	</g>
</g>
<g>
	<g>
		<path d="M175.861,138.033c-2.133-0.242-4.277-0.363-6.423-0.363h-16.08c-4.603-0.02-8.96,2.073-11.82,5.68l-21.32,26.66
			l-21.23-26.59c-2.857-3.647-7.238-5.769-11.87-5.75h-16.13c-31.43-0.03-56.934,25.425-56.964,56.856
			c-0.002,2.167,0.12,4.332,0.364,6.484v0.25l12.75,96c1.808,15.99,11.202,30.133,25.24,38l20.55,150.27
			c1.786,15.12,14.615,26.504,29.84,26.48h34.9c15.221,0.019,28.044-11.364,29.83-26.48l20.49-150.34
			c14.038-7.867,23.432-22.01,25.24-38l12.76-95.94V201C229.533,169.77,207.09,141.579,175.861,138.033z M200.217,197.96h-0.02
			l-12.75,95.94v0.25c-1.021,9.157-7.155,16.939-15.82,20.07c-4.516,1.658-7.747,5.674-8.4,10.44l-21.5,157.48v0.28
			c-0.228,2.04-1.947,3.587-4,3.6h-34.9c-2.053-0.013-3.772-1.56-4-3.6v-0.28l-21.62-157.48c-0.653-4.766-3.884-8.782-8.4-10.44
			c-8.668-3.133-14.803-10.919-15.82-20.08v-0.25l-12.78-95.94c-1.861-16.969,10.386-32.235,27.356-34.096
			c1.137-0.125,2.28-0.186,3.424-0.184h10.87l23.62,29.49c3.466,4.377,8.747,6.924,14.33,6.91h0.8
			c5.57,0.022,10.843-2.51,14.31-6.87l23.65-29.52h10.92c17.071-0.002,30.912,13.835,30.914,30.906
			C200.402,195.713,200.34,196.839,200.217,197.96z"/>
	</g>
</g>
<g>
	<g>
		<path d="M315.527,122.66c-17.443-0.024-34.799,2.451-51.54,7.35c-6.904,2.03-10.855,9.271-8.825,16.175
			c2.03,6.904,9.271,10.855,16.175,8.825c14.352-4.209,29.233-6.341,44.19-6.33c86.26-0.02,156.46,70.16,156.46,156.41
			s-70.2,156.44-156.46,156.44c-30.792,0.052-60.908-9.027-86.54-26.09c-5.978-3.976-14.049-2.354-18.025,3.625
			c-3.977,5.978-2.354,14.049,3.625,18.025c29.891,19.9,65.011,30.493,100.92,30.44c100.61,0,182.48-81.84,182.48-182.44
			S416.117,122.66,315.527,122.66z"/>
	</g>
</g>
<g>
	<g>
		<path d="M371.857,254.25c-6.288-31.083-36.582-51.183-67.665-44.895c-26.783,5.418-46.038,28.96-46.035,56.285
			c0,7.18,5.82,13,13,13s13-5.82,13-13c-0.012-17.353,14.045-31.43,31.397-31.443c17.353-0.012,31.43,14.045,31.443,31.397
			c0.009,11.998-6.817,22.954-17.59,28.235c-16.404,7.905-26.837,24.501-26.85,42.71v7.22c0,7.18,5.82,13,13,13s13-5.82,13-13
			l-0.03-7.22c0.052-8.29,4.843-15.82,12.33-19.38C364.427,305.55,376.857,280.27,371.857,254.25z"/>
	</g>
</g>
<g>
	<g>
		<path d="M315.527,376.35c-7.18,0-13,5.82-13,13v3.91c0,7.18,5.82,13,13,13s13-5.82,13-13v-3.91
			C328.527,382.17,322.707,376.35,315.527,376.35z"/>
	</g>
</g>
<g>
</g>
<g>
</g>
<g>
</g>
<g>
</g>
<g>
</g>
<g>
</g>
<g>
</g>
<g>
</g>
<g>
</g>
<g>
</g>
<g>
</g>
<g>
</g>
<g>
</g>
<g>
</g>
<g>
</g>
</svg>
