<svg id="Capa_1" enable-background="new 0 0 511.992 511.992" height="512" viewBox="0 0 511.992 511.992" width="512" xmlns="http://www.w3.org/2000/svg"><g><path d="m501.677 111.498c-10.427-14.603-27.352-23.321-45.274-23.321h-80.161c-4.142 0-7.5 3.358-7.5 7.5s3.358 7.5 7.5 7.5h80.161c13.088 0 25.449 6.369 33.066 17.037 7.772 10.885 9.609 24.759 5.042 38.066-7.003 20.4-27.141 34.107-50.111 34.107h-20.061c-26.805 0-48.613-21.808-48.613-48.613 0-4.142-3.358-7.5-7.5-7.5s-7.5 3.358-7.5 7.5c0 32.537 24.561 59.431 56.113 63.156v169.312c0 22.385-18.211 40.597-40.597 40.597h-104.21c-17.965 0-32.581-14.616-32.581-32.581 0-3.756.51-7.425 1.504-10.969 4.73 1.581 9.789 2.437 15.044 2.437h24.048c20.804 0 38.52-13.427 44.969-32.065h27.176c4.142 0 7.5-3.358 7.5-7.5s-3.358-7.5-7.5-7.5h-24.564v-160.839c0-4.142-3.358-7.5-7.5-7.5s-7.5 3.358-7.5 7.5v160.323c0 17.965-14.616 32.581-32.581 32.581h-24.047c-17.965 0-32.581-14.616-32.581-32.581v-160.323c0-4.142-3.358-7.5-7.5-7.5s-7.5 3.358-7.5 7.5v160.323c0 17.965-14.616 32.581-32.581 32.581h-24.048c-17.965 0-32.581-14.616-32.581-32.581v-160.323c0-4.142-3.358-7.5-7.5-7.5s-7.5 3.358-7.5 7.5v128.258c0 17.965-14.616 32.581-32.581 32.581h-24.047c-17.965 0-32.581-14.591-32.581-32.524v-138.157c0-12.833 5.254-25.315 14.414-34.246 8.593-8.377 19.716-12.831 31.35-12.533 8.65.22 16.98 2.923 24.091 7.817 7.136 4.912 15 7.328 22.76 6.991l2.952-.129c7.996-.349 15.873-3.925 22.182-10.069 8.37-8.152 19.402-12.642 31.066-12.642 10.716 0 21.077 3.865 29.173 10.884 5.84 5.062 13.05 7.681 20.295 7.362 7.947-.345 15.33-4.078 20.788-10.509 8.674-10.219 21.326-15.962 34.677-15.747 2.892.046 5.779.393 8.583 1.03 20.973 4.767 38.245 6.987 54.355 6.987h12.491c4.142 0 7.5-3.358 7.5-7.5s-3.358-7.5-7.5-7.5h-12.491c-14.962 0-31.177-2.102-51.03-6.614-3.813-.867-7.739-1.338-11.668-1.401-17.859-.292-34.762 7.384-46.352 21.038-2.725 3.21-6.277 5.068-10.003 5.229-3.407.15-6.889-1.169-9.819-3.71-10.824-9.382-24.674-14.549-38.999-14.549-15.596 0-30.345 6-41.532 16.896-2.594 2.526-6.845 5.588-12.369 5.829l-2.952.129c-5.66.248-10.514-2.236-13.602-4.362-9.511-6.547-20.651-10.162-32.215-10.456-15.705-.401-30.688 5.563-42.202 16.788-12.039 11.737-18.943 28.134-18.943 44.987v138.156c0 26.205 21.345 47.524 47.581 47.524h24.048c12.626 0 24.12-4.944 32.646-12.997 1.315 25.069 22.125 45.062 47.515 45.062h24.048c16.812 0 31.615-8.763 40.081-21.964 3.079 4.801 7.005 9.005 11.552 12.424-1.995 5.792-3.02 11.848-3.02 18.072 0 26.236 21.345 47.581 47.581 47.581h104.21c30.656 0 55.597-24.941 55.597-55.597v-168.854h12.561c29.376 0 55.216-17.777 64.299-44.237 6.16-17.948 3.601-36.774-7.022-51.652z"/></g></svg>