<svg id="Layer_1" height="512" viewBox="0 0 104 104" width="512" xmlns="http://www.w3.org/2000/svg"><path d="m41.358 43.611c-2.972 1.294-5.479 1.436-7.453.417-3.11-1.605-4.002-5.629-4.021-5.718-.111-.541-.643-.89-1.18-.778-.542.111-.89.639-.779 1.181.042.204 1.071 5.021 5.048 7.085.741.385 1.534.633 2.368.772-.699 1.439-1.648 2.436-2.841 2.954-.506.22-.739.809-.519 1.315.164.377.531.602.917.602.133 0 .268-.027.398-.083 1.869-.812 3.27-2.396 4.186-4.697 1.452-.098 3.009-.49 4.675-1.217.506-.221.738-.81.517-1.316-.22-.507-.81-.739-1.316-.517z"/><path d="m30.29 71.833c.097-.339.228-.676.401-1.004.88-1.668 2.69-2.803 5.38-3.373.541-.115.886-.646.771-1.186s-.644-.884-1.186-.771c-3.307.7-5.576 2.185-6.744 4.413-.532 1.014-.765 2.064-.834 3.048-.009.055-.014.108-.014.165-.12 2.291.651 4.177.698 4.29.16.383.531.613.921.613.128 0 .258-.024.384-.077.509-.212.75-.796.54-1.306-.008-.019-.489-1.219-.547-2.744 1.285-.261 4.046-.532 5.622 1.473.197.251.491.382.787.382.216 0 .435-.07.618-.214.434-.341.509-.97.168-1.404-2.004-2.548-5.108-2.573-6.966-2.304z"/><path d="m44.547 29.08c-2.61.525-4.229-.237-5.229-1.226 1.632-1.074 2.696-2.968 3.153-5.653.093-.544-.274-1.061-.818-1.153-.542-.093-1.061.274-1.153.818-.373 2.193-1.182 3.677-2.406 4.41-1.591.953-3.456.352-3.484.342-.519-.176-1.087.1-1.267.62-.181.522.096 1.091.618 1.272.062.021.904.305 2.055.305.416 0 .874-.045 1.348-.145.962 1.2 2.684 2.584 5.546 2.584.623 0 1.299-.065 2.032-.213.542-.109.893-.636.784-1.177-.109-.542-.639-.892-1.177-.784z"/><path d="m63.515 63.457c-.541-.113-1.071.23-1.186.771-.114.54.231 1.071.771 1.186 3.297.698 5.262 2.242 5.838 4.587.112.456.521.761.97.761.079 0 .16-.009.24-.029.536-.132.864-.673.732-1.21-.533-2.169-2.244-4.982-7.367-6.067z"/><path d="m65.852 56.702c.088.483.509.821.983.821.059 0 .119-.005.18-.016.543-.099.904-.619.805-1.163-.548-3.016-1.878-5.151-3.954-6.347-.144-.083-.292-.151-.438-.223.341-1.675 1.421-2.673 1.449-2.699.413-.363.455-.992.093-1.407-.362-.417-.994-.459-1.411-.097-.071.062-1.502 1.346-2.034 3.565-2.838-.57-5.506.361-5.648.411-.519.187-.788.758-.602 1.277.185.519.755.792 1.277.605.036-.012 3.624-1.256 6.324.306 1.537.89 2.538 2.561 2.975 4.966z"/><path d="m88.299 27.529c0-7.35-5.98-13.32-13.32-13.32-3.43 0-6.57 1.3-8.93 3.45-4.29-2.88-9.59-3.18-13.49-1.32-.89.42-2.08 1.22-2.92 2.62v.001c-.837-1.404-2.026-2.198-2.909-2.62-5.729-2.738-14.478-.798-18.625 7.106-1.371 2.612-1.174 5.13-.774 6.771-2.986.271-5.69 1.92-7.271 4.509-1.727 2.83-1.824 6.394-.316 9.332-3.156 2.336-4.698 6.317-3.781 10.003.321 1.293.925 2.458 1.726 3.461-1.531 3.328-2.581 8.988 4.106 13.924-.476 1.49-1.215 4.873.435 8.198 1.569 3.162 4.838 5.381 9.719 6.6.769.939 3.259 3.546 7.217 3.546 1.679 0 3.624-.47 5.811-1.735 2.284-1.321 3.757-3.072 4.627-4.957.874 1.914 2.376 3.679 4.728 4.969 2.19 1.201 4.126 1.648 5.795 1.648 3.981 0 6.446-2.543 7.211-3.469 4.882-1.219 8.152-3.438 9.721-6.601 1.65-3.326.91-6.708.435-8.198 6.689-4.938 5.636-10.599 4.105-13.926 0 0 .002-.002.002-.003.8-1 1.4-2.17 1.72-3.46.92-3.68-.62-7.66-3.78-10 .72-1.39 1.07-2.93 1.06-4.46 4.54-2.13 7.7-6.74 7.7-12.07zm-39.66-4.65v.014c.003.285-.002.578-.027.885v14.141c-1.99-1.845-4.773-2.644-4.954-2.694-.53-.146-1.082.164-1.229.696-.148.531.164 1.083.695 1.231.055.016 5.489 1.574 5.489 4.955v7.68c-2.736-.343-4.928.179-6.523 1.564-2.831 2.457-2.602 6.664-2.59 6.841.033.53.473.936.997.936.02 0 .041 0 .061-.001.55-.033.97-.507.938-1.057-.002-.034-.171-3.416 1.914-5.216 1.192-1.028 2.941-1.375 5.204-1.046v19.646c-1.638-2.475-4.11-4.111-6.883-4.365-.555-.046-1.037.354-1.087.904-.051.55.354 1.037.904 1.087 3.751.344 6.141 3.732 6.846 6.937.115.524.188 1.078.22 1.646v.339c-.006.218-.005.438 0 .659v.187c-.159 2.724-1.427 5.62-4.638 7.478-4.819 2.787-8.063.962-9.599-.411 6.116-1.853 6.394-5.826 6.402-6.009.026-.551-.4-1.02-.952-1.046-.528-.003-1.02.4-1.046.952-.001.032-.329 3.232-6.24 4.515-4.332-1.063-7.2-2.927-8.51-5.55-1.745-3.494-.136-7.261-.121-7.296.196-.441.048-.96-.351-1.232-5.519-3.763-5.586-7.98-4.344-11.197 2.111 1.679 4.936 2.51 7.821 2.061.545-.084.92-.595.835-1.141-.084-.546-.6-.918-1.141-.835-2.706.418-5.347-.557-7.069-2.378-.022-.029-.051-.05-.076-.077-.796-.867-1.388-1.918-1.681-3.101-.782-3.143.732-6.574 3.68-8.346.138-.073 2.086-1.08 4.474-.843.553.062 1.039-.347 1.093-.897.054-.549-.347-1.039-.897-1.093-2.002-.198-3.74.299-4.745.687-1.166-2.314-1.095-5.101.258-7.319 1.441-2.362 4.07-3.729 6.864-3.578.349.022.668-.138.867-.415s.243-.637.117-.955c-.406-1.016-1.192-3.676.26-6.445 3.482-6.635 11.08-8.579 15.993-6.231 1.812.865 2.74 2.435 2.773 4.721v.013zm28.17-2.1c.92 0 1.67.75 1.67 1.68 0 .92-.75 1.67-1.67 1.67-.93 0-1.68-.75-1.68-1.67 0-.93.75-1.68 1.68-1.68zm-7.67 3.13h.01c.19-.04.38-.06.58-.06.76 0 1.46.3 1.97.78v.01c.57.52.92 1.27.92 2.1 0 .52-.14 1.01-.38 1.43-.45.78-1.25 1.34-2.19 1.44v.01c-.1 0-.21.01-.32.01-1.6 0-2.89-1.29-2.89-2.89 0-1.39.98-2.55 2.3-2.83zm12.24 29.67c-.28 1.15-.84 2.17-1.6 3.02-.021.024-.041.045-.062.069-.04.039-.078.077-.11.122-.003.003-.005.006-.008.009-.02.01-.03.02-.04.04-1.72 1.77-4.33 2.71-7 2.3-.54-.09-1.06.29-1.14.83-.09.55.29 1.06.83 1.14 2.88.45 5.71-.38 7.82-2.06 0 0 .001-.001.002-.002 1.244 3.217 1.178 7.435-4.343 11.2-.397.271-.544.789-.352 1.229.017.038 1.626 3.804-.119 7.298-1.068 2.138-3.183 3.766-6.268 4.873 1.814-4.17-.268-8.316-1.906-10.166-.365-.413-.997-.451-1.412-.085-.413.366-.452.998-.085 1.412.183.207 4.438 5.121.411 9.904-.012.014-.014.032-.025.046-.011.015-.029.024-.039.04-.148.219-3.693 5.327-10.641 1.515-3.017-1.655-4.329-4.273-4.621-6.826.005-.026.008-.055.008-.079v-2.264c.036-.309.081-.614.142-.909.688-3.309 3.095-6.806 6.919-7.157.55-.05.955-.537.904-1.087-.05-.55-.536-.952-1.087-.904-2.773.254-5.234 1.881-6.879 4.351v-12.261c1.063.841 2.47 1.5 4.205 1.5 1.101 0 2.33-.264 3.674-.91.498-.239.708-.837.468-1.334-.239-.498-.836-.706-1.334-.468-4.233 2.034-6.453-.833-7.012-1.713.001-.001 0-.005 0-.005l-.01-14.04c.01 0 .01-.01 0-.02v-.056c0-.009.005-.017.005-.026 0-3.381 5.434-4.939 5.489-4.955.531-.148.843-.7.695-1.231-.148-.532-.703-.844-1.229-.696-.182.05-2.969.851-4.959 2.7v-14.226c-.02-.21-.03-.4-.02-.6-.003-.03-.001-.058-.003-.087 0-.081-.006-.156-.007-.236v-.057c.07-2.19 1-3.72 2.78-4.57 3.22-1.54 7.59-1.24 11.2 1.03-1.648 2.037-2.707 4.573-2.919 7.339-.165-.066-.329-.136-.491-.231-1.232-.73-2.047-2.217-2.422-4.42-.092-.544-.606-.915-1.153-.818-.544.092-.911.609-.818 1.153.457 2.686 1.521 4.58 3.153 5.653-.999.989-2.618 1.75-5.228 1.226-.541-.109-1.068.242-1.177.784-.109.541.242 1.068.784 1.177.733.147 1.41.213 2.032.213 2.68 0 4.355-1.214 5.349-2.354 0 .006 0 .012.001.019.22 2.04.89 3.95 1.93 5.61-1.893 3.069-1.227 6.484-1.216 6.539.099.471.514.794.977.794.067 0 .135-.007.203-.021.54-.11.888-.639.779-1.179-.031-.154-.419-2.241.573-4.357 2.44 2.776 6.027 4.534 10.004 4.534 1.24 0 2.45-.17 3.59-.5-.1 1.2-.49 2.37-1.16 3.41 0 .01-.01.02-.02.02 0 .008-.005.014-.008.02-2.624 2.942-5.098 1.953-5.222 1.9-.501-.222-1.089 0-1.316.5-.229.503-.007 1.096.496 1.325.071.032.867.381 2.053.381 1.32 0 3.125-.445 4.953-2.228.001 0 .003.002.004.003 2.52 1.86 3.76 5 3.03 7.91zm-2.53-19.42c-.35.14-.73.21-1.13.21-1.74 0-3.15-1.41-3.15-3.15 0-.13.01-.25.03-.37.18-1.57 1.51-2.79 3.12-2.79 1.74 0 3.15 1.42 3.15 3.16 0 1.34-.84 2.49-2.02 2.94z"/></svg>