<svg height="512" viewBox="0 0 60 60" width="512" xmlns="http://www.w3.org/2000/svg"><g id="Page-1" fill="none" fill-rule="evenodd"><g id="014---Breast" fill="rgb(0,0,0)" fill-rule="nonzero"><path id="Shape" d="m13 34.5c0 4.1421356 3.3578644 7.5 7.5 7.5s7.5-3.3578644 7.5-7.5-3.3578644-7.5-7.5-7.5c-4.1403079.0044093-7.4955907 3.3596921-7.5 7.5zm13 0c0 3.0375661-2.4624339 5.5-5.5 5.5s-5.5-2.4624339-5.5-5.5 2.4624339-5.5 5.5-5.5c3.0361953.0033068 5.4966932 2.4638047 5.5 5.5z"/><path id="Shape" d="m17 34.5c0 1.9329966 1.5670034 3.5 3.5 3.5s3.5-1.5670034 3.5-3.5-1.5670034-3.5-3.5-3.5-3.5 1.5670034-3.5 3.5zm5 0c0 .8284271-.6715729 1.5-1.5 1.5s-1.5-.6715729-1.5-1.5.6715729-1.5 1.5-1.5 1.5.6715729 1.5 1.5z"/><path id="Shape" d="m31 10c-.5522847 0-1 .4477153-1 1v1.49c.0500468 3.9196245 1.1595752 7.752698 3.211 11.093.2833221.4741365.8973635.6288221 1.3715.3455s.6288221-.8973635.3455-1.3715c-1.8657042-3.0303415-2.877399-6.5087334-2.928-10.067v-1.49c0-.5522847-.4477153-1-1-1z"/><path id="Shape" d="m37 43.713-7.484 8.143c-.5273531.5927619-.6584379 1.4395306-.335 2.164l2.285 4.767c.2677298.6285195.8387298 1.0761109 1.513 1.186.1094232.0179238.2201186.0269533.331.027.5628251.0008206 1.0994583-.237683 1.476-.656l8.214-8.973 8.21 8.967c.3775467.4217285.9169645.6625205 1.483.662.1105499-.0000436.2209133-.0090733.33-.027.66058-.1041131 1.2233846-.5359103 1.495-1.147l2.32-4.844c.3071674-.7204241.1669806-1.5537353-.359-2.134l-7.479-8.133 4.09-4.545c.6726757-.7479658 1.0402317-1.721097 1.03-2.727.0343053-2.701068-.524859-5.3767275-1.638-7.838-.007-.015-.014-.029-.022-.043-1.817-3.639-5.089-5.562-9.46-5.562s-7.655 1.931-9.475 5.584l-.008.018-.005.011c-1.1110891 2.4590478-1.6695329 5.1317949-1.636 7.83-.0101155 1.0057002.3570257 1.978678 1.029 2.727zm-2.607-5.881c-.3368959-.377817-.5205596-.8678245-.515-1.374-.0044534-1.8927481.287413-3.7745272.865-5.577l6.912 7.677-3.3 3.668zm8.607-.768-4.606-5.116c1.4423696-.6648835 3.0182974-.9892386 4.606-.948 1.5875865-.0411223 3.1634143.2828701 4.606.947zm12.017 16.091-2.326 4.839-8.34-9.109 3.311-3.679zm-3.752-22.283c.5769648 1.805557.8668286 3.6905151.859 5.586.005673.5063767-.1784045.9965364-.516 1.374l-9.345 10.383-8.977 9.746-2.293-4.761 8.084-8.8.025-.027zm-8.265-5.872c3.421 0 5.838 1.272 7.365 3.883l-1.372 1.524c-1.8405631-.9841908-3.9067533-1.4692784-5.993-1.407-2.0868211-.0616502-4.153497.4233895-5.995 1.407l-1.357-1.507c1.527-2.611 3.931-3.9 7.352-3.9z"/><path id="Shape" d="m56 0h-52c-2.209139 0-4 1.790861-4 4v8.48c-.016772 1.7141375 1.08081099 3.240875 2.711 3.771 1.864.605 3.265 2.341 4.184 5.138-.191.294-.378.589-.585.875-3.83955343 5.3242533-4.37661528 12.3494656-1.39100453 18.1954874 2.98561075 5.8460219 8.99172823 9.5295795 15.55600453 9.5405126.6627928-.0003511 1.3250855-.0364033 1.984-.108 4.2681285-.4736233 8.2099654-2.5100846 11.066-5.717.3621698-.4121505.3246171-1.0391465-.0841571-1.4051229-.4087742-.3659763-1.0360915-.3342398-1.4058429.0711229-5.4983813 6.1351078-14.8363819 6.894586-21.2539019 1.7286222s-7.6701632-14.4506796-2.8510981-21.1326222c.33333333-.462.64733333-.9326667.942-1.412l.011-.019c2.0326821-3.2895814 3.1117839-7.0790742 3.117-10.946v-.06c-.0012579-.2621081-.1079961-.5126708-.2961373-.6951677-.1881412-.182497-.4418378-.2815561-.7038627-.2748323-.5580229.0141405-1.00235536.4718029-1 1.03-.00620402 2.7926623-.63585444 5.5487068-1.843 8.067-.84509779-2.2165246-2.60729179-3.9593939-4.833-4.78-.79699458-.2727359-1.3302243-1.0246542-1.324-1.867v-8.48c0-1.1045695.8954305-2 2-2h52c1.1045695 0 2 .8954305 2 2v42c0 .5522847.4477153 1 1 1s1-.4477153 1-1v-42c0-2.209139-1.790861-4-4-4z"/></g></g></svg>