<svg id="icons" enable-background="new 0 0 64 64" height="64" viewBox="0 0 64 64" width="64" xmlns="http://www.w3.org/2000/svg"><g><path d="m40.44 37.033c.03-.338.047-.68.048-1.029 0-.394-.021-.782-.062-1.165-.058-.548-.544-.941-1.101-.888-.549.059-.946.551-.888 1.101.033.313.05.631.05.949-.001.286-.014.569-.04.849-.05.551.354 1.037.904 1.088.031.003.063.004.093.004.512-.001.949-.39.996-.909z"/><path d="m33.195 45.349c.178.343.527.539.889.539.155 0 .313-.036.46-.112.647-.336 1.266-.739 1.838-1.199.43-.346.498-.976.152-1.406s-.975-.5-1.406-.152c-.468.377-.975.707-1.506.982-.49.254-.681.857-.427 1.348z"/><path d="m23.632 44.172c-.276.479-.112 1.09.366 1.366.633.365 1.308.669 2.004.902.105.035.212.052.317.052.418 0 .809-.264.948-.683.176-.523-.107-1.09-.631-1.266-.569-.19-1.121-.439-1.639-.738-.476-.276-1.089-.113-1.365.367z"/><path d="m39.109 38.919c-.508-.212-1.095.028-1.308.538-.23.552-.517 1.084-.853 1.58-.31.458-.189 1.08.268 1.389.172.116.367.172.56.172.321 0 .636-.154.829-.439.411-.607.762-1.258 1.042-1.932.213-.51-.028-1.096-.538-1.308z"/><path d="m38.53 29.738c-.313-.452-.938-.568-1.392-.251-.453.314-.566.938-.251 1.392.342.492.635 1.021.872 1.57.163.379.531.604.918.604.133 0 .267-.026.396-.082.508-.219.741-.807.522-1.313-.288-.672-.647-1.317-1.065-1.92z"/><path d="m34.927 28.83c.014.011.026.022.04.033.008.006.076.06.084.066.175.133.374.195.572.195.295 0 .588-.14.79-.397.3-.382.254-.935-.059-1.294-.039-.045-.081-.086-.127-.124l-1.483-1.217c-.426-.351-1.057-.287-1.407.14s-.288 1.057.14 1.407z"/><path d="m28.264 45.975c-.014.553.422 1.012.974 1.026l.251.003c.648 0 1.302-.058 1.939-.171.544-.097.906-.615.81-1.159-.096-.543-.606-.908-1.159-.81-.523.093-1.058.14-1.59.14l-.198-.003c-.009 0-.018 0-.027 0-.541 0-.986.431-1 .974z"/><path d="m27.013 19.751c-.428-.351-1.057-.287-1.407.14s-.288 1.057.14 1.407l1.547 1.269c.186.152.41.227.633.227.29 0 .576-.125.774-.366.35-.427.288-1.057-.14-1.407z"/><path d="m24.059 19.621c.289 0 .576-.125.774-.365.35-.428.288-1.058-.139-1.408l-1.546-1.269c-.429-.35-1.058-.287-1.408.139-.35.428-.288 1.058.139 1.408l1.546 1.269c.186.152.411.226.634.226z"/><path d="m31.156 25.737c.187.152.411.227.634.227.289 0 .576-.125.774-.365.35-.428.288-1.058-.139-1.408l-1.546-1.269c-.429-.35-1.057-.287-1.408.139-.35.428-.288 1.058.139 1.408z"/><path d="m43.438 37.004h.062c.553 0 1-.447 1-1s-.447-1-1-1h-.068c-.276-3.912-2.146-7.503-5.26-9.969-.002-.003-.003-.006-.006-.008l-19.137-15.708c-.147-.413-.322-.813-.533-1.191v-7.128c0-.553-.447-1-1-1s-1 .447-1 1v4.763c-1.37-1.099-3.105-1.761-4.994-1.761-1.461 0-2.828.4-4.008 1.087v-4.089c0-.553-.447-1-1-1s-1 .447-1 1v5.736c-1.236 1.409-1.992 3.249-1.992 5.266 0 .007.004.013.004.021 0 .006-.003.012-.003.019l1.724 43.908c-.001.018-.01.031-.01.049 0 .025.013.047.015.072l.113 2.878c-.001.018-.011.032-.011.051 0 .027.014.05.016.076l.155 3.963c.02.539.464.961.998.961.014 0 .027 0 .04-.001.552-.021.981-.486.96-1.038l-.116-2.961h.107c.553 0 1-.447 1-1s-.447-1-1-1h-.185l-.04-1.001h1.226c.553 0 1-.447 1-1s-.447-1-1-1h-1.305l-1.688-43.003c.004-3.307 2.693-5.994 6-5.994 3.294 0 5.975 2.669 5.998 5.958 0 .001-.001.002-.001.003l-2.002 50.992c-.021.552.408 1.017.96 1.038.014.001.026.001.04.001.534 0 .978-.422.998-.961l1.845-46.99.221.181c.186.152.41.227.633.227.29 0 .576-.125.774-.366.35-.427.288-1.057-.14-1.407l-1.39-1.14.049-1.253 17.409 14.29c.003.003.008.004.011.006.002.002.003.004.005.006 2.908 2.294 4.576 5.727 4.576 9.418 0 6.617-5.383 12-12 12-2.105 0-4.177-.553-5.99-1.6-.479-.276-1.089-.112-1.366.366-.276.479-.112 1.09.366 1.366 1.585.915 3.338 1.506 5.149 1.746l1.862 13.255c.07.5.498.861.989.861.046 0 .093-.003.14-.01.547-.077.929-.582.852-1.129l-1.808-12.866c7.294-.101 13.244-5.802 13.756-12.99z"/><path d="m59.498 35h-9.585l.292-.292c.391-.391.391-1.023 0-1.414s-1.023-.391-1.414 0l-1.999 1.998c-.093.092-.166.203-.217.326-.102.244-.102.52 0 .764.051.123.124.234.217.326l1.999 1.998c.195.195.451.293.707.293s.512-.098.707-.293c.391-.391.391-1.023 0-1.414l-.292-.292h9.585c.553 0 1-.447 1-1s-.447-1-1-1z"/><path d="m47.203 25.294c-.391-.391-1.023-.391-1.414 0l-1.997 1.998c-.093.092-.166.203-.217.326-.102.244-.102.52 0 .764.051.123.124.234.217.326l1.997 1.998c.195.195.451.293.707.293s.512-.098.707-.293c.391-.391.391-1.023 0-1.414l-.292-.292h9.587c.553 0 1-.447 1-1s-.447-1-1-1h-9.587l.292-.292c.391-.391.391-1.023 0-1.414z"/><path d="m56.498 43.016h-9.587l.292-.292c.391-.391.391-1.023 0-1.414s-1.023-.391-1.414 0l-1.997 1.998c-.093.092-.166.203-.217.326-.102.244-.102.52 0 .764.051.123.124.234.217.326l1.997 1.998c.195.195.451.293.707.293s.512-.098.707-.293c.391-.391.391-1.023 0-1.414l-.292-.292h9.587c.553 0 1-.447 1-1s-.447-1-1-1z"/></g></svg>