<?xml version="1.0" encoding="UTF-8"?>
<svg xmlns="http://www.w3.org/2000/svg" viewBox="0 0 64 64" width="512" height="512"><g id="Layer_32" data-name="Layer 32"><path d="M4,24a5.995,5.995,0,0,0,11.391,2.617,24.512,24.512,0,0,0,6.838-2.267,20.923,20.923,0,0,0,.982,2.308,7.472,7.472,0,0,1,0,6.684A21.054,21.054,0,0,0,21,42.708a33.716,33.716,0,0,0,1.14,8.7l2.894,10.854A1,1,0,0,0,26,63H38a1,1,0,0,0,.966-.742L41.86,51.4a33.716,33.716,0,0,0,1.14-8.7,21.049,21.049,0,0,0-2.159-9.261L40,29.888a7.518,7.518,0,0,1,.788-3.23,20.923,20.923,0,0,0,.982-2.308,24.512,24.512,0,0,0,6.838,2.267A5.994,5.994,0,0,0,59.7,22.133,24.829,24.829,0,0,0,63,9.787V8.75a7.75,7.75,0,0,0-12.4-6.2L46.147,5.89a6.157,6.157,0,0,1-6.323.4L38.13,5.447a13.95,13.95,0,0,0-12.26,0l-1.693.847a6.163,6.163,0,0,1-6.324-.4L13.4,2.55A7.75,7.75,0,0,0,1,8.75V9.787A24.829,24.829,0,0,0,4.3,22.133,5.976,5.976,0,0,0,4,24Zm6,4a4,4,0,1,1,4-4A4,4,0,0,1,10,28Zm.635-9.966L9.817,16.4A7.786,7.786,0,0,1,9,12.937a1.937,1.937,0,0,1,3.177-1.488l2.11,1.759A12.072,12.072,0,0,0,21,15.958v1.334c0,.288.013.576.025.864a18.722,18.722,0,0,1-6.092,2.437A6,6,0,0,0,10.635,18.034Zm5.342,6.43c.011-.153.023-.307.023-.464a6,6,0,0,0-.2-1.527,20.825,20.825,0,0,0,5.442-2.105q.155,1.029.406,2.039A22.542,22.542,0,0,1,15.977,24.464ZM29,42a3,3,0,0,1,6,0c0,.332-.023.667-.029,1H29.029C29.023,42.667,29,42.332,29,42Zm5-18.6V37.424a4.929,4.929,0,0,0-4,0V23.4a19.336,19.336,0,0,0-3.31-10.792,23.454,23.454,0,0,1,10.62,0A19.336,19.336,0,0,0,34,23.4ZM34.908,45c-.057.958-.14,1.914-.252,2.862L34.522,49H29.478l-.134-1.138c-.112-.948-.2-1.9-.252-2.862Zm-.621,6-.47,4H30.183l-.47-4Zm-3.868,6h3.162l-.47,4H30.889ZM42.356,22.407q.253-1.009.406-2.039A20.825,20.825,0,0,0,48.2,22.473,6,6,0,0,0,48,24c0,.157.012.311.023.464A22.542,22.542,0,0,1,42.356,22.407Zm6.711-1.814a18.722,18.722,0,0,1-6.092-2.437c.012-.288.025-.576.025-.864V15.958a12.072,12.072,0,0,0,6.713-2.75l2.11-1.759A1.937,1.937,0,0,1,55,12.937a7.786,7.786,0,0,1-.817,3.461l-.818,1.636A6,6,0,0,0,49.067,20.593ZM54,28a4,4,0,1,1,4-4A4,4,0,0,1,54,28ZM3,9.787V8.75a5.751,5.751,0,0,1,9.2-4.6l4.452,3.34A7.6,7.6,0,0,0,21.185,9a8.747,8.747,0,0,0,3.886-.917l1.693-.847a11.913,11.913,0,0,1,10.472,0l1.694.847A8.739,8.739,0,0,0,42.815,9a7.6,7.6,0,0,0,4.533-1.511L51.8,4.149A5.751,5.751,0,0,1,61,8.75V9.787a22.826,22.826,0,0,1-2.46,10.3A6.009,6.009,0,0,0,55.517,18.2l.455-.909A9.792,9.792,0,0,0,57,12.937a3.937,3.937,0,0,0-6.457-3.025l-2.11,1.759A10.069,10.069,0,0,1,42,14a1,1,0,0,0-1,1v2.292a19.032,19.032,0,0,1-2,8.472A9.521,9.521,0,0,0,38,30a.982.982,0,0,0,.027.229l.894,3.79a.989.989,0,0,0,.079.217,19.032,19.032,0,0,1,2,8.472,31.77,31.77,0,0,1-1.072,8.181L37.232,61H35.125l1.518-12.9A52.454,52.454,0,0,0,37,42a4.952,4.952,0,0,0-1-2.969V23.4a17.314,17.314,0,0,1,3.781-10.778,1,1,0,0,0-.538-1.6l-1.09-.272a25.466,25.466,0,0,0-12.306,0l-1.09.272a1,1,0,0,0-.538,1.6A17.314,17.314,0,0,1,28,23.4V39.031A4.952,4.952,0,0,0,27,42a52.454,52.454,0,0,0,.357,6.1L28.875,61H26.768l-2.7-10.111A31.77,31.77,0,0,1,23,42.708a19.032,19.032,0,0,1,2-8.472,9.472,9.472,0,0,0,0-8.472,19.032,19.032,0,0,1-2-8.472V15a1,1,0,0,0-1-1,10.069,10.069,0,0,1-6.433-2.329l-2.11-1.759A3.937,3.937,0,0,0,7,12.937a9.792,9.792,0,0,0,1.028,4.356l.455.909A6.009,6.009,0,0,0,5.46,20.088,22.826,22.826,0,0,1,3,9.787Z"/><path d="M63,46.332a7.453,7.453,0,0,0-1.725-4.764l-.946-1.135a9.54,9.54,0,0,0-14.658,0l-.946,1.135a7.441,7.441,0,0,0,.455,10.026L47.586,54l-3.293,3.293a1,1,0,0,0,0,1.414l4,4a1,1,0,0,0,1.414,0L53,59.414l3.293,3.293a1,1,0,0,0,1.414,0l4-4a1,1,0,0,0,0-1.414L58.414,54l2.406-2.406A7.393,7.393,0,0,0,63,46.332ZM53,39a7.5,7.5,0,0,1,4.947,1.865A8.614,8.614,0,0,1,56.9,44.216a7.186,7.186,0,0,0-7.8,0,8.636,8.636,0,0,1-1.058-3.356A7.519,7.519,0,0,1,53,39Zm-2.464,7.121c-.093-.093-.177-.192-.266-.289a5.141,5.141,0,0,1,5.458,0c-.088.1-.171.2-.264.29L53,48.586ZM49,60.586,46.414,58,49,55.414,51.586,58ZM59.586,58,57,60.586,46.594,50.18a5.44,5.44,0,0,1-.333-7.33l.095-.115a10.621,10.621,0,0,0,2.766,4.8ZM57,52.586,54.414,50l2.464-2.465a10.634,10.634,0,0,0,2.759-4.808l.1.123a5.44,5.44,0,0,1-.333,7.33Z"/></g></svg>
