<svg id="Layer_3" enable-background="new 0 0 64 64" height="512" viewBox="0 0 64 64" width="512" xmlns="http://www.w3.org/2000/svg"><g><path d="m45 1c-9.408 0-17.141 7.259-17.922 16.468-1.875-.96-3.945-1.468-6.078-1.468h-3c-9.374 0-17 7.626-17 17 0 6.041 1.428 12.091 4.13 17.496l.827 1.653-1.94 10.672 1.968.357 1.905-10.476c3.145-1.356 5.417-4.136 6.092-7.507.059-.294-.017-.599-.207-.83s-.475-.365-.775-.365c-1.654 0-3-1.346-3-3v-3c0-1.103.897-2 2-2s2 .897 2 2v2c0 .375.209.718.542.89.333.171.734.143 1.039-.076l5.69-4.064c1.083-.773 1.729-2.029 1.729-3.36 0-1.857-1.251-3.495-3.042-3.983l-4.767-1.3c-1.879-.513-3.191-2.231-3.191-4.177 0-1.011.356-1.995 1.003-2.771l2.436-2.923c.834-.145 1.687-.236 2.561-.236h3c2.148 0 4.22.605 6.029 1.739.067 1.576.333 3.146.821 4.683l-2.682 4.023c-.219.328-.224.754-.014 1.088.21.333.599.512.987.457l4.172-.596c.756 1.068 1.621 2.033 2.565 2.896.077 1.008.122 2.023.122 3.027v.269l-1.707 1.707c-.337.337-.39.865-.125 1.262l3.613 5.42c.143.214.219.464.219.722 0 .719-.584 1.303-1.303 1.303h-.697c-.459 0-.859.312-.97.758l-1 4c-.02.079-.03.16-.03.242v3c0 1.654-1.346 3-3 3h-6c-.409 0-.776.249-.929.629l-2 5 1.857.742 1.749-4.371h5.323c2.757 0 5-2.243 5-5v-2.877l.781-3.124c1.782-.045 3.219-1.509 3.219-3.302 0-.654-.192-1.288-.555-1.832l-3.159-4.738 1.42-1.42c.189-.187.294-.441.294-.707v-.683c0-.456-.014-.915-.03-1.374 2.921 1.966 6.394 3.057 10.03 3.057 9.925 0 18-8.075 18-18s-8.075-18-18-18zm-30.336 29.036 4.767 1.3c.924.252 1.569 1.097 1.569 2.054 0 .687-.333 1.334-.891 1.732l-4.109 2.935v-.057c0-2.206-1.794-4-4-4s-4 1.794-4 4v3c0 2.323 1.592 4.281 3.743 4.84-.713 2.126-2.248 3.867-4.276 4.858l-.548-1.097c-2.564-5.127-3.919-10.869-3.919-16.601 0-6.125 3.694-11.396 8.967-13.723l-.5.6c-.946 1.136-1.467 2.575-1.467 4.053 0 2.845 1.918 5.356 4.664 6.106zm27.159-5.448c.138.238.368.409.636.473.907.213 1.541 1.011 1.541 1.939 0 1.103-.897 2-2 2s-2-.897-2-2c0-.335.092-.666.273-.982.167-.292.176-.647.025-.947-.09-.179-.154-.369-.236-.553.009-.006.02-.009.029-.015l1.273-.784c.145.294.295.585.459.869zm.662-10.058.249-.831 3.866-2.899c.184-.138.314-.334.37-.558l1.7-6.801c.536.127 1.06.28 1.574.459l-2.115 8.461-5.987 3.684c.081-.511.194-1.017.343-1.515zm-1.916-.574c-.332 1.105-.517 2.249-.557 3.401l-.881.542c.229-1.585.765-3.116 1.595-4.498l.02-.032zm-3.554 5.245-.971.598c-.214.132-.46.201-.711.201-.184 0-.333-.149-.333-.333 0-.104.05-.205.133-.268l1.976-1.482c-.051.426-.081.854-.094 1.284zm2.028 3.598c-.213.132-.459.201-.71.201-.184 0-.333-.149-.333-.333 0-.104.05-.205.133-.268l11.467-8.599c.184-.138.314-.334.37-.558l2.139-8.555c1.281.639 2.461 1.442 3.519 2.385l-4.383 8.217zm5.957 12.201c-5.4 0-10.401-2.704-13.375-7.232-.187-.284-.502-.451-.836-.451-.047 0-.094.003-.141.01l-2.575.368 1.712-2.569c.174-.261.215-.587.113-.883-.596-1.716-.898-3.479-.898-5.243 0-8.822 7.178-16 16-16 .573 0 1.138.033 1.696.092l-1.58 6.321-1.414 1.06 1.256-4.186c.145-.482-.093-.998-.554-1.202-.461-.202-1.001-.031-1.261.4l-4.132 6.887c-.479.798-.873 1.639-1.184 2.508l-3.894 2.92c-.584.438-.933 1.137-.933 1.867 0 1.286 1.047 2.333 2.333 2.333.277 0 .55-.039.816-.106-.088.248-.149.505-.149.773 0 1.197.911 2.176 2.074 2.307.075.181.138.367.22.545-.195.476-.294.972-.294 1.481 0 2.206 1.794 4 4 4s4-1.794 4-4c0-1.703-1.062-3.187-2.635-3.754-.103-.192-.179-.395-.271-.592l9.429-5.802c.151-.093.275-.225.358-.381l4.219-7.909c2.423 2.806 3.9 6.449 3.9 10.438 0 8.822-7.178 16-16 16z"/></g></svg>