<?xml version="1.0" encoding="UTF-8"?>
<svg xmlns="http://www.w3.org/2000/svg" xmlns:xlink="http://www.w3.org/1999/xlink" version="1.1" id="Capa_1" x="0px" y="0px" viewBox="0 0 512 512" style="enable-background:new 0 0 512 512;" xml:space="preserve" width="512" height="512">
<g>
	
		<line style="fill:none;stroke:#000000;stroke-width:15;stroke-linecap:round;stroke-linejoin:round;stroke-miterlimit:10;" x1="241.696" y1="379" x2="241.696" y2="409"/>
	
		<line style="fill:none;stroke:#000000;stroke-width:15;stroke-linecap:round;stroke-linejoin:round;stroke-miterlimit:10;" x1="241.696" y1="439" x2="241.696" y2="469"/>
	<path style="fill:none;stroke:#000000;stroke-width:15;stroke-linecap:round;stroke-linejoin:round;stroke-miterlimit:10;" d="&#10;&#9;&#9;M242.5,318.966c-0.518,0.322-0.805,0.458-0.805,0.458s-29.533-14.072-29.533-92.323c0-32.395,13.223-46.143,29.533-46.143&#10;&#9;&#9;s29.533,13.748,29.533,46.143c0,40.906-8.071,64.274-15.774,77.261"/>
	<g>
		<path style="fill:none;stroke:#000000;stroke-width:15;stroke-linecap:round;stroke-linejoin:round;stroke-miterlimit:10;" d="&#10;&#9;&#9;&#9;M266.96,358.429l-7.707-6.456c-15.282-12.801-20.777-33.854-13.698-52.472l0,0l32.206,16.925c2.404,1.264,4.667,2.78,6.748,4.524&#10;&#9;&#9;&#9;l64.421,53.964"/>
		<path style="fill:none;stroke:#000000;stroke-width:15;stroke-linecap:round;stroke-linejoin:round;stroke-miterlimit:10;" d="&#10;&#9;&#9;&#9;M330.546,396.785c-4.061,4.832-11.277,5.462-16.117,1.408l-20.986-17.58"/>
		<path style="fill:none;stroke:#000000;stroke-width:15;stroke-linecap:round;stroke-linejoin:round;stroke-miterlimit:10;" d="&#10;&#9;&#9;&#9;M504.5,504.5L346.374,372.772c-6.226-5.215-15.596-4.229-20.578,2.299c-4.666,6.114-3.394,14.891,2.504,19.832l10.348,8.668&#10;&#9;&#9;&#9;c9.767,8.182,14.792,20.695,13.391,33.346l0,0c-0.959,8.657,2.479,17.219,9.163,22.817l52.684,44.766l0.249-0.022l4.181-70.605"/>
		
			<line style="fill:none;stroke:#000000;stroke-width:15;stroke-linecap:round;stroke-linejoin:round;stroke-miterlimit:10;" x1="387.323" y1="480.762" x2="391.627" y2="410.679"/>
	</g>
	<g>
		<path style="fill:none;stroke:#000000;stroke-width:15;stroke-linecap:round;stroke-linejoin:round;stroke-miterlimit:10;" d="&#10;&#9;&#9;&#9;M377.443,147.781c5.199,11.955,8.082,25.15,8.082,39.018c0,33.246-16.452,62.541-41.78,80.238"/>
		<g>
			
				<line style="fill:none;stroke:#000000;stroke-width:15;stroke-linecap:round;stroke-linejoin:round;stroke-miterlimit:10;" x1="305.064" y1="147.713" x2="251.84" y2="147.713"/>
			
				<line style="fill:none;stroke:#000000;stroke-width:15;stroke-linecap:round;stroke-linejoin:round;stroke-miterlimit:10;" x1="403.643" y1="147.713" x2="340.106" y2="147.713"/>
			<path style="fill:none;stroke:#000000;stroke-width:15;stroke-linecap:round;stroke-linejoin:round;stroke-miterlimit:10;" d="&#10;&#9;&#9;&#9;&#9;M179.635,186.904v-44.221c0-36.051,29.126-65.381,64.928-65.381h159.08"/>
		</g>
		<g>
			<path style="fill:none;stroke:#000000;stroke-width:15;stroke-linecap:round;stroke-linejoin:round;stroke-miterlimit:10;" d="&#10;&#9;&#9;&#9;&#9;M114.088,107.707C129.231,50.038,181.71,7.5,244.122,7.5h37.673c38.544,0,69.791,31.252,69.791,69.802v0"/>
		</g>
		<g>
			
				<line style="fill:none;stroke:#000000;stroke-width:15;stroke-linecap:round;stroke-linejoin:round;stroke-miterlimit:10;" x1="113.175" y1="38.346" x2="113.175" y2="106.915"/>
			
				<line style="fill:none;stroke:#000000;stroke-width:15;stroke-linecap:round;stroke-linejoin:round;stroke-miterlimit:10;" x1="43.253" y1="142" x2="43.253" y2="38.346"/>
		</g>
		<path style="fill:none;stroke:#000000;stroke-width:15;stroke-linecap:round;stroke-linejoin:round;stroke-miterlimit:10;" d="&#10;&#9;&#9;&#9;M363.346,386.742c-0.893-2.838-1.934-5.661-3.127-8.46c-7.997-18.769-14.961-40.132-14.936-88.547&#10;&#9;&#9;&#9;c0.045-85.86-70.897-155.388-158.115-155.388h-0.366c-2.163,0-4.314,0.047-6.453,0.14 M50.993,336.594&#10;&#9;&#9;&#9;C77.916,433.376,167.897,504.5,274.754,504.5h0c9.298,0,18.293-1.278,26.814-3.666c25.209-7.064,44.535-23.852,55.568-44.896"/>
		<path style="fill:none;stroke:#000000;stroke-width:15;stroke-linecap:round;stroke-linejoin:round;stroke-miterlimit:10;" d="&#10;&#9;&#9;&#9;M154.683,246.032c15.503-12.874,24.952-28.264,24.952-59.05l-0.284-21.005c-0.354-26.165-17.878-48.979-43.064-56.064l0,0&#10;&#9;&#9;&#9;c-13.832-3.891-28.607-2.605-41.559,3.617l-28.989,13.925c-20.214,9.71-36.695,25.77-46.926,45.728l0,0&#10;&#9;&#9;&#9;c-8.751,17.071-12.438,36.01-11.016,54.675"/>
		<path style="fill:none;stroke:#000000;stroke-width:15;stroke-linecap:round;stroke-linejoin:round;stroke-miterlimit:10;" d="&#10;&#9;&#9;&#9;M16.263,261.568c0.246,0.556,0.497,1.111,0.753,1.664l33.974,73.341c27.065-37.592,53.307-56.356,74.954-70.606"/>
		
			<line style="fill:none;stroke:#000000;stroke-width:15;stroke-linecap:round;stroke-linejoin:round;stroke-miterlimit:10;" x1="277.252" y1="7.967" x2="277.252" y2="45.395"/>
		
			<line style="fill:none;stroke:#000000;stroke-width:15;stroke-linecap:round;stroke-linejoin:round;stroke-miterlimit:10;" x1="244.563" y1="76.901" x2="244.563" y2="41.771"/>
		
			<line style="fill:none;stroke:#000000;stroke-width:15;stroke-linecap:round;stroke-linejoin:round;stroke-miterlimit:10;" x1="189.742" y1="19.423" x2="198.846" y2="51.32"/>
		
			<line style="fill:none;stroke:#000000;stroke-width:15;stroke-linecap:round;stroke-linejoin:round;stroke-miterlimit:10;" x1="164.898" y1="81.383" x2="189.742" y2="102.958"/>
		
			<line style="fill:none;stroke:#000000;stroke-width:15;stroke-linecap:round;stroke-linejoin:round;stroke-miterlimit:10;" x1="309.941" y1="76.795" x2="309.941" y2="52.208"/>
		<path style="fill:none;stroke:#000000;stroke-width:15;stroke-linecap:round;stroke-linejoin:round;stroke-miterlimit:10;" d="&#10;&#9;&#9;&#9;M433.5,112.568c0,19.478-13.292,35.145-29.857,35.145c-16.566,0-30.133-15.667-30.133-35.145s13.567-35.265,30.133-35.265&#10;&#9;&#9;&#9;C420.208,77.302,433.5,93.09,433.5,112.568z"/>
		
			<ellipse style="fill:none;stroke:#000000;stroke-width:15;stroke-linecap:round;stroke-linejoin:round;stroke-miterlimit:10;" cx="78.214" cy="38.483" rx="34.961" ry="30"/>
	</g>
</g>















</svg>
