<svg id="icons" enable-background="new 0 0 128 128" viewBox="0 0 128 128" xmlns="http://www.w3.org/2000/svg"><g fill="none" stroke="#000" stroke-miterlimit="10" stroke-width="2"><path d="m48.1011086 40.1110458c-2.2473946-7.5707664-9.6252174-12.9348335-18.1037579-12.0624332-7.8806496.8108788-14.2687092 7.1792088-15.1009912 15.0576267-.5093803 4.8218231.998786 9.2904549 3.7843657 12.6657906 0 0 11.1405468 10.8818779 11.1405468 19.43433 0 0 5.0734882.7247772 7.4652729 5.7982712 3.4789658 7.1028824-1.7406578 8.9440613-1.7406578 8.9440613 0 7.4073257 6.1790962 13.3714371 13.6639404 13.0189667 7.0104218-.3301239 12.4038086-6.3690033 12.403801-13.3871994l-.0000076-3.6925201c0-1.1045685-.8954315-1.9999924-2-1.9999924h-8.5652275c-1.240757 0-2.2465897-1.0058365-2.2465897-2.2465897v-.2955246c0-.5958328.2366943-1.1672592.6580124-1.5885773.7387352-.738739.870739-1.8892136.3185234-2.7760696l-7.7208557-12.3996277c-.9928856-1.5945702-.9529724-3.6244392.1018257-5.1787491l.3858948-.5686378c.7524452-1.1087685.9663544-2.4756966.6861839-3.7860565-1.5508652-7.2534485 2.2738342-11.2893562 4.1987991-12.80867.6382407-.5037424.9023093-1.3489343.6709213-2.1283991z"/><path d="m80.0678482 40.1110458c2.2473907-7.5707664 9.6252136-12.9348335 18.1037521-12.0624332 7.8806534.8108788 14.2687149 7.1792088 15.1009979 15.0576267.5093765 4.8218231-.9987869 9.2904549-3.7843704 12.6657906 0 0-11.1405411 10.8818779-11.1405411 19.43433 0 0-5.073494.7247772-7.4652786 5.7982712-3.4789658 7.1028824 1.7406616 8.9440613 1.7406616 8.9440613 0 7.4073257-6.1791 13.3714371-13.6639404 13.0189667-7.0104218-.3301239-12.4038086-6.3690033-12.403801-13.3871994l.0000076-3.6925201c0-1.1045685.8954315-1.9999924 2-1.9999924h8.5652237c1.2407608 0 2.2465897-1.0058365 2.2465897-2.2465897v-.2955246c0-.5958328-.2366943-1.1672592-.6580124-1.5885773-.7387314-.738739-.8707352-1.8892136-.3185196-2.7760696l7.7208557-12.3996277c.9928818-1.5945702.9529724-3.6244392-.1018295-5.1787491l-.3858948-.5686378c-.7524414-1.1087685-.9663544-2.4756966-.6861801-3.7860565 1.5508652-7.2534485-2.2738342-11.2893562-4.1987991-12.80867-.6382446-.5037424-.9023132-1.3489343-.6709213-2.1283991z"/><path d="m35.545887 89.9486923s-3.2603493 1.1304321-5.7970943-2.4934845"/><path d="m33.2277565 90.1155472s-5.4358807 6.2545013-5.4358807 24.9539261h-12.0676527v-11.0974197c0-2.4775162-.984189-4.8535538-2.7360573-6.605423l-.0000048-.0000076c-1.7518682-1.7518692-2.7360573-4.1279068-2.7360573-6.605423v-1.5114517c0-4.1533661 3.3669682-7.52034 7.5203323-7.52034h.0000095c.5330811 0 1.056139.1448822 1.5132523.4191513l1.5588417.9353027c1.2128353.7276993 2.771883.4890976 3.7115574-.5680389h.0000019c.4276237-.4810791.6862946-1.0948334.7308025-1.7369461.4044304-5.8347397 4.5343704-5.5725174 4.5343704-5.5725174" stroke-linejoin="round"/><path d="m23.08078 87.4552078s.4348698 6.0139236-4.4211826 7.6818161"/><path d="m38.1839828 87.0596695h6.6656647c.4062576 0 .8028793.1237183 1.1370888.3546906l5.906147 4.08181c.8279381.5721893 1.3221283 1.5144577 1.3221283 2.5208817v.0000076c0 1.6923828-1.3719521 3.0643387-3.0643387 3.0643387h-.0000114c-3.3618011 0-6.0870781-2.7252808-6.0870781-6.0870819v-3.9869843"/><path d="m89.7799606 87.0596695h-6.6656646c-.4062576 0-.8028793.1237183-1.1370926.3546906l-5.9061508 4.08181c-.8279343.5721893-1.3221207 1.5144577-1.3221207 2.5208817v.0000076c0 1.6923828 1.3719482 3.0643387 3.0643387 3.0643387h.0000076c3.3618011 0 6.0870819-2.7252808 6.0870819-6.0870819v-3.9869843"/><path d="m92.5151367 89.9486923s3.2603531 1.1304321 5.7970963-2.4934845"/><path d="m94.8332672 90.1155472s5.4358826 6.2545013 5.4358826 24.9539261h12.0676498v-11.0974197c0-2.4775162.9841919-4.8535538 2.7360611-6.605423v-.0000076c1.7518692-1.7518692 2.7360611-4.1279068 2.7360611-6.605423v-1.5114517c0-4.1533661-3.3669662-7.52034-7.5203323-7.52034h-.0000076c-.5330811 0-1.0561447.1448822-1.5132523.4191513l-1.5588455.9353027c-1.2128372.7276993-2.7718811.4890976-3.7115555-.5680389-.4276276-.4810791-.6862946-1.0948334-.7308044-1.7369461-.4044342-5.8347397-4.5343704-5.5725174-4.5343704-5.5725174" stroke-linejoin="round"/><path d="m104.9802475 87.4552078s-.4348755 6.0139236 4.4211807 7.6818161"/><path d="m20.2570934 45.1072998c0-6.4273415 5.2103901-11.6377296 11.6377335-11.6377296"/><path d="m108.1313477 45.1072998c0-6.4273415-5.2103882-11.6377296-11.6377335-11.6377296"/><path d="m79.9833755 41.2863159-6.2099075 3.7938766c-.5214767.3185921-.8737183.8586311-.9369659 1.4664497-.4615097 4.4347191-4.2108078 7.8922043-8.7676392 7.8922043-4.5546684 0-8.3025627-3.4541931-8.7669792-7.8858719-.0640411-.6111031-.4191589-1.1536064-.9450188-1.4714394l-6.2792168-3.7952194"/><path d="m85.0496445 57.810276s-8.0173264-.4369888-10.7146378 9.4310112c-.2092896.7656937-.8639297 1.3253784-1.6495819 1.4387283-1.7303848.2496567-4.8533173.9012146-7.6606979 2.5457153-.6136932.3594894-1.374733.3594894-1.9884262 0-2.8073845-1.6445007-5.9303207-2.2960587-7.6607056-2.5457153-.7856445-.1133499-1.4402885-.6730347-1.6495819-1.4387283-2.6973038-9.868-10.7146339-9.4310112-10.7146339-9.4310112"/><path d="m72.5431595 60.9676552c-2.2266006-2.0929527-5.2155991-3.3843117-8.5126114-3.3843117-3.29702 0-6.2860184 1.2913589-8.512619 3.3843117"/><path d="m60.7153358 70.0966797 1.3690109 3.6508789c.6575394 1.7535248 3.1486778 1.7224579 3.7622719-.0469284l1.2087479-3.4855652"/><path d="m73.2479324 45.0370712-1.6040039-3.3917656c-.505661-1.0692558-.7679367-2.2373352-.7679367-3.4201279v-26.9895381l-14.1471825.0444651v26.9895363c0 1.1827965-.2622719 2.3508759-.7679367 3.4201317l-1.6040077 3.3917618" stroke-linejoin="round"/><path d="m56.729 22.272h14.147"/><path d="m56.729 34.292h14.147"/><path d="m70.6924133 14.671525h3.0966339c1.1125259 0 2.0144119.901885 2.0144119 2.0144148v.0000038c0 1.1125317-.901886 2.0144157-2.0144119 2.0144157h-3.0966339"/><path d="m70.6924133 26.2676945h3.0966339c1.1125259 0 2.0144119.9018841 2.0144119 2.0144138v.0000038c0 1.1125317-.901886 2.0144157-2.0144119 2.0144157h-3.0966339"/><path d="m70.8759918 36.8853455h4.1517334c.7333145 0 1.3277817.594471 1.3277817 1.3277893 0 .4792175-.2582245.9212494-.6756592 1.1566124l-4.0359192 2.2755585"/><path d="m56.7288094 14.671525h-3.0966339c-1.1125298 0-2.0144157.901885-2.0144157 2.0144148v.0000038c0 1.1125317.901886 2.0144157 2.0144157 2.0144157h3.0966339"/><path d="m56.7288094 26.2676945h-3.0966339c-1.1125298 0-2.0144157.9018841-2.0144157 2.0144138v.0000038c0 1.1125317.901886 2.0144157 2.0144157 2.0144157h3.0966339"/><path d="m56.5452309 36.8853455h-4.1517334c-.7333145 0-1.3277855.594471-1.3277855 1.3277893 0 .4792175.2582245.9212494.6756592 1.1566124l4.0359192 2.2755585"/><path d="m58.055 62.512h4.295"/><path d="m65.711 62.512h4.295"/><path d="m59.055 65.988h2.295"/><path d="m66.711 65.988h2.295"/></g></svg>