<?xml version="1.0" encoding="UTF-8"?>
<svg xmlns="http://www.w3.org/2000/svg" xmlns:xlink="http://www.w3.org/1999/xlink" version="1.1" id="Capa_1" x="0px" y="0px" viewBox="0 0 512.7 512.7" style="enable-background:new 0 0 512.7 512.7;" xml:space="preserve" width="512" height="512">
<g>
	<path style="fill:none;stroke:#000000;stroke-width:15;stroke-linecap:round;stroke-linejoin:round;stroke-miterlimit:10;" d="&#10;&#9;&#9;M197.166,332.027c-0.659,44.389,27.896,100.543,17.146,172.823h84.075c-3.88-26.088-2.637-50.073,0.502-72.165"/>
	<path style="fill:none;stroke:#000000;stroke-width:15;stroke-linecap:round;stroke-linejoin:round;stroke-miterlimit:10;" d="&#10;&#9;&#9;M304.048,403.685c5.477-26.616,11.69-50.167,11.493-71.107"/>
	<path style="fill:none;stroke:#000000;stroke-width:15;stroke-linecap:round;stroke-linejoin:round;stroke-miterlimit:10;" d="&#10;&#9;&#9;M276.046,346.006c-1.388,42.053-8.801,93.949-5.553,158.844h-28.286c3.284-65.632-4.335-117.967-5.598-160.272"/>
	
		<line style="fill:none;stroke:#000000;stroke-width:15;stroke-linecap:round;stroke-linejoin:round;stroke-miterlimit:10;" x1="237.958" y1="306.596" x2="274.742" y2="306.596"/>
	
		<line style="fill:none;stroke:#000000;stroke-width:15;stroke-linecap:round;stroke-linejoin:round;stroke-miterlimit:10;" x1="199.947" y1="220.064" x2="312.754" y2="220.064"/>
	<path style="fill:none;stroke:#000000;stroke-width:15;stroke-linecap:round;stroke-linejoin:round;stroke-miterlimit:10;" d="&#10;&#9;&#9;M33.259,214.445c-4.131,11.857,0.227,27.328,11.652,39.185"/>
	<path style="fill:none;stroke:#000000;stroke-width:15;stroke-linecap:round;stroke-linejoin:round;stroke-miterlimit:10;" d="&#10;&#9;&#9;M144.145,207.74c-8.142,9.069-18.71,18.424-30.221,23.364c-4.85,2.081-10.385-0.124-12.658-4.887&#10;&#9;&#9;c-2.731-5.723-6.822-11.239-12.169-15.995c-9.638-8.573-21.256-12.817-31.56-12.476"/>
	<path style="fill:none;stroke:#000000;stroke-width:15;stroke-linecap:round;stroke-linejoin:round;stroke-miterlimit:10;" d="&#10;&#9;&#9;M70.274,268.116c8.095,1.746,16.087,1.008,22.502-2.633c5.664-3.216,11.673-5.83,18.042-7.198&#10;&#9;&#9;c20.795-4.467,38.251-18.991,50.369-32.158"/>
	<g>
		<path style="fill:none;stroke:#000000;stroke-width:15;stroke-linecap:round;stroke-linejoin:round;stroke-miterlimit:10;" d="&#10;&#9;&#9;&#9;M368.819,208.034c8.106,8.977,18.57,18.185,29.957,23.071c4.85,2.081,10.385-0.124,12.658-4.887&#10;&#9;&#9;&#9;c2.731-5.723,6.822-11.239,12.169-15.995c9.598-8.537,21.158-12.781,31.429-12.48"/>
		<path style="fill:none;stroke:#000000;stroke-width:15;stroke-linecap:round;stroke-linejoin:round;stroke-miterlimit:10;" d="&#10;&#9;&#9;&#9;M479.415,214.37c4.524,12.854-0.959,29.986-14.631,42.148c-13.595,12.093-32.265,16.114-44.859,8.965&#10;&#9;&#9;&#9;c-5.664-3.215-11.673-5.83-18.041-7.198c-20.794-4.467-38.25-18.989-50.368-32.156"/>
	</g>
	<path style="fill:none;stroke:#000000;stroke-width:15;stroke-linecap:round;stroke-linejoin:round;stroke-miterlimit:10;" d="&#10;&#9;&#9;M320.845,154.27c-33.399,45.471-35.291,114.811-49.481,172.388c-2.618,10.62,5.427,20.874,16.366,20.874h0&#10;&#9;&#9;c17.326,0,31.348-14.008,31.475-31.334c0.039-5.257-0.17-9.822-0.65-12.434c-4.707-25.635,3.198-51.944,22.225-69.757&#10;&#9;&#9;c13.881-12.995,29.209-27.085,42.143-46.513c12.846-19.295,20.822-41.391,23.779-64.351l10.646,6.138&#10;&#9;&#9;c16.497,9.511,35.858,12.674,54.523,8.898c2.171-0.438,3.806,0.403,4.587,0.944c0.771,0.533,2.118,1.747,2.467,3.89&#10;&#9;&#9;c1.225,7.506,1.569,15.444,1.021,23.594c-0.752,11.198-6.955,21.336-16.591,27.118l-5.449,3.269&#10;&#9;&#9;c-5.896,3.537-8.147,11.442-4.612,17.339c2.343,3.908,6.486,6.075,10.733,6.075c2.189,0,4.405-0.575,6.419-1.783l5.771-3.462&#10;&#9;&#9;c16.654-9.992,27.373-27.518,28.673-46.88c0.675-10.053,0.24-19.909-1.292-29.296c-1.708-10.47-8.486-19.216-18.67-23.601&#10;&#9;&#9;c-5.729-2.467-12.099-2.881-18.218-1.669c-12.63,2.502-25.718,0.34-36.877-6.094l-15.848-9.137"/>
	<path style="fill:none;stroke:#000000;stroke-width:15;stroke-linecap:round;stroke-linejoin:round;stroke-miterlimit:10;" d="&#10;&#9;&#9;M359.689,68.731c-19.364-7.232-39.954-10.881-60.728-10.881h-85.222c-27.149,0-53.984,6.232-78.178,18.55&#10;&#9;&#9;c-10.088,5.136-19.631,10.99-28.743,17.412l-23.954,13.811c-11.259,6.491-24.486,8.537-37.236,6.022&#10;&#9;&#9;c-8.28-1.633-16.655,0.111-23.603,4.913c-6.972,4.819-11.563,12.075-12.925,20.429c-1.532,9.387-1.966,19.243-1.292,29.296&#10;&#9;&#9;c1.3,19.362,12.019,36.888,28.673,46.88l5.771,3.462c2.014,1.208,4.23,1.783,6.419,1.783c4.247,0,8.39-2.166,10.733-6.075&#10;&#9;&#9;c3.535-5.897,1.284-13.801-4.612-17.339l-5.449-3.269c-9.637-5.782-15.839-15.92-16.591-27.118&#10;&#9;&#9;c-0.547-8.149-0.204-16.088,1.021-23.594c0.35-2.143,1.696-3.356,2.467-3.89c0.781-0.541,2.417-1.383,4.587-0.944&#10;&#9;&#9;c18.665,3.775,38.027,0.612,54.523-8.898l10.646-6.138c2.957,22.96,10.933,45.056,23.779,64.351&#10;&#9;&#9;c12.934,19.428,28.263,33.518,42.143,46.513c19.027,17.813,26.932,44.122,22.225,69.757c-0.48,2.612-0.688,7.177-0.65,12.434&#10;&#9;&#9;c0.127,17.325,14.15,31.334,31.475,31.334h0c10.938,0,18.983-10.254,16.366-20.874c-16.44-66.703-16.374-149.194-67.913-192.07&#10;&#9;&#9;c-8.348-6.945-2.94-20.58,7.905-20.009c12.395,0.653,26.744-0.968,40.323-3.432c22.952-4.165,46.446-4.165,69.398,0&#10;&#9;&#9;c5.64,1.024,12.785,2.599,18.496,3.229"/>
	
		<line style="fill:none;stroke:#000000;stroke-width:15;stroke-linecap:round;stroke-linejoin:round;stroke-miterlimit:10;" x1="423.54" y1="132.49" x2="423.54" y2="103.994"/>
	
		<line style="fill:none;stroke:#000000;stroke-width:15;stroke-linecap:round;stroke-linejoin:round;stroke-miterlimit:10;" x1="292.567" y1="220.064" x2="355.426" y2="220.064"/>
	
		<line style="fill:none;stroke:#000000;stroke-width:15;stroke-linecap:round;stroke-linejoin:round;stroke-miterlimit:10;" x1="157.274" y1="220.064" x2="220.134" y2="220.064"/>
	
		<line style="fill:none;stroke:#000000;stroke-width:15;stroke-linecap:round;stroke-linejoin:round;stroke-miterlimit:10;" x1="89.16" y1="103.994" x2="89.16" y2="132.49"/>
	<g>
		<path style="fill:none;stroke:#000000;stroke-width:15;stroke-linecap:round;stroke-linejoin:round;stroke-miterlimit:10;" d="&#10;&#9;&#9;&#9;M355.353,116.815l16.27-10.188l-13.224-21.118l-100.95,63.212l0,0c22.076,14.055,50.267,14.161,72.448,0.272l13.407-8.395&#10;&#9;&#9;&#9;c2.205-1.381,3.804-3.548,4.473-6.062l3.102-11.659C351.549,120.362,353.148,118.195,355.353,116.815z"/>
		
			<line style="fill:none;stroke:#000000;stroke-width:15;stroke-linecap:round;stroke-linejoin:round;stroke-miterlimit:10;" x1="461.177" y1="35.852" x2="457.014" y2="38.458"/>
		<path style="fill:none;stroke:#000000;stroke-width:15;stroke-linecap:round;stroke-linejoin:round;stroke-miterlimit:10;" d="&#10;&#9;&#9;&#9;M400.814,42.816l-43.472,30.712c-2.507,1.771-3.193,5.191-1.565,7.793l18.469,29.495c1.629,2.601,5.006,3.477,7.694,1.995&#10;&#9;&#9;&#9;l91.601-50.498c14.598-8.047,19.437-26.706,10.591-40.834l0,0c-8.846-14.128-27.746-17.922-41.36-8.304l-17.959,12.687"/>
	</g>
</g>















</svg>
