<?xml version="1.0" encoding="iso-8859-1"?>
<!-- Generator: Adobe Illustrator 19.0.0, SVG Export Plug-In . SVG Version: 6.00 Build 0)  -->
<svg version="1.1" id="Capa_1" xmlns="http://www.w3.org/2000/svg" xmlns:xlink="http://www.w3.org/1999/xlink" x="0px" y="0px"
	 viewBox="0 0 481.2 481.2" style="enable-background:new 0 0 481.2 481.2;" xml:space="preserve">
<g>
	<g>
		<rect x="309.76" y="294.4" width="39.68" height="16"/>
	</g>
</g>
<g>
	<g>
		<rect x="307.52" y="257.76" width="41.92" height="16"/>
	</g>
</g>
<g>
	<g>
		<path d="M480.16,220.64l-40-88c-0.974-2.15-2.848-3.761-5.12-4.4c-2.234-0.62-4.627-0.241-6.56,1.04L418.32,136
			c-16.505,10.934-22.212,32.491-13.28,50.16l4.32,8.64l5.28,21.2h-76.48c-0.798,0-1.597,0.025-2.393,0.073
			c-21.653,1.326-38.132,19.953-36.807,41.607l4.08,65.52c1.309,20.689,18.47,36.799,39.2,36.8h26.64v120h16V352
			c0-4.418-3.582-8-8-8h-34.64c-12.255-0.016-22.4-9.531-23.2-21.76l-4.08-65.6c-0.435-6.38,1.829-12.65,6.24-17.28
			c4.378-4.713,10.527-7.382,16.96-7.36h86.72c2.406-0.035,4.668-1.152,6.16-3.04c1.516-1.948,2.047-4.487,1.44-6.88l-8-32
			c-0.142-0.585-0.357-1.149-0.64-1.68l-4.64-9.44c-5.229-10.443-1.786-23.147,8-29.52l2.32-1.6l35.36,77.92V480h16V224
			C480.886,222.841,480.641,221.695,480.16,220.64z"/>
	</g>
</g>
<g>
	<g>
		<path d="M403.12,224.48l-0.24-7.84c0-9.676-7.844-17.52-17.52-17.52h-8.48c-9.583,0.043-17.353,7.778-17.44,17.36v8h16v-8
			c-0.001-0.809,0.632-1.477,1.44-1.52h8.72c0.839,0,1.52,0.681,1.52,1.52v8H403.12z"/>
	</g>
</g>
<g>
	<g>
		<rect x="373.36" y="56.08" width="16" height="151.04"/>
	</g>
</g>
<g>
	<g>
		<path d="M388.24,24h-13.76c-4.418,0-8,3.582-8,8v32c0,4.418,3.582,8,8,8h13.76c4.418,0,8-3.582,8-8V32
			C396.24,27.582,392.658,24,388.24,24z"/>
	</g>
</g>
<g>
	<g>
		<path d="M420.88,0h-80c-11.046,0-20,8.954-20,20s8.954,20,20,20h80c11.046,0,20-8.954,20-20S431.926,0,420.88,0z M420.88,24h-80
			c-2.209,0-4-1.791-4-4s1.791-4,4-4h80c2.209,0,4,1.791,4,4S423.089,24,420.88,24z"/>
	</g>
</g>
<g>
	<g>
		<path d="M144.88,120h-144v16h144c57.438,0,104,46.562,104,104v240h16V240C264.88,173.726,211.154,120,144.88,120z"/>
	</g>
</g>
<g>
	<g>
		<path d="M86.852,274.102c-0.119-4.417-3.796-7.901-8.212-7.782L0.32,272l1.12,16l67.68-4.96
			c-12.898,65.28-14.791,132.256-5.6,198.16l15.12-2.4c-9.398-67.485-6.689-136.106,8-202.64
			C86.799,275.486,86.871,274.794,86.852,274.102z"/>
	</g>
</g>
<g>
	<g>
		<path d="M210.48,255.6c-2.222-1.872-5.284-2.393-8-1.36c-4.352,1.553-8.906,2.469-13.52,2.72c-5.373-0.134-10.726-0.723-16-1.76
			l-2.96,16c6.31,1.177,12.703,1.846,19.12,2c4.817-0.139,9.599-0.864,14.24-2.16c4.68,5.259,7.22,12.081,7.12,19.12
			c0.013,4.517-1.086,8.968-3.2,12.96c-0.583,1.139-0.885,2.401-0.88,3.68V480h16l-0.16-171.6
			C230.615,290.155,225.807,268.565,210.48,255.6z"/>
	</g>
</g>
<g>
	<g>
		<path d="M177.2,258.08c-1.79-1.829-4.348-2.692-6.88-2.32c-8.273,1.198-16.606,1.946-24.96,2.24
			c-8.221-0.3-16.42-1.047-24.56-2.24c-2.493-0.366-5.013,0.464-6.8,2.24c-8.37,8.56-13.101,20.028-13.2,32
			c0.102,19.491,12.774,36.688,31.36,42.56V480h16V326.4c0.039-4.015-2.904-7.438-6.88-8c-14.006-2.09-24.398-14.079-24.48-28.24
			c-0.012-6.542,2.093-12.912,6-18.16c7.479,1.043,15.011,1.658,22.56,1.84c7.655-0.187,15.294-0.801,22.88-1.84
			c3.645,5.27,5.623,11.513,5.68,17.92V480h16V290.08C189.925,278.18,185.374,266.729,177.2,258.08z"/>
	</g>
</g>
<g>
	<g>
		<path d="M180.4,160c-6.593-0.026-13.104,1.451-19.04,4.32l6.8,14.4c3.837-1.777,8.012-2.705,12.24-2.72c0.007,0,0.015,0,0.022,0
			c15.773,0.006,28.555,12.798,28.549,28.571c-0.006,15.773-12.798,28.555-28.571,28.549c-4.208,0.032-8.367-0.898-12.16-2.72
			l-6.88,14.48c5.957,2.797,12.459,4.245,19.04,4.24c0.013,0,0.026,0,0.038,0c24.61-0.011,44.551-19.969,44.541-44.579
			S205.01,159.989,180.4,160z"/>
	</g>
</g>
<g>
	<g>
		<path d="M149.04,160H0.88v16h148.24c0.007,0,0.015,0,0.022,0c15.773,0.006,28.555,12.798,28.549,28.571
			c-0.006,15.773-12.798,28.555-28.571,28.549c-14.531-0.741-26.435-11.802-28.24-26.24c-0.562-3.976-3.985-6.92-8-6.88h-112v16
			h105.6c5.549,19.07,22.711,32.426,42.56,33.12c0.013,0,0.026,0,0.038,0c24.61-0.011,44.551-19.969,44.541-44.579
			C193.609,179.931,173.65,159.989,149.04,160z"/>
	</g>
</g>
<g>
	<g>
		<path d="M312.88,8c-61.856,0-112,50.144-112,112h16c0-53.019,42.981-96,96-96h8V8H312.88z"/>
	</g>
</g>
<g>
	<g>
		<path d="M312.88,56c-35.346,0-64,28.654-64,64h16c0-26.51,21.49-48,48-48h8V56H312.88z"/>
	</g>
</g>
<g>
</g>
<g>
</g>
<g>
</g>
<g>
</g>
<g>
</g>
<g>
</g>
<g>
</g>
<g>
</g>
<g>
</g>
<g>
</g>
<g>
</g>
<g>
</g>
<g>
</g>
<g>
</g>
<g>
</g>
</svg>
