<svg enable-background="new 0 0 520 520" height="512" viewBox="0 0 520 520" width="512" xmlns="http://www.w3.org/2000/svg"><g id="_x32_21_x2C__Cancer_x2C__Illness_x2C__Lung_x2C__Lungs_Cancer_x2C__Symptom"><g><path d="m399.614 296.237c-.126-3.762-.283-7.316-.472-10.587-.669-11.628-3.925-25.055-10.247-42.256-4.02-10.917-19.215-39.376-37.288-64.418-24.362-33.754-46.322-51.941-65.271-54.057-13.092-1.467-24.181 4.64-32.93 18.137-7.309 11.269-11.764 26.172-14.534 42.277l-18.872-20.969v-103.082c0-2.761-2.239-5-5-5s-5 2.239-5 5v103.082l-18.873 20.97c-2.77-16.104-7.225-31.008-14.534-42.276-7.891-12.172-17.74-18.344-29.275-18.344-19.353 0-42.051 17.582-67.466 52.256-18.735 25.561-34.541 55-38.748 66.427-6.322 17.194-9.578 30.62-10.247 42.253-.946 16.395-.92 35.771-.792 50.814.122 16.32.248 33.197 4.932 46.652 5.998 17.229 18.558 25.206 36.579 24.744 37.883-.947 80.89-30.053 102.122-56.955 22.863-28.956 22.788-47.071 22.662-77.084-.027-6.777-.015-6.273-.022-6.503-.572-18.63-.455-44.585-3.357-69.096l22.019-24.466 22.02 24.466c-2.268 19.153-2.689 39.062-3.043 55.984-.388 18.539-.287 8.444-.341 19.433-.15 30.091-.241 48.253 22.664 77.265 11.351 14.382 28.056 28.437 46.15 38.904 0 52.187 42.385 93.909 93.714 93.909 51.741 0 93.836-42.094 93.836-93.835 0-50.52-40.237-91.824-90.386-93.645zm-213.274-28.686c.039 34.506 1.485 49.324-20.491 77.158-2.25 2.852-4.774 5.72-7.506 8.567-18.711 11.207-37.65 17.596-53.397 17.99-8.731.228-15.245-1.876-19.94-6.418-10.987-10.63-11.162-34.231-11.317-55.062-.128-14.888-.156-34.043.774-50.159.159-2.757-1.947-5.121-4.704-5.28-2.765-.171-5.121 1.947-5.28 4.704-.947 16.409-.92 35.779-.791 50.815.178 23.904.362 48.622 14.364 62.168 7.304 7.067 16.989 9.491 27.146 9.228 7.389-.185 15.363-1.542 23.628-3.946-18.247 11.697-38.98 20.084-57.504 20.548-28.64.712-30.976-23.789-31.257-61.48-.127-14.895-.154-34.057.775-50.159.603-10.477 3.759-23.356 9.648-39.375 7.884-21.412 59.801-112.136 96.83-112.136 8.04 0 14.871 4.509 20.884 13.785 7.635 11.772 11.873 28.472 14.297 46.422l-58.669 65.188-16.595-8.297c-2.471-1.235-5.474-.235-6.708 2.236-1.235 2.47-.234 5.473 2.236 6.708l17.237 8.616v16.91c0 2.762 2.239 5 5 5s5-2.238 5-5v-18.081l53.973-59.971c1.888 21.216 1.866 42.908 2.367 59.321zm77.809 77.157c-21.87-27.698-20.562-42.434-20.489-77.155.485-15.891.494-38.272 2.366-59.322l53.974 59.97v18.081c0 2.762 2.238 5 5 5s5-2.238 5-5v-16.91l17.236-8.618c2.47-1.234 3.471-4.238 2.235-6.708-1.234-2.47-4.237-3.472-6.708-2.236l-16.594 8.297-58.669-65.187c2.424-17.951 6.662-34.651 14.296-46.423 6.612-10.2 14.277-14.664 23.431-13.639 36.883 4.117 86.844 91.787 94.282 111.989 5.891 16.025 9.047 28.906 9.649 39.378.182 3.142.332 6.559.455 10.174-44.867 3.113-81.136 37.946-86.48 82.173-15.346-9.509-29.289-21.58-38.984-33.864zm132.015 129.01c-46.16 0-83.715-37.608-83.715-83.835 0-46.161 37.555-83.716 83.715-83.716 46.228 0 83.836 37.555 83.836 83.716 0 46.226-37.608 83.835-83.836 83.835z"/><path d="m420 141.282c19.299 0 35-15.701 35-35s-15.701-35-35-35-35 15.701-35 35 15.701 35 35 35zm0-60c13.785 0 25 11.215 25 25s-11.215 25-25 25-25-11.215-25-25 11.215-25 25-25z"/><path d="m155 416.282c-13.785 0-25 11.215-25 25s11.215 25 25 25 25-11.215 25-25-11.215-25-25-25zm0 40c-8.271 0-15-6.729-15-15s6.729-15 15-15 15 6.729 15 15-6.729 15-15 15z"/><circle cx="162.5" cy="48.782" r="7.5"/><circle cx="292.5" cy="53.783" r="7.5"/><circle cx="457.5" cy="178.782" r="7.5"/><circle cx="432.5" cy="253.782" r="7.5"/><circle cx="267.5" cy="413.782" r="7.5"/><circle cx="72.5" cy="443.782" r="7.5"/><circle cx="57.5" cy="123.782" r="7.5"/><path d="m456.534 425.623-32.164-34.338 12.654-13.486c8.277-8.878 11.98-25.183.549-40.002-.026-.034-.06-.059-.087-.092-.026-.032-.043-.069-.07-.102-6.313-7.391-13.935-12.497-22.772-15.281-.325-.13-.659-.229-1.005-.288-4.99-1.459-10.351-2.209-16.083-2.209-13.381 0-24.363 3.595-32.659 10.699-2.289 1.96-22.028 19.784-10.413 41.8 1.305 2.474 3.014 4.845 5.08 7.048l11.176 11.911-32.979 35.155c-2.77 2.951-1.054 7.819 2.962 8.374l14.095 1.949 3.341 14.684c.895 3.937 5.854 5.23 8.566 2.264l30.827-33.737 30.014 32.914c1.304 1.431 3.309 1.974 5.151 1.414 1.847-.563 3.204-2.138 3.488-4.047l2.219-14.908 14.903-1.323c1.905-.169 3.547-1.41 4.229-3.197s.286-3.806-1.022-5.202zm-26.802-81.615c7.817 10.227 5.632 20.906-.012 26.96l-12.237 13.042-13.083-13.694 7.438-8.132c6.341-6.931 9.734-16.465 8.709-26.2 3.345 2.12 6.402 4.784 9.185 8.024zm-32.176 18.974-7.948-8.689c-.961-1.051-1.799-2.177-2.533-3.352 2.616-2.515 5.91-3.766 10.02-3.766 3.954 0 7.521 1.518 10.309 4.285-.832 1.399-1.809 2.734-2.942 3.974zm-12.469-31.727c7.115-1.791 16.392-1.995 24.099-.094 1.269 3.258 1.749 6.706 1.479 10.103-3.984-2.646-8.646-4.088-13.571-4.088-5.037 0-9.544 1.271-13.368 3.715-.266-3.234.167-6.522 1.361-9.636zm-19.299 108.653-1.987-8.735c-.461-2.028-2.13-3.559-4.19-3.844l-7.943-1.099 25.929-27.641 13.146 14.009zm67.828-14.176c-2.302.204-4.163 1.959-4.503 4.244l-1.25 8.395-26.661-29.237-34.347-36.604c-1.453-1.549-2.64-3.188-3.527-4.87-7.992-15.148 6.404-28.11 8.089-29.553.748-.641 1.528-1.244 2.34-1.811-.777 8.854 2.166 17.853 8.472 24.747l11.638 12.723c1.651 1.783-6.705-7.018 20.001 20.935l28.352 30.269z"/></g></g></svg>