<svg viewBox="0 0 96 96" xmlns="http://www.w3.org/2000/svg"><g id="Layer_1"/><g id="Layer_2"/><g id="Layer_3"/><g id="Layer_4"><g><path d="m91.047 4.168c-.435-.239-.966-.221-1.387.036-13.786 8.622-11.46 27.507-11.354 28.304.09.68.67 1.189 1.355 1.189h2.716l.059 1.428c.013.317.138.623.352.861.102.11.21.313.21.548 0 .199-.077.374-.153.456-.237.263-.363.605-.353.958l.064 2.221c-.836.805-1.331 1.969-1.331 3.207 0 1.324.592 2.581 1.554 3.385.365 2.36 2.287 4.172 4.568 4.172 2.511 0 4.406-2.147 4.406-4.994v-40.575c-.001-.498-.271-.954-.706-1.196zm-2.029 41.771c0 1.125-.574 2.261-1.672 2.261-1.029 0-1.879-.993-1.896-2.214-.007-.498-.282-.95-.718-1.185-.47-.253-.773-.812-.773-1.424 0-.587.273-1.136.696-1.392.419-.256.668-.716.654-1.207l-.071-2.446c.318-.53.494-1.16.494-1.798 0-.687-.208-1.374-.581-1.947l-.037-.89h3.905v12.242zm0-14.976h-8.101c-.23-3.83-.235-15.987 8.101-22.925z"/><path d="m28.14 73.201c-1.136.424-2.16.805-2.887 1.043l.86 2.599c.75-.249 1.807-.641 2.978-1.079 1.94-.719 4.138-1.534 5.76-2.004 2.226-.63 5.106-.473 6.298.068 1.613.73 2.004 1.356 2.098 1.591l2.541-1.011c-.476-1.2-1.658-2.232-3.513-3.072-1.925-.865-5.514-.961-8.176-.203-1.725.498-3.974 1.334-5.959 2.068z"/><path d="m64.396 72.877c.901-1.983 1.452-5.208-1.109-9.394-.042-.057-4.193-5.628-6.55-10.993-1.305-2.891-2.15-5.97-2.443-8.9-.942-9.79-8.266-15.649-13.112-19.526-1.736-1.388-3.235-2.588-3.741-3.428-.395-.662-.729-1.331-.972-1.958l-.096-.288c-.957-2.424-1.156-5.076-.577-7.664l1.17-5.511-1.72.007c-9.352.043-17.186 7.394-17.836 16.742l-2.273 34.876c-4.622 1.521-9.37 4.924-10.464 10.416-1.064 5.34-.125 9.494 2.791 12.342 3.056 2.983 6.853 4.475 11.472 4.475 3.868 0 8.313-1.047 13.378-3.136l2.475-1.068-1.083-2.513-2.455 1.061c-9.972 4.115-17.128 3.866-21.877-.776-2.243-2.189-2.904-5.411-2.02-9.85 1.19-5.973 8.4-9.156 13.148-9.156 1.115 0 2.225.135 3.3.406l.667-2.649c-1.292-.328-2.626-.491-3.967-.491-.798 0-1.672.086-2.579.242l2.216-33.993c.511-7.344 6.252-13.235 13.455-14.086l-.465 2.065c-.679 3.037-.469 6.151.606 9.017l.05.15c.235 1.176.5 2.343.799 3.496l.876-.226c.505.655 1.217 1.327 2.078 2.057l-2.247.679c.363 1.2.76 2.378 1.189 3.535l2.564-.947c-.339-.916-.644-1.853-.94-2.794.43.353.888.72 1.372 1.107 4.755 3.802 11.267 9.013 12.098 17.657.222 2.22.734 4.506 1.49 6.74l-1.14 1.291c.802.708 1.625 1.383 2.463 2.032 2.495 5.54 6.537 10.968 6.64 11.093 1.498 2.456 1.794 4.72.881 6.735-1.59 3.503-6.947 6.433-13.981 7.646-4.47.78-8.426 3.446-10.855 7.319l-2.408 3.834 2.315 1.45 2.408-3.834c2.017-3.218 5.301-5.432 9.006-6.08 8.032-1.385 14.015-4.827 16.003-9.209z"/><path d="m57.652 18.443c-1.768-2.905-2.33-6.329-1.583-9.647l.851-3.781-2.667-.598-.851 3.781c-.903 4.008-.223 8.152 1.914 11.669 2.163 3.553 25.825 41.401 26.056 41.771 1.919 3.15 2.165 6.675.693 9.925-1.862 4.108-6.152 7.209-11.196 8.091-4.394.769-8.274 3.378-10.644 7.155l-2.346 3.738 2.316 1.453 2.346-3.738c1.959-3.122 5.167-5.279 8.8-5.916 5.921-1.036 10.985-4.735 13.215-9.654 1.856-4.097 1.555-8.529-.857-12.491-.239-.382-23.892-38.216-26.047-41.758z"/><path d="m51.921 48.146c-.838-.822-1.652-1.684-2.44-2.577l-2.051 1.808c.831.943 1.69 1.848 2.574 2.72z"/><path d="m43.513 42.376c.716 1.029 1.462 2.029 2.234 2.997l2.135-1.709c-.735-.918-1.445-1.869-2.127-2.848z"/><path d="m40.177 36.979c.601 1.1 1.232 2.175 1.893 3.218l2.31-1.46c-.629-.993-1.23-2.018-1.802-3.069z"/><path d="m37.434 31.262c.483 1.153.997 2.285 1.542 3.396l2.454-1.203c-.521-1.061-1.013-2.143-1.474-3.247z"/></g></g></svg>