<svg version="1.1" id="Layer_1" xmlns="http://www.w3.org/2000/svg" xmlns:xlink="http://www.w3.org/1999/xlink" x="0px" y="0px" viewBox="0 0 512 512" style="enable-background:new 0 0 512 512;" xml:space="preserve">
<g>
	<g>
		<g>
			<g>
				<path style="fill:none;stroke:#000000;stroke-width:40;stroke-linecap:round;stroke-linejoin:round;stroke-miterlimit:10;" d="&#10;&#9;&#9;&#9;&#9;&#9;M133.137,342.008h-59.71C43.92,342.008,20,318.088,20,288.581v-86.155c0-57.674,46.754-104.428,104.428-104.428h62.136v190.583&#10;&#9;&#9;&#9;&#9;&#9;C186.564,318.088,162.644,342.008,133.137,342.008z"/>
				<path style="fill:none;stroke:#000000;stroke-width:40;stroke-linecap:round;stroke-linejoin:round;stroke-miterlimit:10;" d="&#10;&#9;&#9;&#9;&#9;&#9;M378.863,342.008h59.71c29.507,0,53.427-23.92,53.427-53.427v-86.155c0-57.674-46.754-104.428-104.428-104.428h-62.136v190.583&#10;&#9;&#9;&#9;&#9;&#9;C325.436,318.088,349.356,342.008,378.863,342.008z"/>
			</g>
			
				<polyline style="fill:none;stroke:#000000;stroke-width:40;stroke-linecap:round;stroke-linejoin:round;stroke-miterlimit:10;" points="&#10;&#9;&#9;&#9;&#9;188.274,170.656 256,91.877 323.726,170.656 &#9;&#9;&#9;"/>
			
				<line style="fill:none;stroke:#000000;stroke-width:40;stroke-linecap:round;stroke-linejoin:round;stroke-miterlimit:10;" x1="256" y1="91.877" x2="256" y2="20"/>
		</g>
		<g>
			<g>
				
					<line style="fill:none;stroke:#000000;stroke-width:40;stroke-linecap:round;stroke-linejoin:round;stroke-miterlimit:10;" x1="256" y1="363.005" x2="256" y2="413.224"/>
				
					<line style="fill:none;stroke:#000000;stroke-width:40;stroke-linecap:round;stroke-linejoin:round;stroke-miterlimit:10;" x1="230.89" y1="388.114" x2="281.11" y2="388.114"/>
			</g>
		</g>
	</g>
	<path style="fill:none;stroke:#000000;stroke-width:40;stroke-linecap:round;stroke-linejoin:round;stroke-miterlimit:10;" d="&#10;&#9;&#9;M356.836,413.199c1.992-8.033,3.049-16.435,3.049-25.084c0-57.374-46.511-103.886-103.886-103.886S152.114,330.74,152.114,388.114&#10;&#9;&#9;S198.625,492,256,492c11.498,0,22.56-1.868,32.899-5.318"/>
</g>
<g>
</g>
<g>
</g>
<g>
</g>
<g>
</g>
<g>
</g>
<g>
</g>
<g>
</g>
<g>
</g>
<g>
</g>
<g>
</g>
<g>
</g>
<g>
</g>
<g>
</g>
<g>
</g>
<g>
</g>
</svg>