<?xml version="1.0" encoding="UTF-8" standalone="no"?>
<!-- Created with Inkscape (http://www.inkscape.org/) -->
<svg xmlns="http://www.w3.org/2000/svg" xmlns:svg="http://www.w3.org/2000/svg" version="1.1" id="svg783" width="682.66669" height="682.66669" viewBox="0 0 682.66669 682.66669">
  <defs id="defs787">
    <clipPath clipPathUnits="userSpaceOnUse" id="clipPath801">
      <path d="M 0,512 H 512 V 0 H 0 Z" id="path799"/>
    </clipPath>
  </defs>
  <mask id="custom"><rect id="bg" x="0" y="0" width="100%" height="100%" fill="white"/><g transform="matrix(1.3333333,0,0,-1.3333333,0,682.66667)"><path transform="matrix(1,0,0,1,246.6826,324.0161)" d="m 0,0 c 0,-4.837 -3.921,-8.758 -8.758,-8.758 -4.836,0 -8.757,3.921 -8.757,8.758 0,4.836 3.921,8.757 8.757,8.757 C -3.921,8.757 0,4.836 0,0" style="fill:#ffffff;fill-opacity:1;fill-rule:nonzero;stroke:none" id="path857"/><path transform="matrix(1,0,0,1,274.8403,324.0161)" d="m 0,0 c 0,-4.837 -3.921,-8.758 -8.757,-8.758 -4.837,0 -8.758,3.921 -8.758,8.758 0,4.836 3.921,8.757 8.758,8.757 C -3.921,8.757 0,4.836 0,0" style="fill:#ffffff;fill-opacity:1;fill-rule:nonzero;stroke:none" id="path861"/><path transform="matrix(1,0,0,1,302.998,324.0161)" d="m 0,0 c 0,-4.837 -3.921,-8.758 -8.757,-8.758 -4.837,0 -8.758,3.921 -8.758,8.758 0,4.836 3.921,8.757 8.758,8.757 C -3.921,8.757 0,4.836 0,0" style="fill:#ffffff;fill-opacity:1;fill-rule:nonzero;stroke:none" id="path865"/><path transform="matrix(1,0,0,1,331.1558,324.0161)" d="m 0,0 c 0,-4.837 -3.92,-8.758 -8.757,-8.758 -4.837,0 -8.758,3.921 -8.758,8.758 0,4.836 3.921,8.757 8.758,8.757 C -3.92,8.757 0,4.836 0,0" style="fill:#ffffff;fill-opacity:1;fill-rule:nonzero;stroke:none" id="path869"/><path transform="matrix(1,0,0,1,358.7661,324.0161)" d="m 0,0 c 0,-4.837 -3.921,-8.758 -8.757,-8.758 -4.837,0 -8.758,3.921 -8.758,8.758 0,4.836 3.921,8.757 8.758,8.757 C -3.921,8.757 0,4.836 0,0" style="fill:#ffffff;fill-opacity:1;fill-rule:nonzero;stroke:none" id="path873"/><path transform="matrix(1,0,0,1,246.6826,227.2886)" d="m 0,0 c 0,-4.836 -3.921,-8.757 -8.758,-8.757 -4.836,0 -8.757,3.921 -8.757,8.757 0,4.837 3.921,8.758 8.757,8.758 C -3.921,8.758 0,4.837 0,0" style="fill:#ffffff;fill-opacity:1;fill-rule:nonzero;stroke:none" id="path881"/><path transform="matrix(1,0,0,1,274.8403,227.2886)" d="m 0,0 c 0,-4.836 -3.921,-8.757 -8.757,-8.757 -4.837,0 -8.758,3.921 -8.758,8.757 0,4.837 3.921,8.758 8.758,8.758 C -3.921,8.758 0,4.837 0,0" style="fill:#ffffff;fill-opacity:1;fill-rule:nonzero;stroke:none" id="path885"/><path transform="matrix(1,0,0,1,302.998,227.2886)" d="m 0,0 c 0,-4.836 -3.921,-8.757 -8.757,-8.757 -4.837,0 -8.758,3.921 -8.758,8.757 0,4.837 3.921,8.758 8.758,8.758 C -3.921,8.758 0,4.837 0,0" style="fill:#ffffff;fill-opacity:1;fill-rule:nonzero;stroke:none" id="path889"/><path transform="matrix(1,0,0,1,331.1558,227.2886)" d="m 0,0 c 0,-4.836 -3.92,-8.757 -8.757,-8.757 -4.837,0 -8.758,3.921 -8.758,8.757 0,4.837 3.921,8.758 8.758,8.758 C -3.92,8.758 0,4.837 0,0" style="fill:#ffffff;fill-opacity:1;fill-rule:nonzero;stroke:none" id="path893"/><path transform="matrix(1,0,0,1,358.7661,227.2886)" d="m 0,0 c 0,-4.836 -3.921,-8.757 -8.757,-8.757 -4.837,0 -8.758,3.921 -8.758,8.757 0,4.837 3.921,8.758 8.758,8.758 C -3.921,8.758 0,4.837 0,0" style="fill:#ffffff;fill-opacity:1;fill-rule:nonzero;stroke:none" id="path897"/></g></mask><g mask="url(#custom)"><g id="g789" transform="matrix(1.3333333,0,0,-1.3333333,0,682.66667)">
    <g id="g791" transform="translate(56.249,184.625)">
      <path d="M 0,0 V 233.406" style="fill:none;stroke:#000000;stroke-width:15;stroke-linecap:round;stroke-linejoin:round;stroke-miterlimit:10;stroke-dasharray:none;stroke-opacity:1" id="path793"/>
    </g>
    <g id="g795">
      <g id="g797" clip-path="url(#clipPath801)">
        <g id="g803" transform="translate(380.249,59.25)">
          <path d="m 0,0 v -39.248 c 0,-6.627 -5.373,-12 -12,-12 h -300 c -6.627,0 -12,5.373 -12,12 V 89.625" style="fill:none;stroke:#000000;stroke-width:15;stroke-linecap:round;stroke-linejoin:round;stroke-miterlimit:10;stroke-dasharray:none;stroke-opacity:1" id="path805"/>
        </g>
        <g id="g807" transform="translate(380.249,421.4062)">
          <path d="M 0,0 V -282.281" style="fill:none;stroke:#000000;stroke-width:15;stroke-linecap:round;stroke-linejoin:round;stroke-miterlimit:10;stroke-dasharray:none;stroke-opacity:1" id="path809"/>
        </g>
        <g id="g811" transform="translate(316.5312,502.998)">
          <path d="m 0,0 h 51.718 c 6.627,0 12,-5.373 12,-12 v -78.383 h -324 V -12 c 0,6.627 5.372,12 12,12 h 212.376" style="fill:none;stroke:#000000;stroke-width:15;stroke-linecap:round;stroke-linejoin:round;stroke-miterlimit:10;stroke-dasharray:none;stroke-opacity:1" id="path813"/>
        </g>
        <g id="g815" transform="translate(93.0742,473.3066)">
          <path d="M 0,0 H 38.065" style="fill:none;stroke:#000000;stroke-width:15;stroke-linecap:round;stroke-linejoin:round;stroke-miterlimit:10;stroke-dasharray:none;stroke-opacity:1" id="path817"/>
        </g>
        <g id="g819" transform="translate(93.0742,443.4722)">
          <path d="M 0,0 H 38.065" style="fill:none;stroke:#000000;stroke-width:15;stroke-linecap:round;stroke-linejoin:round;stroke-miterlimit:10;stroke-dasharray:none;stroke-opacity:1" id="path821"/>
        </g>
        <g id="g823" transform="translate(157.7856,140.2896)">
          <path d="m 0,0 c 4.581,24.868 26.374,43.708 52.566,43.708 h 3.971 c 26.07,0 47.781,-18.664 52.501,-43.358" style="fill:none;stroke:#000000;stroke-width:15;stroke-linecap:round;stroke-linejoin:round;stroke-miterlimit:10;stroke-dasharray:none;stroke-opacity:1" id="path825"/>
        </g>
        <g id="g827" transform="translate(137.3257,126.5415)">
          <path d="m 0,0 c 2.843,7.252 9.904,12.387 18.165,12.387 h 262.25 c 21.082,0 38.827,-14.285 44.085,-33.703" style="fill:none;stroke:#000000;stroke-width:15;stroke-linecap:round;stroke-linejoin:round;stroke-miterlimit:10;stroke-dasharray:none;stroke-opacity:1" id="path829"/>
        </g>
        <g id="g831" transform="translate(125.6636,31.9824)">
          <path d="m 0,0 c -6.351,0 -11.5,5.149 -11.5,11.5 v 126.331 c 0,6.351 5.149,11.5 11.5,11.5 6.351,0 11.5,-5.149 11.5,-11.5 V 11.5 C 11.5,5.149 6.351,0 0,0 Z" style="fill:none;stroke:#000000;stroke-width:15;stroke-linecap:round;stroke-linejoin:round;stroke-miterlimit:10;stroke-dasharray:none;stroke-opacity:1" id="path833"/>
        </g>
        <g id="g835" transform="translate(138.4028,60.0454)">
          <path d="M 0,0 H 323.644" style="fill:none;stroke:#000000;stroke-width:15;stroke-linecap:round;stroke-linejoin:round;stroke-miterlimit:10;stroke-dasharray:none;stroke-opacity:1" id="path837"/>
        </g>
        <g id="g839" transform="translate(330.4062,92.7466)">
          <path d="M 0,0 H -193.003" style="fill:none;stroke:#000000;stroke-width:15;stroke-linecap:round;stroke-linejoin:round;stroke-miterlimit:10;stroke-dasharray:none;stroke-opacity:1" id="path841"/>
        </g>
        <g id="g843" transform="translate(462.0469,92.7466)">
          <path d="M 0,0 H -95.484" style="fill:none;stroke:#000000;stroke-width:15;stroke-linecap:round;stroke-linejoin:round;stroke-miterlimit:10;stroke-dasharray:none;stroke-opacity:1" id="path845"/>
        </g>
        <g id="g847" transform="translate(158.4507,260.0156)">
          <path d="m 0,0 v 12.52 c 0,1.656 -1.343,3 -3,3 h -57.969 c -1.656,0 -3,-1.344 -3,-3 v -51.004 c 0,-1.657 1.344,-3 3,-3 h 103.84 c 1.657,0 3,1.343 3,3 V -6 c 0,1.657 -1.343,3 -3,3 L 3,-3 C 1.343,-3 0,-1.657 0,0 Z" style="fill:none;stroke:#000000;stroke-width:15;stroke-linecap:round;stroke-linejoin:round;stroke-miterlimit:10;stroke-dasharray:none;stroke-opacity:1" id="path849"/>
        </g>
        <g id="g851" transform="translate(236.7661,357)">
          <path d="M 0,0 H 44.703" style="fill:none;stroke:#000000;stroke-width:15;stroke-linecap:round;stroke-linejoin:round;stroke-miterlimit:10;stroke-dasharray:none;stroke-opacity:1" id="path853"/>
        </g>
        <g id="g855" transform="translate(246.6826,324.0161)">
          <path d="m 0,0 c 0,-4.837 -3.921,-8.758 -8.758,-8.758 -4.836,0 -8.757,3.921 -8.757,8.758 0,4.836 3.921,8.757 8.757,8.757 C -3.921,8.757 0,4.836 0,0" style="fill:#000000;fill-opacity:1;fill-rule:nonzero;stroke:none" id="path857"/>
        </g>
        <g id="g859" transform="translate(274.8403,324.0161)">
          <path d="m 0,0 c 0,-4.837 -3.921,-8.758 -8.757,-8.758 -4.837,0 -8.758,3.921 -8.758,8.758 0,4.836 3.921,8.757 8.758,8.757 C -3.921,8.757 0,4.836 0,0" style="fill:#000000;fill-opacity:1;fill-rule:nonzero;stroke:none" id="path861"/>
        </g>
        <g id="g863" transform="translate(302.998,324.0161)">
          <path d="m 0,0 c 0,-4.837 -3.921,-8.758 -8.757,-8.758 -4.837,0 -8.758,3.921 -8.758,8.758 0,4.836 3.921,8.757 8.758,8.757 C -3.921,8.757 0,4.836 0,0" style="fill:#000000;fill-opacity:1;fill-rule:nonzero;stroke:none" id="path865"/>
        </g>
        <g id="g867" transform="translate(331.1558,324.0161)">
          <path d="m 0,0 c 0,-4.837 -3.92,-8.758 -8.757,-8.758 -4.837,0 -8.758,3.921 -8.758,8.758 0,4.836 3.921,8.757 8.758,8.757 C -3.92,8.757 0,4.836 0,0" style="fill:#000000;fill-opacity:1;fill-rule:nonzero;stroke:none" id="path869"/>
        </g>
        <g id="g871" transform="translate(358.7661,324.0161)">
          <path d="m 0,0 c 0,-4.837 -3.921,-8.758 -8.757,-8.758 -4.837,0 -8.758,3.921 -8.758,8.758 0,4.836 3.921,8.757 8.758,8.757 C -3.921,8.757 0,4.836 0,0" style="fill:#000000;fill-opacity:1;fill-rule:nonzero;stroke:none" id="path873"/>
        </g>
        <g id="g875" transform="translate(236.7661,260.2729)">
          <path d="M 0,0 H 79.714" style="fill:none;stroke:#000000;stroke-width:15;stroke-linecap:round;stroke-linejoin:round;stroke-miterlimit:10;stroke-dasharray:none;stroke-opacity:1" id="path877"/>
        </g>
        <g id="g879" transform="translate(246.6826,227.2886)">
          <path d="m 0,0 c 0,-4.836 -3.921,-8.757 -8.758,-8.757 -4.836,0 -8.757,3.921 -8.757,8.757 0,4.837 3.921,8.758 8.757,8.758 C -3.921,8.758 0,4.837 0,0" style="fill:#000000;fill-opacity:1;fill-rule:nonzero;stroke:none" id="path881"/>
        </g>
        <g id="g883" transform="translate(274.8403,227.2886)">
          <path d="m 0,0 c 0,-4.836 -3.921,-8.757 -8.757,-8.757 -4.837,0 -8.758,3.921 -8.758,8.757 0,4.837 3.921,8.758 8.758,8.758 C -3.921,8.758 0,4.837 0,0" style="fill:#000000;fill-opacity:1;fill-rule:nonzero;stroke:none" id="path885"/>
        </g>
        <g id="g887" transform="translate(302.998,227.2886)">
          <path d="m 0,0 c 0,-4.836 -3.921,-8.757 -8.757,-8.757 -4.837,0 -8.758,3.921 -8.758,8.757 0,4.837 3.921,8.758 8.758,8.758 C -3.921,8.758 0,4.837 0,0" style="fill:#000000;fill-opacity:1;fill-rule:nonzero;stroke:none" id="path889"/>
        </g>
        <g id="g891" transform="translate(331.1558,227.2886)">
          <path d="m 0,0 c 0,-4.836 -3.92,-8.757 -8.757,-8.757 -4.837,0 -8.758,3.921 -8.758,8.757 0,4.837 3.921,8.758 8.758,8.758 C -3.92,8.758 0,4.837 0,0" style="fill:#000000;fill-opacity:1;fill-rule:nonzero;stroke:none" id="path893"/>
        </g>
        <g id="g895" transform="translate(358.7661,227.2886)">
          <path d="m 0,0 c 0,-4.836 -3.921,-8.757 -8.757,-8.757 -4.837,0 -8.758,3.921 -8.758,8.757 0,4.837 3.921,8.758 8.758,8.758 C -3.921,8.758 0,4.837 0,0" style="fill:#000000;fill-opacity:1;fill-rule:nonzero;stroke:none" id="path897"/>
        </g>
        <g id="g899" transform="translate(473.7495,31.9824)">
          <path d="m 0,0 c -6.351,0 -11.5,5.149 -11.5,11.5 v 91.244 c 0,6.351 5.149,11.5 11.5,11.5 6.351,0 11.5,-5.149 11.5,-11.5 V 11.5 C 11.5,5.149 6.351,0 0,0 Z" style="fill:none;stroke:#000000;stroke-width:15;stroke-linecap:round;stroke-linejoin:round;stroke-miterlimit:10;stroke-dasharray:none;stroke-opacity:1" id="path901"/>
        </g>
        <g id="g903" transform="translate(183.9907,318.0293)">
          <path d="m 0,0 h -87.646 c -1.515,0 -2.743,1.228 -2.743,2.743 v 38.642 c 0,1.095 0.652,2.085 1.659,2.518 l 41.474,17.855 c 2.069,0.891 4.413,0.895 6.484,0.01 L 1.077,43.901 C 2.087,43.47 2.742,42.477 2.742,41.379 V 2.743 C 2.742,1.228 1.515,0 0,0 Z" style="fill:none;stroke:#000000;stroke-width:15;stroke-linecap:round;stroke-linejoin:round;stroke-miterlimit:10;stroke-dasharray:none;stroke-opacity:1" id="path905"/>
        </g>
        <g id="g907" transform="translate(89.0444,359.4463)">
          <path d="m 0,0 47.69,20.341 c 2.069,0.891 4.413,0.895 6.484,0.01 l 48.065,-20.353" style="fill:none;stroke:#000000;stroke-width:15;stroke-linecap:round;stroke-linejoin:round;stroke-miterlimit:10;stroke-dasharray:none;stroke-opacity:1" id="path909"/>
        </g>
        <g id="g911" transform="translate(151.8638,318.0293)">
          <path d="m 0,0 h -23.392 v 23.826 c 0,1.478 0.818,2.676 1.828,2.676 H -1.828 C -0.818,26.502 0,25.304 0,23.826 Z" style="fill:none;stroke:#000000;stroke-width:15;stroke-linecap:round;stroke-linejoin:round;stroke-miterlimit:10;stroke-dasharray:none;stroke-opacity:1" id="path913"/>
        </g>
      </g>
    </g>
  </g></g>
</svg>
