<svg clip-rule="evenodd" fill-rule="evenodd" stroke-linejoin="round" stroke-miterlimit="2" viewBox="0 0 64 64" xmlns="http://www.w3.org/2000/svg"><g transform="translate(-2188 -88)"><path d="m2234.75 90h-26.75c-9.93 0-18 8.066-18 18s8.07 18 18 18c2.78 0 5.41-.63 7.75-1.753-1.12 2.348-1.75 4.977-1.75 7.753 0 2.873.68 5.59 1.87 8h-8.87v-1h2c.78 0 1.5-.459 1.82-1.174.33-.714.2-1.552-.31-2.143l-7-8c-.39-.434-.93-.683-1.51-.683s-1.12.249-1.51.683l-7 8c-.51.591-.64 1.429-.31 2.143.32.715 1.04 1.174 1.82 1.174h2v2.75c0 2.188.87 4.287 2.42 5.834 1.54 1.547 3.64 2.416 5.83 2.416h26.75c9.93 0 18-8.066 18-18s-8.07-18-18-18c-2.78 0-5.4.63-7.75 1.753 1.12-2.348 1.75-4.977 1.75-7.753 0-2.873-.67-5.59-1.87-8h8.87v1h-2c-.78 0-1.5.459-1.82 1.174-.33.714-.2 1.552.31 2.143l7 8c.39.434.93.683 1.51.683s1.12-.249 1.51-.683l7-8c.51-.591.64-1.429.31-2.143-.32-.715-1.04-1.174-1.82-1.174h-2v-2.75c0-2.188-.87-4.287-2.42-5.834-1.54-1.547-3.64-2.416-5.83-2.416zm-2.75 28c7.73 0 14 6.273 14 14s-6.27 14-14 14-14-6.273-14-14 6.27-14 14-14zm-13.41 26h-13.59c-1.11 0-2-.895-2-2v-5c0-.976.7-1.789 1.62-1.964l-2.62-2.999-2.62 2.999c.92.175 1.62.988 1.62 1.964v4.75c0 1.127.45 2.208 1.24 3.005.8.797 1.88 1.245 3.01 1.245h15.44c-.75-.609-1.46-1.278-2.1-2zm18.41-23h-10c-1.1 0-2 .896-2 2s.9 2 2 2h3c1.31 0 2.42.835 2.83 2h-5.83c-1.1 0-2 .896-2 2s.9 2 2 2h5.83c-.41 1.165-1.52 2-2.83 2-1.62 0-3 0-3 0-.81 0-1.54.487-1.85 1.235-.31.747-.14 1.607.44 2.179l7 7c.78.781 2.04.781 2.82 0 .79-.78.79-2.048 0-2.828l-3.77-3.779c2.76-.66 4.88-2.957 5.29-5.807h.07c1.1 0 2-.896 2-2s-.9-2-2-2h-.07c-.1-.706-.31-1.378-.6-2h.67c1.1 0 2-.896 2-2s-.9-2-2-2zm-29-27c7.73 0 14 6.273 14 14s-6.27 14-14 14-14-6.273-14-14 6.27-14 14-14zm-2 4.342c-2.33.824-4 3.048-4 5.658 0 3.311 2.69 6 6 6 1.1 0 2 .896 2 2s-.9 2-2 2c-.93 0-1.72-.637-1.94-1.499-.27-1.069-1.36-1.713-2.43-1.438-1.07.276-1.72 1.367-1.44 2.436.5 1.938 1.94 3.498 3.81 4.159v.342c0 1.104.9 2 2 2s2-.896 2-2v-.342c2.33-.824 4-3.048 4-5.658 0-3.311-2.69-6-6-6-1.1 0-2-.896-2-2s.9-2 2-2c.93 0 1.72.637 1.94 1.499.27 1.069 1.36 1.713 2.43 1.438 1.07-.276 1.72-1.367 1.44-2.436-.5-1.938-1.94-3.498-3.81-4.159v-.342c0-1.104-.9-2-2-2s-2 .896-2 2zm13.31-4.342c.75.609 1.46 1.278 2.1 2h13.59c1.11 0 2 .895 2 2v5c0 .976-.7 1.789-1.62 1.964l2.62 2.999 2.62-2.999c-.92-.175-1.62-.988-1.62-1.964v-4.75c0-1.127-.45-2.208-1.24-3.005-.8-.797-1.88-1.245-3.01-1.245z"/></g></svg>