<svg id="&#x421;&#x43B;&#x43E;&#x439;_1" enable-background="new 0 0 2000 2000" viewBox="0 0 2000 2000" xmlns="http://www.w3.org/2000/svg"><g><g id="melting_pot_2_"><g><g><path d="m949.404 1651.356c-1.02 0-2.042-.031-3.065-.095-165.369-10.295-319.238-82.549-433.263-203.454-114.512-121.42-177.576-280.249-177.576-447.229s63.064-325.808 177.576-447.229c114.025-120.905 267.894-193.159 433.263-203.454 13.631-.853 27.124 4.002 37.026 13.306 9.932 9.332 15.401 21.974 15.401 35.598v56.304c0 6.244-5.062 11.306-11.306 11.306s-11.306-5.062-11.306-11.306v-56.304c0-7.316-2.938-14.107-8.273-19.12-5.452-5.122-12.605-7.677-20.137-7.217-330.635 20.583-589.633 296.484-589.633 628.116 0 331.63 258.997 607.532 589.633 628.116 7.54.465 14.685-2.095 20.137-7.217 5.336-5.013 8.273-11.804 8.273-19.12v-346.44c0-6.244 5.062-11.306 11.306-11.306s11.306 5.062 11.306 11.306v346.44c0 13.623-5.471 26.265-15.401 35.598-9.16 8.606-21.393 13.401-33.961 13.401z" fill="#333"/></g><g><path d="m770.596 770.75c-1.27 0-2.562-.216-3.826-.67-103.577-37.255-196.871-100.929-269.795-184.138-4.115-4.696-3.645-11.839 1.051-15.954s11.839-3.645 15.954 1.051c70.405 80.333 160.465 141.803 260.444 177.763 5.875 2.113 8.925 8.59 6.812 14.465-1.659 4.612-6.006 7.483-10.64 7.483z" fill="#333"/></g><g><path d="m502.037 1429.993c-2.824 0-5.651-1.051-7.845-3.167-4.495-4.333-4.627-11.49-.294-15.985l3.254-3.377c108.973-124.239 259.106-201.933 422.772-218.78 6.206-.634 11.764 3.877 12.404 10.089.639 6.211-3.877 11.765-10.089 12.404-158.059 16.269-303.048 91.344-408.261 211.395-.118.134-.238.265-.363.394l-3.439 3.568c-2.217 2.3-5.177 3.459-8.139 3.459z" fill="#333"/></g><g><path d="m959.691 1649.979c-.668 0-1.345-.059-2.025-.182-82.058-14.838-157.539-89.787-212.539-211.038-54.395-119.918-84.351-275.534-84.351-438.18 0-162.643 29.956-318.256 84.349-438.174 54.998-121.25 130.477-196.2 212.533-211.043 6.142-1.108 12.026 2.968 13.137 9.113 1.111 6.144-2.968 12.026-9.113 13.137-74.531 13.482-144.126 83.847-195.965 198.134-53.091 117.047-82.33 269.343-82.33 428.834 0 159.494 29.239 311.792 82.332 428.839 51.84 114.288 121.437 184.652 195.97 198.129 6.144 1.111 10.225 6.992 9.113 13.136-.987 5.463-5.748 9.295-11.111 9.295z" fill="#333"/></g><g><path d="m890.883 1011.883h-544.077c-6.244 0-11.306-5.061-11.306-11.305s5.062-11.306 11.306-11.306h544.078c6.244 0 11.306 5.062 11.306 11.306s-5.063 11.305-11.307 11.305z" fill="#333"/></g></g><g><g><g><path d="m1587.508 1651.36h-479.933c-27.014 0-48.992-21.979-48.992-48.993v-308.763c0-27.014 21.977-48.992 48.992-48.992h479.933c27.014 0 48.992 21.977 48.992 48.992v308.763c0 27.014-21.977 48.993-48.992 48.993zm-479.933-384.135c-14.545 0-26.379 11.834-26.379 26.379v308.763c0 14.547 11.834 26.38 26.379 26.38h479.933c14.545 0 26.379-11.834 26.379-26.38v-308.763c0-14.545-11.834-26.379-26.379-26.379z" fill="#333"/></g><g><path d="m1209.325 1651.381c-6.245 0-11.306-5.062-11.306-11.306v-384.156c0-6.245 5.062-11.306 11.306-11.306s11.306 5.062 11.306 11.306v384.156c.001 6.245-5.061 11.306-11.306 11.306z" fill="#333"/></g><g><path d="m1480.661 1651.36c-6.244 0-11.306-5.062-11.306-11.306v-384.135c0-6.245 5.062-11.306 11.306-11.306 6.245 0 11.306 5.062 11.306 11.306v384.135c.001 6.244-5.061 11.306-11.306 11.306z" fill="#333"/></g></g><g><path d="m1480.661 1267.225c-6.244 0-11.306-5.062-11.306-11.306v-80.395c0-14.545-11.834-26.379-26.379-26.379h-195.965c-14.545 0-26.38 11.834-26.38 26.379v80.395c0 6.244-5.061 11.306-11.305 11.306-6.245 0-11.306-5.062-11.306-11.306v-80.395c0-27.014 21.977-48.992 48.992-48.992h195.965c27.014 0 48.992 21.977 48.992 48.992v80.395c-.001 6.244-5.063 11.306-11.308 11.306z" fill="#333"/></g><g><path d="m1430.1 1266.995c-6.245 0-11.306-5.062-11.306-11.306v-56.297h-147.6v56.297c0 6.245-5.062 11.306-11.306 11.306s-11.306-5.062-11.306-11.306v-67.604c0-6.245 5.062-11.306 11.306-11.306h170.212c6.244 0 11.306 5.062 11.306 11.306v67.604c0 6.244-5.062 11.306-11.306 11.306z" fill="#333"/></g><g><g><path d="m1347.542 1544.57c-6.245 0-11.306-5.062-11.306-11.306v-164.502c0-6.244 5.062-11.306 11.306-11.306s11.306 5.062 11.306 11.306v164.502c0 6.244-5.062 11.306-11.306 11.306z" fill="#333"/></g><g><path d="m1386.211 1566.902c-1.919 0-3.863-.489-5.643-1.516l-33.024-19.068-33.025 19.068c-5.403 3.122-12.32 1.271-15.444-4.138-3.122-5.407-1.269-12.321 4.138-15.444l38.678-22.331c3.499-2.02 7.81-2.02 11.306 0l38.677 22.331c5.407 3.123 7.26 10.037 4.138 15.444-2.094 3.626-5.894 5.654-9.801 5.654z" fill="#333"/></g><g><path d="m1432.681 1495.71c-1.919 0-3.862-.489-5.643-1.516l-79.496-45.898-79.498 45.898c-5.403 3.12-12.321 1.27-15.444-4.138-3.122-5.408-1.269-12.323 4.138-15.444l85.151-49.16c3.499-2.02 7.81-2.02 11.306 0l85.149 49.16c5.407 3.122 7.26 10.036 4.138 15.444-2.094 3.627-5.894 5.654-9.801 5.654z" fill="#333"/></g></g></g><g><g><g><path d="m948.298 759.188c-3.008 0-5.893-1.199-8.015-3.332l-79.139-79.546c-11.544-11.396-17.942-26.705-17.942-43.035 0-16.331 6.398-31.64 18.014-43.108 23.826-23.52 62.506-23.654 86.502-.407l.578.468.59-.478c23.995-23.239 62.673-23.099 86.493.416 11.617 11.467 18.014 26.777 18.014 43.108s-6.397 31.64-18.014 43.107l-79.067 79.474c-2.121 2.135-5.005 3.333-8.014 3.333zm-43.622-164.186c-9.985 0-19.972 3.752-27.574 11.257-7.28 7.186-11.288 16.78-11.288 27.016s4.009 19.83 11.288 27.016l71.196 71.562 71.125-71.49c7.351-7.258 11.36-16.852 11.36-27.087 0-10.236-4.009-19.83-11.287-27.016-15.202-15.005-39.937-15.009-55.142-.008-.262.258-.536.504-.822.736l-8.115 6.576c-4.149 3.363-10.086 3.364-14.235.001l-8.105-6.567c-.287-.233-.563-.479-.826-.738-7.603-7.506-17.589-11.258-27.575-11.258z" fill="#333"/></g></g><g><path d="m948.298 808.382c-86.161 0-156.257-70.096-156.257-156.257s70.096-156.257 156.257-156.257c86.16 0 156.257 70.096 156.257 156.257s-70.097 156.257-156.257 156.257zm0-289.903c-73.693 0-133.646 59.953-133.646 133.646s59.953 133.646 133.646 133.646 133.645-59.953 133.645-133.646-59.952-133.646-133.645-133.646z" fill="#333"/></g></g><g><g id="_Weather_forecasters_3_"><g><g><g><path d="m1164.164 1226.939c-6.244 0-11.306-5.062-11.306-11.306v-140.077c0-6.245 5.062-11.306 11.306-11.306s11.306 5.062 11.306 11.306v140.077c0 6.245-5.062 11.306-11.306 11.306z" fill="#333"/></g><g><path d="m1522.704 1226.939c-6.245 0-11.306-5.062-11.306-11.306v-140.077c0-6.245 5.062-11.306 11.306-11.306s11.306 5.062 11.306 11.306v140.077c0 6.245-5.062 11.306-11.306 11.306z" fill="#333"/></g><g><path d="m1625.194 1226.937c-6.244 0-11.306-5.062-11.306-11.306v-116.608c0-113.353-88.604-205.672-201.747-210.271h-2.699c-6.244 0-11.306-5.062-11.306-11.306s5.062-11.306 11.306-11.306h2.927c.149 0 .299.003.448.009 60.267 2.386 116.55 27.67 158.481 71.193 42.047 43.643 65.203 101.062 65.203 161.68v116.608c-.001 6.245-5.063 11.307-11.307 11.307z" fill="#333"/></g><g><path d="m1091.622 1007.558c-1.768 0-3.562-.416-5.237-1.294-5.531-2.898-7.666-9.73-4.767-15.262 39.619-75.615 117.181-123.512 202.416-125.001 6.288-.122 11.393 4.864 11.501 11.106.109 6.243-4.863 11.393-11.106 11.501-76.965 1.345-147.002 44.601-182.784 112.889-2.019 3.855-5.951 6.061-10.023 6.061z" fill="#333"/></g><g><path d="m1056.232 1223.812c-65.749 0-119.239-53.491-119.239-119.238v-173.722l-100.793-22.121c-6.513-.7-12.618-3.279-17.705-7.485l-59.599-49.287c-13.942-11.53-17.354-31.227-7.937-45.816 4.982-7.718 12.619-12.972 21.503-14.794 8.826-1.808 17.812-.024 25.304 5.027l51.543 34.748c1.723 1.161 3.73 1.798 5.807 1.841l156.198 3.258c28.909.603 52.431 24.981 52.431 54.342v186.967c0 6.244-5.062 11.306-11.306 11.306s-11.305-5.062-11.305-11.306v-186.966c0-17.151-13.589-31.387-30.292-31.736l-156.196-3.258c-6.428-.133-12.645-2.104-17.976-5.699l-51.543-34.748c-2.415-1.626-5.3-2.206-8.124-1.625-2.884.591-5.387 2.333-7.047 4.906-3.152 4.883-1.681 11.968 3.35 16.128l59.599 49.287c1.722 1.424 3.792 2.272 5.985 2.453.502.042 1.001.117 1.493.224l110.338 24.217c5.187 1.139 8.882 5.733 8.882 11.043v182.815c0 53.28 43.347 96.626 96.627 96.626 53.281 0 96.627-43.346 96.627-96.626 0-6.245 5.062-11.306 11.306-11.306s11.306 5.062 11.306 11.306c.001 65.748-53.49 119.239-119.237 119.239z" fill="#333"/></g><g><path d="m1052.439 984.735h-104.141c-6.244 0-11.306-5.062-11.306-11.306s5.062-11.306 11.306-11.306h104.141c6.245 0 11.306 5.062 11.306 11.306s-5.061 11.306-11.306 11.306z" fill="#333"/></g></g></g></g><g><g><path d="m1275.258 1017.928c-.794 0-1.594-.084-2.388-.255-3.817-.824-6.938-3.56-8.256-7.237l-43.729-122.045c-2.105-5.878.953-12.351 6.831-14.457 5.868-2.105 12.35.951 14.457 6.829l37.602 104.948 59.108-61.01c4.343-4.482 11.5-4.599 15.987-.254 4.484 4.345 4.598 11.503.253 15.987l-71.744 74.055c-2.155 2.221-5.095 3.439-8.121 3.439z" fill="#333"/></g><g><path d="m1416.742 1017.928c-3.084 0-6.073-1.264-8.231-3.554l-69.74-74.056c-4.281-4.546-4.065-11.701.48-15.981 4.546-4.282 11.701-4.066 15.982.479l57.44 60.994 40.38-104.359c2.253-5.823 8.8-8.718 14.623-6.464 5.823 2.253 8.719 8.8 6.464 14.623l-46.854 121.091c-1.401 3.622-4.563 6.271-8.373 7.016-.723.142-1.45.211-2.171.211z" fill="#333"/></g></g><g><path d="m1346.842 1093.09c-.004 0-.008 0-.013 0-6.243-.008-11.3-5.074-11.294-11.319l.16-149.216c.007-6.24 5.068-11.294 11.306-11.294h.013c6.243.007 11.3 5.074 11.294 11.318l-.16 149.217c-.007 6.239-5.068 11.294-11.306 11.294z" fill="#333"/></g><g><g><g><path d="m1261.121 805.501c-2.04 0-4.107-.553-5.967-1.711-37.829-23.566-60.416-64.213-60.416-108.731v-5.372c-32.759-5.8-57.841-34.64-57.841-68.876s25.083-63.076 57.841-68.876v-5.371c0-28.098 8.933-54.769 25.834-77.127 16.343-21.622 39.573-37.79 65.41-45.527 3.422-1.026 7.128-.371 9.994 1.762 2.867 2.133 4.556 5.496 4.556 9.068v4.345c0 19.19 18.032 34.802 40.197 34.802h13.026c22.165 0 40.197-15.612 40.197-34.802l.006-4.11c.006-3.584 1.711-6.954 4.597-9.082 2.883-2.128 6.604-2.762 10.034-1.707 25.613 7.88 48.617 24.081 64.776 45.622 16.717 22.284 25.553 48.825 25.553 76.755v5.186c33.227 5.42 58.669 34.326 58.669 69.061s-25.442 63.641-58.669 69.061v5.186c0 43.991-22.176 84.381-59.323 108.044-5.267 3.355-12.254 1.805-15.609-3.462-3.355-5.266-1.805-12.254 3.46-15.609 30.596-19.489 48.86-52.75 48.86-88.973v-15.577c0-6.244 5.062-11.306 11.306-11.306 26.115 0 47.361-21.247 47.361-47.363s-21.246-47.363-47.361-47.363c-6.244 0-11.306-5.062-11.306-11.306v-15.579c0-41.776-24.033-78.654-61.07-95.691-5.958 26.017-31.261 45.626-61.481 45.626h-13.026c-30.333 0-55.714-19.755-61.547-45.931-37.007 16.896-61.831 54.562-61.831 95.997v15.62c0 6.183-4.967 11.218-11.149 11.304-25.747.36-46.693 21.589-46.693 47.322s20.946 46.962 46.693 47.322c6.182.086 11.149 5.122 11.149 11.304v15.621c0 36.657 18.601 70.13 49.759 89.539 5.299 3.302 6.919 10.274 3.618 15.574-2.142 3.441-5.832 5.331-9.607 5.331z" fill="#333"/></g></g><g><path d="m1347.823 785.799h-.591c-.154 0-.309-.003-.461-.009-32.745-.574-59.208-27.927-59.208-61.469v-18.917c0-6.244 5.062-11.306 11.306-11.306h96.726c6.245 0 11.306 5.062 11.306 11.306v18.917c0 33.536-26.193 60.885-58.609 61.469-.155.006-.311.009-.469.009zm-37.648-69.09v7.611c0 21.329 16.727 38.701 37.35 38.866 20.3-.165 36.763-17.537 36.763-38.866v-7.611z" fill="#333"/></g><g><path d="m1347.242 943.869c-41.022 0-74.396-33.374-74.396-74.396v-36.001c0-6.244 5.062-11.306 11.306-11.306s11.306 5.062 11.306 11.306v36.001c0 28.554 23.23 51.784 51.783 51.784 28.554 0 51.784-23.231 51.784-51.784v-36.001c0-6.244 5.062-11.306 11.306-11.306s11.306 5.062 11.306 11.306v36.001c.002 41.023-33.373 74.396-74.395 74.396z" fill="#333"/></g><g><path d="m1353.052 867.758h-11.62c-51.949 0-94.214-42.264-94.214-94.214v-68.66c0-27.014 21.977-48.991 48.992-48.991h102.065c27.014 0 48.992 21.977 48.992 48.991v68.66c0 51.95-42.265 94.214-94.215 94.214zm-56.842-189.254c-14.545 0-26.379 11.834-26.379 26.38v68.66c0 39.482 32.12 71.603 71.602 71.603h11.62c39.482 0 71.602-32.121 71.602-71.603v-68.66c0-14.546-11.834-26.38-26.379-26.38z" fill="#333"/></g><g><path d="m1478.446 778.906h-14.849c-6.245 0-11.306-5.062-11.306-11.306s5.062-11.306 11.306-11.306h14.849c31.17 0 56.527-25.358 56.527-56.528v-174.025c0-85.198-69.313-154.511-154.51-154.511h-66.445c-85.197 0-154.51 69.313-154.51 154.511v174.025c0 31.17 25.358 56.528 56.527 56.528h15.495c6.245 0 11.306 5.062 11.306 11.306s-5.062 11.306-11.306 11.306h-15.495c-43.637 0-79.14-35.502-79.14-79.139v-174.026c0-97.665 79.458-177.122 177.122-177.122h66.445c97.665 0 177.122 79.457 177.122 177.122v174.025c.002 43.638-35.5 79.14-79.138 79.14z" fill="#333"/></g></g></g></g></g></svg>