<svg id="Layer_1" viewBox="0 0 64 64" xmlns="http://www.w3.org/2000/svg" data-name="Layer 1"><path d="m57 20v-4a3 3 0 0 0 -3-3h-1v-8a3 3 0 0 0 -3-3h-36a3 3 0 0 0 -3 3v24a3 3 0 0 0 3 3h36a3 3 0 0 0 3-3v-6h1a3 3 0 0 0 3-3zm-6 9a1 1 0 0 1 -1 1h-36a1 1 0 0 1 -1-1v-24a1 1 0 0 1 1-1h36a1 1 0 0 1 1 1v8h-5a3 3 0 0 0 -3 3v4a3 3 0 0 0 3 3h5zm-5-8a1 1 0 0 1 -1-1v-4a1 1 0 0 1 1-1h8a1 1 0 0 1 1 1v4a1 1 0 0 1 -1 1z"/><path d="m48 17h4v2h-4z"/><path d="m53 44a9 9 0 1 0 9 9 9 9 0 0 0 -9-9zm0 16a7 7 0 1 1 7-7 7 7 0 0 1 -7 7z"/><path d="m23 53a9 9 0 1 0 9-9 9 9 0 0 0 -9 9zm8 5v1.92a7 7 0 0 1 0-13.84v1.92h-1a1 1 0 0 0 -1 1v4a1 1 0 0 0 1 1h3v2h-4v2zm2-11.92a7 7 0 0 1 0 13.84v-1.92h1a1 1 0 0 0 1-1v-4a1 1 0 0 0 -1-1h-3v-2h4v-2h-2z"/><path d="m11 62a9 9 0 1 0 -9-9 9 9 0 0 0 9 9zm0-16a7 7 0 1 1 -7 7 7 7 0 0 1 7-7z"/><path d="m54 42v-4a1 1 0 0 0 -1-1h-20v-3h-2v3h-20a1 1 0 0 0 -1 1v4h2v-3h19v3h2v-3h19v3z"/><path d="m6.4 53.8 4 3a1 1 0 0 0 1 .09 1 1 0 0 0 .6-.89v-2h4v-2h-4v-2a1 1 0 0 0 -1.6-.8l-4 3a1 1 0 0 0 0 1.6zm3.6-1.8v2l-1.33-1z"/><path d="m53.6 49.2a1 1 0 0 0 -1.6.8v2h-4v2h4v2a1 1 0 0 0 .55.89 1 1 0 0 0 1.05-.09l4-3a1 1 0 0 0 0-1.6zm.4 4.8v-2l1.33 1z"/><path d="m15 6h2v2h-2z"/><path d="m19 6h2v2h-2z"/><path d="m23 6h2v2h-2z"/><path d="m27 6h2v2h-2z"/><path d="m31 6h2v2h-2z"/><path d="m35 6h2v2h-2z"/><path d="m39 6h2v2h-2z"/><path d="m43 6h2v2h-2z"/><path d="m47 6h2v2h-2z"/><path d="m15 26h2v2h-2z"/><path d="m19 26h2v2h-2z"/><path d="m23 26h2v2h-2z"/><path d="m27 26h2v2h-2z"/><path d="m31 26h2v2h-2z"/><path d="m35 26h2v2h-2z"/><path d="m39 26h2v2h-2z"/><path d="m43 26h2v2h-2z"/><path d="m47 26h2v2h-2z"/></svg>