<svg id="Layer_3" enable-background="new 0 0 64 64" height="512" viewBox="0 0 64 64" width="512" xmlns="http://www.w3.org/2000/svg"><g><path d="m57.34 49.132c1.026-1.077 1.66-2.53 1.66-4.132v-2c0-1.279-.405-2.462-1.089-3.437.713-2.449 1.089-4.988 1.089-7.563 0-12.673-8.861-23.628-21.157-26.344-.612-2.662-2.997-4.656-5.843-4.656s-5.231 1.994-5.843 4.657c-12.296 2.714-21.157 13.669-21.157 26.343 0 2.577.376 5.115 1.089 7.563-.684.975-1.089 2.158-1.089 3.437v2c0 1.602.634 3.055 1.66 4.132-3.22.627-5.66 3.467-5.66 6.868v6c0 .553.448 1 1 1h18c.552 0 1-.447 1-1v-5.339c3.44 1.532 7.209 2.339 11 2.339s7.559-.807 11-2.34v5.34c0 .553.448 1 1 1h18c.552 0 1-.447 1-1v-6c0-3.401-2.44-6.241-5.66-6.868zm-.34-6.132v2c0 2.206-1.794 4-4 4s-4-1.794-4-4v-2c0-2.206 1.794-4 4-4s4 1.794 4 4zm-2 8c0 1.103-.897 2-2 2s-2-.897-2-2zm-19-32v6h-8v-6h-2v6h-2v-5c0-2.418 1.726-4.439 4.01-4.9.055 2.159 1.819 3.9 3.99 3.9s3.935-1.741 3.99-3.9c2.284.461 4.01 2.482 4.01 4.9v5h-2v-6zm-2-4c0 1.103-.897 2-2 2s-2-.897-2-2zm-6-8c0-2.206 1.794-4 4-4s4 1.794 4 4v2c0 2.206-1.794 4-4 4s-4-1.794-4-4zm-15 44c0 1.103-.897 2-2 2s-2-.897-2-2zm2-6c0 2.206-1.794 4-4 4s-4-1.794-4-4v-2c0-2.206 1.794-4 4-4s4 1.794 4 4zm4 16h-2v-6h-2v6h-8v-6h-2v6h-2v-5c0-2.418 1.726-4.439 4.01-4.9.055 2.159 1.819 3.9 3.99 3.9s3.935-1.741 3.99-3.9c2.284.461 4.01 2.482 4.01 4.9zm1.794-6.656c-.643-2.635-2.774-4.69-5.454-5.212 1.026-1.077 1.66-2.53 1.66-4.132v-2c0-3.309-2.691-6-6-6-1.206 0-2.329.361-3.27.976-.478-1.946-.73-3.948-.73-5.976 0-11.532 7.923-21.522 19-24.252v1.252c0 1.602.634 3.055 1.66 4.132-3.22.627-5.66 3.467-5.66 6.868v6c0 .553.448 1 1 1h18c.552 0 1-.447 1-1v-6c0-3.401-2.44-6.241-5.66-6.868 1.026-1.077 1.66-2.53 1.66-4.132v-1.251c11.077 2.73 19 12.72 19 24.251 0 2.026-.252 4.028-.73 5.976-.942-.615-2.064-.976-3.27-.976-3.309 0-6 2.691-6 6v2c0 1.602.634 3.055 1.66 4.132-2.679.522-4.81 2.577-5.454 5.211-3.454 1.734-7.315 2.657-11.206 2.657-3.892 0-7.754-.923-11.206-2.656zm40.206 6.656h-2v-6h-2v6h-8v-6h-2v6h-2v-5c0-2.418 1.726-4.439 4.01-4.9.055 2.159 1.819 3.9 3.99 3.9s3.935-1.741 3.99-3.9c2.284.461 4.01 2.482 4.01 4.9z"/><path d="m32 31c-5.514 0-10 4.486-10 10s4.486 10 10 10 10-4.486 10-10-4.486-10-10-10zm0 18c-4.411 0-8-3.589-8-8s3.589-8 8-8 8 3.589 8 8-3.589 8-8 8z"/><path d="m35 38v-2c0-.553-.448-1-1-1h-4c-.552 0-1 .447-1 1v2h-2c-.552 0-1 .447-1 1v4c0 .553.448 1 1 1h2v2c0 .553.448 1 1 1h4c.552 0 1-.447 1-1v-2h2c.552 0 1-.447 1-1v-4c0-.553-.448-1-1-1zm1 4h-2c-.552 0-1 .447-1 1v2h-2v-2c0-.553-.448-1-1-1h-2v-2h2c.552 0 1-.447 1-1v-2h2v2c0 .553.448 1 1 1h2z"/></g></svg>