<svg clip-rule="evenodd" fill-rule="evenodd" height="512" image-rendering="optimizeQuality" shape-rendering="geometricPrecision" text-rendering="geometricPrecision" viewBox="0 0 173.397 173.397" width="512" xmlns="http://www.w3.org/2000/svg"><g id="Layer_x0020_1"><g id="_295506232"><path id="_295507480" d="m42.6048 76.0907c.4957 10.3207 9.1824 19.0328 18.9773 19.0328 9.7798-.0001 18.454-8.6904 18.9769-18.9926l-.4138-14.222c-11.4689 1.4479-21.1589-2.4347-26.0625-4.9839-2.1001-1.0924-4.6191-.956-6.5711.3558l-5.213 3.4986zm18.9783 22.5967c-5.7915 0-11.3399-2.3976-15.6184-6.7536-4.1882-4.2601-6.6486-9.8381-6.9207-15.7007-.0032-.0157-.0032-.031-.0032-.0465l-.3243-16.3072c-.0126-.6063.2842-1.1786.7884-1.5158l6.018-4.0439c3.035-2.0385 6.9449-2.2519 10.2056-.5565 4.7896 2.4871 14.5129 6.3607 25.8237 4.325.5115-.09 1.0362.0433 1.4384.3713.4026.3277.6435.8136.659 1.3303l.4744 16.3069c0 .0466-.001.0931-.001.1364-.2773 5.8625-2.7379 11.4406-6.9237 15.7007-4.281 4.3558-9.8259 6.7537-15.6162 6.7536z"/><path id="_295507648" d="m112.231 143.844h-101.569c-.9843 0-1.7825-.798-1.7825-1.7818l.0005-7.5212c0-8.4088 4.7237-16.2016 12.0311-19.8585.0155-.0094.034-.0185.0526-.0278l26.7806-12.27c1.0414-.7487 1.6601-1.9582 1.6601-3.2606l.0007-5.2596c0-.9836.7975-1.7817 1.7813-1.7817.9879-.0003 1.782.7981 1.782 1.782l.0007 5.259c0 2.537-1.2506 4.8915-3.3481 6.2961-.0794.0523-.1639.1021-.2506.1392l-26.8901 12.3255c-6.0978 3.0596-10.0368 9.5968-10.0368 16.6568l.0005 5.7386h98.0045v-5.7421c0-7.0535-3.9365-13.5874-10.0311-16.6564l-26.8996-12.3226c-.0863-.0401-.1738-.0864-.2545-.139-2.0941-1.414-3.3442-3.7651-3.3442-6.2958v-5.0895c0-.9835.7952-1.7818 1.7821-1.7818.984-.0002 1.7819.7983 1.7819 1.782v5.089c0 1.2965.6188 2.5093 1.6643 3.2641l26.7837 12.2668c.018.009.0363.0186.0547.0278 7.3056 3.6598 12.0253 11.4531 12.0253 19.8557l.0014 7.5238c0 .9839-.7996 1.7822-1.7834 1.7822l.0014-.0002z"/><path id="_295507384" d="m54.5066 143.847c-.096 0-.1948-.009-.297-.0245-.967-.1641-1.6242-1.0828-1.4604-2.0542l2.1166-12.6165-2.6354-7.7095c-.3188-.9315.1754-1.9429 1.1066-2.2615.9316-.319 1.946.1764 2.2648 1.1075l2.7821 8.1365c.0961.2784.1198.5787.0703.8695l-2.1892 13.0648c-.1462.8691-.9015 1.4881-1.7584 1.4879z"/><path id="_295507240" d="m68.3728 143.847c-.8534 0-1.6088-.6186-1.7543-1.4878l-2.1897-13.065c-.0459-.291-.0254-.5908.0704-.8693l2.7794-8.1337c.3146-.931 1.3262-1.4291 2.2604-1.1104.9319.3155 1.4294 1.3303 1.1106 2.2615l-2.6318 7.7064 2.1161 12.6226c.1644.9682-.4927 1.8872-1.4642 2.0512-.0977.0155-.1979.0247-.2969.0245z"/><path id="_295507840" d="m47.8645 127.091c-.2631 0-.5294-.0277-.7953-.0864-1.1412-.2414-2.0915-.9807-2.6111-2.0295l-7.5696-15.6143c-.4273-.8846-.0596-1.952.8251-2.3821.8887-.427 1.9522-.0588 2.3822.8261l7.5655 15.6046c.0279.0557.0792.0962.1474.1116.0711.0124.139-.0031.1978-.0495l25.1151-20.8982c.7559-.6283 1.8811-.526 2.509.2319.6289.7548.526 1.878-.2287 2.5091l-25.1177 20.8951c-.6933.5754-1.5445.8818-2.4197.8816z"/><path id="_295507216" d="m75.0248 127.088c-.8758 0-1.727-.3062-2.4198-.8786l-12.2971-10.2374-12.8179-10.6578c-.7574-.6311-.8601-1.7541-.2321-2.509.6289-.7582 1.751-.8631 2.5089-.2319l12.8215 10.6579 12.2972 10.2371c.0558.0462.1203.062.1945.0496.1061-.025.1423-.0989.1547-.1237l7.713-15.54c.4398-.8816 1.5094-1.2405 2.3913-.8043.8789.4391 1.2405 1.5097.8012 2.3915l-7.7116 15.5335c-.5179 1.0455-1.4675 1.7853-2.6091 2.0266-.2629.0586-.5322.0866-.7947.0865z"/><path id="_295507624" d="m34.8643 52.0337c-.0181.0217-.034.0465-.0525.0681.0135-.0155.0309-.0402.0525-.0681zm47.3818 22.4421c-.6155 0-1.2169-.3186-1.5479-.891-.4918-.8541-.198-1.9429.6558-2.4348 3.2671-1.881 6.6085-9.606 6.1846-17.6839-.3001-5.6709-2.5153-13.2566-11.3852-17.1888-6.4594-2.871-13.6216-3.8116-20.7095-2.7256-8.8574 1.364-19.5617 5.5162-20.2455 17.5353-.0181.3311-.1269.6498-.3155.922-.2288.4483-5.0303 10.7167 6.9084 19.2338.8024.5721.9868 1.6862.4145 2.4874-.5713.8012-1.683.9869-2.4843.4146-5.4809-3.9107-8.6471-8.6625-9.4018-14.123-.6065-4.3934.5692-8.0499 1.3487-9.5628.4714-6.3517 3.3166-11.4035 8.4615-15.017 3.7961-2.667 8.7678-4.486 14.7727-5.411 7.7623-1.1911 15.6109-.1578 22.6987 2.9885 8.206 3.6414 13.0002 10.8344 13.495 20.2579.4621 8.7613-3.1122 18.1666-7.9634 20.9602-.2814.1637-.5878.2382-.8868.2382z"/><path id="_295506688" d="m66.1829 130.782h-9.4849c-.9843 0-1.7831-.7979-1.7831-1.7818.0011-.9839.7982-1.782 1.782-1.782l9.486-.0002c.9843 0 1.7815.7984 1.7815 1.7822.0005.9837-.7982 1.782-1.7815 1.7818z"/><path id="_295506616" d="m26.7507 143.847c-.9843 0-1.7833-.7979-1.7833-1.7818l.0013-8.4121c0-.9836.797-1.7818 1.7807-1.7818.9869-.0002 1.782.7982 1.782 1.782l.0013 8.4117c0 .984-.7964 1.7822-1.7833 1.7822z"/><path id="_295506760" d="m96.1401 143.847c-.9872 0-1.7831-.7979-1.7831-1.7818l.0011-8.4121c0-.9836.7941-1.7818 1.7809-1.7818.984-.0002 1.782.7982 1.782 1.782l.0011 8.4117c0 .984-.7991 1.7822-1.782 1.782z"/><path id="_295506544" d="m106.872 65.5995c-.5083 0-1.0096-.2162-1.3591-.6277l-4.4198-5.2131c-.6377-.7519-.5458-1.8747.2028-2.5119.7521-.6376 1.8781-.5446 2.5123.2072l3.3423 3.9352 4.5106-3.3569c.7881-.5878 1.9046-.4236 2.4925.3653.5883.7888.424 1.9057-.3648 2.4936l-5.8532 4.3558c-.3189.2384-.6935.3529-1.0636.3525z"/><path id="_295507072" d="m106.872 65.5995c-.9843 0-1.7831-.7978-1.7831-1.7816.0011-4.6471 1.4295-8.907 4.0281-11.9945 2.8183-3.3568 6.7383-5.1295 11.3263-5.1295.9839-.0002 1.7819.7982 1.7819 1.782.0011.9837-.798 1.782-1.7819 1.782-6.9418-.0002-11.7904 5.575-11.7904 13.56.0011.9836-.7984 1.782-1.7809 1.7816z"/><path id="_295506784" d="m157.282 90.8448c-.5053 0-1.0068-.2135-1.3593-.6312l-3.306-3.8983-4.1502 3.2855c-.7698.6126-1.89.483-2.5027-.2874-.6087-.7737-.4797-1.8933.2908-2.5028l5.499-4.3593c.7545-.5969 1.8425-.4886 2.4644.2446l4.4214 5.2127c.6375.7519.544 1.8751-.2047 2.5124-.3369.2845-.7456.4238-1.1527.4238z"/><path id="_295507048" d="m139.288 100.974c-.9841 0-1.7823-.798-1.7823-1.7818.0003-.9872.7982-1.782 1.782-1.782 6.9433-.0002 11.7903-5.5781 11.7903-13.56.0007-.984.7984-1.782 1.782-1.782.9848 0 1.782.7983 1.782 1.782.0007 4.6467-1.4295 8.907-4.0281 11.9945-2.8182 3.3536-6.7351 5.1295-11.3259 5.1293z"/><path id="_295506952" d="m126.022 83.9983h-21.7892c-.9843 0-1.7823-.7981-1.7823-1.782.0003-.9839.798-1.782 1.782-1.782h21.7895c.9843 0 1.7818.7982 1.7818 1.782.0002.9836-.7982 1.782-1.7818 1.782z"/><path id="_295506856" d="m115.129 83.9983c-.9841 0-1.7829-.7981-1.7829-1.782l.0009-4.842c0-.9835.7975-1.7816 1.7811-1.7816.9838-.0004 1.782.7982 1.782 1.782l.0009 4.8416c0 .9836-.7991 1.782-1.782 1.782z"/><path id="_295507144" d="m105.771 102.091c-.8202 0-1.5603-.5691-1.7399-1.4044-.2093-.9623.3992-1.912 1.361-2.1193 11.0179-2.3917 14.1231-16.5763 14.1541-16.7185.2022-.9625 1.1476-1.581 2.1098-1.3768.9631.2041 1.581 1.1478 1.3769 2.11-.1425.6773-3.6352 16.5917-16.8829 19.4689-.1286.0276-.2566.0402-.379.0401z"/><path id="_295506088" d="m124.485 102.091c-.124 0-.2513-.0123-.3815-.0401-13.2466-2.8772-16.7401-18.7915-16.8825-19.4689-.2036-.9624.4145-1.9058 1.3767-2.11.9631-.2042 1.9058.4145 2.11 1.3768.0406.1822 3.1928 14.3394 14.1539 16.7185.9627.2072 1.5715 1.1571 1.3644 2.1193-.1818.835-.9221 1.4045-1.741 1.4044z"/><path id="_295505992" d="m127.993 108.751h-25.725c-3.8883 0-7.0512-3.1618-7.0512-7.0506l.0013-25.7246c0-3.889 3.1606-7.0506 7.0496-7.0506l24.2092-.0001c.9871 0 1.7813.7983 1.7813 1.7821.0007.9838-.7952 1.782-1.782 1.782l-24.2082-.0001c-1.9211 0-3.4872 1.5656-3.4872 3.4867l.0013 25.7245c0 1.9243 1.5643 3.4867 3.4856 3.4867h25.7253c1.9213 0 3.4826-1.5623 3.4826-3.4866l.0007-24.7441c0-.9836.7977-1.7817 1.7813-1.7817.9848-.0003 1.782.7982 1.782 1.782l.0007 24.7437c0 3.8887-3.1625 7.0507-7.0473 7.0507z"/><path id="_295505896" d="m151.812 71.0448c-.9843 0-1.7831-.7951-1.7831-1.7819l.0011-13.6746c0-2.9886-2.4359-5.4232-5.4242-5.4232-2.9887 0-5.4204 2.4349-5.4204 5.4234l.0009 13.6743c0 .9867-.7991 1.7821-1.7829 1.7821-.9861-.0001-1.782-.7952-1.782-1.782l.0009-13.6746c0-4.9562 4.0272-8.9841 8.9835-8.9841 4.9566 0 8.9871 4.0281 8.9871 8.9843l.0011 13.6743c0 .9867-.7993 1.7821-1.782 1.782z"/><path id="_295505728" d="m151.805 60.6096h-14.4007c-.987 0-1.7829-.7982-1.7829-1.7819.0009-.984.7952-1.7821 1.782-1.7821h14.4016c.9871 0 1.7816.7982 1.7816 1.7821.0004.9835-.7949 1.782-1.7816 1.7819z"/><path id="_295506328" d="m131.745 42.4802c-1.921 0-3.4866 1.5655-3.4866 3.4867l.0007 25.7245c0 1.9212 1.5645 3.4836 3.4859 3.4836l25.7248-.0003c1.9213 0 3.4832-1.5621 3.4832-3.4833l.0002-25.7248c0-1.9212-1.5624-3.4863-3.4837-3.4863zm25.7248 36.2588h-25.7248c-3.8883 0-7.0475-3.1618-7.0475-7.0476l.0004-25.7248c0-3.8888 3.1583-7.0503 7.0471-7.0503l25.7248-.0001c3.8857 0 7.0472 3.1619 7.0472 7.0507l.0002 25.7245c0 3.8857-3.1619 7.0476-7.0474 7.0476z"/></g></g></svg>