<svg viewBox="-13 0 463 463.554" xmlns="http://www.w3.org/2000/svg"><path d="m342.195312 169.253906h-12v24.1875h-24.1875v12h24.1875v24.191406h12v-24.191406h24.1875v-12h-24.1875zm0 0"/><path d="m90.625 100.503906v20.179688h-19.355469v12h19.355469v11.710937h12v-11.71875c11.984375-.210937 21.675781-10.019531 21.675781-22.054687s-9.691406-21.847656-21.675781-22.054688v-18.785156h19.351562v-12h-19.351562v-10.933594h-12v10.988282c-11.296875.5625-20.324219 9.898437-20.324219 21.332031 0 11.433593 9.027344 20.773437 20.324219 21.335937zm12 .070313c5.367188.207031 9.675781 4.628906 9.675781 10.046875 0 5.417968-4.308593 9.839844-9.675781 10.042968zm-12-30.726563v18.644532c-4.675781-.53125-8.324219-4.507813-8.324219-9.320313 0-4.816406 3.648438-8.792969 8.324219-9.324219zm0 0"/><path d="m149.097656 376.253906h11.347656v12h-11.347656zm0 0"/><path d="m80.773438 376.253906h11.386718v12h-11.386718zm0 0"/><path d="m126.320312 376.253906h11.390626v12h-11.390626zm0 0"/><path d="m103.546875 376.253906h11.386719v12h-11.386719zm0 0"/><path d="m57.386719 376.253906h12v12h-12zm0 0"/><path d="m57.386719 243.667969h12v11.050781h-12zm0 0"/><path d="m57.386719 265.765625h12v11.046875h-12zm0 0"/><path d="m57.386719 332.058594h12v11.050781h-12zm0 0"/><path d="m57.386719 309.960938h12v11.050781h-12zm0 0"/><path d="m57.386719 354.15625h12v11.050781h-12zm0 0"/><path d="m57.386719 287.863281h12v11.046875h-12zm0 0"/><path d="m172.613281 354.09375h10.664063v12h-10.664063zm0 0"/><path d="m104.289062 354.09375h11.390626v12h-11.390626zm0 0"/><path d="m127.066406 354.09375h11.386719v12h-11.386719zm0 0"/><path d="m149.839844 354.09375h11.386718v12h-11.386718zm0 0"/><path d="m80.902344 354.09375h12v12h-12zm0 0"/><path d="m80.902344 309.898438h12v11.050781h-12zm0 0"/><path d="m80.902344 331.996094h12v11.050781h-12zm0 0"/><path d="m80.902344 265.703125h12v11.050781h-12zm0 0"/><path d="m80.902344 243.605469h12v11.050781h-12zm0 0"/><path d="m80.902344 287.800781h12v11.050781h-12zm0 0"/><path d="m75.28125 170.949219-45.777344 60.648437h33.015625v-12h-8.921875l21.683594-28.730468 21.6875 28.730468h-9.140625v12h33.230469zm0 0"/><path d="m79.050781 417.441406c0 18.574219-14.914062 33.71875-33.394531 34.09375-18.414062-.375-33.378906-15.640625-33.378906-34.085937v-131.859375h-12v131.859375c0 24.78125 19.984375 45.3125 44.675781 46.066406v.039063c.210937 0 .417969-.011719.628906-.015626.261719.011719.53125.015626.800781.015626h275.007813c25.417969 0 46.101563-20.6875 46.101563-46.113282v-6h-288.441407zm275.910157 6c-2.84375 15.960938-16.8125 28.113282-33.570313 28.113282h-245.464844c7.886719-7.171876 13.292969-17.023438 14.738281-28.113282zm0 0"/><path d="m12.277344 12h295.480468v78.113281h12v-90.113281h-319.480468v215.394531h12zm0 0"/><path d="m.277344 237.621094h12v23.84375h-12zm0 0"/><path d="m336.195312 137.519531c-34.144531 0-61.921874 27.777344-61.921874 61.921875 0 34.144532 27.777343 61.921875 61.921874 61.921875 34.144532 0 61.921876-27.777343 61.921876-61.921875-.003907-34.144531-27.777344-61.921875-61.921876-61.921875zm0 111.84375c-27.523437 0-49.921874-22.394531-49.921874-49.921875s22.398437-49.921875 49.921874-49.921875c27.527344 0 49.921876 22.394531 49.921876 49.921875s-22.394532 49.921875-49.921876 49.921875zm0 0"/><path d="m432.777344 131.683594c-3.398438-4.902344-7.195313-9.574219-11.285156-13.882813l-8.707032 8.257813c3.671875 3.867187 7.078125 8.058594 10.128906 12.460937zm0 0"/><path d="m344.371094 94.390625c.816406.046875 1.632812.105469 2.449218.171875 21.566407 1.722656 41.613282 9.996094 57.96875 23.917969l7.777344-9.136719c-18.214844-15.507812-40.511718-24.742188-64.5-26.722656v-38.664063h-12v50.121094l5.792969.199219c.835937.027344 1.671875.066406 2.511719.113281zm0 0"/><path d="m415.898438 150.050781c-19.597657-26.542969-49.628907-42.1875-82.390626-42.925781-1.6875-.039062-3.382812-.039062-5.070312 0-6.886719.15625-13.648438 1.054688-20.207031 2.636719l-3.472657.082031c-7.050781-1.644531-14.304687-2.558594-21.597656-2.71875-1.699218-.046875-3.425781-.042969-5.078125 0-25.273437.578125-48.921875 11.015625-66.585937 29.382812-17.578125 18.277344-27.257813 42.3125-27.257813 67.683594v10.429688l-22.453125 36.175781c-2.792968 4.484375-3.257812 10.085937-1.242187 14.972656s6.289062 8.53125 11.425781 9.75l10.171875 2.421875v41.371094c0 12.949219 10.527344 23.480469 23.46875 23.480469h68.664063v46.730469h12v-46.730469h10.574218v-.003907h10.472656v46.734376h12v-46.734376h22.777344v46.734376h12v-51.566407l25.734375-30.175781-9.128906-7.785156-26.261719 30.792968h-88.472656c-6.324219 0-11.472656-5.148437-11.472656-11.472656v-50.855468l-19.386719-4.609376c-1.421875-.335937-2.554687-1.304687-3.109375-2.652343-.554688-1.351563-.433594-2.835938.335938-4.074219l24.269531-39.074219v-13.859375c0-38.113281 25.449219-70.886718 60.027343-81.480468l2.652344-.765626c6.234375-1.683593 12.734375-2.667968 19.429688-2.820312 1.503906-.035156 3.019531-.035156 4.519531-.003906 29.023437.65625 55.632813 14.527344 73.007813 38.058594 17.695312 23.96875 23.1875 54.125 15.074218 82.742187l-14.625 51.59375v98.011719h12v-96.34375l14.171875-49.988282c9.136719-32.21875 2.953125-66.167968-16.964843-93.144531zm-154.039063-13.542969c-17.574219 18.273438-27.253906 42.3125-27.253906 67.679688v10.4375l-22.460938 36.167969c-2.789062 4.488281-3.25 10.089843-1.238281 14.976562 2.015625 4.886719 6.285156 8.535157 11.429688 9.757813l10.164062 2.414062v41.375c0 4.167969 1.097656 8.082032 3.007812 11.476563h-29.898437c-6.324219 0-11.46875-5.148438-11.46875-11.480469v-50.847656l-19.398437-4.617188c-1.417969-.335937-2.546876-1.304687-3.101563-2.652344-.554687-1.34375-.433594-2.828124.335937-4.066406l24.261719-39.082031v-13.851563c0-45.867187 36.839844-84.03125 82.132813-85.074218 1.476562-.035156 2.96875-.035156 4.507812 0 .457032.011718.914063.035156 1.371094.054687-8.164062 4.570313-15.707031 10.382813-22.390625 17.332031zm0 0"/><path d="m164.820312 28.621094h-134v134h134zm-12 122h-110v-110h110zm0 0"/><path d="m220.195312 28.625h65.332032v12h-65.332032zm0 0"/><path d="m220.195312 52.597656h65.332032v12h-65.332032zm0 0"/><path d="m336.066406 13.871094h12v16.5h-12zm0 0"/></svg>