<svg id="Layer_3" height="512" viewBox="0 0 64 64" width="512" xmlns="http://www.w3.org/2000/svg" data-name="Layer 3"><path d="m54 13h-7v2h7a3 3 0 0 1 3 3v23h-50v-23a3 3 0 0 1 3-3h4v-2h-4a5.006 5.006 0 0 0 -5 5v30a5.006 5.006 0 0 0 5 5h13.382l-2 4h-2.382a1 1 0 0 0 -1 1v4a1 1 0 0 0 1 1h26a1 1 0 0 0 1-1v-4a1 1 0 0 0 -1-1h-2.382l-2-4h13.382a5.006 5.006 0 0 0 5-5v-30a5.006 5.006 0 0 0 -5-5zm-10 48h-24v-2h24zm-3.618-4h-16.764l2-4h12.764zm13.618-6h-44a3 3 0 0 1 -3-3v-5h50v5a3 3 0 0 1 -3 3z"/><path d="m32 44a3 3 0 1 0 3 3 3 3 0 0 0 -3-3zm0 4a1 1 0 1 1 1-1 1 1 0 0 1 -1 1z"/><path d="m17 39h30a1 1 0 0 0 1-1v-20a1 1 0 0 0 -1-1h-2v-15a1 1 0 0 0 -1-1h-24a1 1 0 0 0 -1 1v11h-2a1 1 0 0 0 -1 1v24a1 1 0 0 0 1 1zm4-36h22v14h-11.586l-3.707-3.707a1 1 0 0 0 -.707-.293h-6zm-3 12h8.586l3.707 3.707a1 1 0 0 0 .707.293h15v18h-28z"/><path d="m37 25h-2v-2a1 1 0 0 0 -1-1h-4a1 1 0 0 0 -1 1v2h-2a1 1 0 0 0 -1 1v4a1 1 0 0 0 1 1h2v2a1 1 0 0 0 1 1h4a1 1 0 0 0 1-1v-2h2a1 1 0 0 0 1-1v-4a1 1 0 0 0 -1-1zm-1 4h-2a1 1 0 0 0 -1 1v2h-2v-2a1 1 0 0 0 -1-1h-2v-2h2a1 1 0 0 0 1-1v-2h2v2a1 1 0 0 0 1 1h2z"/><path d="m23 5h18v2h-18z"/><path d="m23 9h18v2h-18z"/><path d="m31 13h6v2h-6z"/><path d="m39 13h2v2h-2z"/></svg>