<svg height="512" viewBox="0 0 512 512" width="512" xmlns="http://www.w3.org/2000/svg"><g id="outline"><path d="m476.188 20.031h-248a24.027 24.027 0 0 0 -24 24v80a4 4 0 0 0 8 0v-80a16.018 16.018 0 0 1 16-16h248a16.019 16.019 0 0 1 16 16v424a16.018 16.018 0 0 1 -16 16h-212a4 4 0 0 0 0 8h212a24.027 24.027 0 0 0 24-24v-424a24.028 24.028 0 0 0 -24-24z"/><path d="m312.188 36.031h-88a4 4 0 0 0 -4 4v92a4 4 0 0 0 8 0v-88h80v4a12.013 12.013 0 0 0 12 12h64a12.013 12.013 0 0 0 12-12v-4h80v424h-156a4 4 0 0 0 0 8h160a4 4 0 0 0 4-4v-432a4 4 0 0 0 -4-4h-88a4 4 0 0 0 -4 4v8a4 4 0 0 1 -4 4h-64a4 4 0 0 1 -4-4v-8a4 4 0 0 0 -4-4z"/><path d="m376.188 44.031a4 4 0 0 0 0-8h-48a4 4 0 0 0 0 8z"/><path d="m268.922 471.153a59.687 59.687 0 0 0 68.7-40.508l49.7-153.759a11.977 11.977 0 0 0 -16.471-14.425 11.949 11.949 0 0 0 -15.272-4.739 11.862 11.862 0 0 0 -8.65-5.7l2.43-8.035c.917.029 1.854.045 2.831.045a87.063 87.063 0 0 0 37.663-8.455 87.9 87.9 0 0 0 50.337-79.545 89 89 0 0 0 -1.572-16.639c6.551-14.346 13.572-31.542 13.572-39.361a27.991 27.991 0 0 0 -50.456-16.707c-2.11-1.44-4.277-2.8-6.492-4.048a87.947 87.947 0 0 0 -87.057.562 28 28 0 0 0 -55.995.193c0 9.225 9.767 31.491 17.011 46.74a88.045 88.045 0 0 0 53.799 112.303l-6.946 21.838a16.933 16.933 0 0 0 -8.358 10.143l-8.436 28.181c-.012.041-.024.081-.035.122a16.222 16.222 0 0 0 1.053 11.153l-7.425 23.336v-37.848a44.055 44.055 0 0 0 -44-44.01h-64.015v-8.084a29.937 29.937 0 0 0 19.35-9.508v5.632a4 4 0 0 0 8 0v-48.056c1.005.035 2.011.057 3.019.057h4.981v48a4 4 0 0 0 8 0v-71a34.294 34.294 0 0 0 -49.581-30.7l-10.777 5.358a26.757 26.757 0 0 0 -34.349 31.2s5.539 22.989 6.787 30.765c1.106 6.9 5.929 12.582 12.57 14.024v32.319h-95.981a44.055 44.055 0 0 0 -44 44.01v192.03a4 4 0 0 0 8 0v-100.023h56v100.017a4 4 0 0 0 8 0v-152a4 4 0 1 0 -8 0v43.983h-56v-84.014a36.047 36.047 0 0 1 36-36.01h80.577l11.027 29.41a3.991 3.991 0 0 0 6.374 1.6l1.348 5.393-7.971 159.426a4 4 0 0 0 1.166 3.028l16 16.009a4 4 0 0 0 5.658 0l16-16.009a4 4 0 0 0 1.166-3.028l-7.971-159.419 1.351-5.4a3.991 3.991 0 0 0 2.624 1 3.942 3.942 0 0 0 .847-.091 4 4 0 0 0 2.9-2.5l11.027-29.41h49.879a36.046 36.046 0 0 1 36 36.01v63l-6.685 21.014h-25.315v-43.992a4 4 0 0 0 -8 0v152a4 4 0 0 0 8 0v-22.58a59.583 59.583 0 0 0 16.063 5.702zm-127.627-297.988a18.821 18.821 0 0 1 18.223-22.809 18.962 18.962 0 0 1 7.07 1.387 4 4 0 0 0 3.269-.13l12.316-6.123a26.3 26.3 0 0 1 38.015 23.541v15h-4.981a78.568 78.568 0 0 1 -40.936-11.5 4 4 0 0 0 -6.042 2.844l-.622 4.307a24.786 24.786 0 0 1 -3.884 10.225 16 16 0 0 0 -18.241 2.237zm6.916 31.5c-.02-.21-.023-.419-.023-.635a8.009 8.009 0 0 1 8-8 7.875 7.875 0 0 1 5.535 2.242 4 4 0 0 0 5.778-.2 32.758 32.758 0 0 0 7.783-15.79 86.557 86.557 0 0 0 28.9 9.036v22.709a22.046 22.046 0 0 1 -28.435 21.054 4 4 0 0 0 -2.33 7.652 29.6 29.6 0 0 0 3.415.8v11.1l-8.534 10.767-7.466-10.637v-38.751a4.024 4.024 0 0 0 -4.207-4c-.15.006-.293.014-.443.014a8.05 8.05 0 0 1 -7.973-7.36zm-2.233 55.325h8.752l8.175 11.648-9.134 9.136zm22.229 206.382-11.916-11.924 7.909-158.248a3.975 3.975 0 0 0 -.114-1.17l-2.652-10.608 6.77-6.772 6.772 6.774-2.652 10.606a3.975 3.975 0 0 0 -.114 1.17l7.911 158.248zm14.435-185.6-9.1-9.1 9.26-11.684h7.632zm193.214-11.431a4 4 0 0 1 3.82 5.18l-4.722 15.292a4 4 0 1 1 -7.644-2.36l4.723-15.294a4.005 4.005 0 0 1 3.823-2.815zm-17.157-4.26a4 4 0 0 1 5.69 4.715l-4.723 15.291a4 4 0 0 1 -7.643-2.361l4.729-15.3.009-.033a3.967 3.967 0 0 1 1.939-2.309zm-9.412-1.183a4.005 4.005 0 0 1 -.171 1.135c0 .015-.011.029-.015.044l-.947 3.066a13.35 13.35 0 0 0 -5.056-3.2l-2.1-.731.464-1.5a4 4 0 0 1 4.988-2.646 4.055 4.055 0 0 1 2.837 3.834zm-11.909-43.625a5.172 5.172 0 0 1 10.1 1.576c0 .573-9.661 32.651-9.661 32.651a11.893 11.893 0 0 0 -4 5.856l-.378 1.224-4.646-1.619a16.073 16.073 0 0 0 -3.78-.809zm94.81-64.245a80.011 80.011 0 0 1 -3.114 22.164c-.271.943-.582 1.869-.886 2.8v-.962h-29.529l-5.105-10.211 12.423-6.211a4 4 0 0 0 2.211-3.578v-14.342l3.062-3.063c4.448 9.565 8.4 17.328 9.379 19.233a4 4 0 0 0 7.117 0c.58-1.13 2.213-4.334 4.368-8.736.034.969.074 1.938.074 2.909zm-8-76a20.023 20.023 0 0 1 20 20c0 7.936-10.925 32.7-20 51.1-9.076-18.4-20-43.162-20-51.1a20.022 20.022 0 0 1 20-19.997zm-26.288 10.362a27.853 27.853 0 0 0 -1.711 9.641c0 5.122 3.014 14.268 6.933 24h-18.934v-4a4 4 0 0 0 -1.172-2.828l-6.828-6.829v-19.22l16.478-4.116c1.782 1.049 3.534 2.162 5.234 3.352zm-16.414-8.805-10.268 2.565a4 4 0 0 0 -3.03 3.881v24a4 4 0 0 0 1.171 2.828l6.829 6.829v6.343a4 4 0 0 0 4 4h22.342l4 4-5.171 5.172a4 4 0 0 0 -1.171 2.828v13.529l-13.79 6.893a4 4 0 0 0 -1.789 5.367l8 16a4 4 0 0 0 3.579 2.211h29.312a80.027 80.027 0 0 1 -36 38.758l-29.981-44.976a4 4 0 0 0 -3.328-1.782h-28v-20a4 4 0 0 0 -2.211-3.578l-12.423-6.211 14.212-28.422a4.008 4.008 0 0 0 .422-1.789v-21.531l13.789-6.894a4 4 0 0 0 2.211-3.578v-11.59c2.641-.264 5.319-.407 8-.407a80.164 80.164 0 0 1 29.294 5.554zm-101.3-21.554a20.023 20.023 0 0 1 20 20 27.433 27.433 0 0 1 -1.261 6.768c-.024.065-.036.132-.057.2-3.168 11.038-11.5 29.575-18.682 44.132-.969-1.963-1.959-4-2.954-6.081a3.713 3.713 0 0 0 -.215-.45c-8.263-17.315-16.831-37.539-16.831-44.567a20.022 20.022 0 0 1 20.002-20.002zm-8 96a80.05 80.05 0 0 1 2.191-18.624c1.081 2.165 1.881 3.733 2.25 4.451a4 4 0 0 0 7.117 0c.587-1.143 2.25-4.406 4.442-8.887v27.06a4 4 0 0 0 2.21 3.578l13.79 6.894v20.879l-7.442 22.325a79.543 79.543 0 0 1 -24.556-57.676zm32 63.984v-3.334l7.794-23.385a4 4 0 0 0 .206-1.265v-24a4 4 0 0 0 -2.211-3.578l-13.789-6.893v-29.529a4 4 0 0 0 -.8-2.4l-2.259-3.006c4.757-10.23 10.078-22.518 12.949-31.946a79.923 79.923 0 0 1 30.112-13.032v7.913l-13.788 6.893a4 4 0 0 0 -2.21 3.578v23.056l-15.579 31.155a4 4 0 0 0 1.789 5.367l13.79 6.894v21.528a4 4 0 0 0 4 4h29.859l28.122 42.187a79.189 79.189 0 0 1 -29.981 5.813c-.145 0-.282 0-.424 0l3-9.913a13.17 13.17 0 1 0 -25.007-8.266l-4.325 13.6a79.417 79.417 0 0 1 -21.246-11.437zm-28.561 168-7.669 24.106a4 4 0 1 0 7.623 2.426l18.658-58.647v-.018l12.343-38.782a4 4 0 0 0 3.349-7.118 8 8 0 0 1 -2.982-8.519l8.417-28.115a8.778 8.778 0 0 1 4.427-5.368 8.044 8.044 0 0 1 6.369-.464l14.3 4.983a5.961 5.961 0 0 1 3.5 7.514 6.114 6.114 0 0 1 -3.075 3.613 5.538 5.538 0 0 1 -4.294.311l-11.959-4.074a4 4 0 0 0 -5.143 2.711l-1.417 5.076a4 4 0 0 0 .339 2.987l1.22 2.242a17.712 17.712 0 0 1 .328 16.087 4 4 0 0 0 7.211 3.465 25.729 25.729 0 0 0 -.512-23.374l-.034-.064 7.387 2.517a13.482 13.482 0 0 0 10.454-.73c.391-.2.768-.412 1.135-.64a11.89 11.89 0 0 0 15.246 4.651 11.883 11.883 0 0 0 9.741 5.824l-40.587 127.604a51.759 51.759 0 0 1 -77.137 28v-68.2z"/><path d="m280.188 90.031a12 12 0 1 0 -12-12 12.013 12.013 0 0 0 12 12zm0-16a4 4 0 1 1 -4 4 4 4 0 0 1 4-4z"/><path d="m424.188 110.031a12 12 0 1 0 -12-12 12.013 12.013 0 0 0 12 12zm0-16a4 4 0 1 1 -4 4 4 4 0 0 1 4-4z"/><path d="m360.188 400.031a4 4 0 0 0 4 4h100a4 4 0 0 0 0-8h-100a4 4 0 0 0 -4 4z"/><path d="m348.188 424.031a4 4 0 0 0 4 4h112a4 4 0 0 0 0-8h-112a4 4 0 0 0 -4 4z"/><path d="m340.188 448.031a4 4 0 0 0 4 4h120a4 4 0 0 0 0-8h-120a4 4 0 0 0 -4 4z"/><path d="m464.188 380.031a4 4 0 0 0 0-8h-92a4 4 0 0 0 0 8z"/><path d="m36.188 124.031h58.666l30.933 23.2a4 4 0 0 0 6.4-3.2v-20h40a24.027 24.027 0 0 0 24-24v-56a24.028 24.028 0 0 0 -24-24h-136a24.027 24.027 0 0 0 -24 24v56a24.027 24.027 0 0 0 24.001 24zm-16-80a16.018 16.018 0 0 1 16-16h136a16.019 16.019 0 0 1 16 16v56a16.018 16.018 0 0 1 -16 16h-44a4 4 0 0 0 -4 4v16l-25.6-19.2a4 4 0 0 0 -2.4-.8h-60a16.017 16.017 0 0 1 -16-16z"/><path d="m61.035 90.493a4 4 0 0 0 3.153 1.538h8a4 4 0 0 0 2.891-1.231l6.465-6.764h13.922l-3.224 19.343a4 4 0 0 0 3.946 4.657h8a4 4 0 0 0 3.328-1.781l14.812-22.219h8.915a25.062 25.062 0 0 0 11.157-2.636 10.472 10.472 0 0 0 0-18.734 25.062 25.062 0 0 0 -11.155-2.633h-8.915l-14.814-22.22a4 4 0 0 0 -3.328-1.782h-8a4 4 0 0 0 -3.946 4.657l3.224 19.343h-13.922l-6.465-6.763a4 4 0 0 0 -2.891-1.237h-8a4 4 0 0 0 -3.881 4.969l3.757 15.03-3.757 15.032a4 4 0 0 0 .728 3.431zm11.033-19.431-2.757-11.031h1.167l6.464 6.769a4 4 0 0 0 2.892 1.236h20.354a4 4 0 0 0 3.945-4.657l-3.224-19.343h1.138l14.812 22.214a4 4 0 0 0 3.329 1.781h11.055a17.016 17.016 0 0 1 7.577 1.789 2.471 2.471 0 0 1 0 4.422 17.016 17.016 0 0 1 -7.577 1.789h-11.055a4 4 0 0 0 -3.329 1.782l-14.812 22.218h-1.138l3.224-19.343a4 4 0 0 0 -3.945-4.657h-20.354a4 4 0 0 0 -2.892 1.237l-6.464 6.763h-1.167l2.757-11.031a3.976 3.976 0 0 0 0-1.938z"/><path d="m184.185 216.031h8a4 4 0 0 0 4-4v-12a4 4 0 0 0 -8 0v8h-4a4 4 0 0 0 0 8z"/><path d="m174.106 223.313 1.185.762a31.213 31.213 0 0 0 16.894 4.956 4 4 0 0 0 0-8 23.23 23.23 0 0 1 -12.572-3.687l-1.184-.761a4 4 0 1 0 -4.323 6.73z"/></g></svg>