<?xml version="1.0" encoding="UTF-8"?>
<svg xmlns="http://www.w3.org/2000/svg" id="Layer_3" data-name="Layer 3" viewBox="0 0 64 64" width="512" height="512"><path d="M16,11V7a.948.948,0,0,0-.039-.192l.019,0-1-5A1,1,0,0,0,14,1H11a1,1,0,0,0-1,1A1,1,0,0,1,9,3H5A1,1,0,0,0,4,4v7a6,6,0,0,0,12,0ZM9,5a3.006,3.006,0,0,0,2.829-2H13.18l.6,3H6V5Zm5,6a4,4,0,0,1-8,0V8h8Z"/><path d="M31,46a7,7,0,1,0,7,7A7.008,7.008,0,0,0,31,46Zm0,12a5,5,0,1,1,5-5A5.006,5.006,0,0,1,31,58Z"/><path d="M46.638,14V12a6,6,0,0,0-12,0v2a6,6,0,0,0,12,0Zm-10-2a3.991,3.991,0,0,1,7.373-2.129H40a1,1,0,0,0-1,1v2.586l-2.06,2.059a3.984,3.984,0,0,1-.3-1.516Zm8,2a4,4,0,0,1-4,4,3.958,3.958,0,0,1-2.473-.881l2.542-2.541A1,1,0,0,0,41,13.871v-2h3.625c0,.044.013.085.013.129Z"/><path d="M59,47a1,1,0,0,0-.243.03L56,47.719V41a3.988,3.988,0,0,0-.35-1.623A2.952,2.952,0,0,0,54.6,35.471,2.967,2.967,0,0,0,55,34a3,3,0,0,0-3-3H50a2.715,2.715,0,0,1-2-.9V26a6.006,6.006,0,0,0-6-6H39a5.006,5.006,0,0,0-5,5v9c0,.334.022.668.055,1H32V31a1,1,0,0,0-1-1H23.816A3,3,0,0,0,21,28H19a2.731,2.731,0,0,1-2.277-1.219l-.976-1.463L16,21.994A5,5,0,0,0,11,17H7a3,3,0,0,0-3,3V34.917L2.014,46.835A1,1,0,0,0,3,48H6V62a1,1,0,0,0,1,1h9a1,1,0,0,0,1-1,4.977,4.977,0,0,0-2-3.974V48h2a1,1,0,0,0,.97-1.243L15.009,34.915l.135-1.748A5.333,5.333,0,0,0,18,34h3a3,3,0,0,0,2.816-2H30V43.051A10,10,0,1,0,40.539,50H50v2h0v3.142a4,4,0,1,0,2,0v-.326A2.966,2.966,0,0,0,53,55a13.293,13.293,0,0,0,4.214-.684l2.2-.735A3.769,3.769,0,0,0,62,50,3,3,0,0,0,59,47ZM7,19h4a2.989,2.989,0,0,1,3,2.917l-.054.7-.117-.175-.016.011a1.029,1.029,0,0,0-.109-.163l-1.379-1.379a3.121,3.121,0,0,0-4.414,4.414l1.35,1.35,4.013,4.682-.2,2.64H6V20A1,1,0,0,1,7,19Zm3,5.586-.672-.672a1.121,1.121,0,0,1,1.586-1.586l.672.672ZM10,48v9H8V48ZM8,61V59h4a3.006,3.006,0,0,1,2.829,2Zm5-3.9a5,5,0,0,0-1-.1V48h1ZM15.719,46H4.181L5.847,36h7.372ZM21,32H18a3.342,3.342,0,0,1-2.542-1.169l-4.1-4.779,1.483-1.482,2.214,3.321A4.727,4.727,0,0,0,19,30h2a1,1,0,0,1,0,2Zm29,1h2a1,1,0,0,1,0,2H49a3.342,3.342,0,0,1-2.542-1.169l-4.1-4.779,1.483-1.482,2.214,3.321A4.727,4.727,0,0,0,50,33ZM40,26.121a1.121,1.121,0,0,1,1.914-.793l.672.672L41,27.586l-.672-.672A1.117,1.117,0,0,1,40,26.121ZM36,34V25a3,3,0,0,1,3-3h3a4,4,0,0,1,4,4v1.2l-1.168-1.752-.016.011a1.029,1.029,0,0,0-.109-.163l-1.379-1.379a3.121,3.121,0,0,0-4.414,4.414l1.35,1.35L44.826,35H36.067A7.947,7.947,0,0,1,36,34Zm17,3a1,1,0,0,1,0,2H32V37ZM31,61a8,8,0,1,1,8-8A8.009,8.009,0,0,1,31,61Zm1-17.949V41H50v7H39.647A10.007,10.007,0,0,0,32,43.051ZM53,59a2,2,0,1,1-2-2A2,2,0,0,1,53,59Zm5.786-7.316-2.2.735A11.286,11.286,0,0,1,53,53a1,1,0,0,1-1-1V41h1a2.97,2.97,0,0,0,.974-.176c.005.059.026.116.026.176v8a1,1,0,0,0,1.243.97l3.86-.965A1,1,0,0,1,60,50,1.773,1.773,0,0,1,58.786,51.684Z"/></svg>
