<?xml version="1.0"?>
<svg xmlns="http://www.w3.org/2000/svg" data-name="&#x421;&#x43B;&#x43E;&#x439; 1" id="&#x421;&#x43B;&#x43E;&#x439;_1" viewBox="0 0 2038.53 2009.56"><defs><style>.cls-1,.cls-2,.cls-3,.cls-5{fill:#fff;}.cls-1,.cls-3,.cls-4,.cls-5{stroke:#000;}.cls-1{stroke-miterlimit:10;}.cls-1,.cls-3,.cls-4{stroke-width:38px;}.cls-3,.cls-4,.cls-5{stroke-linecap:round;stroke-linejoin:round;}.cls-4{fill:none;}.cls-5{stroke-width:39.06px;}</style></defs><title/><rect class="cls-1" height="355.64" width="297.65" x="699.1" y="1554.94"/><path class="cls-2" d="M2326.37,2381h-1496A80.41,80.41,0,0,1,750,2300.59V1429.43A80.41,80.41,0,0,1,830.41,1349h1496a80.41,80.41,0,0,1,80.41,80.41v871.16A80.41,80.41,0,0,1,2326.37,2381Z" transform="translate(-730.47 -745.22)"/><path class="cls-2" d="M750,2241.55v64.8c0,41.23,36,74.64,80.41,74.64h1496c44.41,0,80.41-33.42,80.41-74.64v-64.8Z" transform="translate(-730.47 -745.22)"/><rect class="cls-2" height="159.98" rx="18.13" ry="18.13" width="951.12" x="372.36" y="1830.58"/><line class="cls-3" x1="699.1" x2="699.1" y1="1830.58" y2="1635.78"/><line class="cls-3" x1="996.75" x2="996.75" y1="1638.68" y2="1830.58"/><path class="cls-3" d="M1838.92,2575.8H1121a18.13,18.13,0,0,0-18.13,18.13v123.71a18.13,18.13,0,0,0,18.13,18.13h752" transform="translate(-730.47 -745.22)"/><path class="cls-4" d="M1838.91,2381H830.41A80.41,80.41,0,0,1,750,2300.59V1429.43A80.41,80.41,0,0,1,830.41,1349h499.65" transform="translate(-730.47 -745.22)"/><path class="cls-3" d="M1873,1349h453.4a80.41,80.41,0,0,1,80.41,80.41" transform="translate(-730.47 -745.22)"/><path class="cls-2" d="M2500.52,923.27l-86.41,36a108,108,0,0,0-105.16-83.65h-173.1a107.94,107.94,0,0,0-107.94,107.94v72a107.94,107.94,0,0,0,107.94,107.94h173.1a108,108,0,0,0,105.16-83.65l86.41,36Z" transform="translate(-730.47 -745.22)"/><path class="cls-3" d="M2500.52,923.27l-86.41,36a108,108,0,0,0-105.16-83.65h-173.1a107.94,107.94,0,0,0-107.94,107.94v72a107.94,107.94,0,0,0,107.94,107.94h173.1a108,108,0,0,0,105.16-83.65l86.41,36Z" transform="translate(-730.47 -745.22)"/><path class="cls-2" d="M1940.3,1495.48l-122.56-4.25a70.2,70.2,0,0,1-14.56-2.34L1624.5,1798.53l-172.41-316.31a69.87,69.87,0,0,1-30.91,8.93l-133.46,4.33c-135.84,0-246,110.12-246,246v494.91H2186.26V1741.45C2186.26,1605.6,2076.14,1495.48,1940.3,1495.48Z" transform="translate(-730.47 -745.22)"/><path class="cls-2" d="M1803.18,1488.89a70.17,70.17,0,0,1-51.39-57.68c-4.7-32.42-4.11-69.79,6.77-105H1480.22s10.22,47.45,7.61,98.25a70.42,70.42,0,0,1-35.74,57.79l172.41,316.31Z" transform="translate(-730.47 -745.22)"/><line class="cls-3" x1="544.37" x2="544.37" y1="1255.44" y2="1491.14"/><polygon class="cls-3" points="724.97 734.62 572.35 749.38 724.97 881.47 681.91 986.36 892.47 1131.43 892.47 1045.19 724.97 734.62"/><polygon class="cls-3" points="1061.53 734.62 1214.15 749.38 1061.53 881.47 1104.59 986.36 894.03 1131.43 894.03 1045.19 1061.53 734.62"/><line class="cls-3" x1="892.47" x2="892.47" y1="1075.72" y2="1491.14"/><path class="cls-3" d="M1326.5,1494.22,1300.42,1539a102.63,102.63,0,0,0-13.92,51.61V1657" transform="translate(-730.47 -745.22)"/><path class="cls-3" d="M1160.63,1849.66V1727.44A63.48,63.48,0,0,1,1224.1,1664h124.8a63.48,63.48,0,0,1,63.48,63.48v114.06" transform="translate(-730.47 -745.22)"/><circle class="cls-3" cx="434.04" cy="1144.87" r="39.06"/><circle class="cls-3" cx="676.47" cy="1144.87" r="42.97"/><path class="cls-3" d="M1853.26,1081.1c0,158-151.38,337.8-231.81,337.8S1381,1247.73,1381,1089.72s160-243,240.42-243S1853.26,923.09,1853.26,1081.1Z" transform="translate(-730.47 -745.22)"/><path class="cls-3" d="M1814.16,811.11c-35.53-26.5-88.76-46.27-195.68-46.71-138-.56-241.82.36-241.82.36s-64,266,0,363.35c0,0,6.63,13.18,8.73,22.41,55.23-96.57,28.47-114.61,88.6-180.92,28.23-31.13,269.5-37,294.59-3.25,34.49,46.34,35.35,111.18,95.25,125.3.33-5.81-.3-11.63.5-17.28C1880.89,957.56,1889.64,867.41,1814.16,811.11Z" transform="translate(-730.47 -745.22)"/><path class="cls-4" d="M1480.22,1326.18s10.22,47.45,7.61,98.25a70.42,70.42,0,0,1-35.74,57.79l172.41,316.31,178.68-309.64a70.17,70.17,0,0,1-51.39-57.68c-4.7-32.42-4.11-69.79,6.77-105" transform="translate(-730.47 -745.22)"/><path class="cls-4" d="M2186.26,2236.36V1741.45c0-135.84-110.12-246-246-246l-122.56-4.25a70.2,70.2,0,0,1-14.56-2.34L1624.5,1798.53l-172.41-316.31a69.87,69.87,0,0,1-30.91,8.93l-133.46,4.33c-135.84,0-246,110.12-246,246v494.91" transform="translate(-730.47 -745.22)"/><path class="cls-1" d="M2689.1,2735.78H2035.33a60.9,60.9,0,0,1-60.9-60.9V1503.6a60.9,60.9,0,0,1,60.9-60.9H2689.1a60.9,60.9,0,0,1,60.9,60.9V2674.88A60.9,60.9,0,0,1,2689.1,2735.78Z" transform="translate(-730.47 -745.22)"/><path class="cls-2" d="M2435,1579.37c0-6.9,29.61-26.79,25.92-32.77-11.06-17.93-68.59-17.18-98.75-17.18-28.39,0-92.56,2.16-104.58,18.41-5,6.78,31.75,23.42,31.75,31.53,0,27.58,32.61,49.94,72.83,49.94S2435,1606.95,2435,1579.37Z" transform="translate(-730.47 -745.22)"/><path class="cls-2" d="M1974.43,2622v52.87a60.9,60.9,0,0,0,60.9,60.9H2689.1a60.9,60.9,0,0,0,60.9-60.9V2622Z" transform="translate(-730.47 -745.22)"/><path class="cls-2" d="M2750,1553.87V1501a60.9,60.9,0,0,0-60.9-60.9H2035.33a60.9,60.9,0,0,0-60.9,60.9v52.87Z" transform="translate(-730.47 -745.22)"/><circle class="cls-2" cx="1631.74" cy="818.98" r="17.59"/><path class="cls-3" d="M1974.43,2348.16v325.42a60.9,60.9,0,0,0,60.9,60.9H2689.1a60.9,60.9,0,0,0,60.9-60.9V1502.3a60.9,60.9,0,0,0-60.9-60.9H2035.33a60.9,60.9,0,0,0-60.9,60.9v845.86Z" transform="translate(-730.47 -745.22)"/><line class="cls-3" x1="1243.96" x2="2019.53" y1="1875.49" y2="1875.49"/><path class="cls-3" d="M1974.43,1562.9h278.24a48.16,48.16,0,0,1,44.1,28.73,71.48,71.48,0,0,0,130.88,0,48.16,48.16,0,0,1,44.1-28.73H2750" transform="translate(-730.47 -745.22)"/><path class="cls-1" d="M2600.33,2236.26l-2.08-112.85c-1.15-23.77-3.09-48.21-6.47-73.59-23.11-173.38-98.09-234.91-230.83-234.91s-207.72,61.53-230.83,234.91c-17.38,130.37,3.23,227.34-25.53,342.46h518.58C2609.21,2336.42,2601,2291.61,2600.33,2236.26Z" transform="translate(-730.47 -745.22)"/><path class="cls-1" d="M2418.8,2269.61c30.07-29.42,99.31-142.79,96.28-275.43-55.35-16.42-91.18-34.66-125.43-67.1l-14.18-8.13c-4.3,5.79-28.32,31.46-28.32,31.46-34.25,32.44-83.93,64.38-139.28,80.79,3.61,118.73,65.17,210.61,94.65,238.4h-1.42c0,59.2-6.2,89.58-15.36,125.44h152.95c-11.45-27-17.9-66.24-17.9-125.44Z" transform="translate(-730.47 -745.22)"/><path class="cls-1" d="M2639.38,2440c-14.75-84-161-107.14-214.23-107.14,0,0,7.63,51.32-62.94,51.32s-65.46-51.32-65.46-51.32c-53.26,0-197,23.12-211.7,107.14s-26.93,176.67-26.93,176.67h608.19S2654.13,2524,2639.38,2440Z" transform="translate(-730.47 -745.22)"/><path class="cls-3" d="M2301.11,2271.41c0,23.55-2.53,45-4.36,61.44" transform="translate(-730.47 -745.22)"/><path class="cls-3" d="M2360.95,2298.28c-12.95,0-27-.6-54.59-23.45s-94.7-117.66-98.48-241.81c93.23-27.65,170.38-99.34,184.8-143.3" transform="translate(-730.47 -745.22)"/><path class="cls-3" d="M2360.37,2298.28c12.95,0,27-.6,54.59-23.45s94.7-117.66,98.48-241.81c.06-12.35.62-27.61-.12-39.65" transform="translate(-730.47 -745.22)"/><path class="cls-3" d="M2378.25,1916.9c32.8,37.4,83.08,66.91,135.06,74.41" transform="translate(-730.47 -745.22)"/><path class="cls-3" d="M2420.79,2271.41c0,24.44,2.18,43.43,4.36,61.44" transform="translate(-730.47 -745.22)"/><path class="cls-3" d="M2425.15,2334.66c0,20.77-17.46,51.32-62.94,51.32s-63.61-25.66-65.46-51.32" transform="translate(-730.47 -745.22)"/><line class="cls-3" x1="1476.54" x2="1483.51" y1="1873.25" y2="1808.2"/><line class="cls-3" x1="1786.95" x2="1779.98" y1="1873.25" y2="1808.2"/><path class="cls-4" d="M2623.16,2392.28c-14-55.86-22.15-100.67-22.83-156l-2.08-112.85c-1.15-23.77-3.09-48.21-6.47-73.59-23.11-173.38-98.09-234.91-230.83-234.91s-207.72,61.53-230.83,234.91c-17.38,130.37,3.23,227.34-25.53,342.46" transform="translate(-730.47 -745.22)"/><path class="cls-4" d="M2639.38,2440c-14.75-84-161-107.14-214.23-107.14,0,0,7.63,51.32-62.94,51.32s-65.46-51.32-65.46-51.32c-53.26,0-197,23.12-211.7,107.14s-26.93,176.67-26.93,176.67h608.19S2654.13,2524,2639.38,2440Z" transform="translate(-730.47 -745.22)"/><line class="cls-5" x1="19.53" x2="1116.31" y1="1496.34" y2="1496.34"/></svg>
