<?xml version="1.0" encoding="UTF-8"?>
<svg xmlns="http://www.w3.org/2000/svg" xmlns:xlink="http://www.w3.org/1999/xlink" version="1.1" id="Capa_1" x="0px" y="0px" viewBox="0 0 512.002 512.002" style="enable-background:new 0 0 512.002 512.002;" xml:space="preserve" width="512" height="512">
<g>
	<g>
		
			<circle style="fill-rule:evenodd;clip-rule:evenodd;fill:none;stroke:#000000;stroke-width:20.0001;stroke-linecap:round;stroke-linejoin:round;stroke-miterlimit:22.9256;" cx="120.002" cy="442.002" r="60"/>
		
			<ellipse transform="matrix(0.7071 -0.7071 0.7071 0.7071 -197.7283 406.6452)" style="fill-rule:evenodd;clip-rule:evenodd;fill:none;stroke:#000000;stroke-width:20.0001;stroke-linecap:round;stroke-linejoin:round;stroke-miterlimit:22.9256;" cx="392" cy="442.002" rx="60" ry="60"/>
		
			<path style="fill-rule:evenodd;clip-rule:evenodd;fill:none;stroke:#000000;stroke-width:20.0001;stroke-linecap:round;stroke-linejoin:round;stroke-miterlimit:22.9256;" d="&#10;&#9;&#9;&#9;M452.75,447.001h39.252c5.498,0,10-4.5,10-10v-25c0-5.5-4.502-10-10-10h-54.535 M344.534,402.001H165.468 M72.535,402.001H20&#10;&#9;&#9;&#9;c-5.498,0-10,4.5-10,10v25c0,5.499,4.501,10,10,10h37.252 M180.751,447.001H329.25"/>
		
			<path style="fill-rule:evenodd;clip-rule:evenodd;fill:none;stroke:#000000;stroke-width:20.0001;stroke-linecap:round;stroke-linejoin:round;stroke-miterlimit:22.9256;" d="&#10;&#9;&#9;&#9;M418.502,262.001h-62.499v60.001h95.998c21.996,0,40,18,40,40v35 M430.666,319.307l-9.664-77.306c-1.364-10.915-13.76-20-30-20&#10;&#9;&#9;&#9;H208.005 M118.005,222.001H40c-10.997,0-20,9.003-20,20v155.001"/>
		
			<line style="fill-rule:evenodd;clip-rule:evenodd;fill:none;stroke:#000000;stroke-width:20.0001;stroke-linecap:round;stroke-linejoin:round;stroke-miterlimit:22.9256;" x1="30" y1="362" x2="40" y2="362"/>
		
			<line style="fill-rule:evenodd;clip-rule:evenodd;fill:none;stroke:#000000;stroke-width:20.0001;stroke-linecap:round;stroke-linejoin:round;stroke-miterlimit:22.9256;" x1="472.001" y1="362" x2="482.001" y2="362"/>
		
			<rect x="65.001" y="262.001" style="fill-rule:evenodd;clip-rule:evenodd;fill:none;stroke:#000000;stroke-width:20.0001;stroke-linecap:round;stroke-linejoin:round;stroke-miterlimit:22.9256;" width="196" height="60.001"/>
		
			<line style="fill-rule:evenodd;clip-rule:evenodd;fill:none;stroke:#000000;stroke-width:20.0001;stroke-linecap:round;stroke-linejoin:round;stroke-miterlimit:22.9256;" x1="163.001" y1="265.446" x2="163.001" y2="318.557"/>
		
			<line style="fill-rule:evenodd;clip-rule:evenodd;fill:none;stroke:#000000;stroke-width:29.9999;stroke-linecap:round;stroke-linejoin:round;stroke-miterlimit:22.9256;" x1="391.996" y1="442.002" x2="392.004" y2="442.002"/>
		
			<line style="fill-rule:evenodd;clip-rule:evenodd;fill:none;stroke:#000000;stroke-width:29.9999;stroke-linecap:round;stroke-linejoin:round;stroke-miterlimit:22.9256;" x1="119.998" y1="442.002" x2="120.005" y2="442.002"/>
		
			<line style="fill-rule:evenodd;clip-rule:evenodd;fill:none;stroke:#000000;stroke-width:20.0001;stroke-linecap:round;stroke-linejoin:round;stroke-miterlimit:22.9256;" x1="306.002" y1="227.001" x2="306.002" y2="397.001"/>
		
			<path style="fill-rule:evenodd;clip-rule:evenodd;fill:none;stroke:#000000;stroke-width:20.0001;stroke-linecap:round;stroke-linejoin:round;stroke-miterlimit:22.9256;" d="&#10;&#9;&#9;&#9;M227.348,102.169c9.182-35.198,57.262-9.652,32.694,17.648c-10.512,11.681-29.045,31.583-32.694,45.188h40"/>
		
			<path style="fill-rule:evenodd;clip-rule:evenodd;fill:none;stroke:#000000;stroke-width:20.0001;stroke-linecap:round;stroke-linejoin:round;stroke-miterlimit:22.9256;" d="&#10;&#9;&#9;&#9;M332.355,130.002h-35.006l4.995-44.997 M337.35,85.005v80"/>
		
			<path style="fill-rule:evenodd;clip-rule:evenodd;fill:none;stroke:#000000;stroke-width:20.0001;stroke-linecap:round;stroke-linejoin:round;stroke-miterlimit:22.9256;" d="&#10;&#9;&#9;&#9;M69.498,173.06C95.27,76.88,182.428,10,282.002,10c121.503,0,220,98.497,220,220c0,19.226-2.52,38.369-7.497,56.94"/>
		
			<line style="fill-rule:evenodd;clip-rule:evenodd;fill:none;stroke:#000000;stroke-width:19.9998;stroke-linecap:round;stroke-linejoin:round;stroke-miterlimit:2.6131;" x1="163.001" y1="222.001" x2="163.009" y2="222.001"/>
	</g>
</g>















</svg>
