<?xml version="1.0"?>
<svg xmlns="http://www.w3.org/2000/svg" id="Layer_1" data-name="Layer 1" viewBox="0 0 512 512"><path d="M154.194,213.833H373.915V41.575a18.506,18.506,0,0,0-18.52-18.44l-201.148.079ZM129.219,465.724l46.114-8.413a33.539,33.539,0,0,1,11.72-.079l129.981,22.382c2.063.106,7.751-1.244,9.921-2.011l131.409-49.182c7.3-2.725,16.667-9.524,13.7-17.461-.793-2.117-5.926-9.049-7.514-11.351-7.513-10.741-29.366-10.053-55.108-4.6a6,6,0,0,1-3.387.741c-29.446,6.614-63.283,18.916-86.38,27.329-5.688,2.09-10.741,3.916-15.107,5.45a6.044,6.044,0,0,1-3.28.186v.026L176.867,401.356a6.064,6.064,0,0,1,2.566-11.853l94.53,20.8a20.336,20.336,0,0,0,13.386-3.81,19.865,19.865,0,0,0,7.885-11.932h0A19.933,19.933,0,0,0,280,370.851v.027l-91.117-20.054c-7.222-1.587-50.558,9-74.1,14.736-2.751.662-5.239,1.27-7.408,1.8Zm48.23,3.493-47.754,8.7A19.816,19.816,0,0,1,114.8,492.26l-37.118,8.255A19.891,19.891,0,0,1,54.03,485.434c-7.884-39.5-18.281-78.946-26.324-118.445a19.89,19.89,0,0,1,15.08-23.679l37.092-8.228a19.879,19.879,0,0,1,23.678,15.08l1.191,5.371c2.09-.5,4.5-1.085,7.17-1.746,24.525-5.979,69.66-16.985,79.528-14.815l91.116,20.053h0a32.266,32.266,0,0,1,23.07,19.763L385.053,328.6c16.482-10.4,38.335-3.625,47.78,12.963a34.967,34.967,0,0,1-2.91,38.733c20.213-1.641,36.775,1.269,44.526,12.407l6.27,8.969c8.175,11.72,3.149,25-8.333,33.018a44.327,44.327,0,0,1-9.789,5.08l-131.41,49.155c-3.28,1.3-12.355,3.308-15.529,2.752L185.016,469.19a19.676,19.676,0,0,0-7.567.027Zm138.1-57.517c23.467-8.545,57.331-20.874,88.179-27.382l10-5.741h0c17.858-10.371,14.075-36.457-5.424-41.96a20.789,20.789,0,0,0-16.8,2.222l-83.734,52.886a31.494,31.494,0,0,1-.715,5.4h0a31.986,31.986,0,0,1-11.138,18.017l6.323,1.375c3.783-1.349,8.308-2.989,13.308-4.815ZM82.5,346.882l-37.489,8.334c-3.571.767-6.376,5.185-5.556,8.757.08.317.133.608.186.926L65.724,482.286c1.243,5.053,4.788,7.329,9.894,6.3l36.563-8.123a7.771,7.771,0,0,0,5.9-9.259L91.757,352.755a7.788,7.788,0,0,0-9.26-5.873ZM355.474,11.017H374.1A29.961,29.961,0,0,1,404,40.887V294.578a29.991,29.991,0,0,1-27.171,29.736,30.4,30.4,0,0,1-21.351,8.731H154.406a12.321,12.321,0,0,1-8.731-3.625h0a12.225,12.225,0,0,1-3.624-8.73V23.372a12.4,12.4,0,0,1,12.355-12.355Zm30.055,297.106a17.721,17.721,0,0,0,6.323-13.545V40.887a17.814,17.814,0,0,0-11.085-16.43,30.319,30.319,0,0,1,5.265,17.118V302.488a30.367,30.367,0,0,1-.5,5.635Zm-11.614-82.147H154.194l.053,94.873v.026l201.227.053a18.507,18.507,0,0,0,18.441-18.44Zm-89.344,70.877a6.072,6.072,0,1,1,0-12.144h52.014a6.072,6.072,0,0,1,0,12.144Zm0-18.573a6.072,6.072,0,1,1,0-12.143h52.014a6.072,6.072,0,0,1,0,12.143Zm0-18.6a6.072,6.072,0,1,1,0-12.143h52.014a6.072,6.072,0,0,1,0,12.143ZM230.6,296.43h26.351V279.206H237.8L228.4,293.122Zm32.409,12.143h-83.47a6.086,6.086,0,0,1-6.085-6.085V241.9a6.08,6.08,0,0,1,6.085-6.059h83.47a6.058,6.058,0,0,1,6.059,6.059v60.585a6.064,6.064,0,0,1-6.059,6.085Zm-6.058-41.51V247.988H226.1l11.852,19.075Zm-29.579,5.926-6.111-9.815-6.138,9.868,6.059,9.128Zm-13.228-21.3-2.3-3.7H185.6v19.075h18.969Zm1.746,44.473L204.7,279.206H185.6V296.43h30.477a1.68,1.68,0,0,1-.185-.265ZM196.921,149.808a189.69,189.69,0,0,1,22.779-7.355,137.392,137.392,0,0,1-1.984-18.2H189.7a70.507,70.507,0,0,0,7.222,25.557Zm34.632-9.895a164.486,164.486,0,0,1,22.355-2.434V124.251H229.859a123.01,123.01,0,0,0,1.694,15.662Zm34.5-2.434a164.1,164.1,0,0,1,22.356,2.381,121.462,121.462,0,0,0,1.693-15.609H266.052Zm34.235,4.921a185.207,185.207,0,0,1,22.779,7.355,70.2,70.2,0,0,0,7.2-25.5H302.244a141.108,141.108,0,0,1-1.957,18.149Zm16.323,17.832a174.45,174.45,0,0,0-18.969-6.032c-2.937,10.82-7.382,21.588-13.44,30.239a70.848,70.848,0,0,0,32.409-24.207Zm-30.822-8.546a151.266,151.266,0,0,0-19.736-2.116V186.5c9.048-6.217,16.27-22.329,19.736-34.817Zm-31.88-2.116a156.685,156.685,0,0,0-19.736,2.143c3.466,12.487,10.688,28.573,19.736,34.79Zm-31.589,4.683a175.847,175.847,0,0,0-18.942,6.032,70.8,70.8,0,0,0,32.382,24.154c-6.058-8.651-10.5-19.392-13.44-30.186ZM204.17,75.042a165.625,165.625,0,0,0,18.493,5.794c2.937-10.345,7.276-20.61,13.1-28.943A70.656,70.656,0,0,0,204.17,75.042Zm30.372,8.334a150.291,150.291,0,0,0,19.366,2.063V49.829c-8.757,6.006-15.847,21.377-19.366,33.547Zm31.51,2.063A145.744,145.744,0,0,0,285.418,83.4c-3.519-12.17-10.609-27.567-19.366-33.573Zm31.245-4.55A172.238,172.238,0,0,0,315.843,75.1a70.861,70.861,0,0,0-31.642-23.2c5.82,8.36,10.186,18.652,13.1,29Zm32.356-7.223a5.731,5.731,0,0,1,1.3,2.09,82.906,82.906,0,1,1-1.3-2.09Zm-7.169,11.826a182.072,182.072,0,0,1-22.436,7.17,141.333,141.333,0,0,1,2.2,19.446h28.017a70.1,70.1,0,0,0-7.777-26.616ZM288.2,95.2a170,170,0,0,1-22.144,2.354v14.552H290.1A126.063,126.063,0,0,0,288.2,95.2ZM253.908,97.53a165.671,165.671,0,0,1-22.144-2.381,127.374,127.374,0,0,0-1.905,16.959h24.049Zm-34-4.921a178.916,178.916,0,0,1-22.409-7.2,70.061,70.061,0,0,0-7.8,26.7h28.017a142.578,142.578,0,0,1,2.2-19.5Z"/></svg>
